<svg xmlns="http://www.w3.org/2000/svg" xmlns:xlink="http://www.w3.org/1999/xlink" viewBox="0 0 1188.07 352.87"><defs><style>.cls-1{isolation:isolate;}.cls-2{fill:url(#radial-gradient);}.cls-3{fill:#f7ae39;}.cls-4,.cls-5{fill:#ff8939;mix-blend-mode:multiply;}.cls-4{opacity:0.2;}.cls-5{opacity:0.5;}.cls-6{fill:#f9d438;}</style><radialGradient id="radial-gradient" cx="620.73" cy="242.52" r="385.1" gradientTransform="translate(1348.3 -378.21) rotate(90) scale(1 3)" gradientUnits="userSpaceOnUse"><stop offset="0" stop-color="#f9d438"/><stop offset="0.11" stop-color="#f4cc37"/><stop offset="0.27" stop-color="#e5b633"/><stop offset="0.48" stop-color="#cc922d"/><stop offset="0.72" stop-color="#aa6025"/><stop offset="0.97" stop-color="#7f201a"/><stop offset="1" stop-color="#7b1a19"/></radialGradient></defs><g class="cls-1"><g id="Layer_2" data-name="Layer 2"><g id="Layer_4" data-name="Layer 4"><path class="cls-2" d="M1187.28,270.79v82.08H.79v-58.5c167.68-98.31,381.55-157.24,614.52-157.24C829,137.13,1026.64,186.71,1187.28,270.79Z"/><path class="cls-3" d="M1139.77,111l-.27.09c-34.14,11.53-54,1.22-124.52-33.79-17.57-8.73-38.29-19-63.16-30.83C826.92-13,747.22-2.34,693.7,8.36h0C666,13.91,608.85,40.53,548.35,65c-39.67,16-80.81,31.19-116.09,38.87-14.77,3.22-28.52,5.13-40.7,5.25-35.76.36-58.67-2.84-78.5-7.73-27.66-6.82-49.34-16.93-91.6-25.25-49.55-9.74-108.77-1.74-158,28.18h0a198.83,198.83,0,0,0-60.2,56.28s-.14,9.68-.31,24.09c-.07,6.14-.15,13.15-.22,20.64-.43,43.78-.76,103.93.68,103.88C420.5,99.81,677.55,164.36,812.65,170.14c136.8,5.85,375.42,110.62,375.42,110.62V82.11S1182.59,96.39,1139.77,111ZM82.31,147.45c-19,11-38.14,13.33-42.78,5.28s7-23.45,26-34.41S103.64,105,108.29,113,101.3,136.49,82.31,147.45ZM142.39,114c-12.27,0-22.22-6.25-22.22-14s10-14,22.22-14,22.21,6.25,22.21,14S154.66,114,142.39,114Zm76.9,20.71c-19.45,1.76-36.16-7.3-37.32-20.22s13.66-24.82,33.11-26.57,36.16,7.3,37.32,20.22S238.74,133,219.29,134.73ZM688.88,66.16c-1,9-15.22,14.78-31.86,13s-29.35-10.48-28.39-19.44,15.22-14.78,31.86-13S689.84,57.19,688.88,66.16Zm60.5-1.88c-24.15,4-45.62-4.12-47.94-18.14S716.81,17.5,741,13.5s45.63,4.12,47.95,18.14S773.54,60.28,749.38,64.28Zm150-12c-2.73,10.34-20.75,14.55-40.24,9.4S826,43.92,828.74,33.58,849.49,19,869,24.18,902.07,41.89,899.33,52.24Z"/><path class="cls-4" d="M693.69,8.37C658.92,25.59,608.53,60.31,518,97.8,435,132.14,388,122.3,375,109c76.77-.59,133.72-28,173.39-44C608.86,40.53,684.92,7.19,693.69,8.37Z"/><path class="cls-4" d="M63.43,104.34c-15,14.77-37.63,39.41-60.51,80.37.17-14.41.31-24.09.31-24.09C19.83,136.85,43.75,115.52,63.43,104.34Z"/><path class="cls-5" d="M749.07,64.33c-12.44,2.06-24.17.91-32.94-2.62a67.57,67.57,0,0,0,26.66.62c24.16-4,41.86-18.61,39.53-32.63-1.12-6.8-6.75-12.21-15-15.53,11.61,2.82,19.89,9.11,21.28,17.52C790.93,45.71,773.23,60.33,749.07,64.33Z"/><path class="cls-5" d="M899,52.28c-2.74,10.35-20.76,14.56-40.25,9.41-2.2-.59-4.33-1.26-6.37-2l.09,0c19.49,5.15,37.51,1,40.25-9.4,2.42-9.18-8-20.1-24-26C888.2,29.41,901.75,42,899,52.28Z"/><path class="cls-5" d="M688.57,66.21c-1,9-15.22,14.78-31.86,13a52.13,52.13,0,0,1-13.6-3.27,56.78,56.78,0,0,0,7.31,1.28c16.64,1.77,30.91-4,31.87-13C683,57.93,676.91,51.77,667.5,48,680.38,51.21,689.38,58.62,688.57,66.21Z"/><path class="cls-5" d="M82,147.5c-16.49,9.52-33.1,12.56-40.23,7.92,8.46.91,21.24-2.58,33.95-9.91,19-11,30.61-26.37,26-34.42a7.77,7.77,0,0,0-2.56-2.64c4.18.45,7.3,2,8.84,4.63C112.61,121.13,101,136.54,82,147.5Z"/><path class="cls-5" d="M219,134.78a47.48,47.48,0,0,1-22.15-3,50.24,50.24,0,0,0,15.87,1c19.45-1.75,34.27-13.65,33.11-26.57-.68-7.48-6.56-13.67-15.18-17.21,12,2.78,20.63,10,21.46,19.2C253.25,121.14,238.43,133,219,134.78Z"/><path class="cls-5" d="M164.28,100.11c0,7.71-9.94,14-22.21,14a31.65,31.65,0,0,1-13-2.65,34.09,34.09,0,0,0,6.74.66c12.27,0,22.21-6.25,22.21-14,0-4.66-3.62-8.78-9.2-11.32C157.78,88.58,164.28,93.87,164.28,100.11Z"/><path class="cls-6" d="M1170.24,139.79a89.37,89.37,0,0,1,17.83,13.36v-16a136.56,136.56,0,0,0-22.68-15.64c-3.15-1.72-12.45-5.58-25.89-10.44-29-10.48-77.23-25.58-124.52-33.79C996.11,74,977.4,71.8,960.11,71.45h-1c-1.69,0-3.36,0-5,0H952c-81.08,1.19-165.73,45.31-255.26,41.73a210.86,210.86,0,0,1-61.86-11.8c-6.23-2.15-12.27-4.5-18.19-7l-.3-.12c-22.59-9.45-43.59-20.64-68-29.23a234.8,234.8,0,0,0-71.91-13.57c-27.91-1-54.49,3.67-79.52,11.49h0Q387,66,377.44,69.76l-.13,0a397.27,397.27,0,0,0-36.73,16.55l-.06,0c-9.47,4.83-18.63,9.89-27.46,15-25.47,14.79-48.21,30.09-67.8,41.63l-1.89,1.11S202.05,177.53,108,174c-58.42-2.22-89.87,16.73-105.31,31.4-.09,9.12-.18,19-.24,28.8a20.21,20.21,0,0,1,9.88-5.81c8.08-2.2,15.75.14,17.14,5.22s-4.05,11-12.13,13.18c-6,1.63-11.82.75-14.95-1.9-.17,33.59,0,64.43,1,64.39C420.5,99.81,675.76,167,812.65,170.14c141.93,3.24,375.42,110.62,375.42,110.62V187.17c-10,1.32-24.63-2.4-39-10.7-21.86-12.62-34.83-31.06-29-41.19S1148.38,127.17,1170.24,139.79Zm-1103,79.79c-18.26,5-34.77,2.69-36.89-5.1s11-18.12,29.22-23.08,34.77-2.68,36.89,5.1S85.52,214.62,67.27,219.58Zm349.09-100c-29.15,6.63-55,2.27-57.73-9.75S377.31,82.67,406.46,76s55-2.27,57.73,9.75S445.51,112.94,416.36,119.57Zm58.76-48.16c0-6.47,8.34-11.72,18.63-11.72s18.63,5.25,18.63,11.72S504,83.12,493.75,83.12,475.12,77.88,475.12,71.41Zm61.6,43.38C520.1,114.37,506.78,108,507,100.6S520.78,87.52,537.4,88s29.94,6.77,29.75,14.18S553.34,115.21,536.72,114.79Zm400.79,1.26c-.47-10,19-19,43.44-20.16s44.67,6,45.14,16-19,19-43.43,20.17S938,126,937.51,116.05Zm97.22,38.31c-11.29,1.22-20.89-2-21.46-7.23s8.13-10.43,19.41-11.65,20.89,2,21.46,7.23S1046,153.14,1034.73,154.36Zm62.15-26c-2.93,7.91-15.74,10.44-28.62,5.67s-21-15.05-18-23,15.75-10.44,28.63-5.66S1099.81,120.45,1096.88,128.35Z"/><path class="cls-4" d="M396.92,62.94c-53.64,29.68-93.88,57.57-153.5,97.74C197.21,191.81,108,174,108,174c94,3.58,135.36-29.8,135.36-29.8,20-11.67,43.88-26.67,69.69-42.74C342.94,82.81,393.66,62.48,396.92,62.94Z"/><path class="cls-4" d="M960.12,71.45C895,82.94,865.92,97.6,774.35,120.94c-40.64,10.36-102.42-6.1-139.49-19.59a210.92,210.92,0,0,0,61.86,11.8C786.25,116.73,870.9,72.61,952,71.42,954.65,71.38,960.12,71.45,960.12,71.45Z"/><path class="cls-5" d="M2.46,234.15c0,3.57,0,7.14-.06,10.68a6.65,6.65,0,0,1-2.19-3.31C-.45,239.09.45,236.46,2.46,234.15Z"/><path class="cls-5" d="M416.05,119.62c-19.61,4.46-37.72,3.95-48.32-.53,10.76,2.51,25.89,2.21,42-1.47,29.15-6.63,50.56-21.75,47.82-33.77-.89-3.94-4.26-7-9.42-9.23,8.67,2,14.48,5.86,15.7,11.22C466.61,97.86,445.2,113,416.05,119.62Z"/><path class="cls-5" d="M982.34,132.07c-13,.61-24.73-1.11-33-4.34a92.91,92.91,0,0,0,26.72,2.34c24.46-1.16,43.91-10.19,43.43-20.16-.22-4.69-4.8-8.76-12.15-11.63,10.93,2.78,18.16,7.71,18.44,13.62C1026.25,121.88,1006.81,130.9,982.34,132.07Z"/><path class="cls-5" d="M1096.57,128.4c-2.93,7.9-15.75,10.44-28.63,5.66-.42-.15-.84-.31-1.25-.49,11,2.52,21-.29,23.59-7.16,2.84-7.65-4.61-17.51-16.76-22.46a37.33,37.33,0,0,1,5,1.5C1091.43,110.22,1099.5,120.5,1096.57,128.4Z"/><path class="cls-5" d="M1034.41,154.41c-7,.75-13.29-.19-17.24-2.25a39.89,39.89,0,0,0,11,.25c11.28-1.22,20-6.44,19.41-11.65-.21-2-1.75-3.7-4.2-5,6,1,10.12,3.58,10.48,7C1054.39,148,1045.7,153.19,1034.41,154.41Z"/><path class="cls-5" d="M1187.76,153.19v34c-6.55.86-15.09-.43-24.24-3.77,6.74,1.83,12.93,2.43,18,1.78v-34a89.71,89.71,0,0,0-17.84-13.35,94,94,0,0,0-14.77-6.94,93.81,93.81,0,0,1,38.89,22.28Z"/><path class="cls-5" d="M67,219.64c-13.26,3.6-25.6,3.38-32.17,0,6.83,1.23,16.11.65,25.89-2,18.26-5,31.34-15.3,29.22-23.08-.58-2.13-2.24-3.85-4.71-5.12,5.92,1.07,10,3.5,11,7.11C98.29,204.34,85.21,214.67,67,219.64Z"/><path class="cls-5" d="M512.07,71.45c0,6.47-8.35,11.72-18.64,11.72a26.28,26.28,0,0,1-11.38-2.44,29,29,0,0,0,5.1.44c10.29,0,18.63-5.24,18.63-11.71,0-3.77-2.84-7.13-7.25-9.27C506.34,61.58,512.07,66.1,512.07,71.45Z"/><path class="cls-5" d="M566.83,102.18c-.18,7.41-13.81,13.08-30.43,12.66a56.2,56.2,0,0,1-19.31-3.66,62.55,62.55,0,0,0,13,1.66c16.62.42,30.24-5.24,30.43-12.65.11-4.12-4-7.91-10.44-10.54C560.13,92.08,567,96.85,566.83,102.18Z"/><path class="cls-5" d="M17,246.78c-5.49,1.5-10.8.9-14.07-1.24a22.19,22.19,0,0,0,7.79-.75c8.08-2.2,13.51-8.1,12.13-13.18a7,7,0,0,0-3.06-4c4.74.43,8.43,2.59,9.34,6C30.54,238.69,25.11,244.59,17,246.78Z"/></g></g></g></svg>