<svg xmlns="http://www.w3.org/2000/svg" xmlns:xlink="http://www.w3.org/1999/xlink" viewBox="0 0 1186.49 511.79"><defs><style>.cls-1{isolation:isolate;}.cls-2{fill:url(#radial-gradient);}.cls-3,.cls-4,.cls-5{fill:#df4d73;}.cls-4{opacity:0.2;mix-blend-mode:multiply;}.cls-5{opacity:0.1;mix-blend-mode:screen;}</style><radialGradient id="radial-gradient" cx="619.94" cy="401.44" r="385.1" gradientTransform="translate(1824.26 -218.5) rotate(90) scale(1 3)" gradientUnits="userSpaceOnUse"><stop offset="0" stop-color="#e54e76"/><stop offset="0.13" stop-color="#df4b71"/><stop offset="0.31" stop-color="#cd4463"/><stop offset="0.51" stop-color="#b0384c"/><stop offset="0.74" stop-color="#87272c"/><stop offset="0.98" stop-color="#541104"/><stop offset="1" stop-color="#4f0f00"/></radialGradient></defs><g class="cls-1"><g id="Layer_2" data-name="Layer 2"><g id="Layer_4" data-name="Layer 4"><path class="cls-2" d="M1186.49,429.71v82.08H0v-58.5C167.68,355,381.55,296.05,614.52,296.05,828.21,296.05,1025.84,345.63,1186.49,429.71Z"/><path class="cls-3" d="M202.51,154.67a22.15,22.15,0,0,1-1.76,11.18,22.19,22.19,0,0,1-6.25,9.43,22.23,22.23,0,0,1-9.4,6.92,27.56,27.56,0,0,1-3.62,1.31c.12.63.23,1.26.35,1.89,5.74,31.27,8.89,63.11,17.24,93.85a187.25,187.25,0,0,0,16.29,38.35c.15.24.31.48.47.72a22.88,22.88,0,0,1,4.5,7.8c.6,1,1.15,2,1.65,3a22.24,22.24,0,0,1,2.27,11.45,22.13,22.13,0,0,1-1.76,11.18,30.76,30.76,0,0,1-15.65,16.36L179.2,381.07,80.65,427.23c-7.2,3.37-15.29,3-22.63.51-6.72-2.29-11.84-7.57-15.27-13.6a22.15,22.15,0,0,1-3.22-7.92,21.94,21.94,0,0,1-1.22-11.48l.3-12.94q.87-37.77,1.75-75.53a33.47,33.47,0,0,1-13.65-1.79c-7.47-2.54-13-8.79-16.36-15.65a22.33,22.33,0,0,1-2.27-11.46A22.22,22.22,0,0,1,9.84,266.2a22.16,22.16,0,0,1,6.25-9.44,22.29,22.29,0,0,1,9.4-6.92,29.18,29.18,0,0,1,16.17-2.08q.3-14.81.61-29.61c0-.74,0-1.48,0-2.22a33.48,33.48,0,0,1-10-1.53c-.4-.11-.79-.24-1.18-.37a25.63,25.63,0,0,1-10.22-6.72l0,0a33.65,33.65,0,0,1-3.08-3.76,38.75,38.75,0,0,1-3-5.14,22.24,22.24,0,0,1-2.27-11.45,22.13,22.13,0,0,1,1.76-11.18,22.16,22.16,0,0,1,6.25-9.44,22.23,22.23,0,0,1,9.4-6.92,28.75,28.75,0,0,1,14.73-2.25c.19-1.42.41-2.83.66-4.24q.7-3.85,1.63-7.7l-.12,0c-7.46-2.54-13-8.78-16.36-15.65a22.21,22.21,0,0,1-2.26-11.45,22.15,22.15,0,0,1,1.76-11.18,22.11,22.11,0,0,1,6.24-9.43,21.79,21.79,0,0,1,5.32-4.83,23.26,23.26,0,0,1,3.94-2l.14-.06.1,0c7.31-3.19,15.13-3,22.54-.46a26.85,26.85,0,0,1,12.49,9.39c.74-.37,1.49-.73,2.24-1a74.41,74.41,0,0,1,11.66-3.49,26.41,26.41,0,0,1,4.6-.65,85.49,85.49,0,0,1,11.87-.06,35.05,35.05,0,0,1,4.66.75,99.22,99.22,0,0,1,11.23,3,74.3,74.3,0,0,1,14.88,7.67c4.65,3,8.68,7,12.55,10.89a50.58,50.58,0,0,1,7,9c.43.69.86,1.38,1.3,2.07a31.08,31.08,0,0,1,21.22.08c7.46,2.53,13,8.78,16.35,15.64A22.27,22.27,0,0,1,202.51,154.67Z"/><path class="cls-4" d="M52.55,400a22.15,22.15,0,0,0,3.22,7.92c3.43,6,8.55,11.31,15.27,13.6a31.67,31.67,0,0,0,18.79.92l-9.37,4.39c-7.2,3.38-15.3,3-22.64.51C51.11,425,46,419.73,42.55,413.7a22.31,22.31,0,0,1-3.21-7.92,21.84,21.84,0,0,1-1.22-11.48q.15-6.46.29-12.94.89-37.59,1.75-75.17l-1,.06c-8,.64-15.35-2.14-21.54-7s-9.35-12.56-10.3-20.16A22.29,22.29,0,0,1,9,267.56a22.23,22.23,0,0,1,5.34-10,22.13,22.13,0,0,1,9-6.85,21.85,21.85,0,0,1,2.36-1.3c-.28.32-.56.65-.83,1a22.1,22.1,0,0,0-5.34,10A22.22,22.22,0,0,0,17.89,272c.95,7.59,4.08,15.3,10.29,20.15s13.55,7.62,21.54,7A22.65,22.65,0,0,0,58.51,297a22.13,22.13,0,0,1-5.16,4.32q-.85,37.14-1.72,74.26l-.3,12.94A22,22,0,0,0,52.55,400Z"/><path class="cls-4" d="M63.83,206.82a22.15,22.15,0,0,1-8.16,5.85l-.18.11c-.23,10.46-.62,25.75-.83,36.21a17.77,17.77,0,0,0-13-1.23c.19-9,.43-20.63.63-29.61h0c0-.74,0-1.48,0-2.22a33.48,33.48,0,0,1-10-1.53A34.2,34.2,0,0,1,23,209.14a24.29,24.29,0,0,1-2.08-1.83l0,0a24.08,24.08,0,0,1-3.08-3.76A33.75,33.75,0,0,1,12.68,189a22.29,22.29,0,0,1,1.63-11.56,22.23,22.23,0,0,1,5.34-10,22.13,22.13,0,0,1,9-6.85,21,21,0,0,1,2.36-1.3c-.29.32-.56.65-.83,1a22.2,22.2,0,0,0-5.35,10,22.27,22.27,0,0,0-1.62,11.56c.94,7.59,4.08,15.31,10.29,20.16S47.05,209.6,55,209A22.47,22.47,0,0,0,63.83,206.82Z"/><path class="cls-4" d="M78.53,138a22.13,22.13,0,0,1-8.16,5.84,22.36,22.36,0,0,1-11.16,3.45l-.79,0c-.46,2.15-2.79,11.15-3,12.48-3.45-1.37-6.79-3.47-10.82-2.66.19-1.42.41-2.83.66-4.24q.7-3.85,1.63-7.7l-.12,0c-7.46-2.54-13-8.78-16.36-15.65a22.21,22.21,0,0,1-2.26-11.45,22.15,22.15,0,0,1,1.76-11.18,22.11,22.11,0,0,1,6.24-9.43,21.79,21.79,0,0,1,5.32-4.83c.6-.32,1.22-.61,1.85-.88a23.64,23.64,0,0,1,2.09-1.16l.27-.13s0,0,0,0c-.27.31-.54.63-.81,1a22,22,0,0,0-5.33,10A22.2,22.2,0,0,0,37.9,113c1,7.6,4.09,15.31,10.3,20.16s13.55,7.62,21.54,7A22.65,22.65,0,0,0,78.53,138Z"/><path class="cls-4" d="M202.54,162.29a22.15,22.15,0,0,1-4.48,9,22.24,22.24,0,0,1-8.24,8.27c-6.76,4.3-14.56,5.29-22.3,3.92s-14.14-6.72-18.53-13a22.28,22.28,0,0,1-4-11,22.13,22.13,0,0,1,0-11.31,22.16,22.16,0,0,1,4.74-10.27,20.31,20.31,0,0,1,1.48-2.25c-.11.42-.19.84-.27,1.27a22.16,22.16,0,0,0-.05,11.32,22.28,22.28,0,0,0,4,11c4.4,6.27,10.78,11.61,18.54,13s15.53.38,22.29-3.92A22.53,22.53,0,0,0,202.54,162.29Z"/><path class="cls-5" d="M145.58,220.75c2.21-7.33,2.47-15.65-1.25-22.61s-9.3-12.44-16.86-15.09a22.22,22.22,0,0,0-11.6-1.37,22.14,22.14,0,0,0-11,2.62,22.23,22.23,0,0,0-8.92,6.95,22.33,22.33,0,0,0-6.17,9.91c-2.21,7.33-2.47,15.65,1.25,22.61s9.3,12.44,16.86,15.09a22.22,22.22,0,0,0,11.6,1.37,22.14,22.14,0,0,0,11-2.62,22.23,22.23,0,0,0,8.92-7A22.33,22.33,0,0,0,145.58,220.75Z"/><path class="cls-4" d="M144,225.14a22.06,22.06,0,0,1-6,8.08,22.27,22.27,0,0,1-9.54,6.74c-7.39,3.08-15.25,2.72-22.63,0s-12.79-9-16-16a22.31,22.31,0,0,1-2-11.5,26.57,26.57,0,0,1,8.42-20.45,21.41,21.41,0,0,1,1.84-2c-.17.39-.33.79-.49,1.21a22.17,22.17,0,0,0-2,11.14,22.27,22.27,0,0,0,2,11.49c3.26,6.93,8.63,13.29,16,16s15.24,3,22.64,0A22.58,22.58,0,0,0,144,225.14Z"/><path class="cls-5" d="M144.82,329.63c2.21-7.34,2.46-15.65-1.25-22.61s-9.31-12.44-16.87-15.1a22.29,22.29,0,0,0-11.59-1.37,22.3,22.3,0,0,0-11,2.62,22.27,22.27,0,0,0-8.92,7A22.21,22.21,0,0,0,89,310c-2.21,7.33-2.46,15.65,1.25,22.6s9.31,12.45,16.87,15.1a22.18,22.18,0,0,0,11.59,1.37,22.09,22.09,0,0,0,11-2.62,22.16,22.16,0,0,0,8.92-6.95A22.26,22.26,0,0,0,144.82,329.63Z"/><path class="cls-4" d="M143.25,334a21.92,21.92,0,0,1-5.94,8.08,22.27,22.27,0,0,1-9.54,6.74c-7.4,3.08-15.26,2.72-22.64,0s-12.78-9.05-16-16a22.39,22.39,0,0,1-2-11.5A26.66,26.66,0,0,1,95.48,301a24.62,24.62,0,0,1,1.84-2c-.17.4-.33.8-.48,1.21a22.3,22.3,0,0,0-2,11.14,22.3,22.3,0,0,0,2,11.5c3.25,6.93,8.62,13.29,16,16s15.24,3,22.64,0A22.49,22.49,0,0,0,143.25,334Z"/><path class="cls-3" d="M498.68,258.05c-1.63-5.41-3.19-10.88-5.64-16a104.27,104.27,0,0,0-8.63-14.21,50.58,50.58,0,0,0-5.86-7A86.52,86.52,0,0,0,466.1,210,79.18,79.18,0,0,0,452,202.51a82.12,82.12,0,0,0-15.68-4.19,44.7,44.7,0,0,0-9-.82c-5.4.06-11.06.09-16.4,1.21-2.55.54-5,1.19-7.4,1.94a26.29,26.29,0,0,0-9.25-10.88c-6.61-4.25-14.18-6.35-22.08-5a32.93,32.93,0,0,0-19.15,12.08,22.18,22.18,0,0,0-4.42,10.41,22.26,22.26,0,0,0-.58,11.66c1.63,7.49,5.45,14.88,12.07,19.15.56.37,1.14.71,1.72,1.05a41.17,41.17,0,0,0-2,5.83,101.74,101.74,0,0,0-3.16,15.64c-.57,5.79-.21,11.61,0,17.41q.21,5.12.89,10.19a203.17,203.17,0,0,0,4.06,20.57,22.31,22.31,0,0,0,4.44,10.8,26.62,26.62,0,0,0,18.05,12.77,22.26,22.26,0,0,0,11.66.58h0q.84-.09,1.68-.24L477,319A32.77,32.77,0,0,0,496.13,307a22.12,22.12,0,0,0,4.42-10.42,22,22,0,0,0,.85-10.15c.12-.69.22-1.38.29-2.08C501.68,275.42,501.27,266.6,498.68,258.05Z"/><path class="cls-4" d="M361.16,238.72l-.39-.24h0Z"/><path class="cls-4" d="M405.6,331.25l1.67-.24-9.69,1.66q-.84.15-1.68.24h0a33,33,0,0,1-22.07-5,22.17,22.17,0,0,1-7.64-8.35,22.31,22.31,0,0,1-4.44-10.8,203.17,203.17,0,0,1-4.06-20.57c-.45-3.39-.75-6.78-.89-10.19-.23-5.8-.59-11.62,0-17.41A102.7,102.7,0,0,1,359.89,245a44,44,0,0,1,1.94-5.81l0,0c-.23-.13-.47-.26-.69-.4l-.38-.25a34.57,34.57,0,0,1-7.83-7.41c-4.85-6.22-6-14.46-5.1-22.06a22.26,22.26,0,0,1,4.39-10.82,26.64,26.64,0,0,1,18-12.85,22.8,22.8,0,0,1,2.61-.68c-.36.24-.71.49-1,.76a22.11,22.11,0,0,0-7.6,8.39,22.22,22.22,0,0,0-4.39,10.82c-.92,7.6.25,15.84,5.09,22s11.3,10.67,19.21,12a22.39,22.39,0,0,0,9,.06,22,22,0,0,1-9.33,3.69,22.26,22.26,0,0,1-11.66.64c-.8-.14-1.59-.3-2.36-.5-.07.25-.14.49-.2.74a101.62,101.62,0,0,0-3.16,15.65c-.57,5.79-.21,11.6,0,17.41.13,3.41.44,6.8.89,10.19a202.44,202.44,0,0,0,4.06,20.56,22.31,22.31,0,0,0,4.44,10.8,26.56,26.56,0,0,0,18.05,12.77,22.16,22.16,0,0,0,11.66.58Z"/><path class="cls-4" d="M361.85,239.12l0,0-.67-.43C361.38,238.86,361.62,239,361.85,239.12Z"/><path class="cls-5" d="M463.29,276.1c3.92-6.58,6.18-14.58,4.27-22.23s-6-14.33-12.7-18.74a32.93,32.93,0,0,0-22.23-4.27,32.79,32.79,0,0,0-18.74,12.7c-3.93,6.57-6.19,14.58-4.27,22.23s6,14.33,12.69,18.74a32.94,32.94,0,0,0,22.24,4.27,32.88,32.88,0,0,0,18.74-12.7Z"/><path class="cls-4" d="M460.7,280a21.94,21.94,0,0,1-7.73,6.4,22.3,22.3,0,0,1-10.89,4.22c-7.92,1.19-15.46-1.06-22-5.45s-10.2-11.88-11.68-19.39a22.33,22.33,0,0,1,.82-11.65,26.63,26.63,0,0,1,13.13-17.79,22.85,22.85,0,0,1,2.26-1.46c-.26.34-.51.69-.76,1.06a22.13,22.13,0,0,0-4.63,10.32,22.22,22.22,0,0,0-.82,11.65c1.48,7.51,5.14,15,11.68,19.39s14.05,6.65,22,5.45A22.44,22.44,0,0,0,460.7,280Z"/><path class="cls-3" d="M1158.61,369.7a62.3,62.3,0,0,0,3.15-15.81c.7-3,1.24-6.07,1.71-9.09a57,57,0,0,0,.65-9.14,115.58,115.58,0,0,0-1.13-16.3,68.67,68.67,0,0,0-2-9c-.11-.35-.21-.7-.31-1,.58-.25,1.17-.52,1.74-.82a22.18,22.18,0,0,0,9-6.9,22.37,22.37,0,0,0,6.24-9.87c2.25-7.32,2.56-15.64-1.12-22.61s-9.22-12.51-16.77-15.2a29.49,29.49,0,0,0-29.25,5.44c-2.24-2.12-4.54-4.17-6.87-6.2a114.64,114.64,0,0,0-18.36-12.94,217.17,217.17,0,0,0-27.47-13.4q-3.37-1.35-6.78-2.58c2.23-7.3,2.52-15.57-1.14-22.52s-9.23-12.5-16.77-15.2a28.55,28.55,0,0,0-31.58,8,22.37,22.37,0,0,0-6.24,9.87,38.81,38.81,0,0,0-1.32,5.88c-3.06-.32-6.13-.53-9.21-.59-2.74-.06-5.5,0-8.25.1a24.06,24.06,0,0,0-2.47-7.68c-3.66-7-9.23-12.5-16.78-15.2a28.52,28.52,0,0,0-31.57,8,22.26,22.26,0,0,0-6.24,9.87c-2.25,7.32-2.56,15.63,1.11,22.61.09.16.17.32.26.47a66.27,66.27,0,0,0-10.19,8.79c-3.75,4-7.6,8-10.51,12.67-2.08,3.35-3.81,6.94-5.57,10.46a46.61,46.61,0,0,0-2,4.53,35.62,35.62,0,0,0-1.25,4.08,107.19,107.19,0,0,0-2.4,11.93c-.65,5.39-.18,11,.35,16.39a43.34,43.34,0,0,0,1.83,8.79c1.65,5.18,3.11,10.38,5.87,15.09,2.62,4.47,5.42,9.2,9,13a72.87,72.87,0,0,0,9.24,8.46,30.65,30.65,0,0,0,14.9,12l114.65,43.6L1097,410a22.4,22.4,0,0,0,11.59,1.44,26.64,26.64,0,0,0,19.94-9.41,61,61,0,0,0,12-7.24,52.92,52.92,0,0,0,10.71-11,25.54,25.54,0,0,0,2.17-3.44A71.68,71.68,0,0,0,1158.61,369.7Z"/><path class="cls-4" d="M1037.52,195.66c-6,4.69-11.08,11.32-12.08,19.14s.36,15.53,5,22.08a22.42,22.42,0,0,0,6.32,6.47,33.91,33.91,0,0,1-17.84-11.87,29,29,0,0,1-5.09-13.55c-3-.29-6.78-.57-9.64-.63-2,0-4.07,0-6.1,0-.16-.54-.39-1.22-.41-1.29-.58-2.09-1.06-4.16-1.43-6.26h.23s0,0,0,.08c2.76-.12,5.51-.16,8.25-.1,3,.06,6,.26,9,.57,0,.06,0,.13,0,.19,0-.37.08-.74.13-1.12,1-7.81,6-14.44,12.08-19.14a28.55,28.55,0,0,1,32.57-.74,21.42,21.42,0,0,1,2.32,1.37c-.42-.09-.85-.15-1.29-.21a32.82,32.82,0,0,0-22.08,5Z"/><path class="cls-4" d="M1150.49,311.22a22,22,0,0,1-9.89-1.65,22.32,22.32,0,0,1-10.32-5.47c-6.09-5.21-9.32-12.38-10.26-20.18s2.29-15.49,7-21.52a28.55,28.55,0,0,1,31.39-8.73,21.9,21.9,0,0,1,2.58.75c-.43,0-.86.06-1.29.12a32.92,32.92,0,0,0-20.18,10.26c-4.71,6-8,13.7-7,21.53s4.17,15,10.27,20.18A22.72,22.72,0,0,0,1150.49,311.22Z"/><path class="cls-4" d="M957.11,356.76l-7-2.65a30.6,30.6,0,0,1-14.9-12,72.87,72.87,0,0,1-9.24-8.46c-3.62-3.79-6.42-8.52-9-13-2.76-4.71-4.22-9.91-5.87-15.09a43.36,43.36,0,0,1-1.84-8.79c-.52-5.35-1-11-.34-16.39a107.19,107.19,0,0,1,2.4-11.93,36.24,36.24,0,0,1,1.25-4.08,46.43,46.43,0,0,1,2-4.52c1.76-3.53,3.49-7.12,5.57-10.47,2.92-4.7,6.76-8.63,10.51-12.67a63.7,63.7,0,0,1,8.07-7.23c.91-.34,1.82-.69,2.72-1.06-.48-.87-.92-1.77-1.34-2.69-3.23-7.19-2.4-15.48.3-22.64a22.28,22.28,0,0,1,6.85-9.46,34.89,34.89,0,0,1,23.23-8.24c-.41.15-.81.32-1.21.49a22.33,22.33,0,0,0-9.38,6.34,22.22,22.22,0,0,0-6.84,9.46c-2.7,7.16-3.53,15.44-.3,22.63s8.43,13.06,15.79,16.23a22.67,22.67,0,0,0,8.77,2.21,34.06,34.06,0,0,1-21.42-.8,28.54,28.54,0,0,1-8.33-5.5,57.87,57.87,0,0,0-4.8,4.6c-3.75,4-7.59,8-10.51,12.66-2.08,3.36-3.81,6.95-5.56,10.47a43.41,43.41,0,0,0-2,4.53,36,36,0,0,0-1.24,4.07A107.22,107.22,0,0,0,921,284.68c-.65,5.39-.18,11,.35,16.39a42.56,42.56,0,0,0,1.84,8.79c1.64,5.19,3.11,10.38,5.87,15.1,2.61,4.46,5.42,9.19,9,13a73.71,73.71,0,0,0,9.25,8.46,31.22,31.22,0,0,0,9.14,9.14C956.7,356,956.9,356.36,957.11,356.76Z"/><path class="cls-5" d="M1064.72,327.22c6.64-3.8,12.55-9.67,14.64-17.27s1.8-15.43-1.86-22.56a32.84,32.84,0,0,0-17.27-14.64,32.84,32.84,0,0,0-22.56,1.86c-6.64,3.8-12.55,9.66-14.64,17.26s-1.8,15.44,1.86,22.56a32.94,32.94,0,0,0,17.27,14.64,32.91,32.91,0,0,0,22.56-1.85Z"/><path class="cls-4" d="M1060.56,329.33a33.79,33.79,0,0,1-21.43.1c-7.49-2.85-13-8.51-16.46-15.54s-3.06-15.35-.66-22.63a22.44,22.44,0,0,1,6.44-9.74,26.6,26.6,0,0,1,20.18-9,24.23,24.23,0,0,1,2.68-.16c-.39.17-.79.35-1.18.55a33,33,0,0,0-15.54,16.46c-2.4,7.27-2.88,15.58.65,22.63s9,12.69,16.46,15.54A22.44,22.44,0,0,0,1060.56,329.33Z"/><path class="cls-3" d="M741,164.86c.55,1.4,1.07,2.81,1.58,4.21a125.1,125.1,0,0,1,5.29,19.38,207.19,207.19,0,0,1,3.23,52c-.87,13.81-2.71,27.56-4.77,41.25a37.64,37.64,0,0,1,1,7.36,22.34,22.34,0,0,1-2.52,11.4,26.64,26.64,0,0,1-15.61,15.67,22.42,22.42,0,0,1-11.39,2.57q-16.65,1.56-33.36,2.37a735.66,735.66,0,0,1-117.23-3.71,29.71,29.71,0,0,1-9.78-1.65l-2.32-.11-7.35-.39a29.36,29.36,0,0,1-14.94-4l-6-4.61a22.14,22.14,0,0,1-6.14-9.51,22.23,22.23,0,0,1-2.58-10.26V286c0-.12,0-.23,0-.35-.09-2.25-.15-4.51-.17-6.76H517c-8,0-15.14-3.33-20.94-8.63a23.49,23.49,0,0,1-4.11-5,30.4,30.4,0,0,1-3.78-9.59,38.9,38.9,0,0,1-.81-6.32c0-.19,0-.38,0-.57v0a22.1,22.1,0,0,1,2.28-10.28c.08-.17.17-.34.26-.5.19-.6.4-1.18.64-1.76a27.05,27.05,0,0,1,15-13.91,22.22,22.22,0,0,1,11.39-2.57,28.67,28.67,0,0,1,8,1.12q.84-3.45,1.81-6.86A33.41,33.41,0,0,1,515.34,207c-5.82-5.32-8.34-13.25-8.7-20.9a22.34,22.34,0,0,1,2.52-11.4,26.59,26.59,0,0,1,15.61-15.66,22.22,22.22,0,0,1,11.39-2.57,28.76,28.76,0,0,1,13,3.1,194.62,194.62,0,0,1,10.72-16.78,180.32,180.32,0,0,1,16.69-20.68,117.79,117.79,0,0,1,20.36-16.71,63.32,63.32,0,0,1,8.14-4.51,104.26,104.26,0,0,1,15.52-6.12A70.87,70.87,0,0,1,629.64,93c0-.35,0-.69-.07-1a22.25,22.25,0,0,1,2.53-11.4A22.08,22.08,0,0,1,638.2,71a22.11,22.11,0,0,1,9.51-6.13,22.2,22.2,0,0,1,11.39-2.57c8,0,15.13,3.32,20.93,8.62s8.34,13.25,8.7,20.9a22.28,22.28,0,0,1-2.06,10.46l.36.17a74.37,74.37,0,0,1,8,4.43,111.33,111.33,0,0,1,12.79,9.48,22,22,0,0,1,8-4.64,22.23,22.23,0,0,1,11.39-2.58c8,0,15.14,3.33,20.93,8.63s8.35,13.25,8.71,20.9a22.35,22.35,0,0,1-2.53,11.4A27.25,27.25,0,0,1,741,164.86Z"/><path class="cls-4" d="M506.64,186.19a22.34,22.34,0,0,1,2.52-11.4,26.59,26.59,0,0,1,15.61-15.66,22.32,22.32,0,0,1,11.39-2.57,28.45,28.45,0,0,1,7,.85,42.44,42.44,0,0,0-13.66,7.83,22.15,22.15,0,0,0-6.09,9.53,22.25,22.25,0,0,0-2.53,11.4c.36,7.65,2.89,15.57,8.7,20.9A33.83,33.83,0,0,0,540.8,214c-.64,2.27-1.25,4.56-1.81,6.86a28.25,28.25,0,0,0-8-1.12,22.75,22.75,0,0,0-6.09.58c.52-2.11,1.07-4.21,1.67-6.29a33.7,33.7,0,0,1-11.27-6.95C509.52,201.77,507,193.84,506.64,186.19Z"/><path class="cls-4" d="M634.47,76a23.1,23.1,0,0,0-1.66,2.66,20.78,20.78,0,0,1,1.59-3C634.42,75.73,634.44,75.86,634.47,76Z"/><path class="cls-4" d="M675.85,116a22,22,0,0,1-9.31,3.75,22.22,22.22,0,0,1-11.65.71c-7.91-1.27-14.41-5.7-19.28-11.87a25.92,25.92,0,0,1-5.13-12.39c-3.84,1.37-7.59,3.06-11.23,4.74a63.39,63.39,0,0,0-8.14,4.52,118.58,118.58,0,0,0-20.36,16.7,182.07,182.07,0,0,0-16.69,20.68c-3.85,5.4-10.06,15.26-13.34,21-3.8-1.9-7.14-4.13-11.57-4.22,2.78-4.67,7.56-12.36,10.72-16.78a181.19,181.19,0,0,1,16.69-20.68,117.79,117.79,0,0,1,20.36-16.71,64.55,64.55,0,0,1,8.14-4.51,104.26,104.26,0,0,1,15.52-6.12A72.64,72.64,0,0,1,629.64,93c0-.35,0-.69-.07-1a22.39,22.39,0,0,1,1.72-9.68c.25-.58.51-1.15.81-1.72s.45-1.29.71-1.91A23.1,23.1,0,0,1,634.47,76l.22-.3a22.21,22.21,0,0,1,7.54-8.43,22.28,22.28,0,0,1,10.37-4.53,22.23,22.23,0,0,1,2.6-.7c-.35.24-.7.5-1.05.77a22.21,22.21,0,0,0-7.54,8.43,22.21,22.21,0,0,0-4.32,10.85c-.88,7.61.35,15.84,5.24,22s11.36,10.6,19.28,11.87A22.55,22.55,0,0,0,675.85,116Z"/><path class="cls-4" d="M632.81,78.64c-.26.62-.5,1.26-.71,1.91s-.56,1.14-.81,1.72A22.26,22.26,0,0,1,632.81,78.64Z"/><path class="cls-4" d="M755.46,147.13a21.92,21.92,0,0,1-4.5,9,22.24,22.24,0,0,1-8.27,8.24c-6.77,4.28-14.58,5.25-22.31,3.85s-14.12-6.76-18.5-13.05a22.33,22.33,0,0,1-3.93-11,22.13,22.13,0,0,1,.09-11.31,22.17,22.17,0,0,1,4.77-10.26,21.92,21.92,0,0,1,1.49-2.25c-.11.42-.2.84-.28,1.28a22.24,22.24,0,0,0-.08,11.31,22.24,22.24,0,0,0,3.94,11c4.37,6.29,10.73,11.65,18.49,13.06s15.53.43,22.31-3.85A22.51,22.51,0,0,0,755.46,147.13Z"/><path class="cls-4" d="M556.2,316.22c-2.79-.14-5.58-.28-8.37-.44a29.45,29.45,0,0,1-14.94-4l-6-4.62a22.11,22.11,0,0,1-6.13-9.51,22.17,22.17,0,0,1-2.59-10.87v0c0-.15,0-.31,0-.47l0-.26c0-.12,0-.23,0-.35-.09-2.25-.15-4.51-.17-6.76H517c-8,0-15.14-3.33-20.94-8.63a23.49,23.49,0,0,1-4.11-5,33.37,33.37,0,0,1-3.78-9.59c-.24-1-.43-2.07-.59-3.1a23.16,23.16,0,0,1-.23-3.79v0A21.73,21.73,0,0,1,488.9,241a21.28,21.28,0,0,1,.69-2.52,23.11,23.11,0,0,1,.9-2.26,22.76,22.76,0,0,1,3.5-5.32,22.16,22.16,0,0,1,8.84-7.07,20.21,20.21,0,0,1,2.33-1.36c-.29.33-.55.67-.82,1a22.12,22.12,0,0,0-5.09,10.11,22.26,22.26,0,0,0-1.36,11.59c1.14,7.57,4.46,15.21,10.78,19.91s13.73,7.28,21.71,6.45a22.47,22.47,0,0,0,8.73-2.35,22.08,22.08,0,0,1-7,5.55c0,2.68.18,9.39.27,11.51A22.24,22.24,0,0,0,535,297.63a22.14,22.14,0,0,0,6.13,9.5l6,4.62a29.79,29.79,0,0,0,6.67,2.85l1.42,1Z"/><path class="cls-5" d="M709.71,269.18c5-5.83,8.54-13.35,7.93-21.21s-3.53-15.13-9.39-20.59a28.56,28.56,0,0,0-32.17-5.14,22.25,22.25,0,0,0-9.63,6.59c-5,5.83-8.54,13.35-7.93,21.21s3.53,15.13,9.39,20.6a28.56,28.56,0,0,0,32.17,5.14A22.36,22.36,0,0,0,709.71,269.18Z"/><path class="cls-4" d="M706.51,272.58a33.94,33.94,0,0,1-20.13,7.35c-8-.15-15.06-3.63-20.75-9.05s-8.07-13.41-8.28-21.07a22.48,22.48,0,0,1,2.76-11.35A26.61,26.61,0,0,1,676,223.12a21.49,21.49,0,0,1,2.48-1.06c-.32.29-.63.59-.93.91a22.21,22.21,0,0,0-6.29,9.41,22.21,22.21,0,0,0-2.76,11.34c.2,7.66,2.57,15.64,8.28,21.07s12.73,8.9,20.75,9A22.54,22.54,0,0,0,706.51,272.58Z"/><path class="cls-5" d="M632,221.24c5-5.83,8.54-13.34,7.93-21.2s-3.53-15.14-9.39-20.6a28.54,28.54,0,0,0-32.16-5.14,22.22,22.22,0,0,0-9.64,6.6c-5,5.82-8.54,13.34-7.93,21.2s3.53,15.13,9.39,20.6a28.56,28.56,0,0,0,32.17,5.14A22.3,22.3,0,0,0,632,221.24Z"/><path class="cls-4" d="M628.79,224.64A33.94,33.94,0,0,1,608.66,232c-8-.15-15.06-3.63-20.75-9.05s-8.07-13.41-8.27-21.07a22.31,22.31,0,0,1,2.75-11.34,26.59,26.59,0,0,1,15.92-15.35,22.26,22.26,0,0,1,2.48-1.06c-.32.29-.63.6-.93.91a22.21,22.21,0,0,0-6.29,9.41,22.23,22.23,0,0,0-2.76,11.35c.2,7.65,2.57,15.63,8.28,21.07s12.74,8.9,20.75,9A22.55,22.55,0,0,0,628.79,224.64Z"/><path class="cls-3" d="M353.49,274.66c-2-5.07-3.94-10.36-6.78-15.06a65.23,65.23,0,0,0-22-22.32c-.77-.47-1.57-.89-2.38-1.28.12-.75.2-1.51.25-2.29a22.23,22.23,0,0,0-.45-11.66c-2.28-7.31-6.74-14.34-13.71-18S293.71,199,286,201a22.34,22.34,0,0,0-10.37,5.38,26.55,26.55,0,0,0-11.13,19.1,22.07,22.07,0,0,0,.21,10.83,52.93,52.93,0,0,0-5.74,3,93.29,93.29,0,0,0-12.28,9.19A45.69,45.69,0,0,0,241,254.3a84.59,84.59,0,0,0-8.89,12.45,86.19,86.19,0,0,0-8.93,24,119.58,119.58,0,0,0-2.41,28.49,205,205,0,0,0,3.65,28.89,32.88,32.88,0,0,0,13.71,18,22.15,22.15,0,0,0,10.76,3.49,22.27,22.27,0,0,0,11.67-.45c.89-.28,1.78-.59,2.66-.93l73-17.19a33,33,0,0,0,18-13.71,22.24,22.24,0,0,0,3.48-10.76,22.13,22.13,0,0,0,.5-6.72c.38-.9.76-1.79,1.13-2.68a29.42,29.42,0,0,0,.1-15.47,156.45,156.45,0,0,0-3.26-18.36A75.66,75.66,0,0,0,353.49,274.66Z"/><path class="cls-4" d="M317.58,246.6a22.13,22.13,0,0,1-7.32,6.86,22.36,22.36,0,0,1-10.61,4.88c-7.84,1.67-15.5-.12-22.26-4.1-5.27-3.09-8.92-8.12-11.2-13.67-1.9,1.46-3.75,3-5.55,4.54a44.41,44.41,0,0,0-5.65,5.82,83.54,83.54,0,0,0-8.89,12.45,86,86,0,0,0-8.93,24,119,119,0,0,0-2.4,28.48,205.29,205.29,0,0,0,3.63,28.9,33.05,33.05,0,0,0,13.72,18,22.1,22.1,0,0,0,10.76,3.48,22.18,22.18,0,0,0,11.4-.36l.11,0-11.08,2.61c-.88.35-1.77.66-2.66.94a22.37,22.37,0,0,1-11.67.44,26.59,26.59,0,0,1-19.11-11.13,22.25,22.25,0,0,1-5.37-10.36,206.8,206.8,0,0,1-3.64-28.9,119,119,0,0,1,2.41-28.48,85.64,85.64,0,0,1,8.93-24,83.54,83.54,0,0,1,8.89-12.45,44.41,44.41,0,0,1,5.65-5.82,91.84,91.84,0,0,1,12.28-9.2,54.77,54.77,0,0,1,5.74-3c-.06-.21-.12-.42-.17-.64h0a2.14,2.14,0,0,1-.09-.34,22.21,22.21,0,0,1,.1-11.67,26.64,26.64,0,0,1,12-18.57,21.91,21.91,0,0,1,2.17-1.59c-.24.35-.48.72-.7,1.1a22.16,22.16,0,0,0-4,10.59,22.24,22.24,0,0,0-.1,11.68c1.93,7.4,6,14.63,12.84,18.63s14.43,5.77,22.27,4.1A22.76,22.76,0,0,0,317.58,246.6Z"/><path class="cls-3" d="M958.62,135.58A26.68,26.68,0,0,1,940.35,148a22.37,22.37,0,0,1-9,.84c0,.81-.06,1.62-.1,2.43q-1.78,39.75-4.72,79.44Q923.84,267,920,303.09c-.54,5.09-.83,10.32-2.1,15.29a103.67,103.67,0,0,1-3.35,10.33,20.78,20.78,0,0,1-1.28,2.8,46.79,46.79,0,0,1-13.47,15.62,12.25,12.25,0,0,1-1.64,1,80.62,80.62,0,0,1-7.65,3.87c-3.1,1.32-7.58,2-10.35,2.47-4.66.79-9.67.18-14.28-.28-5.5-.56-11-1.92-16.38-3l-71-13.73a34.49,34.49,0,0,1-3.93.31,39.25,39.25,0,0,1-6.24-.39,22.29,22.29,0,0,1-10.73-4.62,26.62,26.62,0,0,1-12.45-18.27,22.19,22.19,0,0,1-.39-11.67q2.43-8.62,4.87-17.25l19.86-70.3,20-70.62,9.93-35.15c3.26-11.51,6.33-23.09,9.81-34.53,1.4-4.58,2.8-9.21,4.47-13.74-.57-.28-1.13-.59-1.68-.91a33.52,33.52,0,0,1-9.89-9c-4.72-6.31-5.71-14.58-4.63-22.15a22.34,22.34,0,0,1,4.62-10.73,22.29,22.29,0,0,1,7.78-8.22A22.21,22.21,0,0,1,820.35,6,22.3,22.3,0,0,1,832,5.66c7.87,1.48,14.24,6.1,18.94,12.39l.3.41a35.58,35.58,0,0,1,7.12-2.79c4.31-1.07,9-2.36,13.48-2.37a80.46,80.46,0,0,1,11.08.63,22.43,22.43,0,0,1,3.14.65l1.55.44c.35-.53.73-1.06,1.14-1.57a22.08,22.08,0,0,1,7.77-8.21A22.17,22.17,0,0,1,907,1,22.3,22.3,0,0,1,918.7.61c7.88,1.48,14.24,6.1,18.94,12.39s5.71,14.58,4.63,22.16a22.19,22.19,0,0,1-4.62,10.73,22.08,22.08,0,0,1-7.77,8.21c-.44.32-.88.62-1.33.91.25.75.49,1.5.71,2.25a102.26,102.26,0,0,1,3.87,22.9c.15,3.18.19,6.38.19,9.57a23,23,0,0,1,6.35.57c7.87,1.48,14.24,6.1,18.94,12.39s5.71,14.58,4.63,22.16A22.42,22.42,0,0,1,958.62,135.58Z"/><path class="cls-4" d="M963.47,123.37a22,22,0,0,1-3.31,9.47,22.25,22.25,0,0,1-7.14,9.24c-6.17,5.12-13.78,7.09-21.63,6.69s-14.87-4.89-20-10.56a22.28,22.28,0,0,1-5.32-10.39,22.21,22.21,0,0,1-1.37-11.23,22.18,22.18,0,0,1,3.41-10.79,22.62,22.62,0,0,1,1.19-2.42c0,.43-.09.86-.11,1.3a22.19,22.19,0,0,0,1.37,11.23,22.36,22.36,0,0,0,5.32,10.4c5.15,5.66,12.15,10.16,20,10.56s15.46-1.58,21.63-6.7A22.57,22.57,0,0,0,963.47,123.37Z"/><path class="cls-4" d="M911.61,59.21a22.18,22.18,0,0,1-9.77-2.32,22.32,22.32,0,0,1-9.93-6.15c-5.72-5.6-8.47-13-8.88-20.82s3.32-15.3,8.43-21a22.32,22.32,0,0,1,9.79-6.37,26.66,26.66,0,0,1,22.11-.24,21.82,21.82,0,0,1,2.53.93c-.43,0-.87,0-1.3,0a22.14,22.14,0,0,0-11,2.53,22.27,22.27,0,0,0-9.79,6.37c-5.11,5.7-8.86,13.13-8.44,21s3.16,15.22,8.89,20.82A22.62,22.62,0,0,0,911.61,59.21Z"/><path class="cls-4" d="M756.92,305.19a22.4,22.4,0,0,0,.39,11.67,26.6,26.6,0,0,0,12.46,18.27,21.89,21.89,0,0,0,4.37,2.71,38.54,38.54,0,0,1-5.8-.39,22.29,22.29,0,0,1-10.73-4.62,26.62,26.62,0,0,1-12.45-18.27,22.19,22.19,0,0,1-.39-11.67q2.43-8.62,4.87-17.25l19.86-70.3,20-70.62,9.93-35.15c3.26-11.51,6.33-23.09,9.81-34.53,1-3.31,3-9.25,4.51-13.72A32.37,32.37,0,0,1,801.2,51c-4.72-6.32-5.72-14.58-4.63-22.16a22.29,22.29,0,0,1,4.62-10.73A22.08,22.08,0,0,1,809,9.87a22.17,22.17,0,0,1,10.49-4.25A24.33,24.33,0,0,1,822.07,5c-.36.24-.71.48-1.07.74A22.29,22.29,0,0,0,813.22,14a22.27,22.27,0,0,0-4.61,10.73c-1.09,7.58-.09,15.84,4.62,22.16s11.07,10.91,18.95,12.4a22.81,22.81,0,0,0,9,.25A22.07,22.07,0,0,1,831.81,63a21.85,21.85,0,0,1-6.12,1c-1.61,4.42-3,8.93-4.34,13.39-3.48,11.44-6.56,23-9.81,34.53L801.61,147l-20,70.61L761.8,287.94Q759.36,296.57,756.92,305.19Z"/><path class="cls-4" d="M776.24,337.76c-.55,0-1.11.07-1.66.08-.15,0-.29,0-.44,0a21.86,21.86,0,0,0,3.55,1.31C777.2,338.7,776.72,338.23,776.24,337.76Z"/><path class="cls-5" d="M893.39,294.42c6-4.79,10.89-11.5,11.77-19.34s-.63-15.53-5.36-22a32.83,32.83,0,0,0-19.34-11.77,33,33,0,0,0-22,5.36c-6,4.79-10.89,11.5-11.77,19.34s.63,15.53,5.36,22a28.52,28.52,0,0,0,30.63,11.08A22.16,22.16,0,0,0,893.39,294.42Z"/><path class="cls-4" d="M889.62,297.16a22,22,0,0,1-9.48,3.29,22.24,22.24,0,0,1-11.68.15c-7.84-1.64-14.11-6.38-18.68-12.78s-5.42-14.69-4.18-22.24A22.28,22.28,0,0,1,850.44,255,26.6,26.6,0,0,1,869,242.86a22.53,22.53,0,0,1,2.63-.58c-.36.23-.72.47-1.08.73a22.14,22.14,0,0,0-7.94,8.06,22.24,22.24,0,0,0-4.84,10.63c-1.24,7.55-.41,15.83,4.17,22.24s10.85,11.13,18.69,12.78A22.51,22.51,0,0,0,889.62,297.16Z"/><path class="cls-5" d="M863.57,199c6-4.8,10.89-11.51,11.76-19.34s-.62-15.53-5.35-22a22.22,22.22,0,0,0-8.79-7.69,30.4,30.4,0,0,0-32.55,1.28c-6,4.8-10.89,11.51-11.76,19.34s.62,15.53,5.35,22a22.22,22.22,0,0,0,8.79,7.69,26.62,26.62,0,0,0,21.85,3.39A22.43,22.43,0,0,0,863.57,199Z"/><path class="cls-4" d="M859.79,201.73a33.86,33.86,0,0,1-21.16,3.45c-7.84-1.65-14.11-6.39-18.68-12.78s-5.42-14.69-4.18-22.25a22.32,22.32,0,0,1,4.84-10.63,26.62,26.62,0,0,1,18.52-12.08,22.09,22.09,0,0,1,2.63-.58c-.37.23-.73.47-1.09.72a22.22,22.22,0,0,0-7.94,8.06,22.28,22.28,0,0,0-4.84,10.63c-1.23,7.55-.41,15.84,4.18,22.25s10.84,11.13,18.69,12.78A22.45,22.45,0,0,0,859.79,201.73Z"/></g></g></g></svg>