<svg xmlns="http://www.w3.org/2000/svg" xmlns:xlink="http://www.w3.org/1999/xlink" viewBox="0 0 1186.49 412.59"><defs><style>.cls-1{isolation:isolate;}.cls-2{fill:url(#radial-gradient);}.cls-3,.cls-4{fill:#9264f7;}.cls-4{opacity:0.2;mix-blend-mode:multiply;}</style><radialGradient id="radial-gradient" cx="619.94" cy="302.24" r="385.1" gradientTransform="translate(1526.67 -317.7) rotate(90) scale(1 3)" gradientUnits="userSpaceOnUse"><stop offset="0" stop-color="#9563f7"/><stop offset="0.12" stop-color="#9060f1"/><stop offset="0.29" stop-color="#8259df"/><stop offset="0.48" stop-color="#6a4cc2"/><stop offset="0.69" stop-color="#493b99"/><stop offset="0.92" stop-color="#202566"/><stop offset="1" stop-color="#0f1c51"/></radialGradient></defs><g class="cls-1"><g id="Layer_2" data-name="Layer 2"><g id="Layer_4" data-name="Layer 4"><path class="cls-2" d="M1186.49,330.51v82.08H0v-58.5c167.68-98.31,381.55-157.24,614.52-157.24C828.21,196.85,1025.84,246.43,1186.49,330.51Z"/><polygon class="cls-3" points="250.41 252.1 118.32 300.58 112.14 247.28 123.77 241.89 145.2 231.97 122.36 233.45 110.62 234.21 103.93 176.56 111.94 171.14 143.74 149.66 109.66 157.47 101.92 159.24 83.67 1.96 142.48 90.18 119.66 117.95 149.69 101 182.55 150.3 151.83 187.68 192.26 164.86 250.41 252.1"/><polygon class="cls-4" points="145.2 231.97 124.34 245.34 132.7 295.3 118.32 300.58 112.78 252.76 112.14 247.28 123.77 241.89 145.2 231.97"/><polygon class="cls-4" points="83.67 1.96 109.66 157.47 101.92 159.24 83.67 1.96"/><polygon class="cls-4" points="143.74 149.66 112.69 175.63 122.36 233.45 110.62 234.21 104.61 182.39 103.93 176.56 111.94 171.14 143.74 149.66"/><polygon class="cls-4" points="149.69 101 152.1 104.61 119.66 117.95 149.69 101"/><polygon class="cls-4" points="192.26 164.86 195.21 169.28 151.83 187.68 192.26 164.86"/><polygon class="cls-3" points="778.62 209.34 606.64 201.57 623.21 175.39 638.84 175.56 667.65 175.86 640.98 171.31 627.27 168.97 645.18 140.66 656.71 139.98 702.46 137.29 660.16 133.1 650.57 132.15 699.43 54.91 727.37 109.38 689.07 117.04 730.78 116.06 746.39 146.49 694.83 156.81 751 155.48 778.62 209.34"/><polygon class="cls-4" points="667.65 175.86 637.97 177.29 625.36 202.41 606.64 201.57 621.5 178.08 623.21 175.39 638.84 175.56 667.65 175.86"/><polygon class="cls-4" points="699.43 54.91 660.16 133.1 650.57 132.15 699.43 54.91"/><polygon class="cls-4" points="702.46 137.29 655.58 142.23 640.98 171.31 627.27 168.97 643.37 143.52 645.18 140.66 656.71 139.98 702.46 137.29"/><polygon class="cls-4" points="730.78 116.06 731.93 118.28 689.07 117.04 730.78 116.06"/><polygon class="cls-4" points="751 155.48 752.4 158.21 694.83 156.81 751 155.48"/><polygon class="cls-3" points="247.98 254.78 232.04 144.54 264.39 197.17 257.08 196.85 268.02 203.07 290.94 240.37 247.98 254.78"/><polygon class="cls-4" points="247.98 254.78 258.43 251.28 232.04 144.54 247.98 254.78"/><polyline class="cls-4" points="257.08 196.85 268.02 203.07 271.18 208.22"/><polygon class="cls-3" points="1152.22 320.85 1177.52 224.69 1178.59 281.53 1174.17 279.48 1178.7 287.9 1179.46 328.19 1152.22 320.85"/><polygon class="cls-4" points="1152.22 320.85 1159.46 322.8 1177.52 224.69 1152.22 320.85"/><polyline class="cls-4" points="1174.17 279.48 1178.7 287.9 1178.81 293.47"/><polygon class="cls-3" points="779.83 213.81 813.63 145.27 826.55 187.37 818.12 184.42 828 192.09 837.15 221.92 779.83 213.81"/><polygon class="cls-4" points="779.83 213.81 793.77 215.79 813.63 145.27 779.83 213.81"/><polyline class="cls-4" points="818.12 184.42 828 192.09 829.26 196.21"/><polygon class="cls-3" points="390.73 220.16 317.42 236.65 293.87 241.94 294.25 219.66 310.65 204.41 327.3 188.94 309.2 197.51 294.52 204.47 301.86 131.61 390.73 220.16"/><polygon class="cls-4" points="309.2 197.51 294.52 204.47 301.86 131.61 309.2 197.51"/><polygon class="cls-4" points="311.41 208.01 317.42 236.65 293.87 241.94 294.09 228.78 294.09 228.78 294.25 219.66 310.65 204.42 327.3 188.94 311.41 208.01"/><polygon class="cls-3" points="1152.22 320.85 1104.84 306.12 1078.94 295.28 1089.18 280.7 1112.32 280.57 1135.82 280.44 1113.92 275.11 1096.15 270.77 1135.7 226.82 1152.22 320.85"/><polygon class="cls-4" points="1113.92 275.11 1096.15 270.77 1135.7 226.82 1113.92 275.11"/><polygon class="cls-4" points="1111.49 283.42 1104.84 306.12 1078.94 295.28 1084.99 286.67 1084.99 286.67 1089.18 280.7 1112.32 280.57 1135.82 280.44 1111.49 283.42"/><polygon class="cls-3" points="600.42 198.39 557.34 201.34 543.49 202.29 547.45 184.69 559.03 174.87 570.79 164.9 559.4 169.2 550.15 172.69 558.88 105.55 590.06 175.22 580.51 176.88 594.72 185.65 600.42 198.39"/><polygon class="cls-4" points="559.4 169.2 550.15 172.69 558.88 105.55 559.4 169.2"/><polygon class="cls-4" points="558.85 177.82 557.34 201.34 543.49 202.29 545.83 191.89 545.83 191.89 547.45 184.69 559.03 174.87 570.79 164.9 558.85 177.82"/><polygon class="cls-4" points="594.72 185.65 596.51 189.65 580.51 176.88 594.72 185.65"/><polygon class="cls-3" points="541.09 202.2 456.09 210.57 462.42 169.81 466.14 145.67 466.17 145.65 475.95 139.13 496.7 125.3 476.56 129.78 468.35 131.61 468.31 131.61 471.96 108.31 475.18 87.6 476.46 79.31 482.34 41.39 506.98 108.83 517.82 88.39 526.94 160.31 503.3 160.59 529.45 170.35 541.09 202.2"/><polygon class="cls-4" points="496.7 125.3 475.69 143.1 471.38 209.06 456.09 210.57 465.18 152 466.17 145.65 475.95 139.13 496.7 125.3"/><polygon class="cls-4" points="482.34 41.39 476.56 129.78 468.35 131.61 471.96 108.31 475.18 87.6 482.34 41.39"/><polygon class="cls-4" points="466.17 145.65 465.18 152 465.08 152.09 466.14 145.67 466.17 145.65"/><polygon class="cls-4" points="529.45 170.35 531.09 174.84 503.3 160.59 529.45 170.35"/><polygon class="cls-4" points="506.98 108.83 507.49 113.98 517.81 88.39 506.98 108.83"/><line class="cls-4" x1="271.18" y1="208.22" x2="257.08" y2="196.85"/><polygon class="cls-3" points="113.73 308.86 64.36 327.25 57.48 329.81 12.74 265.93 60.47 297.37 55.41 284.71 58.57 280.12 63.23 273.35 56.92 276.62 52.99 278.64 26.24 211.69 64.36 249.14 63.23 255.99 68.59 253.3 89.66 273.99 96.66 223.91 107.66 278.64 101.16 280.22 108.79 284.29 113.73 308.86"/><polygon class="cls-4" points="64.36 327.25 12.74 265.93 57.48 329.81 64.36 327.25"/><polygon class="cls-4" points="56.92 276.62 52.99 278.64 26.24 211.69 56.92 276.62"/><polygon class="cls-4" points="89.66 273.99 94.99 280.22 96.67 223.91 89.66 273.99"/><polygon class="cls-4" points="67.36 298.72 60.47 297.37 56.92 288.48 55.41 284.71 58.57 280.12 63.23 273.35 59.55 282.18 67.36 298.72"/><polygon class="cls-4" points="68.59 253.3 69.96 254.64 63.23 255.99 68.59 253.3"/><polygon class="cls-4" points="108.79 284.29 109.56 288.08 101.16 280.22 108.79 284.29"/><polygon class="cls-3" points="1017.11 261.71 947.16 246.28 939.78 244.12 947.16 163.01 960.63 224.92 963.39 213.98 968.7 212.78 976.54 211.01 969.25 209.62 964.72 208.75 986.31 156.31 991.14 196.06 986.31 199.84 992.45 201.07 999.33 223.34 1015.26 181.84 1016.93 228.26 1010.01 229.21 1017.11 233.05 1017.11 261.71"/><polygon class="cls-4" points="947.16 246.28 947.16 163.01 939.78 244.12 947.16 246.28"/><polygon class="cls-4" points="969.25 209.62 964.72 208.75 986.31 156.31 969.25 209.62"/><polygon class="cls-4" points="999.33 223.34 1003.7 228.85 1015.26 181.84 999.33 223.34"/><polygon class="cls-4" points="965.82 229.6 960.63 224.92 962.57 217.24 963.39 213.98 968.7 212.78 976.54 211.01 968.38 214.65 965.82 229.6"/><polygon class="cls-4" points="992.45 201.07 992.88 202.69 986.31 199.84 992.45 201.07"/><polygon class="cls-4" points="1017.11 233.05 1014.52 237.4 1010.01 229.21 1017.11 233.05"/><polygon class="cls-3" points="453.86 210.56 401.8 218.6 394.54 219.73 388.32 205.33 392.41 201.27 395.41 198.3 391.48 199.55 386.51 201.13 376.28 155.88 404.02 188.56 401.62 175.13 405.65 171.28 411.58 165.59 404.73 167.51 400.48 168.71 387.8 97.73 417.57 142.11 415.08 148.59 420.88 147.03 437.33 171.55 439.42 112.97 450.82 164.13 444.92 162.59 451.58 168.12 453.86 210.56"/><polygon class="cls-4" points="391.48 199.55 386.51 201.13 376.28 155.88 391.48 199.55"/><polygon class="cls-4" points="401.8 218.6 394.54 219.73 394.54 219.73 389.73 208.59 388.32 205.33 392.41 201.27 395.41 198.3 393.08 202.51 401.8 218.6"/><polygon class="cls-4" points="404.73 167.51 400.48 168.71 387.8 97.73 404.73 167.51"/><polygon class="cls-4" points="437.33 171.56 441.29 178.73 439.42 112.97 437.33 171.56"/><polygon class="cls-4" points="410.5 191.28 404.02 188.56 402.34 179.13 401.62 175.13 405.65 171.28 411.58 165.59 406.18 173.5 410.5 191.28"/><polygon class="cls-4" points="420.88 147.03 421.94 148.63 415.08 148.59 420.88 147.03"/><polygon class="cls-4" points="451.58 168.12 451.56 171.99 444.92 162.59 451.58 168.12"/><polygon class="cls-3" points="23.7 346.94 7.04 279.38 31.34 305.51 25.6 310.14 36.42 310.96 55.16 331.1 23.7 346.94"/><polygon class="cls-4" points="23.7 346.94 31.34 343.09 7.04 279.38 23.7 346.94"/><polygon class="cls-4" points="36.42 310.96 38.46 313.16 25.6 310.14 36.42 310.96"/><polygon class="cls-3" points="1019.28 269.5 1079.94 163.73 1079.12 226.26 1066.23 225.18 1078.94 239.32 1078.31 287.51 1019.28 269.5"/><polygon class="cls-4" points="1019.28 269.5 1033.63 273.88 1079.94 163.73 1019.28 269.5"/><polygon class="cls-4" points="1078.94 239.32 1078.87 244.57 1066.23 225.18 1078.94 239.32"/><polygon class="cls-3" points="932.91 242.24 836.56 222.83 844.88 204.06 863.59 190.68 870.17 185.97 865.35 186 852.84 186.1 869.75 147.92 875.81 78.66 885.17 113.13 935.29 0 934.76 54.13 952.52 36.49 934.52 78.42 934.04 126.96 916.48 125.67 933.72 160.5 932.91 242.24"/><polygon class="cls-4" points="870.17 185.97 860.68 198.42 850.45 225.62 836.56 222.83 838.89 217.57 844.88 204.06 863.59 190.68 870.17 185.97"/><polygon class="cls-4" points="879.89 147.33 879.89 147.34 865.35 186 852.84 186.1 869.75 147.92 875.81 78.66 878.72 127.67 879.89 147.33"/><polygon class="cls-4" points="935.29 0 887.56 126.92 885.17 113.13 935.29 0"/><polygon class="cls-4" points="952.52 36.49 934.84 62.05 934.76 54.13 952.52 36.49"/><polygon class="cls-4" points="933.72 160.5 933.54 178.42 916.48 125.67 933.72 160.5"/></g></g></g></svg>