<svg xmlns="http://www.w3.org/2000/svg" xmlns:xlink="http://www.w3.org/1999/xlink" viewBox="0 0 1186.49 537.18"><defs><style>.cls-1{isolation:isolate;}.cls-2{fill:url(#radial-gradient);}.cls-3{fill:#9264f7;}.cls-4{fill:#8557f5;opacity:0.2;mix-blend-mode:multiply;}</style><radialGradient id="radial-gradient" cx="619.94" cy="426.83" r="385.1" gradientTransform="translate(1900.43 -193.11) rotate(90) scale(1 3)" gradientUnits="userSpaceOnUse"><stop offset="0" stop-color="#9563f7"/><stop offset="0.12" stop-color="#9060f1"/><stop offset="0.29" stop-color="#8259df"/><stop offset="0.48" stop-color="#6a4cc2"/><stop offset="0.69" stop-color="#493b99"/><stop offset="0.92" stop-color="#202566"/><stop offset="1" stop-color="#0f1c51"/></radialGradient></defs><g class="cls-1"><g id="Layer_2" data-name="Layer 2"><g id="Layer_4" data-name="Layer 4"><path class="cls-2" d="M1186.49,455.1v82.08H0V478.67c167.68-98.31,381.55-157.23,614.52-157.23C828.21,321.44,1025.84,371,1186.49,455.1Z"/><path class="cls-3" d="M438.69,344.2,247,381l33.15-179.91c.83-5.77,7.48-9.67,15.39-13.41l40.31-18.59c8.57-1.65,16.71,1,19.36,6.39Z"/><path class="cls-4" d="M308.13,181.92c-7.71,6.41-13.94,10.91-14.76,16.68L260.22,378.5,247,381l33.15-179.91c.83-5.77,7.93-10,15.39-13.41Z"/><path class="cls-3" d="M1186.3,457.36l-140.19-58.11,85.24-89.13c2.57-2.94,7.75-2.7,13.57-1.91l28.83,4.33c5.43,2.21,9,6.71,8.56,10.69Z"/><path class="cls-4" d="M1153.45,309.58c-6.69.78-11.18,1-13.76,3.95l-85.23,89.12-8.35-3.4,85.23-89.12c2.58-2.95,8.12-2.71,13.58-1.92Z"/><polygon class="cls-3" points="277.58 394.53 135.85 426.17 107 159.84 140.73 152.31 277.58 394.53"/><polygon class="cls-4" points="117.38 157.53 146.23 423.85 135.85 426.17 107 159.84 117.38 157.53"/><polygon class="cls-3" points="929.27 363.85 786.49 337.39 866.9 67.31 900.89 73.61 929.27 363.85"/><polygon class="cls-4" points="877.36 69.25 796.94 339.33 786.49 337.39 866.9 67.31 877.36 69.25"/><path class="cls-3" d="M743,259.76l-110,6.53,17-77.09c.52-2.36,3-4.16,6-4.34l16.65-1a8.55,8.55,0,0,1,6.92,2.61Z"/><path class="cls-4" d="M658.92,184.69,641,265.81l-8.06.48L650,189c.49-2.24,2.86-3.95,5.7-4.12Z"/><path class="cls-3" d="M225.63,165.29,92.3,195.06a10.6,10.6,0,0,1-12.84-7.7L68.94,140.24c-1.24-5.56,2.83-10.44,8.35-12.43L202.69,84a10.6,10.6,0,0,1,12.84,7.7L234,152.86A10.6,10.6,0,0,1,225.63,165.29Z"/><path class="cls-4" d="M234,155a12.13,12.13,0,0,1-9.2,10.33L93.72,194.74c-7.54,2.21-14-1.81-14.84-10.11l-9.44-42.18c-2.16-6.41.77-11.74,7.19-14.37a13.18,13.18,0,0,0,.2,4.79l9.44,42.28c1.54,6.89,8.07,11.3,14.58,9.85l130.93-29.23A11.89,11.89,0,0,0,234,155Z"/><path class="cls-3" d="M935,96.38,800.62,71.5a10.87,10.87,0,0,1-8.7-12.66l9.26-50A10.86,10.86,0,0,1,813.83.18L978.51,38.49a10.85,10.85,0,0,1,8.7,12.65l-36.3,38.57C946.05,95.08,940.84,97.48,935,96.38Z"/><path class="cls-4" d="M950.15,90.52c-5.27,5.32-10.19,6.79-15.2,5.86L801.75,71.73c-7.13-1.31-11.48-6.5-9.35-15.44l8.34-45c.84-8.47,7.17-11.87,12.41-11.21a15.32,15.32,0,0,0-1.77,4.83l-8.31,44.84c-1.35,7.31,2.87,14.22,9.43,15.44L944.42,89.63C945.21,89.77,949.37,90.55,950.15,90.52Z"/><path class="cls-3" d="M793.48,256.16,617.42,267.23A15.43,15.43,0,0,0,602,282.62v44.93a15.43,15.43,0,0,0,15.39,15.39H778.09a15.43,15.43,0,0,0,15.39-15.39l15.39-56A15.43,15.43,0,0,0,793.48,256.16Z"/><path class="cls-4" d="M627.07,342.94h-9.65A15.43,15.43,0,0,1,602,327.55V282.62a15.43,15.43,0,0,1,15.39-15.39l7.18.2a15.44,15.44,0,0,0-12.93,15.19v44.93A15.44,15.44,0,0,0,627.07,342.94Z"/><path class="cls-3" d="M74.73,341l-62.33,7c-6.09,2.44-7.76,11.31-8,20.37L.22,456.55C-.29,467.29,9,477.71,16.8,475l.38-.15,115.56-46.38c6.09-2.45,8.26-11.44,4.83-20L92,352.06C86.05,343.62,80.82,338.52,74.73,341Z"/><path class="cls-4" d="M24.12,472.07l-6.94,2.78-.38.15C9,477.71-.29,467.29.22,456.55l4.17-88.24c.65-9.81,1.92-17.93,8-20.37l5.75-.65c-4.77,3.31-6.34,10.44-6.82,18.24L7.15,453.76c-.51,10.75,8.76,21.16,16.59,18.45Z"/><path class="cls-3" d="M1075.33,299.14l-75.6-17.36c-6-1.59-12.11,3.28-17.19,9l-50.75,55c-6.18,6.7-4.61,18.29,2.93,20.62l.37.11,114.62,30.35c6,1.6,12.57-3.09,14.51-10.43l18.56-71.06C1082.68,306.78,1081.37,300.74,1075.33,299.14Z"/><path class="cls-4" d="M942,368.35l-6.88-1.82-.37-.11c-7.54-2.33-9.11-13.92-2.93-20.62l50.75-55c5.79-6,11.15-10.61,17.19-9l5,1.17c-5.48-.35-10.79,4.88-15.36,9.67l-50.75,55c-6.18,6.7-4.61,18.29,2.93,20.63Z"/><path class="cls-3" d="M613.73,347.07l-194.57,15.3,47.78-192.55c1.45-5.83,8.42-10.42,16.83-11.09l58.15,6.08c8.7-.68,16.51,3,18.56,8.85Z"/><path class="cls-4" d="M497.15,157.68c-8.4.66-15.38,5.26-16.82,11.09L432.55,361.32l-13.39,1.05,47.78-192.55c1.45-5.83,8.42-10.42,16.83-11.09Z"/><ellipse class="cls-4" cx="206.41" cy="321.44" rx="18.13" ry="13.33" transform="translate(-116.82 117.85) rotate(-25.09)"/><path class="cls-4" d="M222.83,313.75c3.12,6.66-1.7,15.51-10.76,19.76a21.67,21.67,0,0,1-13.55,1.84,23.55,23.55,0,0,0,7.6-2.13c9.07-4.25,13.89-13.1,10.77-19.76-1.53-3.26-4.67-5.4-8.53-6.23C214.8,306.57,220.58,308.94,222.83,313.75Z"/><ellipse class="cls-4" cx="174" cy="382.29" rx="12.33" ry="16.8" transform="translate(-145.68 109.85) rotate(-25.09)"/><path class="cls-4" d="M185.17,377.06c3.93,8.4,2.12,17.56-4,20.44-3.15,1.48-6.84,1-10.21-.89a9.61,9.61,0,0,0,5.48-.77c6.17-2.89,8-12,4.05-20.44a20.28,20.28,0,0,0-8.08-9.1C177.27,367,182.33,371,185.17,377.06Z"/><ellipse class="cls-4" cx="552.63" cy="262.94" rx="10.45" ry="14.23" transform="translate(-59.35 259.14) rotate(-25.09)"/><path class="cls-4" d="M562.09,258.51c3.33,7.12,1.8,14.88-3.43,17.32-2.67,1.26-5.79.87-8.65-.75a8.15,8.15,0,0,0,4.65-.66c5.22-2.44,6.75-10.2,3.42-17.31a17.18,17.18,0,0,0-6.84-7.71C555.4,250,559.68,253.38,562.09,258.51Z"/><ellipse class="cls-4" cx="647.24" cy="307.8" rx="9.22" ry="8.24"/><path class="cls-4" d="M656.46,307.79c0,4.55-4.12,8.25-9.21,8.25a9.77,9.77,0,0,1-6.64-2.51,10.14,10.14,0,0,0,4,.79c5.09,0,9.21-3.7,9.21-8.25a7.77,7.77,0,0,0-2.59-5.72A8.24,8.24,0,0,1,656.46,307.79Z"/><ellipse class="cls-4" cx="858.85" cy="225.49" rx="11.49" ry="8.24"/><path class="cls-4" d="M870.34,225.48c0,4.55-5.13,8.25-11.48,8.25a13.91,13.91,0,0,1-8.27-2.51,15.09,15.09,0,0,0,4.94.79c6.34,0,11.48-3.7,11.48-8.25a7.22,7.22,0,0,0-3.23-5.72C867.66,219.36,870.34,222.19,870.34,225.48Z"/><ellipse class="cls-4" cx="896.7" cy="57.97" rx="10.61" ry="6.51"/><path class="cls-4" d="M907.31,58c0,3.6-4.75,6.52-10.61,6.52a14.52,14.52,0,0,1-7.63-2,16,16,0,0,0,4.55.62c5.86,0,10.61-2.92,10.61-6.51,0-1.76-1.14-3.35-3-4.52C904.83,53.13,907.31,55.37,907.31,58Z"/><ellipse class="cls-4" cx="841.53" cy="309.62" rx="16.36" ry="9.86"/><path class="cls-4" d="M857.89,309.6c0,5.45-7.32,9.87-16.35,9.88a22.69,22.69,0,0,1-11.78-3,25.65,25.65,0,0,0,7,.94c9,0,16.35-4.43,16.35-9.88,0-2.66-1.75-5.07-4.6-6.84C854.07,302.28,857.89,305.67,857.89,309.6Z"/><ellipse class="cls-4" cx="676.07" cy="215.58" rx="5.26" ry="8.24"/><path class="cls-4" d="M681.32,215.58c0,4.55-2.34,8.24-5.25,8.25a4.64,4.64,0,0,1-3.78-2.52,3.68,3.68,0,0,0,2.26.79c2.9,0,5.25-3.69,5.25-8.24a11.18,11.18,0,0,0-1.48-5.73C680.09,209.46,681.32,212.29,681.32,215.58Z"/><ellipse class="cls-4" cx="333.26" cy="225.07" rx="12.33" ry="16.8" transform="translate(-16.35 26.34) rotate(-4.42)"/><path class="cls-4" d="M345.55,224.12c.72,9.25-4.21,17.18-11,17.7-3.47.27-6.76-1.45-9.24-4.43a9.76,9.76,0,0,0,5.4,1.21c6.79-.53,11.72-8.45,11-17.7a20.31,20.31,0,0,0-4.35-11.37C341.72,211.9,345,217.45,345.55,224.12Z"/><ellipse class="cls-4" cx="75.67" cy="378.32" rx="8.28" ry="11.44" transform="translate(-153.28 67.78) rotate(-25.09)"/><path class="cls-4" d="M83.17,374.81c2.68,5.72,1.5,11.93-2.65,13.87a7.35,7.35,0,0,1-6.88-.64,6.38,6.38,0,0,0,3.69-.5c4.15-1.94,5.33-8.16,2.65-13.88a13.89,13.89,0,0,0-5.47-6.21C77.82,367.93,81.24,370.68,83.17,374.81Z"/><ellipse class="cls-4" cx="308.13" cy="273.81" rx="8.28" ry="11.44" transform="translate(-87.03 156.49) rotate(-25.09)"/><path class="cls-4" d="M315.63,270.3c2.68,5.72,1.49,11.94-2.65,13.88a7.41,7.41,0,0,1-6.88-.64,6.46,6.46,0,0,0,3.69-.51c4.14-1.94,5.33-8.15,2.65-13.88a14.05,14.05,0,0,0-5.47-6.21C310.28,263.42,313.7,266.17,315.63,270.3Z"/><ellipse class="cls-4" cx="722.39" cy="300.35" rx="11.81" ry="16.31" transform="translate(-47.09 159.08) rotate(-12.17)"/><path class="cls-4" d="M733.94,297.86c1.9,8.8-1.73,17.06-8.11,18.43-3.26.71-6.61-.53-9.36-3.08a9.07,9.07,0,0,0,5.29.47c6.38-1.37,10-9.63,8.11-18.43a20,20,0,0,0-5.63-10.38C728.69,286.59,732.57,291.5,733.94,297.86Z"/><ellipse class="cls-4" cx="774.96" cy="282.14" rx="12.4" ry="7.74" transform="translate(-42.07 169.76) rotate(-12.17)"/><path class="cls-4" d="M787.08,279.53c.9,4.18-3.8,8.74-10.49,10.18a16.66,16.66,0,0,1-9.22-.43,18.75,18.75,0,0,0,5.36-.39c6.7-1.45,11.39-6,10.49-10.19-.44-2-2.13-3.61-4.53-4.52C783,274.51,786.43,276.51,787.08,279.53Z"/><ellipse class="cls-4" cx="45.69" cy="420.23" rx="19.66" ry="17.6" transform="translate(-173.88 59.02) rotate(-25.09)"/><path class="cls-4" d="M63.49,411.89c4.13,8.8-.51,19.67-10.34,24.28a20.77,20.77,0,0,1-15.09,1.12,21.61,21.61,0,0,0,8.37-2c9.83-4.6,14.46-15.47,10.34-24.27a16.64,16.64,0,0,0-10.18-8.73C53.8,402,60.52,405.54,63.49,411.89Z"/><ellipse class="cls-4" cx="675.17" cy="260.55" rx="16.36" ry="14.64" transform="translate(-46.78 310.87) rotate(-25.09)"/><path class="cls-4" d="M690,253.62c3.43,7.32-.42,16.37-8.6,20.2a17.27,17.27,0,0,1-12.56.93,18,18,0,0,0,7-1.69c8.18-3.83,12-12.88,8.61-20.2a13.81,13.81,0,0,0-8.47-7.26C681.91,245.39,687.51,248.33,690,253.62Z"/><ellipse class="cls-4" cx="887.22" cy="274.84" rx="18.3" ry="16.39" transform="translate(-26.13 106.03) rotate(-6.74)"/><path class="cls-4" d="M905.4,272.69c1.06,9-6.22,17.24-16.26,18.42a19.28,19.28,0,0,1-13.66-3.43,20,20,0,0,0,8,.66c10-1.19,17.31-9.44,16.25-18.43a15.47,15.47,0,0,0-6.43-10.69C899.73,261.11,904.63,266.2,905.4,272.69Z"/><ellipse class="cls-4" cx="1010.76" cy="319.48" rx="11.77" ry="13.15" transform="translate(601.56 1297.37) rotate(-84.83)"/><path class="cls-4" d="M1023.86,320.66c-.59,6.48-6.93,11.19-14.16,10.54a13.86,13.86,0,0,1-9.09-4.43,14.32,14.32,0,0,0,5.52,1.64c7.23.65,13.56-4.07,14.15-10.54a11.11,11.11,0,0,0-2.94-8.47A11.75,11.75,0,0,1,1023.86,320.66Z"/><ellipse class="cls-4" cx="1148.63" cy="408.4" rx="13.07" ry="14.6" transform="translate(630.45 1511.87) rotate(-84.42)"/><path class="cls-4" d="M1163.16,409.82c-.7,7.18-7.78,12.37-15.8,11.59a15.4,15.4,0,0,1-10.06-5,16,16,0,0,0,6.11,1.87c8,.78,15.1-4.41,15.8-11.59a12.38,12.38,0,0,0-3.19-9.43C1160.71,399.83,1163.67,404.64,1163.16,409.82Z"/><ellipse class="cls-4" cx="1145.66" cy="351.41" rx="10.98" ry="10.31" transform="translate(684.49 1457.45) rotate(-84.42)"/><path class="cls-4" d="M1155.92,352.41c-.59,6-5.66,10.48-11.33,9.93a10,10,0,0,1-7.06-4.07,9.7,9.7,0,0,0,4.3,1.49c5.67.55,10.75-3.89,11.34-9.93A11.31,11.31,0,0,0,1151,342,11.06,11.06,0,0,1,1155.92,352.41Z"/><ellipse class="cls-4" cx="1046.11" cy="345.76" rx="10.95" ry="7.73" transform="translate(-13.27 43.09) rotate(-2.34)"/><path class="cls-4" d="M1057.05,345.31c.18,4.26-4.58,7.92-10.62,8.17a13.54,13.54,0,0,1-8-2,14.81,14.81,0,0,0,4.73.55c6-.25,10.8-3.9,10.62-8.17a6.72,6.72,0,0,0-3.29-5.23C1054.27,339.68,1056.93,342.23,1057.05,345.31Z"/><ellipse class="cls-4" cx="987.39" cy="355.17" rx="10.83" ry="8.37" transform="translate(544.75 1306.57) rotate(-84.83)"/><path class="cls-4" d="M995.73,355.93c-.54,5.95-4.71,10.44-9.31,10a7.58,7.58,0,0,1-5.7-3.83,6.78,6.78,0,0,0,3.48,1.36c4.61.42,8.77-4.07,9.31-10a12.53,12.53,0,0,0-1.66-7.69C994.51,347.74,996.12,351.63,995.73,355.93Z"/><ellipse class="cls-4" cx="845.09" cy="38.44" rx="14.52" ry="13" transform="translate(1.33 99.45) rotate(-6.74)"/><path class="cls-4" d="M859.51,36.74c.84,7.13-4.93,13.67-12.89,14.61a15.36,15.36,0,0,1-10.84-2.72,15.88,15.88,0,0,0,6.34.52c8-.94,13.73-7.49,12.89-14.61a12.3,12.3,0,0,0-5.1-8.49C855,27.55,858.9,31.59,859.51,36.74Z"/><ellipse class="cls-4" cx="879.01" cy="161.47" rx="10.96" ry="15.74" transform="translate(-12.88 104.28) rotate(-6.74)"/><path class="cls-4" d="M889.89,160.18c1,8.63-3,16.21-9,16.92-3.07.36-6.07-1.14-8.39-3.85a8.26,8.26,0,0,0,4.85.95c6-.71,10.06-8.28,9-16.91a19.73,19.73,0,0,0-4.34-10.5C886,148.87,889.16,154,889.89,160.18Z"/><ellipse class="cls-4" cx="931.13" cy="45.58" rx="7.74" ry="10.94" transform="translate(1.09 109.6) rotate(-6.74)"/><path class="cls-4" d="M938.82,44.67c.71,6-2.16,11.27-6.41,11.78a6.89,6.89,0,0,1-5.92-2.67,5.94,5.94,0,0,0,3.42.66c4.25-.5,7.12-5.78,6.41-11.78a13.66,13.66,0,0,0-3.05-7.29C936.07,36.81,938.31,40.34,938.82,44.67Z"/><ellipse class="cls-4" cx="194.2" cy="112.46" rx="12.75" ry="9.37" transform="translate(-29.36 92.96) rotate(-25.09)"/><path class="cls-4" d="M205.75,107.06c2.19,4.69-1.2,10.91-7.57,13.89a15.29,15.29,0,0,1-9.53,1.3,16.64,16.64,0,0,0,5.34-1.5c6.38-3,9.77-9.21,7.58-13.9a8.26,8.26,0,0,0-6-4.37C200.1,102,204.16,103.68,205.75,107.06Z"/><ellipse class="cls-4" cx="513.86" cy="204.51" rx="17.04" ry="12.53" transform="translate(-38.24 237.18) rotate(-25.09)"/><path class="cls-4" d="M529.29,197.29c2.93,6.27-1.6,14.58-10.12,18.57a20.33,20.33,0,0,1-12.73,1.73,22.23,22.23,0,0,0,7.14-2c8.52-4,13-12.31,10.12-18.57-1.43-3.07-4.38-5.07-8-5.86C521.74,190.55,527.17,192.77,529.29,197.29Z"/><ellipse class="cls-4" cx="139.05" cy="151.03" rx="21.96" ry="9.51" transform="translate(-39.38 49.51) rotate(-17.73)"/><path class="cls-4" d="M160,144.35c1.6,5-6.47,12.05-18,15.74a40,40,0,0,1-15.94,2,47.08,47.08,0,0,0,9.26-2c11.55-3.69,19.62-10.74,18-15.75-.78-2.44-3.72-3.94-7.87-4.41C152.94,139.18,158.82,140.74,160,144.35Z"/><ellipse class="cls-4" cx="555.92" cy="322.43" rx="14.36" ry="7.82" transform="translate(-84.27 266.15) rotate(-25.09)"/><path class="cls-4" d="M568.93,316.34c1.83,3.92-2.51,9.82-9.69,13.18a21.46,21.46,0,0,1-10.37,2.22,25.07,25.07,0,0,0,5.9-1.93c7.19-3.37,11.52-9.27,9.69-13.18-.89-1.91-3.09-3-6-3.21C563.43,312.5,567.61,313.52,568.93,316.34Z"/><ellipse class="cls-4" cx="500.16" cy="298.27" rx="19.2" ry="17.2" transform="translate(-79.28 240.22) rotate(-25.09)"/><path class="cls-4" d="M517.55,290.13c4,8.6-.5,19.22-10.1,23.71a20.25,20.25,0,0,1-14.74,1.1,20.94,20.94,0,0,0,8.17-2c9.61-4.5,14.13-15.12,10.1-23.72a16.23,16.23,0,0,0-9.94-8.52C508.08,280.46,514.64,283.92,517.55,290.13Z"/><ellipse class="cls-4" cx="159.35" cy="262.94" rx="15.7" ry="14.06" transform="translate(-96.46 92.38) rotate(-25.09)"/><path class="cls-4" d="M173.57,256.28c3.29,7-.4,15.72-8.26,19.4a16.57,16.57,0,0,1-12.05.9,17.29,17.29,0,0,0,6.68-1.63c7.85-3.68,11.55-12.36,8.26-19.39a13.28,13.28,0,0,0-8.13-7C165.83,248.38,171.2,251.21,173.57,256.28Z"/><ellipse class="cls-4" cx="368.05" cy="299.38" rx="15.4" ry="13.79" transform="translate(-92.22 184.31) rotate(-25.09)"/><path class="cls-4" d="M382,292.84c3.23,6.9-.4,15.42-8.1,19a16.29,16.29,0,0,1-11.83.88,16.76,16.76,0,0,0,6.55-1.6c7.71-3.6,11.34-12.12,8.11-19a13,13,0,0,0-8-6.84C374.4,285.09,379.67,287.86,382,292.84Z"/></g></g></g></svg>