<svg xmlns="http://www.w3.org/2000/svg" xmlns:xlink="http://www.w3.org/1999/xlink" viewBox="0 0 1186.49 428.21"><defs><style>.cls-1{isolation:isolate;}.cls-2{fill:url(#radial-gradient);}.cls-3{fill:#4b9ae5;}.cls-4,.cls-5{fill:#428fd8;}.cls-4,.cls-6{opacity:0.2;mix-blend-mode:multiply;}.cls-7{fill:none;}</style><radialGradient id="radial-gradient" cx="619.94" cy="317.86" r="385.1" gradientTransform="translate(1573.53 -302.08) rotate(90) scale(1 3)" gradientUnits="userSpaceOnUse"><stop offset="0" stop-color="#4e9ae5"/><stop offset="0.1" stop-color="#4d95df"/><stop offset="0.25" stop-color="#4989cd"/><stop offset="0.41" stop-color="#4373b0"/><stop offset="0.59" stop-color="#3b5687"/><stop offset="0.79" stop-color="#313053"/><stop offset="0.99" stop-color="#240314"/><stop offset="1" stop-color="#240112"/></radialGradient></defs><g class="cls-1"><g id="Layer_2" data-name="Layer 2"><g id="Layer_4" data-name="Layer 4"><path class="cls-2" d="M1186.49,346.13v82.08H0v-58.5C167.68,271.4,381.55,212.47,614.52,212.47,828.21,212.47,1025.84,262.05,1186.49,346.13Z"/><path class="cls-3" d="M1180.25,218.7c-3.45-5.64-9.46-9-15.72-10.61a29.17,29.17,0,0,0-18,1.43,36.82,36.82,0,0,0-15.38,12.6,56.53,56.53,0,0,0-8.53,19.21c-3.49,13.94-2.48,28.51-5.44,42.53-.32,1.51-.69,3-1.11,4.48a47.91,47.91,0,0,1-4.24,9.81,37.23,37.23,0,0,1-5.16,6.31,33.24,33.24,0,0,1-2.88,2.29c-.63.44-1.27.86-1.93,1.24l-.06,0c-.33.15-.65.36-1,.5a28.8,28.8,0,0,1-4.1,1.51h0c-.37.07-.75.14-1.12.19a21.85,21.85,0,0,1-2.41.24,6,6,0,0,0-5.32,6.62,5.42,5.42,0,0,0,.14.7,5.93,5.93,0,0,0,3.47,5.95L1126.92,339c5.91,2.54,11.8,5.51,18,7.2,6.48,1.77,13.55.54,18.3-4.41,4.48-4.66,4.32-12.89-.06-17.42a5.27,5.27,0,0,0-.74-1.35c-.59-.77-1.14-1.56-1.66-2.38-.22-.36-.43-.73-.65-1.1l-.22-.45a33.75,33.75,0,0,1-2.07-5.5c-.14-.5-.44-2.17-.07-.18-.09-.48-.21-.95-.3-1.42-.19-.95-.34-1.91-.45-2.87a45.63,45.63,0,0,1-.3-5.48,54.93,54.93,0,0,1,2-12.35,103.56,103.56,0,0,1,8.64-19.29c3.41-6.13,7.22-12,10.47-18.27a54.45,54.45,0,0,0,5.84-16.44A27.07,27.07,0,0,0,1180.25,218.7Z"/><path class="cls-4" d="M1164.53,208.08a29.24,29.24,0,0,0-18,1.44,36.89,36.89,0,0,0-15.38,12.6,56.32,56.32,0,0,0-8.52,19.21c-3.5,13.94-2.48,28.51-5.45,42.53-.32,1.51-.69,3-1.11,4.48a47.91,47.91,0,0,1-4.24,9.81,37.23,37.23,0,0,1-5.16,6.31,30.13,30.13,0,0,1-2.88,2.29c-.63.44-1.27.85-1.92,1.24l-.07,0c-.33.15-.65.36-1,.5a28.8,28.8,0,0,1-4.1,1.51h0c-.37.07-.75.14-1.12.19a21.61,21.61,0,0,1-2.41.24,6.05,6.05,0,0,0-5.32,6.62c0,.24.09.47.14.7a5.92,5.92,0,0,0,3.47,5.95l3.59,1.54a6.21,6.21,0,0,1-1-4c-.06-.23-.11-.46-.15-.7a6,6,0,0,1,5.32-6.61c.8-.05,1.61-.12,2.41-.24l1.12-.2h0a30.07,30.07,0,0,0,4.1-1.51c.32-.14.64-.35,1-.49l.07-.05c.65-.38,1.29-.8,1.92-1.24a33.37,33.37,0,0,0,2.89-2.29,37.66,37.66,0,0,0,5.15-6.31,47.91,47.91,0,0,0,4.24-9.81c.42-1.48.79-3,1.11-4.48,3-14,2-28.59,5.44-42.53a56.23,56.23,0,0,1,8.54-19.2A36.75,36.75,0,0,1,1152.57,213a29.17,29.17,0,0,1,18-1.43,30.72,30.72,0,0,1,4.8,1.6A28.66,28.66,0,0,0,1164.53,208.08Zm-6.91,104.5a.75.75,0,0,0,0-.11A.89.89,0,0,0,1157.62,312.58Zm-43.12,8.93,1.08.47c-.11-.31-.22-.63-.31-1C1115,321.19,1114.76,321.36,1114.5,321.51Z"/><ellipse class="cls-5" cx="1164.14" cy="222.03" rx="11.19" ry="8.2"/><ellipse class="cls-5" cx="1175.33" cy="236.64" rx="9.27" ry="5.76" transform="translate(581.05 1277.91) rotate(-71.67)"/><ellipse class="cls-5" cx="1157.79" cy="241.87" rx="7.37" ry="8.23" transform="translate(133.11 832.65) rotate(-41.77)"/><ellipse class="cls-5" cx="1163.14" cy="260.65" rx="10.48" ry="6.85" transform="translate(145.27 880.95) rotate(-43.99)"/><ellipse class="cls-5" cx="1144.17" cy="230.23" rx="6.71" ry="5.23" transform="translate(410.67 1138.03) rotate(-62.44)"/><path class="cls-3" d="M646.13,207.29c-.89-1.37-.32-.45,0,0Z"/><path class="cls-3" d="M649,210.63c-1-1-1.94-2.13-2.82-3.27l-.06-.07.17.25c-.19-.29-.4-.56-.59-.84-.39-.57-.76-1.14-1.12-1.73a47.2,47.2,0,0,1-3.52-6.95,62.27,62.27,0,0,1-3.29-13.87,89.18,89.18,0,0,1,.84-21.71c3.44-20.32,11.22-39.7,13-60.34,1.61-19.1-2.67-39.84-17.78-52.85C626.6,43,618,38.75,608.36,38.15,599,37.56,590,41.06,582.78,47,576,52.52,571.05,60.43,568.22,68.7c-3.28,9.58-3.29,20-1.65,29.85,3.37,20.37,14.55,38.15,22.8,56.74.86,1.94,1.69,3.89,2.47,5.87a89.56,89.56,0,0,1,5.47,21,61.35,61.35,0,0,1-.27,14,46.59,46.59,0,0,1-3,10.07c-.61,1.26-1.29,2.49-2,3.68a6.18,6.18,0,0,0-2,3.13,7,7,0,0,0,4.57,8.58,89.63,89.63,0,0,0,47.65,3.32,6.57,6.57,0,0,0,4.22-3.13,6,6,0,0,0,2.28-1.46A7,7,0,0,0,649,210.63Z"/><g class="cls-6"><path class="cls-5" d="M629,226.59a88.65,88.65,0,0,1-34.39-5A7,7,0,0,1,590,213a6.27,6.27,0,0,1,2-3.13,41.08,41.08,0,0,0,2-3.69,46.34,46.34,0,0,0,3-10.06,61.35,61.35,0,0,0,.27-14,89.07,89.07,0,0,0-5.47-21c-.79-2-1.61-3.93-2.47-5.87-8.25-18.59-19.43-36.37-22.8-56.74-1.64-9.89-1.63-20.27,1.65-29.85C571.05,60.43,576,52.51,582.78,47c7.2-5.88,16.18-9.39,25.58-8.8.89.05,1.78.14,2.66.26A38.61,38.61,0,0,0,592.11,47c-6.81,5.56-11.72,13.48-14.55,21.75-3.28,9.58-3.29,20-1.65,29.85,3.37,20.37,14.55,38.15,22.8,56.74.86,1.94,1.68,3.89,2.47,5.87a89.05,89.05,0,0,1,5.46,21,60.78,60.78,0,0,1-.26,14,46.34,46.34,0,0,1-3,10.06,41.08,41.08,0,0,1-2,3.69,6.18,6.18,0,0,0-2,3.13,7,7,0,0,0,4.57,8.57A87.3,87.3,0,0,0,629,226.59Z"/></g><ellipse class="cls-5" cx="615.44" cy="62.01" rx="17.17" ry="15.69" transform="translate(-2.57 87.94) rotate(-8.16)"/><ellipse class="cls-5" cx="635.67" cy="87.94" rx="13.31" ry="11.64" transform="translate(494.52 713.95) rotate(-85.17)"/><ellipse class="cls-5" cx="603.88" cy="98.73" rx="17.05" ry="10.94" transform="translate(141.88 499.94) rotate(-50.26)"/><ellipse class="cls-5" cx="587.6" cy="78.49" rx="11.66" ry="8.24" transform="translate(309.47 602.01) rotate(-69.63)"/><path class="cls-3" d="M82,329.47a51.61,51.61,0,0,1-5.65-2.62c-.87-.47-1.72-1-2.56-1.49l-1.2-.77-.5-.36a51.42,51.42,0,0,1-8.49-7.72,50.51,50.51,0,0,1-6.41-9.9c-4.06-9-5.4-18.9-7.56-28.48-2.34-10.38-6.12-20.75-13.65-28.52A26.48,26.48,0,0,0,22.83,242c-4.84-1.07-10.52-.58-14.46,2.69-7.79,6.47-6.81,18.06-3.07,26.47,2.77,6.23,6.74,11.78,10.17,17.62,2.7,2.72,5.17,5.68,7.6,8.63A76.35,76.35,0,0,1,33,313.76,83.37,83.37,0,0,1,39.41,332c.69,3.25,1.23,6.49,1.66,9.76.61,2.9,1.06,5.84,1.44,8.76a64.49,64.49,0,0,1,.48,8.79l.12.51,4.16-2.3,32.39-17.92h0a5.21,5.21,0,0,0,1.53-.23,5.51,5.51,0,0,0,3.19-2.7C85.5,334.25,84.83,330.56,82,329.47Z"/><path class="cls-4" d="M49.81,356.14l-2.54,1.41-4.16,2.3-.12-.51a62.93,62.93,0,0,0-.49-8.79c-.37-2.92-.82-5.86-1.43-8.76-.43-3.27-1-6.51-1.66-9.77A83,83,0,0,0,33,313.76a76,76,0,0,0-9.9-16.39c-2.43-2.95-4.9-5.91-7.6-8.63C12,282.9,8.07,277.35,5.3,271.12c-3.74-8.41-4.72-20,3.07-26.47,3.64-3,8.78-3.67,13.36-2.91a13.92,13.92,0,0,0-6.5,2.91c-7.79,6.47-6.81,18.06-3.07,26.47,2.77,6.23,6.74,11.78,10.17,17.62,2.7,2.72,5.17,5.68,7.6,8.63a76.35,76.35,0,0,1,9.9,16.39A84,84,0,0,1,46.27,332c.69,3.26,1.23,6.5,1.66,9.77.61,2.9,1.07,5.84,1.44,8.76C49.6,352.4,49.75,354.27,49.81,356.14Z"/><ellipse class="cls-5" cx="39.03" cy="270.06" rx="5" ry="7.65" transform="translate(-61.38 16.34) rotate(-13.37)"/><ellipse class="cls-5" cx="23.83" cy="255.77" rx="7.33" ry="10.14" transform="translate(-135.22 54.06) rotate(-32.93)"/><ellipse class="cls-5" cx="25.95" cy="277.75" rx="8.2" ry="6.79" transform="translate(-248.63 228.49) rotate(-74.49)"/><path class="cls-3" d="M1015.35,246.23Z"/><path class="cls-3" d="M1017.86,250.13l-.08-.11.08.11Z"/><path class="cls-3" d="M1084.68,260.68c4.49-11.9,11-22.89,15.35-34.88,3.7-10.33,5.54-22.06,1.51-32.6A26.48,26.48,0,0,0,1091.05,180c-5.49-3.5-12.35-3.89-18.52-2.31a31.2,31.2,0,0,0-15.23,9.61c-4.56,5.21-7.35,11.43-9.59,17.91s-3.92,13.44-5.76,20.17c-1.7,6.19-3.16,12.52-5.27,18.59a35,35,0,0,1-3.21,6.46c-.36.47-.74.93-1.14,1.36s-.62.64-.95.94l-.09.06c-.37.27-.76.53-1.15.76l-.34.19a15.19,15.19,0,0,1-1.8.6,16.72,16.72,0,0,1-2.12.1,18,18,0,0,1-2.71-.61,20.27,20.27,0,0,1-3.06-1.61c-.44-.34-.86-.69-1.26-1.06s-.66-.64-1-1h0l.22.3-.22-.3c-.33-.36-.82-1.15-.08-.11a33.9,33.9,0,0,1-2.41-3.69c-.17-.31-.31-.63-.48-.94.24.44.39.7.46.84-.11-.21-.33-.63-.43-.86-.31-.77-.59-1.55-.85-2.33-.41-1.3-.74-2.62-1-3.95a59.06,59.06,0,0,1-.51-13.42c1.75-18.45,9.85-35.45,13.81-53.43,3.66-16.66,4.2-36.33-6.65-50.6-9.35-12.3-26.13-21.2-41.61-15.41a33.7,33.7,0,0,0-18.43,17.62c-3.91,8.43-5,17.66-4.44,26.88.61,9.37,2.85,18.54,4.11,27.83a167.29,167.29,0,0,1,1.38,28.82q-.13,3.12-.37,6.24c-.42,4.8-1,9.59-1.88,14.34a95,95,0,0,1-3.15,13.62,27.87,27.87,0,0,1-2.33,4.63,18.82,18.82,0,0,1-1.24,1.44c-.19.19-.63.48-.86.74l-.26.18c-.38.25-.76.49-1.16.71l0,0a14.54,14.54,0,0,1-1.69.56c-.4,0-.8.06-1.2.07s-.78-.16-1.17-.27a6.93,6.93,0,0,0-4.61-.19,7,7,0,0,0-4,3.33,7.68,7.68,0,0,0-.54,1.66,6.1,6.1,0,0,0-1,2.38c-.68,3.93,1.55,7,5.24,8.18L994,281.6l53.49,16.57,30.07,9.32a3.61,3.61,0,0,0,.87.16,7.66,7.66,0,0,0,4.09,1.06,7.06,7.06,0,0,0,4.69-2.21,7,7,0,0,0,1.81-5,7.83,7.83,0,0,0-2.21-4.69l-.1-.11-.37-.47c-.37-.49-.73-1-1.07-1.51s-.7-1.13-1-1.71c-.17-.31-.55-1.15-.67-1.4a35.92,35.92,0,0,1-1.84-5.92,45.81,45.81,0,0,1-.41-10A65.54,65.54,0,0,1,1084.68,260.68Z"/><g class="cls-6"><path class="cls-5" d="M1015.41,246.31c.08.15.11.19,0,0Z"/><path class="cls-5" d="M1017.92,250.2l-.08-.11.08.11Z"/><path class="cls-5" d="M1002.22,107.65a29.81,29.81,0,0,0-18.3.7A33.74,33.74,0,0,0,965.49,126c-3.91,8.43-5,17.67-4.44,26.88.62,9.37,2.85,18.54,4.11,27.83a167.33,167.33,0,0,1,1.38,28.82c-.08,2.08-.21,4.16-.37,6.24-.42,4.8-1,9.59-1.88,14.34a93.68,93.68,0,0,1-3.15,13.62,27.87,27.87,0,0,1-2.33,4.63,17.08,17.08,0,0,1-1.24,1.44c-.18.19-.63.48-.86.74l-.26.18c-.37.26-.76.49-1.15.71l0,0a12.86,12.86,0,0,1-1.69.56c-.4,0-.8.07-1.2.07s-.78-.16-1.17-.27a6.76,6.76,0,0,0-8.57,3.15,6.92,6.92,0,0,0-.53,1.65,6,6,0,0,0-1,2.39,6.85,6.85,0,0,0,3.3,7.32l-3.83-1.19c-3.69-1.15-5.92-4.25-5.25-8.18a6.32,6.32,0,0,1,1-2.39,7.42,7.42,0,0,1,.54-1.65,6.76,6.76,0,0,1,8.57-3.15,11.67,11.67,0,0,0,1.17.27,9.66,9.66,0,0,0,1.2-.07,12.86,12.86,0,0,0,1.69-.56l0,0c.4-.22.78-.45,1.16-.71l.26-.18c.23-.26.67-.55.85-.74a15.54,15.54,0,0,0,1.25-1.44,27.87,27.87,0,0,0,2.33-4.63A95,95,0,0,0,958.52,228c.84-4.75,1.46-9.54,1.88-14.34q.24-3.12.36-6.24a166.33,166.33,0,0,0-1.37-28.82c-1.26-9.29-3.5-18.46-4.11-27.83-.61-9.21.53-18.45,4.44-26.87a33.76,33.76,0,0,1,18.43-17.63C986.23,103.28,994.67,104.26,1002.22,107.65Z"/><path class="cls-5" d="M1089.91,179.32a26.31,26.31,0,0,0-11.54.44,31.25,31.25,0,0,0-15.24,9.61c-4.56,5.21-7.35,11.43-9.59,17.91s-3.92,13.44-5.76,20.17c-1.7,6.2-3.16,12.52-5.27,18.59a34.5,34.5,0,0,1-3.21,6.47c-.36.46-.73.92-1.14,1.35s-.62.64-1,.95l-.09.05a12.8,12.8,0,0,1-1.15.77l-.34.19a17.19,17.19,0,0,1-1.8.59,14.91,14.91,0,0,1-2.11.1,19.1,19.1,0,0,1-2.72-.6,20.86,20.86,0,0,1-2.78-1.44,16,16,0,0,0,1.83-.11,16.62,16.62,0,0,0,1.81-.59l.33-.2a12.76,12.76,0,0,0,1.16-.75.23.23,0,0,1,.09-.06c.32-.31.65-.62,1-.94s.78-.89,1.14-1.36a35.35,35.35,0,0,0,3.21-6.46c2.11-6.08,3.57-12.41,5.27-18.6,1.84-6.73,3.48-13.57,5.76-20.17s5-12.7,9.59-17.91a31.27,31.27,0,0,1,15.23-9.61C1078.32,176.25,1084.64,176.47,1089.91,179.32Z"/></g><ellipse class="cls-5" cx="977.1" cy="220.58" rx="7.65" ry="5" transform="translate(130.21 755.52) rotate(-45)"/><ellipse class="cls-5" cx="972.91" cy="241.02" rx="10.14" ry="7.33" transform="translate(337.42 1016.13) rotate(-64.57)"/><ellipse class="cls-5" cx="1085.51" cy="194.06" rx="11.5" ry="10.5" transform="translate(-16.55 155.97) rotate(-8.16)"/><ellipse class="cls-5" cx="972.97" cy="146.53" rx="7.68" ry="11.72" transform="translate(-3.1 22.33) rotate(-1.31)"/><ellipse class="cls-5" cx="993.66" cy="123.97" rx="15.6" ry="13.52" transform="translate(-7.54 142.23) rotate(-8.16)"/><ellipse class="cls-5" cx="1090.81" cy="216.52" rx="8.91" ry="7.79" transform="translate(783.23 1285.23) rotate(-85.17)"/><ellipse class="cls-5" cx="1086.43" cy="235.46" rx="7.68" ry="5.95" transform="translate(202.89 910.09) rotate(-49.59)"/><ellipse class="cls-5" cx="994.41" cy="163.18" rx="19.98" ry="11.32" transform="translate(258.27 851.35) rotate(-52.39)"/><ellipse class="cls-5" cx="1065.38" cy="203.74" rx="8.2" ry="6.79" transform="translate(584.24 1175.88) rotate(-74.49)"/><ellipse class="cls-5" cx="1074.32" cy="217.25" rx="7.81" ry="5.52" transform="translate(496.68 1148.75) rotate(-69.63)"/><ellipse class="cls-5" cx="1016.54" cy="140.03" rx="8.21" ry="11.91" transform="translate(-9.58 145.64) rotate(-8.16)"/><path class="cls-3" d="M922.46,225.11l-.05.08C922.24,225.51,921.92,226.24,922.46,225.11Z"/><path class="cls-3" d="M917.6,237.89v0c.36-1,.27-1,.16-.71a1.24,1.24,0,0,1,0,.16C917.67,237.55,917.64,237.72,917.6,237.89Z"/><path class="cls-3" d="M940.53,162.05c-3.18-7-9.22-13.22-16.86-15.07a25.25,25.25,0,0,0-14.13.43,32.15,32.15,0,0,0-11.23,6.5c-6.78,6-11.09,13.86-14,22.32-1.5,4.33-2.72,8.74-4.13,13.1-.69,2.13-1.42,4.25-2.25,6.32-.38,1-.78,1.92-1.21,2.86-.23.5-.48,1-.71,1.5l-.14.27-.15.27a32.46,32.46,0,0,1-3.22,4.83c-.25.29-.52.57-.76.87.16-.19.28-.35.38-.46-.13.15-.28.32-.39.43-.69.69-1.41,1.34-2.16,2s-1.32,1-2,1.52l0,0c-.43.25-.86.51-1.3.75-.72.39-1.47.75-2.23,1.07-.39.17-.79.31-1.19.48l-.11,0a22.87,22.87,0,0,1-2.32.52c-.42.07-.84.13-1.25.17h0a20.33,20.33,0,0,1-2.21-.14c-.22,0-.44-.08-.65-.1l-.47-.16c-.33-.12-.66-.24-1-.38l-.18-.08c-.21-.12-.66-.37-.79-.46-.41-.28-.79-.58-1.18-.88l0,0c-.27-.27-.52-.56-.77-.85s-.55-.69-.82-1h0a.91.91,0,0,0-.06-.11,19.29,19.29,0,0,1-1.11-2.23c-.15-.34-.28-.68-.41-1a3,3,0,0,0,.09.35c0-.16-.1-.33-.15-.5l0-.08a2.1,2.1,0,0,1-.14-.51,36,36,0,0,1-1-5.15c-.12-.92-.19-1.85-.27-2.78,0-.47,0-.93,0-1.39,0-2.3,0-4.59.1-6.89a199.66,199.66,0,0,1,3.4-28.73q.66-3.57,1.39-7.12l.75-3.57c.11-.5.25-1,.33-1.52-.28,1.81.07-.28.17-.74,1.06-4.75,2.17-9.48,3.29-14.22,2.35-10,4.71-20,6.61-30a206.43,206.43,0,0,0,3.62-28.57C868,64.54,867.6,55,865.32,46S859.1,28.46,852.81,21.6C847,15.23,839.35,10,830.84,8.1A37,37,0,0,0,805,11.34a47.79,47.79,0,0,0-17.85,16.9c-10.46,16.89-9.78,37.47-5.7,56.24,2,9.41,4.92,18.6,7.37,27.91,1.22,4.63,2.33,9.3,3.19,14,.42,2.36.79,4.72,1.06,7.09.14,1.2.26,2.39.35,3.58,0,.22.08,1.41.09,1.41,0,.21,0,.42,0,.63a62.38,62.38,0,0,1-.14,6.7c-.17,2.17-.63,4.26-.9,6.39.18-1.52,0,0-.12.5s-.3,1.06-.45,1.59c-.35,1.12-.74,2.24-1.19,3.33-.18.43-.37.86-.56,1.29-.08.15-.15.31-.22.46-.63.83-1.07,1.9-1.66,2.77s-1,1.44-1.63,2.12a2.09,2.09,0,0,1-.14.17c-.37.35-.72.72-1.1,1.07-.66.61-1.35,1.19-2.06,1.73-.22.17-.44.33-.67.48s-.55.38-.77.5a26.41,26.41,0,0,1-2.37,1.21q-.64.29-1.32.54l-.13,0-.1,0a24.1,24.1,0,0,1-2.55.56c-.38.06-.77.09-1.16.14l-.4,0a19,19,0,0,1-2.61-.21l-.38-.07c-.38-.11-.75-.21-1.13-.34a22.4,22.4,0,0,1-2.17-.88l-.15-.09c-.45-.26-.89-.55-1.32-.84-.67-.47-1.3-1-1.93-1.49l-.1-.1c-.38-.38-.75-.76-1.1-1.16-.58-.64-1.14-1.32-1.66-2-.28-.38-.56-.76-.82-1.15l-.34-.51c.09.13.17.24.23.34a.16.16,0,0,0,0-.07,36.78,36.78,0,0,1-2.53-5.11c-.18-.43-.34-.87-.51-1.31-.25-1.12-.64-2.21-.9-3.33a91.2,91.2,0,0,1-1.85-14.15c-.6-8.72-.84-17.52-3.53-25.91s-7.48-16.92-15.58-21.26c-7.49-4-16.8-5.37-24.66-1.43A21.9,21.9,0,0,0,700.9,100c-2.12,4.37-2.42,9.31-2.09,14.07.63,9,5.09,16.81,8.45,24.93.41,1,.81,2,1.17,3l.23.66c0,.08.05.13.06.17-.05-.18-.25-.76-.25-.77.3.28.4,1.34.51,1.76a30.81,30.81,0,0,1,.68,3.14c.08.45.14.91.19,1.36,0,.16,0,.32,0,.48-.12.75,0,1.61-.1,2.37,0,.33-.09.65-.14,1a.19.19,0,0,0,0,.07,20,20,0,0,1-.83,2.4c-.09.21-.18.42-.28.63s-.13.26-.2.37a18.35,18.35,0,0,1-1.33,1.93c-.28.24-.54.56-.82.8s-.53.43-.8.65-.52.28-.79.4l-.48.2-.49.06-.48.07-.13,0c-.49-.08-1-.24-1.29-.25l.43,0-.65-.23-.39-.17c-.48-.31-1-.63-1.41-1l-.48-.4a34.07,34.07,0,0,1-2.44-2.79c-1.73-2.2-3.23-4.56-4.79-6.88-3.29-4.9-7.15-9.91-12.9-12a16.88,16.88,0,0,0-12.29.38c-4.53,1.92-7.71,5.86-9.75,10.21-4.45,9.46-.28,19.91,3.58,28.76L673,203.76q6,13.77,12,27.52a7,7,0,0,0,8.58,3.5l83.88,11.39,84.18,11.43,47.67,6.48a6.5,6.5,0,0,0,4.78-1.45,5.82,5.82,0,0,0,1.54-.56,7,7,0,0,0,3.22-9.17c-.41-.85-.69-1.8-1.09-2.65l-.06-.18c-.15-.56-.27-1.12-.39-1.69-.2-1-.31-2-.41-3,0-.56,0-1.11,0-1.66a38.9,38.9,0,0,1,.67-5.79s0,0,0,.06l0-.09.06-.34a1.52,1.52,0,0,1,.1-.34c.11-.46.23-.92.37-1.38.29-1,.62-2,1-3a60.32,60.32,0,0,1,2.48-5.93c.23-.48.46-1,.7-1.44l.09-.16.23-.45-.14.29c.5-.9,1-1.8,1.52-2.69,2.29-3.84,4.77-7.55,7.19-11.31,5.28-8.23,10.11-16.78,12.08-26.45A37.64,37.64,0,0,0,940.53,162.05Zm-237-2.2a2.47,2.47,0,0,1-.36,0l.7-.07-.13.07a.93.93,0,0,0,.24-.07A.73.73,0,0,1,703.52,159.85Z"/><path class="cls-3" d="M702.15,159.57l.22.07C703,159.84,703.66,159.69,702.15,159.57Z"/><path class="cls-3" d="M849.35,205.1l.06.15c-.17-.65-.23-.8-.23-.74l.09.34C849.3,204.93,849.32,205,849.35,205.1Z"/><path class="cls-3" d="M872.09,205.79Z"/><path class="cls-3" d="M760.39,162.25c.24.36.7,1,0,0Z"/><g class="cls-6"><path class="cls-5" d="M922.52,225.11c-.19.4-.28.56-.3.6a3.71,3.71,0,0,1,.19-.4l.06-.12A.56.56,0,0,1,922.52,225.11Z"/><path class="cls-5" d="M923.72,147a25.22,25.22,0,0,0-14.12.43,32.15,32.15,0,0,0-11.23,6.5c-6.79,6-11.1,13.86-14,22.32-1.51,4.33-2.73,8.74-4.14,13.1-.69,2.13-1.42,4.25-2.25,6.32-.38,1-.78,1.92-1.21,2.86-.23.5-.48,1-.72,1.5,0,.06-.08.17-.13.27s-.14.25-.15.27a31.77,31.77,0,0,1-3.23,4.83c-.24.29-.51.57-.75.88.16-.2.28-.36.38-.47-.13.15-.28.32-.39.43-.69.69-1.41,1.34-2.16,2s-1.32,1-2,1.52l0,0c-.43.25-.85.51-1.29.75-.73.39-1.48.75-2.24,1.07-.39.17-.79.32-1.19.48l-.11,0a23.49,23.49,0,0,1-2.32.52l-.22,0c.33.26.65.52,1,.75l.8.47.18.08c.32.13.66.26,1,.37.14,0,.3.11.46.17s.44.07.65.1c.74.09,1.47.11,2.21.13h0c.42,0,.84-.1,1.26-.17a22.68,22.68,0,0,0,2.31-.52l.12,0,1.19-.47c.76-.33,1.5-.69,2.23-1.08.44-.24.87-.49,1.3-.75h0c.69-.48,1.37-1,2-1.53a28.5,28.5,0,0,0,2.16-2c.1-.1.25-.27.38-.43l-.37.47c.24-.3.51-.58.75-.88a32,32,0,0,0,3.23-4.83l.15-.27c0-.1.11-.21.13-.26.24-.51.48-1,.71-1.51.43-.94.84-1.89,1.22-2.85.83-2.08,1.56-4.2,2.25-6.32,1.4-4.36,2.63-8.78,4.13-13.11,2.93-8.45,7.24-16.34,14-22.32a32.22,32.22,0,0,1,11.23-6.5,24.55,24.55,0,0,1,10.49-1.07A20,20,0,0,0,923.72,147Zm-80.63,62.91.31.14c-.08-.25-.14-.49-.21-.74ZM805,11.34a47.73,47.73,0,0,0-17.85,16.91c-10.46,16.88-9.78,37.46-5.7,56.23,2,9.41,4.92,18.6,7.37,27.91,1.21,4.63,2.33,9.3,3.19,14,.42,2.36.78,4.72,1.06,7.1.14,1.19.26,2.38.35,3.57,0,.22.08,1.41.09,1.41,0,.21,0,.42,0,.63a62.38,62.38,0,0,1-.14,6.7c-.17,2.17-.63,4.26-.9,6.39.18-1.52,0,0-.13.5s-.28,1.06-.45,1.59c-.34,1.12-.74,2.24-1.18,3.33-.18.43-.37.87-.57,1.29-.07.16-.14.31-.22.46-.62.83-1.06,1.9-1.66,2.77a25.28,25.28,0,0,1-1.62,2.12l-.14.17c-.37.35-.72.72-1.1,1.07-.66.61-1.35,1.19-2.06,1.73l-.67.49a6.36,6.36,0,0,0-.77.49,26.41,26.41,0,0,1-2.37,1.21c-.44.19-.87.37-1.32.54l-.13,0-.1,0a22.3,22.3,0,0,1-2.55.56c-.39.06-.77.09-1.16.14h-.08c.19.12.38.24.58.35l.16.1a21.42,21.42,0,0,0,2.17.88c.37.12.75.22,1.13.33l.38.08a20.56,20.56,0,0,0,2.61.2l.4,0c.38,0,.77-.07,1.16-.14a20.36,20.36,0,0,0,2.55-.56l.1,0,.13,0c.44-.18.88-.35,1.31-.55a25.05,25.05,0,0,0,2.37-1.2,6.12,6.12,0,0,1,.78-.5l.67-.49a25.84,25.84,0,0,0,2.06-1.73c.37-.34.72-.72,1.09-1.07l.15-.16c.57-.69,1.12-1.4,1.62-2.13s1-1.94,1.66-2.77c.08-.15.15-.3.22-.46.2-.42.38-.85.56-1.29.45-1.09.85-2.2,1.19-3.33q.24-.79.45-1.59c.12-.48.31-2,.12-.5.28-2.13.74-4.22.9-6.38a65.15,65.15,0,0,0,.15-6.7c0-.21,0-.43,0-.64,0,0-.08-1.19-.1-1.41-.09-1.19-.21-2.38-.34-3.57-.28-2.37-.64-4.74-1.07-7.09-.85-4.72-2-9.38-3.19-14-2.44-9.3-5.33-18.5-7.37-27.9-4.08-18.77-4.75-39.36,5.71-56.24a47.63,47.63,0,0,1,17.85-16.9,36.63,36.63,0,0,1,23.22-3.76A35,35,0,0,0,830.9,8.1,37,37,0,0,0,805,11.34ZM710.85,89.68A22,22,0,0,0,701,100c-2.11,4.37-2.42,9.31-2.08,14.07.63,9,5.09,16.81,8.45,24.93.41,1,.81,2,1.17,3l.23.66a1.45,1.45,0,0,0,.08.2c0-.1-.28-.78-.28-.8.31.29.41,1.34.52,1.77.27,1,.51,2.08.68,3.13.07.45.14.91.19,1.36,0,.16,0,.32.05.48-.12.75,0,1.61-.1,2.37,0,.33-.1.65-.14,1a.19.19,0,0,0,0,.07,21.92,21.92,0,0,1-.83,2.4c-.09.21-.18.42-.28.63s-.13.26-.2.37a17,17,0,0,1-1.34,1.93c-.28.24-.53.57-.81.8l-.49.4c.29.32.58.63.88.94.16.13.31.28.48.4a16.9,16.9,0,0,0,1.41,1l.39.17.64.23-.42,0c.28,0,.8.17,1.28.26l.13,0,.49-.07.49-.07.48-.2c.26-.12.52-.26.78-.4s.55-.42.81-.65.53-.55.81-.8a17,17,0,0,0,1.34-1.93c.07-.11.13-.24.2-.37s.19-.41.28-.62a22.85,22.85,0,0,0,.83-2.41.14.14,0,0,1,0-.06c0-.33.1-.65.14-1,.09-.76,0-1.62.1-2.37,0-.16,0-.32,0-.47,0-.46-.12-.91-.19-1.37-.18-1.05-.41-2.1-.68-3.13-.12-.43-.21-1.48-.52-1.76,0,0,.24.69.27.79l-.07-.2c-.08-.21-.15-.43-.23-.65q-.55-1.53-1.17-3c-3.36-8.12-7.83-16-8.46-24.93-.33-4.76,0-9.69,2.09-14.06a21.86,21.86,0,0,1,9.89-10.34A23.68,23.68,0,0,1,732,89.49C725.26,86.81,717.53,86.33,710.85,89.68Zm.42,72-.71.08a1.23,1.23,0,0,0,.82-.08h0l-.25.08A.54.54,0,0,1,711.27,161.67Zm-30.87,44L668,177.41c-3.87-8.85-8-19.29-3.59-28.76,2-4.35,5.22-8.29,9.76-10.21a17.2,17.2,0,0,1,7.1-1.35,16.11,16.11,0,0,0-2.16-1,16.88,16.88,0,0,0-12.29.38c-4.53,1.92-7.71,5.86-9.76,10.21-4.44,9.46-.28,19.91,3.59,28.76l12.36,28.28,12,27.52a7,7,0,0,0,8.42,3.56,5.63,5.63,0,0,1-1.07-1.62Z"/><path class="cls-5" d="M702.21,159.57l.21.07C703.09,159.84,703.72,159.69,702.21,159.57Z"/><path class="cls-5" d="M849.46,205.25l-.05-.15a2.41,2.41,0,0,1-.08-.25l-.09-.34h0S849.3,204.62,849.46,205.25Z"/><path class="cls-5" d="M872.15,205.79Z"/><path class="cls-5" d="M760.45,162.25c.24.36.7,1,0,0Z"/></g><ellipse class="cls-5" cx="678.39" cy="154.41" rx="11.94" ry="9" transform="translate(519.86 831.85) rotate(-89.65)"/><ellipse class="cls-5" cx="693.1" cy="171.87" rx="10.45" ry="6.92" transform="translate(457.34 845.92) rotate(-84.65)"/><ellipse class="cls-5" cx="819.7" cy="166.6" rx="11.78" ry="7.94" transform="translate(271.05 797.99) rotate(-60.5)"/><ellipse class="cls-5" cx="856.19" cy="76.73" rx="10.14" ry="7.33" transform="translate(419.19 816.99) rotate(-64.57)"/><ellipse class="cls-5" cx="678.04" cy="178.58" rx="5.62" ry="8.58" transform="translate(-22.54 149.96) rotate(-12.42)"/><ellipse class="cls-5" cx="838.06" cy="178.99" rx="7.38" ry="12.59" transform="translate(-9.17 50.18) rotate(-3.41)"/><ellipse class="cls-5" cx="927.76" cy="180.23" rx="11.03" ry="13.79" transform="matrix(0.04, -1, 1, 0.04, 706.79, 1099.14)"/><ellipse class="cls-5" cx="827.54" cy="29.67" rx="13.82" ry="17.27" transform="translate(761.4 855.1) rotate(-87.47)"/><ellipse class="cls-5" cx="852.41" cy="50.39" rx="10.08" ry="11.88" transform="translate(1.47 121.45) rotate(-8.16)"/><ellipse class="cls-5" cx="718.15" cy="114.11" rx="8.97" ry="10.56" transform="translate(-8.93 103.04) rotate(-8.16)"/><ellipse class="cls-5" cx="924.28" cy="202.42" rx="9.23" ry="6.51" transform="translate(150.45 746.89) rotate(-47.48)"/><ellipse class="cls-5" cx="838.78" cy="151.78" rx="8.85" ry="6.56" transform="translate(181.65 694.71) rotate(-49.82)"/><ellipse class="cls-5" cx="772.66" cy="179.89" rx="6.81" ry="5.96" transform="translate(392.75 876.33) rotate(-74.49)"/><ellipse class="cls-5" cx="802.57" cy="44.75" rx="7.48" ry="10.26" transform="translate(1.77 114.32) rotate(-8.16)"/><ellipse class="cls-5" cx="741.29" cy="117.67" rx="8.33" ry="5.88" transform="translate(40.48 386.41) rotate(-30)"/><ellipse class="cls-5" cx="755.33" cy="175.71" rx="7" ry="11.28" transform="translate(27.67 443.86) rotate(-33.33)"/><ellipse class="cls-5" cx="904.62" cy="172.21" rx="10.17" ry="6.71" transform="translate(496.84 997.86) rotate(-74.49)"/><ellipse class="cls-5" cx="732.05" cy="101.41" rx="6.71" ry="10.17" transform="translate(278.2 684.68) rotate(-60)"/><ellipse class="cls-5" cx="922.38" cy="158.43" rx="9.78" ry="7.82" transform="translate(-12.46 202.68) rotate(-12.46)"/><ellipse class="cls-5" cx="825.22" cy="58.45" rx="13.52" ry="9.23" transform="translate(107.29 469.51) rotate(-33.85)"/><path class="cls-7" d="M207.13,260.41l-.16.26-.05.13A3.72,3.72,0,0,1,207.13,260.41Z"/><path class="cls-7" d="M206.92,260.8l-.24.52a1.49,1.49,0,0,0,.18-.36Z"/><path class="cls-7" d="M293.9,214.93c-.06-.15-.12-.29-.17-.44l0,.11A1.89,1.89,0,0,0,293.9,214.93Z"/><path class="cls-7" d="M319.78,239.47h-.19Z"/><path class="cls-7" d="M200.78,268.28l.34-.27c-.2.1-.39.22-.58.33C200.18,268.59,200.47,268.54,200.78,268.28Z"/><path class="cls-7" d="M319.87,239.49c.53.1.66.11.58.08s-.45-.08-.67-.1Z"/><path class="cls-7" d="M246.47,165.66s0,0,0-.06h0l0,.07Z"/><path class="cls-7" d="M188.58,270.4h0l-.12,0Z"/><path class="cls-7" d="M188.85,270.55c.36.19.56.19.54.12a5.49,5.49,0,0,0-.81-.27Z"/><path class="cls-7" d="M183.49,265.77l0,0-.11-.11Z"/><path class="cls-7" d="M183.6,265.94a2.73,2.73,0,0,0,.2.25c-.1-.14-.2-.29-.31-.42Z"/><path class="cls-3" d="M197.15,270.22Z"/><path class="cls-3" d="M320.45,239.57a2.78,2.78,0,0,0-.71-.11h0C320,239.49,320.23,239.53,320.45,239.57Z"/><path class="cls-3" d="M332.24,249.24a6,6,0,0,0,.46-2.39c0-3.43-2.78-7.33-6.62-7.11a33,33,0,0,1-3.85,0c-.51,0-1-.08-1.52-.14l-.26,0c.08,0-.05,0-.58-.08l-.09,0-.19,0h.15c-1.06-.22-2.1-.5-3.14-.82-.59-.19-1.18-.4-1.76-.62l-.7-.28c-1.16-.65-2.32-1.27-3.45-1.92a12.44,12.44,0,0,0-3.22-2.11,8.24,8.24,0,0,0-.83-.63c1.82,1.17,0,0-.4-.39-1-.86-1.91-1.76-2.81-2.7s-1.68-1.84-2.47-2.8l-1.09-1.38-.59-.85a55,55,0,0,1-3.82-6.56c-.56-1.14-1.08-2.3-1.56-3.47h0a1.89,1.89,0,0,1-.13-.33l0-.11c-.07-.16-.13-.33-.2-.49l.13.31c-.22-.66-.45-1.31-.66-2a54.41,54.41,0,0,1-1.8-7.67c-.14-.85-.27-1.71-.38-2.58l-.12-1c-.12-1.72-.24-3.44-.29-5.16-.09-3.38,0-6.76.25-10.13s.63-6.78,1.09-10.15c.23-1.65.48-3.3.74-4.94.06-.35.11-.7.17-1,0,0,.16-1,.17-1l.06-.33.27-1.56c2.46-13.94,5.52-27.87,5.73-42.09s-2.23-29.25-10.34-41.23c-3.83-5.66-9.07-11.13-15.94-12.84A20.65,20.65,0,0,0,252.31,77c-9.52,10.51-10.29,25.21-8.87,38.63.63,6,1.75,11.88,2.79,17.79.53,3,1,6,1.45,9,.11.77.2,1.54.29,2.31l.09.8c.13,1.5.24,3,.29,4.49a58.47,58.47,0,0,1-.31,8.88c0,.3-.07.6-.11.91l-.06.45c-.12.73-.09.6.07-.41a6.25,6.25,0,0,1-.4,2c-.15.68-.31,1.35-.5,2-.11.38-.22.76-.35,1.13l-.15.42-.06.13h0s0,0,0,.06h0l0-.07a.81.81,0,0,0-.34.09l-.69,0-.11,0c-.4-.12-2-.39-2.15-.73,0,0,1.51.79.37.14-.26-.14-.53-.28-.78-.43a22.13,22.13,0,0,1-1.9-1.24c-.25-.18-.48-.37-.73-.54l0,0-.19-.16a35.86,35.86,0,0,1-3-3c-.45-.51-.89-1-1.31-1.56l-.23-.24-.08-.13c-.14-.18-.27-.37-.4-.56a58.18,58.18,0,0,1-4.46-7.78c-.64-1.34-1.25-2.68-1.82-4-.28-.64-.54-1.29-.8-1.94l-.42-1.06,0-.05c-1.18-3.15-2.3-6.33-3.4-9.51q-7.44-21.47-13.26-43.45c-3.36-12.7-5.93-25.65-10-38.15-4-12.32-9.52-24.41-18.62-33.85A57.51,57.51,0,0,0,147.9.46,55.73,55.73,0,0,0,112.09,8,60.57,60.57,0,0,0,87.83,36.45c-5,12-5.3,25.65-2.2,38.15,3.28,13.2,10,25.18,18.29,35.89,16.2,21.06,39.15,35.39,58.46,53.27a158.4,158.4,0,0,1,14,14.54c1.07,1.27,2.12,2.57,3.15,3.88.49.62,1,1.25,1.44,1.88l.79,1.05.06.08.13.18c2,2.79,3.91,5.62,5.72,8.52a173.31,173.31,0,0,1,9.7,17.81q2.25,4.78,4.22,9.67c.3.74.59,1.47.88,2.21l0,0c.12.31.24.63.35.94.61,1.62,1.19,3.24,1.75,4.88,1,3.08,2,6.19,2.76,9.35.34,1.42.65,2.86.9,4.3.14.79.26,1.59.37,2.39,0,.31.07.62.11.93v.11c.09,1.59.17,3.18.12,4.77a16.9,16.9,0,0,1-.44,4.72c.05-.14.32-1.56,0-.36-.09.39-.16.78-.25,1.16-.17.7-.36,1.38-.57,2.07s-.41,1.19-.63,1.78l.16-.26a3.72,3.72,0,0,0-.21.39l-.06.16a1.49,1.49,0,0,1-.18.36l-.06.12a31.06,31.06,0,0,1-1.89,3c-1,.95-.36.52-.06.09l.06-.09.21-.21a7.08,7.08,0,0,0-.5.59,23.27,23.27,0,0,1-1.61,1.68c-.37.36-.75.71-1.15,1l-.55.45c-.28.15-.47.26-.59.34.19-.11.38-.23.58-.33l-.34.27c-.31.26-.6.31-.24.06-.84.51-1.64,1.1-2.51,1.54-.56.28-1.17.48-1.72.77l.84-.43a9,9,0,0,1-1.05.44c-.53.15-1.07.29-1.61.4l-.9.16h0c-.86,0-1.7,0-2.56-.07-.27-.08-.6-.11-.84-.17a7.29,7.29,0,0,1-.8-.31c0,.07-.18.07-.54-.12l-.27-.15-.13,0,.12,0-.68-.38-.76-.49-.37-.25-.2-.16-.18-.15-.65-.62a23.2,23.2,0,0,1-1.82-2,1.71,1.71,0,0,1-.11-.14,2.73,2.73,0,0,1-.2-.25l-.11-.17-.14-.16.11.11c-.37-.57-.75-1.13-1.11-1.72-.79-1.31-1.51-2.67-2.2-4.05-1.57-3.17-3-6.43-4.27-9.72l-.06-.16c-.12-.35-.25-.7-.38-1q-.48-1.31-.93-2.61c-.6-1.75-1.18-3.5-1.73-5.27-4.34-13.8-7.27-28-11.57-41.83A160,160,0,0,0,153,178,60.46,60.46,0,0,0,142,161.34c-4.72-4.79-10.69-8.54-17.38-9.7-7.45-1.29-14.82-.12-20.93,4.51-9.92,7.51-10.36,21.27-6.66,32.13,4.37,12.85,12.94,23.91,21.73,34.05,1.08,1.24,2.16,2.48,3.22,3.75.56.66,1.1,1.33,1.64,2,.37.46,1.51,1.46,1.58,2l-.44-.61.45.63c.24.35.49.71.72,1.06.43.64.84,1.29,1.23,2a48.36,48.36,0,0,1,2.26,4.42c0,.16.11.32.16.48.21.65.39,1.3.54,2a18.1,18.1,0,0,1,.36,1.81c0,.27,0,.63.12.91a23.39,23.39,0,0,1-.08,3.55c0,.24-.08.52-.12.78-.17.64-.32,1.28-.54,1.92-.05.14-.11.29-.16.44a12.4,12.4,0,0,0-.9,1.63l-.3.42c-.4.41-.8.8-1.22,1.19-.28.13-.75.52-.9.6a13.15,13.15,0,0,0-1.37.64c-.23.07-.47.14-.71.19s-.53.13-.8.18l-.8.12-1.08,0c-.7,0-1.41-.05-2.11-.13-.27,0-.56-.1-.84-.11h.24a21.63,21.63,0,0,1-2.23-.61c-.27-.08-1.65-.72-2-.76l-.4-.2c-.63-.34-1.24-.71-1.84-1.1l-.7-.48-.44-.33a39.91,39.91,0,0,1-3.09-3c-.48-.53-1-1.08-1.4-1.64-.25-.32-.5-.63-.74-.95L106,245a81.51,81.51,0,0,1-4.72-7.95c-3.33-6.36-6.36-12.88-9.5-19.32l-10-20.48c-3-6.2-5.92-12.5-9.34-18.49-6.64-11.63-16.4-22.55-30.18-25.13-6.87-1.29-14.1-.79-20.25,2.82a29.34,29.34,0,0,0-12.5,15.77C4.64,186,10,200.9,16.83,213c5.85,10.33,13.36,19.68,21.25,28.5,7.72,8.61,15.9,16.79,23.68,25.35,3.82,4.2,7.55,8.49,11,13,.76,1,1.51,2,2.24,2.95l.57.79,1.23,1.75c1.6,2.34,3.13,4.74,4.55,7.2q2,3.39,3.65,6.94c.57,1.21,1.12,2.44,1.63,3.68.11.25.21.51.31.76,0,.07.47,1.26.55,1.5a65.85,65.85,0,0,1,2.18,7.3,7.16,7.16,0,0,0-3.3,5.66,6.73,6.73,0,0,0,3.35,6A7.14,7.14,0,0,0,97,327.19a931.64,931.64,0,0,0,92.58-18.77,816.76,816.76,0,0,0,91.11-29.29q24.7-9.57,48.71-20.84C332.53,256.81,333.85,252.28,332.24,249.24Z"/><path class="cls-3" d="M118.89,254.23h0C119.45,254.35,120.26,254.31,118.89,254.23Z"/><path class="cls-3" d="M183.8,266.19c.21.21.31.2-.34-.47l0,0C183.6,265.9,183.7,266.05,183.8,266.19Z"/><path class="cls-3" d="M189.39,270.67c0-.06-.27-.19-.82-.27h0A5.49,5.49,0,0,1,189.39,270.67Z"/><path class="cls-3" d="M293.66,214.31l.07.18c0,.15.11.29.17.44S294.11,215.31,293.66,214.31Z"/><path class="cls-3" d="M207,260.67c-.42.7-.4.8-.29.65l.24-.52Z"/><g class="cls-6"><path class="cls-5" d="M207.13,260.41l-.16.26-.05.13A3.72,3.72,0,0,1,207.13,260.41Z"/><path class="cls-5" d="M206.92,260.8l-.24.52a1.49,1.49,0,0,0,.18-.36Z"/><path class="cls-5" d="M200.78,268.28l.34-.27c-.2.1-.39.22-.58.33C200.18,268.59,200.47,268.54,200.78,268.28Z"/><path class="cls-5" d="M246.49,165.6a.14.14,0,0,0,0,.06h0a.25.25,0,0,1,0-.07Z"/><path class="cls-5" d="M188.58,270.4h0Z"/><path class="cls-5" d="M189.39,270.67c0,.07-.18.07-.54-.12l-.27-.15A5.49,5.49,0,0,1,189.39,270.67Z"/><path class="cls-5" d="M183.49,265.77l-.07-.08,0,0Z"/><path class="cls-5" d="M183.8,266.19a2,2,0,0,1-.2-.26l-.11-.16C183.6,265.9,183.7,266.05,183.8,266.19Z"/><path class="cls-5" d="M197.15,270.22Z"/><path class="cls-5" d="M100.5,326.65l-3.52.54a7.15,7.15,0,0,1-7.22-2.84,6.73,6.73,0,0,1-3.35-6,7.13,7.13,0,0,1,3.3-5.66,65.85,65.85,0,0,0-2.18-7.3c-.08-.24-.53-1.43-.55-1.5-.1-.25-.2-.51-.31-.76-.51-1.24-1.06-2.47-1.63-3.68q-1.68-3.56-3.65-6.94c-1.42-2.46-3-4.86-4.55-7.2-.41-.59-.81-1.17-1.23-1.75l-.57-.79c-.73-1-1.48-2-2.24-2.95-3.49-4.48-7.22-8.77-11-13-7.78-8.56-16-16.74-23.68-25.35-7.89-8.82-15.4-18.17-21.25-28.5C10,200.9,4.64,186,9.52,172.25A29.34,29.34,0,0,1,22,156.48c5.38-3.16,11.57-3.93,17.64-3.22A25.18,25.18,0,0,0,30,156.48a29.32,29.32,0,0,0-12.49,15.77C12.64,186,18,200.9,24.83,213c5.85,10.33,13.36,19.68,21.25,28.5,7.72,8.61,15.9,16.79,23.68,25.35,3.82,4.2,7.55,8.49,11,13,.76,1,1.51,2,2.24,2.95l.57.79,1.23,1.75c1.6,2.34,3.13,4.74,4.55,7.2q2,3.39,3.65,6.94c.57,1.21,1.12,2.44,1.63,3.68.11.25.21.51.31.76,0,.07.47,1.26.55,1.5a65.85,65.85,0,0,1,2.18,7.3,7.12,7.12,0,0,0-3.29,5.66,6.7,6.7,0,0,0,3.34,6A6.61,6.61,0,0,0,100.5,326.65Z"/><path class="cls-5" d="M138.58,242.76a23.39,23.39,0,0,1-.08,3.55c0,.24-.08.51-.12.78-.17.64-.32,1.28-.54,1.91-.05.15-.1.3-.16.45a12.4,12.4,0,0,0-.9,1.63l-.3.42c-.4.41-.8.8-1.22,1.19-.28.13-.75.52-.9.6a13.15,13.15,0,0,0-1.37.64l-.71.2-.8.17-.8.12-1.08,0c-.7,0-1.41-.05-2.11-.13-.27,0-.56-.1-.84-.11h.24c-.56-.12-1.12-.27-1.68-.43.36-.2.83-.33,1.15-.51.15-.08.62-.47.9-.6.42-.39.81-.78,1.22-1.19l.3-.42a12.4,12.4,0,0,1,.9-1.63c.06-.15.11-.3.16-.45.22-.63.37-1.27.54-1.91,0-.27.1-.54.12-.78a23.39,23.39,0,0,0,.08-3.55c-.08-.28-.07-.64-.12-.91-.1-.61-.22-1.22-.35-1.81s-.34-1.32-.55-2c-.05-.16-.11-.32-.17-.48a45.87,45.87,0,0,0-2.25-4.42c-.39-.67-.8-1.32-1.23-2-.23-.35-.48-.71-.72-1.06l-.45-.63.44.61c-.07-.59-1.21-1.59-1.58-2-.53-.67-1.09-1.34-1.64-2-1.06-1.27-2.14-2.51-3.22-3.75C110,212.19,101.38,201.13,97,188.28c-3.7-10.86-3.25-24.61,6.66-32.12,5.71-4.33,12.51-5.64,19.46-4.74a24.41,24.41,0,0,0-11.47,4.74c-9.91,7.51-10.35,21.26-6.65,32.12,4.37,12.85,12.94,23.91,21.74,34.05,1.07,1.24,2.15,2.48,3.21,3.75.55.66,1.11,1.33,1.64,2,.37.46,1.51,1.46,1.59,2l-.45-.61.45.63c.25.35.49.71.72,1.06.43.64.84,1.29,1.23,2,.85,1.43,1.55,2.91,2.26,4.42,0,.16.11.32.16.48.21.65.39,1.3.54,2s.27,1.2.36,1.81C138.51,242.12,138.5,242.48,138.58,242.76Z"/><path class="cls-5" d="M196.72,270.44l0,0h0l0,0h0l.35-.15-.32.16Z"/><path class="cls-5" d="M208.54,268.34c.19-.11.38-.23.58-.33l-.34.27C208.47,268.54,208.18,268.59,208.54,268.34Z"/><path class="cls-5" d="M216.7,246.53c.09,1.59.17,3.18.12,4.77a17.2,17.2,0,0,1-.43,4.7c.06-.24.3-1.5,0-.34-.08.39-.16.78-.25,1.16-.17.7-.36,1.38-.57,2.07s-.41,1.19-.63,1.78l.16-.26a3.72,3.72,0,0,0-.21.39l-.06.16a1.71,1.71,0,0,1-.18.36l-.06.12a32.32,32.32,0,0,1-1.89,3l.21-.21a3.28,3.28,0,0,0-.34.39l-.07.08-.09.12a23.27,23.27,0,0,1-1.61,1.68c-.37.36-.75.71-1.15,1-.18.16-.36.3-.55.45a6.13,6.13,0,0,0-.59.34c-.84.51-1.64,1.1-2.51,1.54-.56.28-1.17.48-1.72.77l.75-.38c-.26.11-.68.3-1,.39-.53.15-1.07.29-1.61.4l-.9.16H201c-.66,0-1.31,0-2-.07-.27-.08-.6-.11-.84-.17a5.71,5.71,0,0,1-.8-.31c0,.07-.18.07-.54-.12l-.16-.09.05,0h0c.42-.18.85-.35,1.26-.55.87-.44,1.67-1,2.51-1.54-.36.25-.07.2.25-.06l.33-.27-.58.33c.12-.08.31-.19.59-.34s.37-.29.55-.45c.39-.33.78-.68,1.15-1a23.27,23.27,0,0,0,1.61-1.68l.09-.12c-.29.36-.62.56.2-.26l-.06.09-.07.09a3.28,3.28,0,0,1,.34-.39l-.21.21a32.32,32.32,0,0,0,1.89-3l.06-.12a1.71,1.71,0,0,0,.18-.36l.06-.16a3.72,3.72,0,0,1,.21-.39l-.16.26c.22-.59.44-1.18.63-1.78s.4-1.37.57-2.07c.09-.38.17-.77.26-1.16.26-1.16,0,.1,0,.34a17.2,17.2,0,0,0,.43-4.7c.05-1.59,0-3.18-.12-4.77a.45.45,0,0,1,0-.11c0-.31-.07-.62-.11-.93-.11-.8-.23-1.6-.37-2.39-.25-1.44-.56-2.88-.9-4.3-.76-3.16-1.71-6.28-2.76-9.35q-.84-2.44-1.75-4.88c-.11-.31-.23-.63-.35-.94l0,0c-.3-.74-.58-1.47-.88-2.21q-2-4.89-4.22-9.67a173.31,173.31,0,0,0-9.7-17.81c-1.81-2.9-3.73-5.73-5.72-8.52l-.13-.18-.06-.08-.79-1.05c-.47-.63-1-1.26-1.44-1.88-1-1.31-2.07-2.61-3.15-3.89a159.58,159.58,0,0,0-14-14.53c-19.31-17.88-42.26-32.2-58.47-53.27-8.23-10.71-15-22.69-18.28-35.89-3.1-12.5-2.81-26.18,2.2-38.15A60.57,60.57,0,0,1,112.09,8,55.6,55.6,0,0,1,144.83.15,55.28,55.28,0,0,0,120.09,8,60.57,60.57,0,0,0,95.83,36.45c-5,12-5.3,25.65-2.2,38.15,3.28,13.2,10.05,25.18,18.29,35.89,16.19,21.07,39.15,35.39,58.46,53.27a161.05,161.05,0,0,1,14,14.53c1.07,1.28,2.11,2.58,3.14,3.89.48.62,1,1.25,1.44,1.88l.79,1.05.06.08.13.18c2,2.79,3.91,5.62,5.72,8.52a173.31,173.31,0,0,1,9.7,17.81q2.25,4.78,4.22,9.67c.3.74.58,1.47.88,2.21l0,0c.12.31.24.63.35.94q.91,2.43,1.75,4.88c1,3.07,2,6.19,2.76,9.35.34,1.42.65,2.86.9,4.3.14.79.26,1.59.37,2.39,0,.31.07.62.11.93A.45.45,0,0,0,216.7,246.53Z"/><path class="cls-5" d="M251.19,164.88s.65.34.77.39C251.57,165.16,251.24,165,251.19,164.88Z"/><path class="cls-5" d="M254.44,165.67a.25.25,0,0,1,0-.07h0s0,0,0,.06Z"/><path class="cls-5" d="M271.78,70.38A21.16,21.16,0,0,0,260.31,77c-9.52,10.52-10.29,25.21-8.87,38.63.63,6,1.75,11.88,2.79,17.79.53,3,1,6,1.45,9,.11.77.2,1.54.29,2.31,0,.27.07.53.1.8.11,1.5.23,3,.28,4.49a58.51,58.51,0,0,1-.31,8.88c0,.3-.07.6-.11.9l-.06.46c-.05.3-.07.45-.07.46s.06-.32.15-.87a6.55,6.55,0,0,1-.41,2c-.15.68-.31,1.35-.5,2-.1.38-.22.76-.35,1.13l-.15.42-.06.13a.81.81,0,0,0-.34.09l-.69,0-.11,0c-.22-.07-.83-.18-1.35-.33h0a2.5,2.5,0,0,0-.42-.26l-.79-.43c-.65-.38-1.27-.8-1.89-1.24-.25-.18-.48-.37-.73-.54h0a1.72,1.72,0,0,0-.19-.17l-.47-.42c0-.11.05-.21.07-.31a6.25,6.25,0,0,0,.4-2c-.16,1-.19,1.14-.07.41l.06-.46c0-.3.08-.6.11-.9a58.52,58.52,0,0,0,.32-8.88c-.06-1.5-.17-3-.3-4.49,0-.27-.05-.53-.09-.8-.09-.77-.18-1.54-.29-2.31-.41-3-.92-6-1.45-9-1-5.91-2.16-11.82-2.79-17.79-1.42-13.42-.65-28.11,8.87-38.63A20.64,20.64,0,0,1,271.78,70.38Z"/><path class="cls-5" d="M118.89,254.23h0C119.45,254.35,120.26,254.31,118.89,254.23Z"/><path class="cls-5" d="M183.8,266.19c.21.21.31.2-.34-.47l0,0C183.6,265.9,183.7,266.05,183.8,266.19Z"/><path class="cls-5" d="M189.39,270.67c0-.06-.27-.19-.82-.27h0A5.49,5.49,0,0,1,189.39,270.67Z"/><path class="cls-5" d="M207,260.67c-.42.7-.4.8-.29.65l.24-.52Z"/></g><path class="cls-4" d="M119.23,316a.65.65,0,0,0,0,.11S119.24,316,119.23,316Zm-6-3.41a.27.27,0,0,0,0-.11A.75.75,0,0,1,113.25,312.58Z"/><ellipse class="cls-5" cx="177.5" cy="279.36" rx="8.3" ry="6.08" transform="translate(-151.02 319.68) rotate(-64.57)"/><ellipse class="cls-5" cx="255.62" cy="183.39" rx="8.75" ry="12.62" transform="translate(-1.66 2.34) rotate(-0.52)"/><ellipse class="cls-5" cx="166.12" cy="261.5" rx="8.97" ry="10.56" transform="matrix(0.99, -0.14, 0.14, 0.99, -35.42, 26.21)"/><ellipse class="cls-5" cx="112.99" cy="262.92" rx="6.52" ry="9.68" transform="translate(-158.1 171.24) rotate(-48.06)"/><ellipse class="cls-5" cx="121.72" cy="170.67" rx="11.5" ry="12.26" transform="translate(-22.98 19) rotate(-8.16)"/><ellipse class="cls-5" cx="124.27" cy="194.95" rx="6.64" ry="9.11" transform="translate(-71.88 72.59) rotate(-25.53)"/><ellipse class="cls-5" cx="45.71" cy="174.06" rx="13.52" ry="15.6" transform="translate(-124.15 114.61) rotate(-56)"/><ellipse class="cls-5" cx="31.44" cy="200.15" rx="10.36" ry="12.2" transform="translate(-104.19 49.64) rotate(-33.1)"/><ellipse class="cls-5" cx="63.06" cy="199.28" rx="12.33" ry="9.17" transform="translate(-137.41 140.11) rotate(-56)"/><ellipse class="cls-5" cx="171.07" cy="82.64" rx="10.12" ry="14.99" transform="matrix(0.04, -1, 1, 0.04, 81.98, 250.44)"/><ellipse class="cls-5" cx="267.73" cy="139.88" rx="8.33" ry="5.88" transform="translate(-34.07 152.6) rotate(-30)"/><ellipse class="cls-5" cx="232.7" cy="175.1" rx="8.2" ry="10.53" transform="translate(-56.38 139.81) rotate(-30)"/><ellipse class="cls-5" cx="143.93" cy="190.1" rx="8.65" ry="16.05" transform="translate(-42.09 40.93) rotate(-14.14)"/><ellipse class="cls-5" cx="271.46" cy="89.78" rx="13.74" ry="10.9" transform="translate(-8.89 33.59) rotate(-6.97)"/><ellipse class="cls-5" cx="263.04" cy="113.71" rx="7.03" ry="10.08" transform="translate(-23.02 130.65) rotate(-26.77)"/><ellipse class="cls-5" cx="286.23" cy="115.59" rx="15.63" ry="9.08" transform="translate(127.02 380.05) rotate(-80.94)"/><ellipse class="cls-5" cx="122.81" cy="74.96" rx="20.53" ry="25.66" transform="translate(-19.66 95.03) rotate(-39.42)"/><ellipse class="cls-5" cx="167.84" cy="46.6" rx="14.98" ry="20.77" transform="matrix(1, -0.06, 0.06, 1, -2.59, 10.59)"/><ellipse class="cls-5" cx="157.66" cy="114.76" rx="12.41" ry="17.56" transform="translate(-35.72 89.68) rotate(-28.66)"/><ellipse class="cls-5" cx="132.14" cy="27.19" rx="20.09" ry="13.71" transform="matrix(0.8, -0.6, 0.6, 0.8, 10.3, 85.12)"/><path class="cls-3" d="M581.53,197.63a41.54,41.54,0,0,1-5.46,13.49,6.51,6.51,0,0,1-1.44,3.36c-1.24,1.48-2.55,2.87-3.91,4.2-.09.11-.18.21-.26.32l.35.2.18.12-1,.06c-8,7.46-18.05,12.49-28.56,15.61-11.2,3.33-22.8,5-34.38,6.3L464,246.15l-86.09,9.71a6.53,6.53,0,0,1-4.45-1.11,8.06,8.06,0,0,1-3.64-.47,116.33,116.33,0,0,1-47.56-33.93c-6.35-7.54-12.09-16.12-13.53-26.08a22.46,22.46,0,0,1,2.42-14.33,20.88,20.88,0,0,1,13.47-10c10.58-2.55,21.16,2.13,28.54,9.65a120.47,120.47,0,0,1,10.39,12.58c.75,1,1.5,2,2.27,2.95.35.43.7.86,1.06,1.28.17.21.36.42.54.63s.54.52.59.59l-.36-.31-.19-.17.45.42.59.56c.45.42.91.82,1.39,1.2s1,.63,1.39,1c.12.07.24.14.37.2.49.25,1,.46,1.52.66l.29,0c.49.1,1,.15,1.47.22l.39,0,.64-.07-.12.06.17-.07.22,0c.4-.06.59-.18.52-.21l.17-.06,0,0,.1-.07.05,0,.14,0,.07-.08a1.93,1.93,0,0,0,.17-.21l.13-.08v0l-.07,0c0-.06.09-.12.14-.17l.33-.76c0-.12.06-.24.08-.36a2.89,2.89,0,0,0,0-.29,1.75,1.75,0,0,0,.08-.68s0-.07,0-.11,0-.21.05-.31c0,.09,0,.18-.05.26,0-.18,0-.37,0-.55,0-.39-.1-.78-.17-1.17a3.37,3.37,0,0,0-.1-.34c-.18-.53-.39-1-.62-1.55-.12-.27-.8-1.23-.14-.35l.28.37c0-.07-.41-.58-.48-.69-.3-.48-.61-1-.94-1.41-.7-1-1.47-1.92-2.26-2.82-.46-.53-.94-1-1.42-1.56l-.44-.46c-1.11-1.14-2.21-2.3-3.31-3.45q-5.33-5.61-10.28-11.54A243.66,243.66,0,0,1,340.08,148a251,251,0,0,1-27.19-56.85c-5.69-17.26-9.88-37-2.9-54.54a38.42,38.42,0,0,1,19.7-20.68c8.79-4,19.36-4.63,28.7-2.38,20.32,4.9,34.38,21.9,41.65,40.77,8.26,21.45,8.07,44.73,11.29,67.19q.57,4,1.32,8c.27,1.43.56,2.87.88,4.3a14.42,14.42,0,0,0,.47,2s-.2-.75-.23-.9c0,.05.05.19.12.45s.15.6.23.9a94,94,0,0,0,5.35,15.38c.55,1.19,1.14,2.36,1.73,3.53.08.15.17.3.26.44.27.44.55.86.84,1.28a34.16,34.16,0,0,0,2.12,2.68l.31.31q.63.6,1.29,1.14c.38.31.78.6,1.18.9l-.25-.11a3.47,3.47,0,0,1,.46.25l.11.08a.78.78,0,0,0,.4.19c.3.16.61.31.92.44l.26.1,1.1.17h.23l.17-.08s.21,0,.5-.23l.18-.07c-.11.09-.18.16-.16.16s.1-.08.17-.16l.26-.1-.25.09h0l-.13,0,0,0,.24-.18.11-.15a2.69,2.69,0,0,0,.2-.27c.16-.32.34-.64.48-1l.12-.35c.09-.37.18-.75.24-1.14a24.14,24.14,0,0,0,.3-2.68c0-.17,0-.34,0-.51,0-.53,0-1.06,0-1.58,0-.92-.12-1.84-.21-2.75-.27-3-.56-6-.84-9-1.1-11.6-2.42-23.21-3.25-34.83-.44-6.21-.22-12.4,1.92-18.3a23.57,23.57,0,0,1,9.77-12,18.9,18.9,0,0,1,17.26-1.33A22.49,22.49,0,0,1,467.68,86,30.81,30.81,0,0,1,472,100.23c.22,5.89-.75,11.66-1.61,17.46-.2,1.36-.39,2.72-.54,4.08-.06.6-.12,1.21-.17,1.81,0,.31-.05.61-.07.91l0,.64v.25c0,.35,0,.71,0,1.06s.05,1,.1,1.42.11.86.19,1.29c0,.21.09.42.12.64a.31.31,0,0,1,0,.08c.11.27.23.52.28.65s.08.23.13.34l2.38-2.26a10.52,10.52,0,0,1,2.71-1.57c.06-.24.12-.48.17-.72l.51-2.12c0-.15.07-.3.1-.45h0c.47-2,.94-4,1.4-5.95q2-8.49,4-17c.67-2.82,1.33-5.65,2-8.48.34-1.42.67-2.83,1-4.24s.68-2.83,1-4.24c.86-3.6,1.8-7.19,2.9-10.71.21-.64.41-1.28.63-1.92.1-.32.21-.63.32-1,.22-.63.45-1.26.68-1.89a60.46,60.46,0,0,1,7.41-14.26c5.9-8.22,15.34-14.29,25.49-15.37q1.09-.12,2.19-.15h1.39l.44,0,.48,0,.27,0,.61.05h0c.53,0,1.06.11,1.58.2l.63.1.21,0,.68.13.87.2.7.19.76.22.75.24.74.27h.05l.68.27.89.39.31.14.24.11h0A26.74,26.74,0,0,1,549.39,52a38.17,38.17,0,0,1,5,15.12A53,53,0,0,1,553,84.27c-1.31,5.78-3.22,11.4-5,17l-5.57,17.3q-5.46,17-10.93,33.9c-1.82,5.65-3.66,11.29-5.46,17-.1.31-.2.63-.29.95h0c-.17.6-.35,1.19-.51,1.79-.34,1.27-.65,2.55-.9,3.84a31.55,31.55,0,0,0-.52,3.87l0,0s0,.09,0,.22a0,0,0,0,1,0,0c0,.55,0,.65,0,.56v.1c0,.61.05,1.21.12,1.82a8.92,8.92,0,0,0,.17,1c-.06-.1-.08.11,0,.41,0,.14.08.26.12.39s0,.24,0,.37c0-.12,0-.23,0-.32l.09.25c.18.51.38,1,.61,1.51,0,.05.06.12.09.18h0c.34.5.66,1,1,1.49a8.2,8.2,0,0,0,.57.62c.45.39.9.76,1.38,1.12.21.1.43.22.65.31l.34.14.81.14-.4,0h0l.49,0,.16,0c.37.05.69,0,.33-.06l.28-.06.57-.1h0l-.54.08.37-.11c.22-.08.43-.18.64-.27s.7-.5,1-.77l.12-.1c.38-.42.77-.83,1.12-1.27.56-.69,1.09-1.41,1.58-2.14.22-.32.43-.64.64-1a1.88,1.88,0,0,1,.12-.18c-.14.22-.27.43-.27.44a13.34,13.34,0,0,0,1.44-2.42l1.31-2.17a59.71,59.71,0,0,1,3.65-5.51c2.64-3.42,6.3-6.62,10.52-7.87a21.22,21.22,0,0,1,15.88,1.45,24.08,24.08,0,0,1,11.35,12.33A30.06,30.06,0,0,1,581.53,197.63Z"/><path class="cls-4" d="M350.63,242.71a117.56,117.56,0,0,0,21.54,12.06,8,8,0,0,1-2.37-.49,116.56,116.56,0,0,1-47.55-33.93c-6.35-7.54-12.09-16.12-13.53-26.08a22.46,22.46,0,0,1,2.42-14.33,20.86,20.86,0,0,1,13.47-10,27.05,27.05,0,0,1,17.77,2,25.71,25.71,0,0,0-11.34.13,20.88,20.88,0,0,0-13.47,10,22.46,22.46,0,0,0-2.42,14.33c1.44,10,7.18,18.55,13.53,26.08A116.1,116.1,0,0,0,350.63,242.71Z"/><path class="cls-4" d="M384.63,200.08a2.84,2.84,0,0,0-.06.31.41.41,0,0,1,0,.11,1.48,1.48,0,0,1-.08.67c0,.1,0,.2,0,.3s0,.24-.07.36l-.34.76c-.05,0-.09.11-.14.17s0,0,.07,0h0l-.13.09c-.06.07-.11.15-.17.21l-.07.08-.14,0-.05,0a.46.46,0,0,0-.1.07l0,0-.16.06c.06,0-.13.15-.52.21l-.23,0-.32.14.27-.13-.64.07-.39,0c-.49-.07-1-.12-1.47-.22l-.29,0c-.51-.2-1-.41-1.52-.66-.13-.06-.25-.13-.37-.2-.41-.36-1-.65-1.38-1l-.16-.13h.07c.39-.06.58-.18.51-.21l.17-.06s0,0,0,0l.1-.07.05,0,.14,0,.06-.08a1.24,1.24,0,0,0,.18-.21l.13-.08v0l-.07,0a1.15,1.15,0,0,1,.14-.17l.33-.76c0-.12.06-.24.08-.36a2.89,2.89,0,0,0,0-.29,1.56,1.56,0,0,0,.08-.68s0-.07,0-.11,0-.1,0-.16a.43.43,0,0,0,0,.11c0-.18,0-.37,0-.55,0-.39-.1-.78-.17-1.17a3.37,3.37,0,0,0-.1-.34c-.18-.53-.39-1-.62-1.55-.12-.27-.79-1.23-.14-.35l.29.37c-.05-.07-.42-.58-.49-.69-.3-.48-.61-1-.94-1.41a34.14,34.14,0,0,0-2.27-2.82c-.46-.53-.93-1-1.41-1.56l-.44-.46c-1.11-1.14-2.21-2.3-3.31-3.45q-5.33-5.61-10.28-11.54A245.28,245.28,0,0,1,340.07,148a251.8,251.8,0,0,1-27.19-56.85c-5.68-17.26-9.87-37-2.89-54.54a38.38,38.38,0,0,1,19.7-20.68c8.78-4,19.36-4.63,28.7-2.38a50.59,50.59,0,0,1,7.12,2.3l-.69-.17c-9.34-2.25-19.91-1.66-28.7,2.38a38.42,38.42,0,0,0-19.7,20.68c-7,17.54-2.79,37.27,2.9,54.54a251,251,0,0,0,27.19,56.85,243.66,243.66,0,0,0,18.14,24.73c3.3,4,6.74,7.8,10.28,11.54,1.1,1.16,2.2,2.3,3.31,3.45l.45.46c.47.52.95,1,1.41,1.56.79.9,1.56,1.84,2.26,2.82.33.46.64.93.94,1.41.07.11.45.64.49.69s-.11-.13-.29-.37c-.65-.88,0,.08.15.35a16.09,16.09,0,0,1,.61,1.55c0,.11.07.22.11.33.06.4.13.79.16,1.18,0,.18,0,.37,0,.54Z"/><path class="cls-4" d="M457.49,76.56c.55.24,1.08.5,1.61.79A19.54,19.54,0,0,0,446.67,80a23.62,23.62,0,0,0-9.78,12c-2.13,5.91-2.35,12.1-1.91,18.31.82,11.62,2.14,23.23,3.24,34.82.28,3,.57,6,.84,9q.13,1.38.21,2.76c0,.52,0,1.05.05,1.58,0,.17,0,.34,0,.5a24.05,24.05,0,0,1-.3,2.69c-.06.39-.15.76-.24,1.15l-.12.34c-.14.33-.32.65-.48,1a2.69,2.69,0,0,1-.2.27l-.11.14-.24.2,0,0,.15-.06h0l.25-.08-.26.09c-.07.09-.14.17-.17.17s.06-.07.16-.16l-.18.08c-.28.19-.51.25-.49.22l-.18.08h-.23l-1.1-.17-.25-.1c-.32-.13-.63-.28-.93-.43a1,1,0,0,1-.4-.2l-.11-.08c-.15-.09-.31-.19-.46-.26a1.83,1.83,0,0,0,.26.11c-.4-.28-.8-.57-1.19-.89s-.62-.52-.92-.8c0,0,0,0,0,0a2.69,2.69,0,0,0,.2-.27c.16-.32.34-.64.47-1,.05-.12.09-.23.13-.35.08-.37.18-.75.24-1.14a24.14,24.14,0,0,0,.3-2.68c0-.17,0-.34,0-.51,0-.53,0-1.06-.05-1.58,0-.92-.11-1.84-.2-2.75-.27-3-.56-6-.85-9-1.09-11.6-2.41-23.21-3.24-34.83-.44-6.21-.21-12.4,1.92-18.3a23.52,23.52,0,0,1,9.77-12A18.91,18.91,0,0,1,457.49,76.56Z"/><path class="cls-4" d="M537.69,41.22a27.07,27.07,0,0,0-8.05-.35C519.48,42,510,48,504.14,56.25c-6.35,8.84-9.41,19.27-11.94,29.73-2.74,11.3-5.35,22.63-8,33.94q-1,4.26-2,8.52l-.17.72c-1.34,1.22-6.37,4.64-9.09,5.39-1.14-.15-2.44-3.47-2.43-3.69l2.38-2.26a10.52,10.52,0,0,1,2.71-1.57c.06-.24.12-.48.17-.72l.51-2.12a1.28,1.28,0,0,0,.08-.29c0-.05,0-.1,0-.16h0c.47-2,.94-4,1.4-5.95q2-8.49,4-17c.67-2.82,1.33-5.65,2-8.48.34-1.42.67-2.83,1-4.24l1-4.24c.87-3.6,1.8-7.19,2.91-10.71.21-.64.41-1.28.63-1.92.1-.32.21-.63.32-1,.22-.63.45-1.26.68-1.89a60.46,60.46,0,0,1,7.41-14.26c5.9-8.22,15.34-14.29,25.49-15.37q1.09-.12,2.19-.15h1.39l.44,0,.48,0,.27,0,.61.05h0c.53,0,1.06.11,1.58.2l.63.1.21,0,.68.13.87.2.7.19.76.22.75.24.74.27h.05l.68.27C536.74,40.78,537.22,41,537.69,41.22Z"/><path class="cls-4" d="M568.92,168.28a21.75,21.75,0,0,0-9.51.65c-4.22,1.25-7.87,4.45-10.52,7.87a59.71,59.71,0,0,0-3.65,5.51c-.44.72-.87,1.45-1.3,2.17a13.57,13.57,0,0,1-1.45,2.42s.13-.22.27-.44l-.12.18q-.32.5-.63,1c-.5.74-1,1.46-1.58,2.15-.36.44-.74.85-1.13,1.27l-.12.1c-.33.27-.68.53-1,.77s-.42.19-.64.27l-.36.11.53-.09h0l-.58.1-.28.06c.36,0,0,.11-.33.05l-.16,0-.49,0h0l.4,0-.81-.14-.34-.14-.65-.31c-.48-.36-.93-.73-1.38-1.13a6.54,6.54,0,0,1-.57-.61c-.14-.18-.27-.35-.39-.53.23-.16.45-.34.67-.51a1.27,1.27,0,0,1,.12-.1c.38-.42.77-.83,1.12-1.27.56-.69,1.09-1.41,1.58-2.14.22-.32.43-.64.64-1l.12-.18c-.14.22-.27.43-.27.44a13.94,13.94,0,0,0,1.45-2.42c.43-.72.86-1.45,1.3-2.17a59.71,59.71,0,0,1,3.65-5.51c2.65-3.42,6.3-6.62,10.52-7.87a21.22,21.22,0,0,1,15.88,1.45Z"/><path class="cls-4" d="M537.21,182l0-.08-.11.17Z"/><ellipse class="cls-5" cx="325.28" cy="60.49" rx="10.36" ry="12.2" transform="translate(-5.29 46.76) rotate(-8.16)"/><ellipse class="cls-5" cx="445.75" cy="113.34" rx="7.33" ry="10.14" transform="translate(-10.5 171.39) rotate(-21.52)"/><ellipse class="cls-5" cx="457.87" cy="94.5" rx="11.88" ry="10.08" transform="matrix(0.01, -1, 1, 0.01, 358.28, 551.28)"/><ellipse class="cls-5" cx="567.31" cy="200.43" rx="13.71" ry="9.81" transform="translate(48.92 505.86) rotate(-49.96)"/><ellipse class="cls-5" cx="540.2" cy="85.66" rx="11.66" ry="8.24" transform="translate(271.84 562.25) rotate(-69.63)"/><ellipse class="cls-5" cx="536.24" cy="59.18" rx="11.5" ry="12.26" transform="matrix(0.99, -0.14, 0.14, 0.99, -2.97, 76.68)"/><ellipse class="cls-5" cx="514.05" cy="60.92" rx="8.2" ry="6.79" transform="translate(317.93 539.97) rotate(-74.49)"/><ellipse class="cls-5" cx="503.01" cy="79.21" rx="10.95" ry="6.21" transform="translate(334.55 559.74) rotate(-79.63)"/><ellipse class="cls-5" cx="491.86" cy="132.57" rx="8.2" ry="6.79" transform="translate(232.62 571.09) rotate(-74.49)"/><ellipse class="cls-5" cx="432.65" cy="180.4" rx="8.2" ry="6.79" transform="translate(143.15 549.08) rotate(-74.49)"/><ellipse class="cls-5" cx="324.07" cy="190.91" rx="6.79" ry="8.2" transform="translate(-32.96 72.59) rotate(-12.17)"/><ellipse class="cls-5" cx="520.75" cy="80.93" rx="10.78" ry="6.99" transform="translate(95.3 391.93) rotate(-45)"/><ellipse class="cls-5" cx="335.9" cy="36.06" rx="8.29" ry="9.88" transform="translate(7.45 115.1) rotate(-19.66)"/><ellipse class="cls-5" cx="364.39" cy="35.19" rx="13.52" ry="15.6" transform="translate(103.73 292.24) rotate(-50.12)"/><ellipse class="cls-5" cx="352.08" cy="63" rx="10.36" ry="12.2" transform="translate(159.48 364.38) rotate(-67.56)"/><ellipse class="cls-5" cx="383.75" cy="60.09" rx="12.33" ry="9.17" transform="translate(91.57 316.03) rotate(-50.12)"/><ellipse class="cls-5" cx="559.45" cy="181.61" rx="9.81" ry="6.93" transform="translate(-15.85 304.06) rotate(-30)"/><ellipse class="cls-5" cx="415.42" cy="167.78" rx="6.71" ry="10.17" transform="translate(62.41 443.65) rotate(-60)"/><ellipse class="cls-5" cx="334.86" cy="212.74" rx="7.48" ry="10.26" transform="translate(-31.95 363.87) rotate(-54.82)"/><ellipse class="cls-5" cx="347.5" cy="192.66" rx="11" ry="15.16" transform="translate(-49.77 199.56) rotate(-30)"/></g></g></g></svg>