<svg xmlns="http://www.w3.org/2000/svg" xmlns:xlink="http://www.w3.org/1999/xlink" viewBox="0 0 1186.49 474.95"><defs><style>.cls-1{fill:none;}.cls-2{fill:#4e9ae5;}.cls-3{fill:#09587f;}.cls-4{isolation:isolate;}.cls-5{fill:url(#radial-gradient);}.cls-6{fill:url(#New_Pattern_Swatch_3);}.cls-11,.cls-12,.cls-15,.cls-16,.cls-18,.cls-20,.cls-22,.cls-24,.cls-26,.cls-27,.cls-29,.cls-7,.cls-8{opacity:0.2;mix-blend-mode:multiply;}.cls-7,.cls-9{fill:url(#New_Pattern_Swatch_4);}.cls-8{fill:url(#New_Pattern_Swatch_4-7);}.cls-10{fill:url(#New_Pattern_Swatch_3-3);}.cls-11,.cls-13{fill:url(#New_Pattern_Swatch_4-23);}.cls-12{fill:url(#New_Pattern_Swatch_4-29);}.cls-14{fill:url(#New_Pattern_Swatch_3-5);}.cls-15{fill:url(#New_Pattern_Swatch_4-45);}.cls-16{fill:url(#New_Pattern_Swatch_4-51);}.cls-17{fill:url(#New_Pattern_Swatch_3-7);}.cls-18{fill:url(#New_Pattern_Swatch_4-63);}.cls-19{fill:url(#New_Pattern_Swatch_3-9);}.cls-20{fill:url(#New_Pattern_Swatch_4-93);}.cls-21{fill:url(#New_Pattern_Swatch_3-11);}.cls-22{fill:url(#New_Pattern_Swatch_4-125);}.cls-23{fill:url(#New_Pattern_Swatch_3-13);}.cls-24{fill:url(#New_Pattern_Swatch_4-141);}.cls-25{fill:url(#New_Pattern_Swatch_3-15);}.cls-26{fill:url(#New_Pattern_Swatch_4-157);}.cls-27{fill:url(#New_Pattern_Swatch_4-165);}.cls-28{fill:url(#New_Pattern_Swatch_3-17);}.cls-29{fill:url(#New_Pattern_Swatch_4-181);}</style><radialGradient id="radial-gradient" cx="619.94" cy="364.6" r="385.1" gradientTransform="translate(1713.75 -255.34) rotate(90) scale(1 3)" gradientUnits="userSpaceOnUse"><stop offset="0" stop-color="#4e9ae5"/><stop offset="0.1" stop-color="#4d95df"/><stop offset="0.25" stop-color="#4989cd"/><stop offset="0.41" stop-color="#4373b0"/><stop offset="0.59" stop-color="#3b5687"/><stop offset="0.79" stop-color="#313053"/><stop offset="0.99" stop-color="#240314"/><stop offset="1" stop-color="#240112"/></radialGradient><pattern id="New_Pattern_Swatch_3" data-name="New Pattern Swatch 3" width="695.06" height="695.06" patternTransform="translate(208.24 217.9) rotate(-10.19) scale(0.22)" patternUnits="userSpaceOnUse" viewBox="0 0 695.06 695.06"><rect class="cls-1" width="695.06" height="695.06"/><rect class="cls-2" width="695.06" height="695.06"/></pattern><pattern id="New_Pattern_Swatch_4" data-name="New Pattern Swatch 4" width="363.18" height="363.18" patternTransform="translate(276.75 124.69) rotate(-10.19) scale(0.22)" patternUnits="userSpaceOnUse" viewBox="0 0 363.18 363.18"><rect class="cls-1" width="363.18" height="363.18"/><rect class="cls-3" width="363.18" height="363.18"/></pattern><pattern id="New_Pattern_Swatch_4-7" data-name="New Pattern Swatch 4" width="363.18" height="363.18" patternTransform="translate(291.89 230.35) rotate(-11.07) scale(0.22)" patternUnits="userSpaceOnUse" viewBox="0 0 363.18 363.18"><rect class="cls-1" width="363.18" height="363.18"/><rect class="cls-3" width="363.18" height="363.18"/></pattern><pattern id="New_Pattern_Swatch_3-3" data-name="New Pattern Swatch 3" width="695.06" height="695.06" patternTransform="translate(85.8 12.45) rotate(21.98) scale(0.22)" patternUnits="userSpaceOnUse" viewBox="0 0 695.06 695.06"><rect class="cls-1" width="695.06" height="695.06"/><rect class="cls-2" width="695.06" height="695.06"/></pattern><pattern id="New_Pattern_Swatch_4-23" data-name="New Pattern Swatch 4" width="363.18" height="363.18" patternTransform="translate(195.58 34.54) rotate(21.98) scale(0.22)" patternUnits="userSpaceOnUse" viewBox="0 0 363.18 363.18"><rect class="cls-1" width="363.18" height="363.18"/><rect class="cls-3" width="363.18" height="363.18"/></pattern><pattern id="New_Pattern_Swatch_4-29" data-name="New Pattern Swatch 4" width="363.18" height="363.18" patternTransform="translate(258.07 -4.85) rotate(21.1) scale(0.22)" patternUnits="userSpaceOnUse" viewBox="0 0 363.18 363.18"><rect class="cls-1" width="363.18" height="363.18"/><rect class="cls-3" width="363.18" height="363.18"/></pattern><pattern id="New_Pattern_Swatch_3-5" data-name="New Pattern Swatch 3" width="695.06" height="695.06" patternTransform="matrix(0.22, 0.03, -0.03, 0.22, 319.83, 189.25)" patternUnits="userSpaceOnUse" viewBox="0 0 695.06 695.06"><rect class="cls-1" width="695.06" height="695.06"/><rect class="cls-2" width="695.06" height="695.06"/></pattern><pattern id="New_Pattern_Swatch_4-45" data-name="New Pattern Swatch 4" width="363.18" height="363.18" patternTransform="matrix(0.22, 0.03, -0.03, 0.22, 275.34, 49.9)" patternUnits="userSpaceOnUse" viewBox="0 0 363.18 363.18"><rect class="cls-1" width="363.18" height="363.18"/><rect class="cls-3" width="363.18" height="363.18"/></pattern><pattern id="New_Pattern_Swatch_4-51" data-name="New Pattern Swatch 4" width="363.18" height="363.18" patternTransform="matrix(0.22, 0.03, -0.03, 0.22, 311.2, 75.33)" patternUnits="userSpaceOnUse" viewBox="0 0 363.18 363.18"><rect class="cls-1" width="363.18" height="363.18"/><rect class="cls-3" width="363.18" height="363.18"/></pattern><pattern id="New_Pattern_Swatch_3-7" data-name="New Pattern Swatch 3" width="695.06" height="695.06" patternTransform="translate(173.66 336.28) rotate(-5.99) scale(0.22)" patternUnits="userSpaceOnUse" viewBox="0 0 695.06 695.06"><rect class="cls-1" width="695.06" height="695.06"/><rect class="cls-2" width="695.06" height="695.06"/></pattern><pattern id="New_Pattern_Swatch_4-63" data-name="New Pattern Swatch 4" width="363.18" height="363.18" patternTransform="translate(123.79 149.53) rotate(-5.99) scale(0.22)" patternUnits="userSpaceOnUse" viewBox="0 0 363.18 363.18"><rect class="cls-1" width="363.18" height="363.18"/><rect class="cls-3" width="363.18" height="363.18"/></pattern><pattern id="New_Pattern_Swatch_3-9" data-name="New Pattern Swatch 3" width="695.06" height="695.06" patternTransform="translate(472.01 85.49) scale(0.22)" patternUnits="userSpaceOnUse" viewBox="0 0 695.06 695.06"><rect class="cls-1" width="695.06" height="695.06"/><rect class="cls-2" width="695.06" height="695.06"/></pattern><pattern id="New_Pattern_Swatch_4-93" data-name="New Pattern Swatch 4" width="363.18" height="363.18" patternTransform="translate(248.14 108.91) scale(0.22)" patternUnits="userSpaceOnUse" viewBox="0 0 363.18 363.18"><rect class="cls-1" width="363.18" height="363.18"/><rect class="cls-3" width="363.18" height="363.18"/></pattern><pattern id="New_Pattern_Swatch_3-11" data-name="New Pattern Swatch 3" width="695.06" height="695.06" patternTransform="translate(211.74 255.24) rotate(-4.38) scale(0.22)" patternUnits="userSpaceOnUse" viewBox="0 0 695.06 695.06"><rect class="cls-1" width="695.06" height="695.06"/><rect class="cls-2" width="695.06" height="695.06"/></pattern><pattern id="New_Pattern_Swatch_4-125" data-name="New Pattern Swatch 4" width="363.18" height="363.18" patternTransform="translate(21.41 251.96) rotate(-4.38) scale(0.22)" patternUnits="userSpaceOnUse" viewBox="0 0 363.18 363.18"><rect class="cls-1" width="363.18" height="363.18"/><rect class="cls-3" width="363.18" height="363.18"/></pattern><pattern id="New_Pattern_Swatch_3-13" data-name="New Pattern Swatch 3" width="695.06" height="695.06" patternTransform="matrix(0.16, 0.07, -0.06, 0.15, 123.97, 121.38)" patternUnits="userSpaceOnUse" viewBox="0 0 695.06 695.06"><rect class="cls-1" width="695.06" height="695.06"/><rect class="cls-2" width="695.06" height="695.06"/></pattern><pattern id="New_Pattern_Swatch_4-141" data-name="New Pattern Swatch 4" width="363.18" height="363.18" patternTransform="matrix(0.16, 0.07, -0.06, 0.15, 123.22, 146.74)" patternUnits="userSpaceOnUse" viewBox="0 0 363.18 363.18"><rect class="cls-1" width="363.18" height="363.18"/><rect class="cls-3" width="363.18" height="363.18"/></pattern><pattern id="New_Pattern_Swatch_3-15" data-name="New Pattern Swatch 3" width="695.06" height="695.06" patternTransform="translate(255.27 -212.28) rotate(9.81) scale(0.22)" patternUnits="userSpaceOnUse" viewBox="0 0 695.06 695.06"><rect class="cls-1" width="695.06" height="695.06"/><rect class="cls-2" width="695.06" height="695.06"/></pattern><pattern id="New_Pattern_Swatch_4-157" data-name="New Pattern Swatch 4" width="363.18" height="363.18" patternTransform="translate(174.22 -17.08) rotate(9.81) scale(0.22)" patternUnits="userSpaceOnUse" viewBox="0 0 363.18 363.18"><rect class="cls-1" width="363.18" height="363.18"/><rect class="cls-3" width="363.18" height="363.18"/></pattern><pattern id="New_Pattern_Swatch_4-165" data-name="New Pattern Swatch 4" width="363.18" height="363.18" patternTransform="translate(305.5 32.39) rotate(20.2) scale(0.22)" patternUnits="userSpaceOnUse" viewBox="0 0 363.18 363.18"><rect class="cls-1" width="363.18" height="363.18"/><rect class="cls-3" width="363.18" height="363.18"/></pattern><pattern id="New_Pattern_Swatch_3-17" data-name="New Pattern Swatch 3" width="695.06" height="695.06" patternTransform="translate(-6.95 424.17) rotate(-23.43) scale(0.22)" patternUnits="userSpaceOnUse" viewBox="0 0 695.06 695.06"><rect class="cls-1" width="695.06" height="695.06"/><rect class="cls-2" width="695.06" height="695.06"/></pattern><pattern id="New_Pattern_Swatch_4-181" data-name="New Pattern Swatch 4" width="363.18" height="363.18" patternTransform="translate(212.77 122.38) rotate(-23.43) scale(0.22)" patternUnits="userSpaceOnUse" viewBox="0 0 363.18 363.18"><rect class="cls-1" width="363.18" height="363.18"/><rect class="cls-3" width="363.18" height="363.18"/></pattern></defs><g class="cls-4"><g id="Layer_2" data-name="Layer 2"><g id="Layer_4" data-name="Layer 4"><path class="cls-5" d="M1186.49,392.87V475H0v-58.5c167.68-98.31,381.55-157.24,614.52-157.24C828.21,259.21,1025.84,308.79,1186.49,392.87Z"/><path class="cls-6" d="M209,128.91,155.87,162l-9-32.67a1.53,1.53,0,0,0-1.78-1.1L93.78,138.33a1.54,1.54,0,0,0-1.12,2.11l20.22,47.39c.16.36.63,1.57.78,2l57.87,155.07a1.55,1.55,0,0,0,1.77,1l61.11-13.44a1.53,1.53,0,0,0,1.19-1.68L211.35,130A1.53,1.53,0,0,0,209,128.91Z"/><polygon class="cls-7" points="215.76 256.33 192.28 220.74 207.25 261.01 182.81 274.47 227.85 266.38 225.95 250.72 215.76 256.33"/><polygon class="cls-7" points="215.97 168.13 177.71 192.89 217.31 179.22 215.97 168.13"/><polygon class="cls-7" points="212.59 140.11 185.61 167.5 214.5 155.97 212.59 140.11"/><polygon class="cls-8" points="120.27 133.3 133.76 167.26 132.14 130.98 120.27 133.3"/><path class="cls-7" d="M180.81,344.17l-7.51,1.65a1.54,1.54,0,0,1-1.77-1L113.66,189.79c-.15-.39-.62-1.59-.78-2L92.66,140.44a1.54,1.54,0,0,1,1.12-2.11l6.91-1.35,69.93,181.08,6.17,16.52h0l.92,2.47a1.61,1.61,0,0,0,.34.53Z"/><polygon class="cls-8" points="132.14 130.98 133.76 167.26 129.07 131.53 132.14 130.98"/><polygon class="cls-8" points="185.61 167.5 213.12 144.46 212.59 140.11 185.61 167.5"/><polygon class="cls-8" points="177.71 192.89 215.97 168.13 216.42 172.58 177.71 192.89"/><polygon class="cls-8" points="207.37 260.95 208.18 263.04 182.81 274.47 207.37 260.95"/><polygon class="cls-8" points="225.95 250.72 226.45 254.81 214.86 260.03 213.46 257.6 192.28 220.74 215.76 256.33 225.95 250.72"/><polygon class="cls-9" points="214.86 260.03 213.46 257.6 213.46 257.6 214.86 260.03"/><path class="cls-10" d="M1092.82,141.81l-62.63-.26,9.75-32.47a1.53,1.53,0,0,0-.92-1.87L990.25,88.43a1.54,1.54,0,0,0-2.07,1.19l-8.11,50.87c-.06.4-.31,1.67-.39,2.08L946.11,304.65a1.53,1.53,0,0,0,1,1.75L1006,327.56a1.53,1.53,0,0,0,1.91-.79L1094.2,144A1.53,1.53,0,0,0,1092.82,141.81Z"/><polygon class="cls-11" points="1030.69 253.26 1029.75 210.63 1020.99 252.69 993.13 251.07 1035.56 268.2 1042.3 253.93 1030.69 253.26"/><polygon class="cls-11" points="1077.82 178.71 1032.25 179.3 1073.06 188.81 1077.82 178.71"/><polygon class="cls-11" points="1089.88 153.19 1052.46 162.01 1083.06 167.63 1089.88 153.19"/><polygon class="cls-12" points="1015.35 98.27 1008.69 134.21 1026.64 102.63 1015.35 98.27"/><path class="cls-11" d="M954.33,309l-7.23-2.6a1.53,1.53,0,0,1-1-1.75l33.57-162.08c.08-.41.33-1.68.39-2.07l8.11-50.88a1.54,1.54,0,0,1,2.07-1.19L996.82,91,959.61,281.48,956,298.75h0l-.53,2.59a1.34,1.34,0,0,0,0,.63Z"/><polygon class="cls-12" points="1026.64 102.63 1008.69 134.21 1023.75 101.46 1026.64 102.63"/><polygon class="cls-12" points="1052.46 162.01 1088 157.15 1089.88 153.19 1052.46 162.01"/><polygon class="cls-12" points="1032.25 179.3 1077.82 178.71 1075.83 182.72 1032.25 179.3"/><polygon class="cls-12" points="1021.12 252.7 1020.69 254.9 993.13 251.07 1021.12 252.7"/><polygon class="cls-12" points="1042.3 253.93 1040.54 257.66 1027.95 255.91 1028.06 253.11 1029.75 210.63 1030.68 253.26 1042.3 253.93"/><polygon class="cls-13" points="1027.95 255.91 1028.06 253.1 1028.06 253.11 1027.95 255.91"/><path class="cls-14" d="M812.54,203.54a1.53,1.53,0,0,0-1.89-1.49l-32.9,7.83,7.09-42.16a1.55,1.55,0,0,0-.92-1.67l-34-14.42,5.89-50.41a1.54,1.54,0,0,0-1.67-1.7L692.59,105a1.54,1.54,0,0,0-1.4,1.61l3.47,68a1.54,1.54,0,0,0,1,1.37l32.79,11.93-10.23,87.7a1.53,1.53,0,0,0,1.34,1.7l1.06.13,43.42,5.06,47,5.49a1.54,1.54,0,0,0,1.72-1.53Z"/><polygon class="cls-15" points="754.57 111.95 712.23 115.64 730.93 117.82 731.77 128 736.34 118.46 753.57 120.47 754.57 111.95"/><polygon class="cls-15" points="738.36 167.42 764.94 174.43 737.42 175.52 738.36 167.42"/><path class="cls-15" d="M740.7,147.42,725.49,277.73l-5.88-.69a1.53,1.53,0,0,1-1.35-1.7l10.23-87.7L695.7,175.71a1.56,1.56,0,0,1-1-1.37l-3.46-68a1.52,1.52,0,0,1,1.39-1.61l7-.62,3.29,64.57a1.53,1.53,0,0,0,1,1.36l25.58,9.31,3.84-32.92a1.54,1.54,0,0,1,2.13-1.24Z"/><polyline class="cls-16" points="813.6 235.31 786.09 241.74 795.45 241.81 798.17 248.45 799.54 241.14 812.88 241.48 813.54 235.8"/><polygon class="cls-15" points="754.57 111.95 712.23 115.64 754.21 115.01 754.57 111.95"/><polygon class="cls-15" points="736.34 118.46 734.6 118.25 731.77 128 736.34 118.46"/><polygon class="cls-15" points="738.36 167.42 737.89 171.47 765.58 174.7 738.36 167.42"/><polygon class="cls-16" points="786.09 241.74 812.58 237.91 812.87 235.48 786.09 241.74"/><polygon class="cls-16" points="799.54 241.14 797.9 240.95 798.4 247.87 799.54 241.14"/><path class="cls-17" d="M386.48,1.29a1.53,1.53,0,0,0-2.2-1.13L341.88,21.3a1.55,1.55,0,0,0-.85,1.3l-3.14,62.06-32.31-7a1.54,1.54,0,0,0-1.86,1.57l2.81,66.36L286.8,157.17l-3.12-29.79a1.54,1.54,0,0,0-2.18-1.23l-56.13,26.51a1.54,1.54,0,0,0-.81,1.85l17.27,55.4a1.53,1.53,0,0,0,1.63,1.07l35.64-3.73,10.8,103a1.54,1.54,0,0,0,1.69,1.37l86.14-9a1.53,1.53,0,0,0,1.32-1.92L348.12,185.19l28.25-3a1.54,1.54,0,0,0,1.34-1.86L362.1,111l38.82-11.12A1.53,1.53,0,0,0,402,98.12Z"/><polygon class="cls-18" points="368.47 261.12 315.1 252.46 336.49 261.71 339.34 282.37 342.73 265.79 372.56 276.38 368.47 261.12"/><polygon class="cls-18" points="246.47 142.69 254.17 169.61 258.98 136.79 246.47 142.69"/><polygon class="cls-18" points="328.65 186.95 338.99 218.25 339.28 185.83 328.65 186.95"/><polygon class="cls-18" points="390.37 25.52 355.42 46.77 379.95 38.56 387.34 63.19 385.28 36.68 391.83 34.62 390.37 25.52"/><polygon class="cls-18" points="365.61 40.57 364.11 29.75 370.25 37.75 365.61 40.57"/><path class="cls-18" d="M281.64,159.9l15.81,150.78-5.89.62a1.55,1.55,0,0,1-1.69-1.37l-10.8-103-35.64,3.74a1.53,1.53,0,0,1-1.63-1.07l-17.27-55.41a1.54,1.54,0,0,1,.81-1.84l6.65-3.14,16.54,53.06a1.55,1.55,0,0,0,1.63,1.08l28.23-3L274.68,165a1.51,1.51,0,0,1,.75-1.48Z"/><path class="cls-18" d="M376.61,175.3l-59.89,6.28a1.55,1.55,0,0,1-1.7-1.46L310.71,78.53l-5.16-1.12A1.53,1.53,0,0,0,303.69,79l4.6,108.46a1.54,1.54,0,0,0,1.69,1.47l66.36-7a1.54,1.54,0,0,0,1.34-1.87Z"/><path class="cls-18" d="M401.37,94,345,110.19a1.54,1.54,0,0,1-2-1.56l4.58-90.46L341.85,21a1.55,1.55,0,0,0-.85,1.3L336.26,116a8.27,8.27,0,0,0,.21,2.13l7.36,13.72-1.62-15.44,1.38-.4,5.82,7.82,1.71-10,49.77-14.26A1.53,1.53,0,0,0,402,97.84Z"/><polygon class="cls-18" points="258.98 136.79 254.17 169.61 255.48 138.44 258.98 136.79"/><polygon class="cls-18" points="355.42 46.77 365.56 40.6 365.67 41.64 355.42 46.77"/><polygon class="cls-18" points="390.93 29 369.46 39.74 368.85 38.6 364.12 29.75 370.25 37.75 390.37 25.52 390.93 29"/><polygon class="cls-18" points="385.28 36.68 387.34 63.19 383.8 35.78 385.28 36.68"/><polygon class="cls-18" points="339.28 185.83 338.99 218.25 335.63 186.22 339.28 185.83"/><polygon class="cls-18" points="339.34 282.37 340.59 261.07 342.73 265.79 339.34 282.37"/><polygon class="cls-18" points="368.47 261.12 369.64 265.49 315.1 252.46 368.47 261.12"/><path class="cls-19" d="M672.53,98.63a1.54,1.54,0,0,0-1.1-1.28l-12.9-3.64,13.54-86.2a1.54,1.54,0,0,0-1.76-1.76L584,19.56a1.53,1.53,0,0,0-1.3,1.51V124.66a1.54,1.54,0,0,0,1.54,1.54H603.1v16.6H584a1.54,1.54,0,0,0-1.52,1.29l-4.9,31-28.52,1.35a1.53,1.53,0,0,0-1.44,1.79l15.15,87.85a1.53,1.53,0,0,0,1.5,1.27l64.48.48a3.7,3.7,0,0,0,2.47-2V198.69h52.83a1.53,1.53,0,0,0,1.52-1.74Z"/><path class="cls-20" d="M684.09,198.92H604.64a1.54,1.54,0,0,1-1.54-1.53v-117a1.54,1.54,0,0,1,2-1.48l5.5,1.56V190.8a1.54,1.54,0,0,0,1.54,1.54H685l.64,4.84A1.53,1.53,0,0,1,684.09,198.92Z"/><path class="cls-20" d="M589.14,142.51H584a1.53,1.53,0,0,0-1.51,1.3l-5,31.8a39,39,0,0,1,6.56-.88Z"/><path class="cls-20" d="M572.1,267.14l-7.79-.06a1.54,1.54,0,0,1-1.5-1.28L547.66,178a1.54,1.54,0,0,1,1.44-1.8l6.79-.32L566.09,235v0l4.15,24.07.34,0Z"/><path class="cls-20" d="M603.1,125.91H584.26a1.54,1.54,0,0,1-1.54-1.54V20.79a1.55,1.55,0,0,1,1.3-1.52l6.16-1v99.5a1.54,1.54,0,0,0,1.54,1.54H603.1Z"/><polygon class="cls-20" points="590.18 36.88 648.98 22.93 635.87 29.15 635.87 41.26 630.32 32.09 608.47 40.41 607.63 62.77 603.1 41.93 590.18 47.98 590.18 36.88"/><polygon class="cls-20" points="678.37 142.51 656.04 132.19 650.83 156.06 650.15 128.99 627.8 118.74 658.32 124.8 658.36 124.64 661.75 111.69 664.95 125.91 676.57 128.99 678.37 142.51"/><polygon class="cls-20" points="631.26 221.49 629.95 221.83 597.21 230.35 631.26 232.03 631.26 221.49"/><polygon class="cls-20" points="558.12 188.74 592.91 188.74 560.16 200.56 558.12 188.74"/><polygon class="cls-20" points="648.98 22.93 590.18 40.75 590.18 36.88 648.98 22.93"/><polygon class="cls-20" points="635.87 41.26 633.84 28.41 635.87 29.15 635.87 41.26"/><polygon class="cls-20" points="607.63 62.77 608.47 40.41 606.81 38.83 607.63 62.77"/><polygon class="cls-20" points="658.37 124.64 657.55 127.85 627.8 118.74 658.32 124.8 658.36 124.64 658.37 124.64"/><polygon class="cls-20" points="677.22 133.87 662.6 129.39 662.41 125.42 661.75 111.69 664.95 125.91 676.57 128.99 677.22 133.87"/><polygon class="cls-20" points="650.83 156.06 654.4 129 656.04 132.19 650.83 156.06"/><polygon class="cls-20" points="558.12 188.74 592.91 188.74 558.98 193.76 558.12 188.74"/><polygon class="cls-20" points="631.26 221.49 631.26 225.45 597.21 230.35 631.26 221.49"/><path class="cls-21" d="M521.8,99.08,406.55,130.84a1.54,1.54,0,0,0-1.12,1.34l-13.82,152.9a1.53,1.53,0,0,0,1.65,1.67l150.37-11.5a1.53,1.53,0,0,0,1.41-1.72L523.73,100.37A1.53,1.53,0,0,0,521.8,99.08Z"/><path class="cls-22" d="M398.63,278.92c0-.13,0-.27.07-.4a1.45,1.45,0,0,1-.17-.85L412,129.06l-5.43,1.5a1.53,1.53,0,0,0-1.12,1.34L391.59,284.8a1.53,1.53,0,0,0,1.65,1.67l4.64-.35A66,66,0,0,1,398.63,278.92Z"/><polygon class="cls-22" points="529.31 145.67 503.67 150.62 505.75 191.03 491.58 155.7 476.01 159.25 476.65 172.02 467.76 161.57 443.11 165.48 497.43 144.48 497.47 144.46 499.02 120.74 507.91 139.96 527.8 133.45 529.31 145.67"/><polygon class="cls-22" points="401.36 246.31 469.27 234.28 400.2 259.15 401.36 246.31"/><polygon class="cls-22" points="401.36 246.31 400.87 251.75 469.27 234.28 401.36 246.31"/><polygon class="cls-22" points="497.43 144.48 497.13 147.94 443.11 165.48 497.43 144.48"/><polygon class="cls-22" points="528.35 137.8 506.47 144.91 505.26 141 499.02 120.74 507.91 139.96 527.8 133.45 528.35 137.8"/><polygon class="cls-22" points="505.75 191.03 503.67 150.62 501.17 148.76 505.75 191.03"/><polygon class="cls-22" points="476.65 172.02 476.01 159.25 474.19 157.17 476.65 172.02"/><path class="cls-23" d="M1175.53,252.56l-92.7-19.13a1.19,1.19,0,0,0-1.25.51L1020,331.81a1.17,1.17,0,0,0,.6,1.7l110.82,45.07a1.17,1.17,0,0,0,1.58-.66l43.48-123.81A1.21,1.21,0,0,0,1175.53,252.56Z"/><path class="cls-24" d="M1027.06,330.14a2.35,2.35,0,0,1,.19-.25,1.08,1.08,0,0,1,.16-.63l59.87-95.12-4.37-.9a1.19,1.19,0,0,0-1.25.5l-61.59,97.87a1.17,1.17,0,0,0,.6,1.7l3.42,1.4A47.09,47.09,0,0,1,1027.06,330.14Z"/><polygon class="cls-24" points="1165.1 286.5 1145.19 280.82 1132.99 308.7 1134.88 280 1122.6 276.91 1118.73 285.71 1115.95 275.57 1097.1 269.54 1142.83 274.51 1142.87 274.51 1152 259.12 1151.82 275.15 1168.16 277.76 1165.1 286.5"/><polygon class="cls-24" points="1040.04 309.19 1092.41 324.95 1034.87 317.4 1040.04 309.19"/><polygon class="cls-24" points="1040.04 309.19 1037.85 312.67 1092.41 324.95 1040.04 309.19"/><polygon class="cls-24" points="1142.83 274.51 1141.45 276.73 1097.1 269.54 1142.83 274.51"/><polygon class="cls-24" points="1167.08 280.88 1149.12 277.97 1149.58 274.92 1152 259.12 1151.82 275.15 1168.16 277.76 1167.08 280.88"/><polygon class="cls-24" points="1132.99 308.7 1145.19 280.82 1144.04 278.7 1132.99 308.7"/><polygon class="cls-24" points="1118.73 285.71 1122.6 276.91 1122.01 274.88 1118.73 285.71"/><path class="cls-25" d="M960.22,147.53,927.5,130.48,940.71,54.1a1.53,1.53,0,0,0-.77-1.6L888.09,23.89a1.54,1.54,0,0,0-2.21.88l-31.55,98.7a1.54,1.54,0,0,0,.88,1.89l24.15,9.88-9.67,55.9-32.08,1.54a1.53,1.53,0,0,0-1.45,1.36L824.35,295.21a1.54,1.54,0,0,0,1.27,1.69l90.89,15.72a1.54,1.54,0,0,0,1.8-1.53l-.54-73.49,11.88,2.06a1.53,1.53,0,0,0,1.72-1L961,149.38A1.54,1.54,0,0,0,960.22,147.53Z"/><path class="cls-26" d="M832.74,293.15c0-.36.07-.72.12-1.07s.14-.93.24-1.38a1.47,1.47,0,0,1-.22-1l11.38-97.62-6.61.31a1.54,1.54,0,0,0-1.45,1.36L824.4,294.93a1.54,1.54,0,0,0,1.26,1.69l6.41,1.11c0-.77.11-1.53.2-2.28A18.73,18.73,0,0,1,832.74,293.15Z"/><path class="cls-26" d="M933,233.81l-1.68,5.06a1.54,1.54,0,0,1-1.72,1l-64.86-11.21a1.55,1.55,0,0,1-1.25-1.78L879.57,134l-.28,1.16-24.14-9.88a1.53,1.53,0,0,1-.88-1.89l31.55-98.71a1.53,1.53,0,0,1,2.2-.87l4.15,2.28-29.43,92.08a1.54,1.54,0,0,0,.88,1.89l17.15,7,2.92-16.91a1.53,1.53,0,0,1,2.22-1.1l5.08,2.64-19,110a1.53,1.53,0,0,0,1.25,1.78Z"/><polygon class="cls-26" points="954.45 169.03 953.23 172.73 950.22 181.79 906.2 147.66 932.32 158.32 932.33 158.32 936.64 149.17 936.05 160.13 936.02 160.63 954.45 169.03"/><polygon class="cls-26" points="907.64 34.67 901.69 69.09 890.88 68.59 900.77 74.39 897.68 92.28 916.3 39.46 907.64 34.67"/><polygon class="cls-27" points="836.14 261.81 898.86 269.15 884.41 270.46 880.23 281.81 878.19 271.3 854.81 271.56 846.3 292.26 849.25 271.13 834.9 272.36 836.14 261.81"/><polygon class="cls-27" points="898.86 269.15 835.76 265.46 836.14 261.81 898.86 269.15"/><polygon class="cls-27" points="880.23 281.81 882.77 269.06 884.41 270.46 880.23 281.81"/><polygon class="cls-27" points="846.3 292.26 854.81 271.56 853.81 269.5 846.3 292.26"/><polygon class="cls-26" points="916.3 39.46 897.68 92.28 913.62 37.97 916.3 39.46"/><polygon class="cls-26" points="890.88 68.59 901.69 69.09 902.55 70.61 890.88 68.59"/><polygon class="cls-26" points="906.2 147.66 932.32 158.32 931.05 160.91 906.2 147.66"/><polygon class="cls-26" points="954.45 169.03 953.23 172.73 934.31 162.65 936.64 149.17 936.05 160.13 936.02 160.63 954.45 169.03"/><path class="cls-28" d="M109.38,204.32,18.09,224.75A1.53,1.53,0,0,0,17,226.86l19.86,45.82L7.61,293.91a1.53,1.53,0,0,0-.55,1.75L42.77,398.43a1.53,1.53,0,0,0,2.06.9L126.36,364a1.53,1.53,0,0,0,.67-2.26L85.44,299l40.26-17.45a1.53,1.53,0,0,0,.89-1.72l-15.37-74.3A1.54,1.54,0,0,0,109.38,204.32Z"/><path class="cls-29" d="M59.68,302.66a1.53,1.53,0,0,1-2-.8L23.58,223.24,18,224.49a1.53,1.53,0,0,0-1.07,2.11l36.52,84.27a1.55,1.55,0,0,0,2,.8l70.14-30.4a1.53,1.53,0,0,0,.89-1.72l-1.11-5.36Z"/><path class="cls-29" d="M49.38,394.54c-.17-.36-.33-.72-.48-1.09a18.14,18.14,0,0,1-1-3.33,1.5,1.5,0,0,1-1-1l-34.44-99.1-5,3.59a1.54,1.54,0,0,0-.55,1.75L42.66,398.17a1.53,1.53,0,0,0,2.06.9l5.75-2.49C50.08,395.91,49.72,395.23,49.38,394.54Z"/><polygon class="cls-29" points="109.35 335.06 75.94 349.54 75.49 358.35 71.1 351.64 62.78 355.25 86.03 339.01 80.68 326.67 91.41 335.97 91.95 336.44 104.92 328.37 106.69 331.05 106.69 331.05 109.35 335.06"/><polygon class="cls-29" points="41.29 219.56 53.55 257.33 68.38 254.34 80.85 283.11 74.35 245.58 60.28 248.06 58.69 239.3 69.59 234.58 56.61 234.51 56.32 216.19 41.29 219.56"/><polygon class="cls-29" points="17.8 305.49 35.2 302.9 21.57 316.31 17.8 305.49"/><polygon class="cls-29" points="69.59 234.58 54.25 236.07 53.6 216.8 56.32 216.19 56.61 234.51 69.59 234.58"/><polygon class="cls-29" points="74.35 245.58 74.56 246.79 80.85 283.11 71.72 247.37 58.65 250.02 56.33 240.33 58.69 239.3 60.29 248.06 71.39 246.1 74.35 245.58"/><polygon class="cls-29" points="17.8 305.49 35.2 302.9 19.3 309.79 17.8 305.49"/><polygon class="cls-29" points="62.78 355.25 86.03 339.01 87.23 341.78 62.78 355.25"/><polygon class="cls-29" points="106.69 331.05 106.69 331.05 91.71 339.31 89.66 336.96 80.68 326.67 91.41 335.97 91.95 336.44 104.92 328.37 106.69 331.05"/><polygon class="cls-29" points="75.94 349.54 75.49 358.35 74.88 348.87 75.94 349.54"/></g></g></g></svg>