<svg xmlns="http://www.w3.org/2000/svg" viewBox="0 0 193.4 520.34"><defs><style>.cls-1{fill:#4c4812;}</style></defs><g id="Layer_2" data-name="Layer 2"><g id="Layer_1-2" data-name="Layer 1"><rect class="cls-1" x="78.09" y="205.11" width="14.3" height="315.23"/><polygon class="cls-1" points="88.77 276.05 81.7 268.98 136.35 214.33 136.35 143.86 186.32 93.89 193.4 100.96 146.35 148.01 146.35 218.47 88.77 276.05"/><polygon class="cls-1" points="81.7 230.9 55.73 204.93 55.73 162.03 0 106.31 7.07 99.23 65.73 157.89 65.73 200.78 88.77 223.83 81.7 230.9"/><polygon class="cls-1" points="49.39 141.79 39.39 141.79 39.39 43.89 75.06 8.21 82.14 15.28 49.39 48.03 49.39 141.79"/><polygon class="cls-1" points="78.94 302.21 9.06 232.33 9.06 180.73 19.06 180.73 19.06 228.19 86.01 295.14 78.94 302.21"/><rect class="cls-1" x="128.18" y="118.09" width="10" height="33.22" transform="translate(-56.24 133.63) rotate(-45)"/><rect class="cls-1" x="40.41" y="-1.33" width="10" height="33.22" transform="translate(2.5 36.58) rotate(-45)"/><rect class="cls-1" x="133.72" y="168.64" width="52.12" height="10" transform="translate(-75.98 163.84) rotate(-45)"/><rect class="cls-1" x="83.41" y="91.59" width="52.12" height="10" transform="translate(-36.23 105.7) rotate(-45)"/><polygon class="cls-1" points="56.17 157.04 49.1 149.97 88.36 110.71 88.36 68.74 98.36 68.74 98.36 114.85 56.17 157.04"/></g></g></svg>