<svg xmlns="http://www.w3.org/2000/svg" xmlns:xlink="http://www.w3.org/1999/xlink" viewBox="0 0 1150 1023">
  <defs>
    <style>
      .cls-1, .cls-21, .cls-22, .cls-23, .cls-24, .cls-30, .cls-31 {
        fill: none;
      }

      .cls-2 {
        isolation: isolate;
      }

      .cls-3 {
        fill: #ccc;
      }

      .cls-16, .cls-4 {
        fill: #f2f2f2;
      }

      .cls-5 {
        fill: #999;
      }

      .cls-6 {
        fill: gray;
      }

      .cls-7 {
        fill: #666;
      }

      .cls-13, .cls-15, .cls-8 {
        fill: #4d4d4d;
      }

      .cls-14, .cls-8 {
        opacity: 0.8;
      }

      .cls-10, .cls-13, .cls-14, .cls-8 {
        mix-blend-mode: multiply;
      }

      .cls-9 {
        clip-path: url(#clip-path);
      }

      .cls-10, .cls-13 {
        opacity: 0.35;
      }

      .cls-11 {
        opacity: 0.75;
      }

      .cls-12 {
        clip-path: url(#clip-path-2);
      }

      .cls-16 {
        opacity: 0.46;
      }

      .cls-17 {
        clip-path: url(#clip-path-3);
      }

      .cls-18 {
        fill: url(#radial-gradient);
      }

      .cls-19 {
        clip-path: url(#clip-path-4);
      }

      .cls-20 {
        clip-path: url(#clip-path-5);
      }

      .cls-21, .cls-22, .cls-23, .cls-24, .cls-30 {
        stroke: gray;
      }

      .cls-21, .cls-22, .cls-23, .cls-24, .cls-30, .cls-31 {
        stroke-miterlimit: 10;
      }

      .cls-21 {
        stroke-width: 1.178px;
      }

      .cls-22 {
        stroke-width: 0.708px;
      }

      .cls-23 {
        stroke-width: 0.93px;
      }

      .cls-24 {
        stroke-width: 1.177px;
      }

      .cls-25 {
        fill: #b3b3b3;
      }

      .cls-26 {
        fill: url(#radial-gradient-2);
      }

      .cls-27 {
        clip-path: url(#clip-path-6);
      }

      .cls-28 {
        clip-path: url(#clip-path-7);
      }

      .cls-29 {
        clip-path: url(#clip-path-8);
      }

      .cls-30, .cls-31 {
        stroke-width: 4.252px;
      }

      .cls-31 {
        stroke: #b3b3b3;
      }
    </style>
    <clipPath id="clip-path">
      <ellipse cx="676.107" cy="774.023" rx="19.242" ry="58.811"/>
    </clipPath>
    <clipPath id="clip-path-2">
      <ellipse class="cls-1" cx="676.107" cy="774.023" rx="19.242" ry="58.811"/>
    </clipPath>
    <clipPath id="clip-path-3">
      <ellipse class="cls-1" cx="687.171" cy="890.522" rx="24.912" ry="76.139"/>
    </clipPath>
    <radialGradient id="radial-gradient" cx="102.245" cy="251.116" r="20.112" gradientTransform="translate(0 -8.47) scale(1 1.034)" gradientUnits="userSpaceOnUse">
      <stop offset="0" stop-color="#fff"/>
      <stop offset="1" stop-color="#666"/>
    </radialGradient>
    <clipPath id="clip-path-4">
      <ellipse class="cls-1" cx="102.245" cy="251.116" rx="19.22" ry="20.967"/>
    </clipPath>
    <clipPath id="clip-path-5">
      <ellipse class="cls-1" cx="113.028" cy="251.116" rx="19.22" ry="20.967"/>
    </clipPath>
    <radialGradient id="radial-gradient-2" cx="196.507" cy="251.116" r="20.112" xlink:href="#radial-gradient"/>
    <clipPath id="clip-path-6">
      <ellipse class="cls-1" cx="196.507" cy="251.116" rx="19.22" ry="20.967"/>
    </clipPath>
    <clipPath id="clip-path-7">
      <ellipse class="cls-1" cx="207.29" cy="251.116" rx="19.22" ry="20.967"/>
    </clipPath>
    <clipPath id="clip-path-8">
      <ellipse class="cls-1" cx="319.833" cy="247.066" rx="24.206" ry="48.411"/>
    </clipPath>
  </defs>
  <g class="cls-2">
    <g id="Layer_1" data-name="Layer 1">
      <g>
        <polygon class="cls-3" points="624.115 397.642 594.125 540.403 737.65 576.136 825.479 443.407 694.405 413.617 624.115 397.642"/>
        <polygon class="cls-4" points="721.296 571.818 799.257 452.042 811.369 464.731 737.65 576.136 721.296 571.818"/>
        <polygon class="cls-5" points="690.821 413.062 651.131 554.809 594.433 540.634 623.491 397.47 690.821 413.062"/>
        <polygon class="cls-6" points="667.432 407.392 638.374 551.974 594.433 540.634 623.491 397.47 667.432 407.392"/>
        <polygon class="cls-7" points="648.297 403.139 624.2 548.43 594.433 540.634 623.491 397.47 648.297 403.139"/>
        <polygon class="cls-8" points="636.957 400.304 609.316 544.886 594.433 540.634 623.491 397.47 636.957 400.304"/>
        <polygon class="cls-3" points="600.551 353.528 568.419 417.238 846.822 471.661 868.713 412.595 600.551 353.528"/>
        <polygon class="cls-5" points="600.811 353.528 666.476 368.049 646.535 432.508 568.419 417.238 600.811 353.528"/>
        <polygon class="cls-6" points="600.811 353.528 636.957 361.324 620.656 427.236 568.419 417.238 600.811 353.528"/>
        <polygon class="cls-7" points="600.811 353.528 619.238 357.78 598.685 422.984 568.419 417.238 600.811 353.528"/>
        <polygon class="cls-8" points="600.811 353.528 609.316 355.654 583.802 420.149 568.419 417.238 600.811 353.528"/>
        <polygon class="cls-4" points="868.713 412.595 846.822 471.661 836.111 469.761 858.791 410.935 868.713 412.595"/>
        <polygon class="cls-8" points="630.933 429.458 801.902 462.88 721.296 452.042 629.12 441.298 630.933 429.458"/>
      </g>
      <g>
        <polygon class="cls-6" points="487.324 601.305 534.192 495.445 838.455 516.499 892.39 601.585 487.324 601.305"/>
        <polygon class="cls-7" points="530.557 601.306 576.14 498.347 534.192 495.445 487.324 601.306 892.39 601.585 892.371 601.555 530.557 601.306"/>
        <polygon class="cls-8" points="501.499 601.306 547.946 496.396 534.192 495.445 487.324 601.306 892.39 601.585 892.384 601.576 501.499 601.306"/>
      </g>
      <g>
        <g>
          <g>
            <g>
              <ellipse cx="981.537" cy="774.023" rx="23.118" ry="70.658"/>
              <rect x="676.107" y="703.365" width="304.327" height="141.317"/>
            </g>
            <ellipse cx="676.107" cy="774.023" rx="23.118" ry="70.658"/>
            <polygon points="993.161 716.947 693.159 716.947 693.159 722.68 994.795 722.68 993.161 716.947"/>
            <polygon points="988.782 707.64 688.78 707.64 688.78 713.374 990.415 713.374 988.782 707.64"/>
            <path d="M681.034,703.365a7.972,7.972,0,0,0-2.464.4c11.61,3.759,20.655,33.778,20.655,70.258s-9.045,66.5-20.655,70.259a7.972,7.972,0,0,0,2.464.4c12.768,0,23.118-31.635,23.118-70.659S693.8,703.365,681.034,703.365Z"/>
            <ellipse cx="676.107" cy="774.023" rx="19.242" ry="58.811"/>
            <g>
              <ellipse cx="676.107" cy="774.023" rx="19.242" ry="58.811"/>
              <g class="cls-9">
                <ellipse class="cls-10" cx="685.961" cy="774.023" rx="19.242" ry="58.811"/>
                <ellipse class="cls-10" cx="699.099" cy="774.023" rx="19.242" ry="58.811"/>
              </g>
            </g>
          </g>
          <path d="M981.537,703.365a8.048,8.048,0,0,0-2.737.5c11.478,4.139,20.381,33.971,20.381,70.163s-8.9,66.025-20.381,70.163a8.025,8.025,0,0,0,2.737.5c12.768,0,23.119-31.635,23.119-70.659S994.305,703.365,981.537,703.365Z"/>
        </g>
        <g class="cls-11">
          <g>
            <g>
              <ellipse class="cls-6" cx="981.537" cy="774.023" rx="23.118" ry="70.658"/>
              <rect class="cls-6" x="676.107" y="703.365" width="304.327" height="141.317"/>
            </g>
            <ellipse class="cls-5" cx="676.107" cy="774.023" rx="23.118" ry="70.658"/>
            <polygon class="cls-5" points="993.161 716.947 693.159 716.947 693.159 722.68 994.795 722.68 993.161 716.947"/>
            <polygon class="cls-5" points="988.782 707.64 688.78 707.64 688.78 713.374 990.415 713.374 988.782 707.64"/>
            <path class="cls-7" d="M681.034,703.365a7.972,7.972,0,0,0-2.464.4c11.61,3.759,20.655,33.778,20.655,70.258s-9.045,66.5-20.655,70.259a7.972,7.972,0,0,0,2.464.4c12.768,0,23.118-31.635,23.118-70.659S693.8,703.365,681.034,703.365Z"/>
            <ellipse class="cls-7" cx="676.107" cy="774.023" rx="19.242" ry="58.811"/>
            <g class="cls-12">
              <ellipse class="cls-13" cx="685.961" cy="774.023" rx="19.242" ry="58.811"/>
              <ellipse class="cls-13" cx="699.099" cy="774.023" rx="19.242" ry="58.811"/>
            </g>
          </g>
          <path class="cls-4" d="M981.537,703.365a8.048,8.048,0,0,0-2.737.5c11.478,4.139,20.381,33.971,20.381,70.163s-8.9,66.025-20.381,70.163a8.025,8.025,0,0,0,2.737.5c12.768,0,23.119-31.635,23.119-70.659S994.305,703.365,981.537,703.365Z"/>
        </g>
      </g>
      <g>
        <g>
          <polyline class="cls-6" points="206.512 340.474 161.951 352.35 173.421 474.939 123.895 486.189 118.179 430.868 65.007 441.564 65.007 474.939 86.447 471.017 86.447 454.823 106.172 450.14 112.175 512.127 203.081 490.095 186.714 367.458"/>
          <g class="cls-14">
            <polygon class="cls-15" points="128.653 485.108 129.326 491.621 178.853 480.371 167.382 357.782 200.237 349.026 206.512 340.474 161.951 352.35 173.421 474.939 128.653 485.108"/>
            <polygon class="cls-15" points="111.604 455.572 106.809 456.71 112.175 512.127 116.969 510.966 111.604 455.572"/>
            <polygon class="cls-15" points="70.439 446.995 118.839 437.26 118.179 430.868 65.007 441.564 65.007 474.939 70.439 473.945 70.439 446.995"/>
          </g>
        </g>
        <g>
          <polygon class="cls-5" points="455.706 671.905 234.411 671.905 145.69 254.282 447.475 254.282 455.706 671.905"/>
          <polygon class="cls-7" points="145.69 254.282 234.411 671.905 288.275 671.905 199.554 254.282 145.69 254.282"/>
          <polygon class="cls-8" points="145.69 254.282 234.411 671.905 252.129 671.905 163.408 254.282 145.69 254.282"/>
          <polyline class="cls-3" points="443.305 254.282 443.305 280.366 395.088 280.366 395.088 290.01 440.291 290.01 440.291 303.269 416.786 303.269 416.786 315.926 440.894 315.926 440.894 327.98 428.589 327.98 428.589 345.023 440.894 345.023 440.894 356.91 401.657 356.91 401.657 369.12 443.305 369.12 443.305 380.46 416.183 380.46 416.183 391.264 443.305 391.264 443.305 403.139 424.621 403.139 424.621 411.644 443.305 411.644 443.305 420.796 413.169 420.796 413.169 430.78 443.305 430.78 443.305 443.096 424.336 443.096 424.336 453.46 443.305 453.46 443.305 471.059 411.361 471.059 411.361 480.392 443.305 480.392 443.305 491.915 423.627 491.915 423.627 499.866 443.305 499.866 443.305 513.599 413.169 513.599 413.169 524.333 443.305 524.333 443.305 601.322 454.315 601.322 447.724 254.305 430.447 254.282"/>
          <polygon class="cls-16" points="447.724 254.305 429.297 254.305 449.142 610.09 454.103 601.585 447.724 254.305"/>
        </g>
        <g>
          <polyline class="cls-6" points="352.511 354.649 300.182 368.595 313.652 512.555 255.491 525.766 248.779 460.801 186.338 473.361 186.338 512.555 211.516 507.949 211.516 488.932 234.68 483.433 241.729 556.226 348.483 530.353 329.262 386.336"/>
          <g class="cls-14">
            <polygon class="cls-15" points="261.08 524.497 261.87 532.145 320.03 518.933 306.56 374.974 345.143 364.691 352.511 354.649 300.182 368.595 313.652 512.555 261.08 524.497"/>
            <polygon class="cls-15" points="241.058 489.811 235.427 491.148 241.729 556.226 247.358 554.862 241.058 489.811"/>
            <polygon class="cls-15" points="192.717 479.74 249.555 468.307 248.779 460.802 186.338 473.361 186.338 512.555 192.717 511.388 192.717 479.74"/>
          </g>
          <polygon class="cls-3" points="339.997 465.508 348.501 530.003 286.133 545.595 344.958 527.168 339.997 465.508"/>
        </g>
      </g>
      <g>
        <polygon class="cls-6" points="893.519 668.915 173.444 666.08 134.463 653.323 120.289 624.265 958.996 624.001 931.791 659.702 893.519 668.915"/>
        <g>
          <polygon class="cls-5" points="158.316 645.053 251.778 780.884 844.859 808.881 902.48 645.053 158.316 645.053"/>
          <polygon class="cls-7" points="336.806 784.863 240.606 645.053 158.316 645.053 251.778 780.884 844.859 808.881 844.871 808.846 336.806 784.863"/>
          <polygon class="cls-8" points="335.997 783.688 271.622 780.649 178.322 645.053 158.316 645.053 251.778 780.884 844.859 808.881 844.871 808.846 336.806 784.863 335.997 783.688"/>
          <polygon class="cls-4" points="809.347 645.053 764.529 711.439 822.946 726.967 752.83 804.501 844.871 724.777 798.851 703.241 835.062 645.053 809.347 645.053"/>
        </g>
        <polygon class="cls-5" points="128.653 585.915 120.289 624.265 958.996 624.001 958.723 585.993 128.653 585.915"/>
        <polygon class="cls-7" points="176.203 585.919 128.653 585.915 120.289 624.265 167.843 624.25 176.203 585.919"/>
        <polygon class="cls-8" points="146.371 585.917 128.653 585.915 120.289 624.265 138.008 624.259 146.371 585.917"/>
        <polygon class="cls-5" points="809.347 645.053 896.287 624.265 924.865 624.265 835.062 645.053 809.347 645.053"/>
        <rect class="cls-4" x="896.287" y="585.989" width="28.579" height="38.276"/>
      </g>
      <g>
        <g>
          <polygon class="cls-3" points="539.642 754.605 850.331 754.605 1000.538 815.623 682.377 815.623 539.642 754.605"/>
          <polygon class="cls-6" points="539.642 754.605 539.642 788.558 683.025 838.303 682.377 815.623 539.642 754.605"/>
          <polygon class="cls-4" points="850.331 754.605 835.447 754.605 985.655 815.623 1000.538 815.623 850.331 754.605"/>
        </g>
        <g>
          <g>
            <g>
              <ellipse class="cls-6" cx="1082.597" cy="890.522" rx="29.93" ry="91.478"/>
              <rect class="cls-6" x="687.171" y="799.044" width="393.998" height="182.956"/>
            </g>
            <ellipse class="cls-5" cx="687.171" cy="890.522" rx="29.93" ry="91.478"/>
            <polygon class="cls-5" points="1097.646 816.628 709.248 816.628 709.248 824.051 1099.761 824.051 1097.646 816.628"/>
            <polygon class="cls-8" points="1094.091 973.671 695.073 973.967 695.073 981.39 1085.586 981.39 1094.091 973.671"/>
            <polygon class="cls-5" points="1091.976 804.579 703.578 804.579 703.578 812.002 1094.091 812.002 1091.976 804.579"/>
            <path class="cls-7" d="M693.55,799.044a10.291,10.291,0,0,0-3.19.518c15.031,4.866,26.741,43.732,26.741,90.96s-11.71,86.094-26.741,90.961a10.319,10.319,0,0,0,3.19.517c16.53,0,29.93-40.956,29.93-91.478S710.08,799.044,693.55,799.044Z"/>
            <ellipse class="cls-7" cx="687.171" cy="890.522" rx="24.912" ry="76.139"/>
            <g class="cls-17">
              <ellipse class="cls-13" cx="699.928" cy="890.522" rx="24.912" ry="76.139"/>
              <ellipse class="cls-13" cx="716.938" cy="890.522" rx="24.912" ry="76.139"/>
            </g>
          </g>
          <path class="cls-4" d="M1082.6,799.044a10.4,10.4,0,0,0-3.544.641c14.86,5.359,26.387,43.981,26.387,90.837s-11.527,85.479-26.387,90.837a10.4,10.4,0,0,0,3.544.641c16.53,0,29.93-40.956,29.93-91.478S1099.127,799.044,1082.6,799.044Z"/>
        </g>
      </g>
      <g>
        <g>
          <polygon class="cls-5" points="109.48 221.949 103.637 323.068 340.455 312.065 340.455 169.974 263.148 168.649 120.503 166.202 109.48 221.949"/>
          <polygon class="cls-3" points="263.125 161.483 340.455 169.974 340.455 312.065 257.678 315.911 263.125 161.483"/>
          <polygon class="cls-8" points="111.014 203.785 155.017 208.946 145.585 290.462 133.783 290.462 130.211 320.926 103.637 323.068 111.014 203.785"/>
          <g>
            <g>
              <ellipse class="cls-3" cx="116.623" cy="251.116" rx="23.063" ry="25.16"/>
              <rect class="cls-3" x="102.545" y="225.956" width="14.377" height="50.32"/>
              <ellipse class="cls-5" cx="102.245" cy="251.116" rx="23.063" ry="25.16"/>
              <ellipse class="cls-6" cx="102.245" cy="251.116" rx="19.22" ry="20.967"/>
              <ellipse class="cls-18" cx="102.245" cy="251.116" rx="19.22" ry="20.967"/>
            </g>
            <g class="cls-19">
              <g>
                <ellipse class="cls-4" cx="113.028" cy="251.116" rx="19.22" ry="20.967"/>
                <g class="cls-20">
                  <ellipse class="cls-21" cx="107.358" cy="280.883" rx="38.331" ry="41.815"/>
                  <ellipse class="cls-21" cx="107.358" cy="222.057" rx="38.331" ry="41.815"/>
                  <ellipse class="cls-21" cx="108.067" cy="287.261" rx="38.331" ry="41.815"/>
                  <ellipse class="cls-21" cx="103.815" cy="214.261" rx="38.331" ry="41.815"/>
                  <ellipse class="cls-22" cx="120.116" cy="251.145" rx="23.063" ry="25.125"/>
                  <ellipse class="cls-23" cx="132.164" cy="251.145" rx="30.294" ry="33.002"/>
                  <ellipse class="cls-24" cx="145.63" cy="251.145" rx="38.331" ry="41.756"/>
                </g>
              </g>
            </g>
          </g>
          <polyline class="cls-5" points="95.878 169.974 85.194 221.949 132.977 221.949 125.512 286.434 174.892 286.434 184.742 221.949 231.437 222.787"/>
          <polygon class="cls-6" points="235.104 223.121 228.016 216.742 178.405 213.907 184.742 221.949 235.104 223.121"/>
          <polygon class="cls-3" points="178.405 213.907 165.659 286.434 174.892 286.434 184.742 221.949 178.405 213.907"/>
          <polygon class="cls-8" points="130.92 281.237 165.659 286.434 125.512 286.434 132.977 221.949 130.92 281.237"/>
          <polygon class="cls-6" points="133.783 213.907 86.551 215.351 85.194 221.949 132.977 221.949 133.783 213.907"/>
          <polygon class="cls-3" points="187.973 329.72 197.418 301.434 190.529 293.994 183.341 320.453 187.973 329.72"/>
          <polygon class="cls-25" points="124.335 293.994 190.529 293.994 183.341 320.453 119.58 324.404 124.335 293.994"/>
          <polyline class="cls-6" points="183.341 320.453 187.973 329.72 129.502 332.909 119.58 324.404"/>
          <polygon class="cls-7" points="131.628 299.664 184.784 299.664 179.822 315.965 126.667 318.8 131.628 299.664"/>
          <polygon class="cls-6" points="137.298 305.334 183.058 305.334 184.784 299.664 129.502 299.664 126.667 318.8 133.907 318.414 137.298 305.334"/>
        </g>
        <g>
          <g>
            <rect class="cls-6" x="55.085" y="42.505" width="8.505" height="64.549"/>
            <rect class="cls-7" x="55.085" y="42.505" width="4.961" height="64.549"/>
            <rect class="cls-8" x="55.085" y="42.505" width="2.126" height="64.549"/>
          </g>
          <polyline class="cls-6" points="51.622 103.568 66.711 103.568 66.711 126.201 91.86 126.201 91.86 152.189 360.993 152.189 360.993 255.299 322.431 262.843 324.108 183.205 273.81 183.205 274.649 233.503 245.308 231.826 245.308 183.205 73.418 179.014 73.418 150.512 51.622 147.997"/>
          <polygon class="cls-7" points="257.357 231.826 257.357 183.205 85.466 179.014 85.466 150.512 63.671 147.997 63.671 103.568 51.622 103.568 51.622 147.997 73.418 150.512 73.418 179.014 245.308 183.205 245.308 231.826 274.649 233.503 274.637 232.814 257.357 231.826"/>
          <polygon class="cls-7" points="336.156 183.205 324.108 183.205 322.431 262.843 334.53 260.476 336.156 183.205"/>
          <polygon class="cls-8" points="250.978 231.826 250.978 183.205 79.088 179.014 79.088 150.512 57.292 147.997 57.292 103.568 51.622 103.568 51.622 147.997 73.418 150.512 73.418 179.014 245.308 183.205 245.308 231.826 274.649 233.503 274.643 233.179 250.978 231.826"/>
          <polygon class="cls-8" points="329.778 183.205 324.108 183.205 322.431 262.843 328.125 261.729 329.778 183.205"/>
          <polygon class="cls-5" points="69.762 126.201 91.86 126.201 91.86 146.32 89.104 128.859 69.762 126.201"/>
          <polygon class="cls-5" points="360.993 152.189 360.993 223.935 357.006 157.208 165.257 152.189 360.993 152.189"/>
          <circle class="cls-6" cx="59.314" cy="42.505" r="16.189"/>
          <path class="cls-7" d="M53.756,42.505A16.192,16.192,0,0,1,64.63,27.214a16.189,16.189,0,1,0,0,30.582A16.191,16.191,0,0,1,53.756,42.505Z"/>
          <path class="cls-8" d="M47.378,42.505A16.188,16.188,0,0,1,61.44,26.46a16.187,16.187,0,1,0-2.126,32.234,16.383,16.383,0,0,0,2.126-.143A16.189,16.189,0,0,1,47.378,42.505Z"/>
          <circle class="cls-4" cx="69.236" cy="38.253" r="3.52"/>
        </g>
        <g>
          <g>
            <ellipse class="cls-3" cx="210.884" cy="251.116" rx="23.063" ry="25.16"/>
            <rect class="cls-3" x="196.807" y="225.956" width="14.377" height="50.32"/>
            <ellipse class="cls-5" cx="196.507" cy="251.116" rx="23.063" ry="25.16"/>
            <ellipse class="cls-6" cx="196.507" cy="251.116" rx="19.22" ry="20.967"/>
            <ellipse class="cls-26" cx="196.507" cy="251.116" rx="19.22" ry="20.967"/>
          </g>
          <g class="cls-27">
            <g>
              <ellipse class="cls-4" cx="207.29" cy="251.116" rx="19.22" ry="20.967"/>
              <g class="cls-28">
                <ellipse class="cls-21" cx="201.62" cy="280.883" rx="38.331" ry="41.815"/>
                <ellipse class="cls-21" cx="201.62" cy="222.057" rx="38.331" ry="41.815"/>
                <ellipse class="cls-21" cx="202.329" cy="287.261" rx="38.331" ry="41.815"/>
                <ellipse class="cls-21" cx="198.077" cy="214.261" rx="38.331" ry="41.815"/>
                <ellipse class="cls-22" cx="214.377" cy="251.145" rx="23.063" ry="25.125"/>
                <ellipse class="cls-23" cx="226.426" cy="251.145" rx="30.294" ry="33.002"/>
                <ellipse class="cls-24" cx="239.892" cy="251.145" rx="38.331" ry="41.756"/>
              </g>
            </g>
          </g>
        </g>
        <g>
          <ellipse class="cls-7" cx="306.84" cy="247.066" rx="24.206" ry="48.411"/>
          <rect class="cls-7" x="306.304" y="198.655" width="12.574" height="96.823"/>
          <g>
            <ellipse class="cls-5" cx="319.833" cy="247.066" rx="24.206" ry="48.411"/>
            <g class="cls-29">
              <ellipse class="cls-30" cx="326.043" cy="282.245" rx="76.389" ry="38.195"/>
              <ellipse class="cls-30" cx="294.056" cy="247.066" rx="38.195" ry="76.389"/>
              <ellipse class="cls-31" cx="323.916" cy="285.08" rx="76.389" ry="38.195"/>
              <ellipse class="cls-31" cx="291.93" cy="249.901" rx="38.195" ry="76.389"/>
            </g>
          </g>
        </g>
      </g>
    </g>
  </g>
</svg>
