<svg xmlns="http://www.w3.org/2000/svg" viewBox="0 0 119.43 134.52"><defs><style>.cls-1{fill:#f9d438;}</style></defs><g id="Layer_2" data-name="Layer 2"><g id="Layer_1-2" data-name="Layer 1"><path class="cls-1" d="M119,119.72a8.12,8.12,0,0,0-10.36-4.9c-6.78,2.43-23.87,7.16-36-1.28C64.24,107.72,59.36,96.36,58,79.73,74.55,77.28,82.88,86,84.43,92.59a8.1,8.1,0,1,0,15.78-3.69C96.75,74.12,81.63,61.26,58.92,63.29c2.51-7.37,8.24-13.79,13.83-20C81.89,33,93.26,20.3,84.47,4.22A8.1,8.1,0,0,0,70.25,12c2.86,5.25.39,9.29-9.58,20.45-7.18,8-15.79,17.69-18.43,30.51-9.15-2.43-19.49-8.3-24-16.77-4.58-8.67-1.54-18.52,9-29.27A8.11,8.11,0,0,0,15.73,5.55C-5.34,27-.7,45,3.94,53.75a39.35,39.35,0,0,0,2.67,4.33C14.52,69.21,28.35,76.79,41.24,79.4a29.77,29.77,0,0,1-8.11,16.52C27,102.33,18.09,106,10,105.57a8.1,8.1,0,0,0-.91,16.18C22,122.48,35.3,117,44.8,107.17c.75-.78,1.42-1.61,2.11-2.43a53.55,53.55,0,0,0,6.2,11.91,41.91,41.91,0,0,0,10.22,10.19c18.31,12.75,41.57,6.52,50.72,3.24A8.09,8.09,0,0,0,119,119.72Z"/></g></g></svg>