<svg xmlns="http://www.w3.org/2000/svg" viewBox="0 0 606 418.7">
  <defs>
    <style>
      .cls-1 {
        isolation: isolate;
      }

      .cls-2 {
        opacity: 0.9;
        mix-blend-mode: color-burn;
      }

      .cls-3 {
        fill: #999;
      }

      .cls-4, .cls-7 {
        opacity: 0.8;
        mix-blend-mode: multiply;
      }

      .cls-5, .cls-7 {
        fill: #4d4d4d;
      }

      .cls-6 {
        fill: gray;
      }

      .cls-8 {
        fill: #ccc;
      }

      .cls-9 {
        fill: #f2f2f2;
      }
    </style>
  </defs>
  <title>Animal_1</title>
  <g class="cls-1">
    <g id="Layer_2" data-name="Layer 2">
      <g id="Layer_4" data-name="Layer 4">
        <g class="cls-2">
          <path class="cls-3" d="M200.6,156.8a10.6,10.6,0,0,1-10.3-10.6v-71a20.3,20.3,0,0,1,20.3-20.3h92V0h54.9a10.6,10.6,0,0,1,10.6,10.3,10.5,10.5,0,0,1-10.5,10.6H323.6V56.8a18.9,18.9,0,0,1-18.9,18.9H211.3v70.6A10.5,10.5,0,0,1,200.6,156.8Z"/>
          <path class="cls-3" d="M167.2,156.8a10.6,10.6,0,0,1-10.3-10.6V75.8H63.5A18.9,18.9,0,0,1,44.6,56.8V20.9h-34A10.6,10.6,0,0,1,0,10.6,10.5,10.5,0,0,1,10.5,0h55V54.9h92a20.3,20.3,0,0,1,20.3,20.3v71.2A10.5,10.5,0,0,1,167.2,156.8Z"/>
          <g class="cls-4">
            <path class="cls-5" d="M48.4,56.8V20.9H44.6V56.8A18.9,18.9,0,0,0,63.5,75.8h3.8A18.9,18.9,0,0,1,48.4,56.8Z"/>
            <path class="cls-5" d="M3.8,10.6A10.5,10.5,0,0,1,14.3,0H10.5A10.5,10.5,0,0,0,0,10.6,10.6,10.6,0,0,0,10.6,20.9h3.8A10.6,10.6,0,0,1,3.8,10.6Z"/>
            <path class="cls-5" d="M160.7,146.2V75.8h-3.8v70.4a10.6,10.6,0,0,0,10.3,10.6l2.1-.2A10.6,10.6,0,0,1,160.7,146.2Z"/>
          </g>
          <g class="cls-4">
            <rect class="cls-5" x="302.7" width="3.5" height="54.87"/>
            <path class="cls-5" d="M193.9,146.2v-71a20.3,20.3,0,0,1,20.3-20.3h-3.5a20.3,20.3,0,0,0-20.3,20.3v71a10.6,10.6,0,0,0,10.3,10.6l2-.2A10.6,10.6,0,0,1,193.9,146.2Z"/>
          </g>
          <path class="cls-6" d="M482.9,318.4v80.1a20.2,20.2,0,0,1-40.4,0v-6.2h0c-.3-10.5-9.6-19.2-22.1-21.8v-.3a52.6,52.6,0,1,1,62.5-51.7Z"/>
          <path class="cls-6" d="M271.6,317.9c-2.2,0-9.1,3.2-13.9,18-6.3,19.6-6.1,64.5-6.1,65.2h0a17.5,17.5,0,1,1-35,0V263a55,55,0,1,1,55,55Z"/>
          <g>
            <circle class="cls-3" cx="92.7" cy="255.7" r="26.1"/>
            <path class="cls-7" d="M92.7,281.8h1.3a26.1,26.1,0,0,1,0-52.1H92.7a26.1,26.1,0,0,0,0,52.1Z"/>
          </g>
          <g>
            <line class="cls-3" x1="245.7" y1="146.4" x2="235.4" y2="143.1"/>
            <path class="cls-3" d="M235.4,143.1c-19.5,0-35.3,33.2-35.3,74.1s15.8,74.1,35.3,74.1l270.1,19.6A55.8,55.8,0,0,0,562,274.1L606,167.7h0a19.1,19.1,0,0,0-29.4,5l-25.7,46.1a30.6,30.6,0,0,1-34.5,12.1L237.5,143.1Z"/>
            <path class="cls-3" d="M606,167.7,562,274.1a55.8,55.8,0,0,1-50.5,37h0a55.8,55.8,0,0,1-6.1-.1L235.4,291.4c-19.5,0-35.3-33.2-35.3-74.1s15.8-74.1,35.3-74.1h2.4l278.6,87.7a37.2,37.2,0,0,0,38.6-12.1l25.7-46.1a15.3,15.3,0,0,1,25.3-5Z"/>
            <ellipse class="cls-6" cx="234.7" cy="217.4" rx="30.9" ry="71.1"/>
            <path class="cls-7" d="M234.7,146.4h-1.8c16.2,2.2,29.1,33.1,29.1,70.9s-12.9,68.7-29.1,70.9h1.8c17.1,0,30.9-31.8,30.9-71.1S251.8,146.4,234.7,146.4Z"/>
            <path class="cls-7" d="M595.3,163a19,19,0,0,0-14.7,9.7l-25.7,46.1a30.6,30.6,0,0,1-27.4,13.4,30.6,30.6,0,0,0,23.4-13.4l25.7-46.1a19.1,19.1,0,0,1,16.7-9.8Z"/>
          </g>
          <g>
            <path class="cls-3" d="M330,317.9c-2.2,0-9.1,3.2-13.9,18-6.3,19.6-6.1,64.5-6.1,65.2h0a17.5,17.5,0,1,1-35,0V263a55,55,0,1,1,55,55Z"/>
            <path class="cls-7" d="M385,263a55,55,0,0,1-55,55c-2.2,0-9.1,3.2-13.9,18-4.3,13.2-5.5,38-5.9,53-.1,4-.1,7.3-.2,9.5,0-2,0-5.4.1-9.5.3-15.3,1.6-41.6,5.9-55.4s11.7-18.6,13.9-18.5c29.6,0,53.7-24.1,54.9-54.3Q385,261.8,385,263Z"/>
            <path class="cls-7" d="M279.7,263V401.2c0,9,6.5,16.4,14.8,17.4h-2A17.5,17.5,0,0,1,275,401.2V263a55,55,0,0,1,55-55h1.2C302.7,208.6,279.7,233,279.7,263Z"/>
          </g>
          <path class="cls-3" d="M535.5,400.7h0v-.7C535.5,400.4,535.5,400.6,535.5,400.7Z"/>
          <path class="cls-3" d="M535.5,400.1c0,.4,0,.6,0,.6h0Z"/>
          <path class="cls-3" d="M535.6,388.9c-.1,4-.1,7.3-.2,9.5,0-2,0-5.4.1-9.5Z"/>
          <g>
            <path class="cls-3" d="M535.5,318.4v80.1a20.2,20.2,0,0,1-40.4,0v-6.2h0c-.3-10.5-9.6-19.2-22.1-21.8v-.3a52.6,52.6,0,1,1,62.5-51.7Z"/>
            <path class="cls-7" d="M500.8,398.5v-6.2h0c-.3-10.5-9.6-19.2-22.1-21.8v-.3a52.6,52.6,0,0,1,7.1-104.2h-2.9a52.6,52.6,0,0,0-9.9,104.3v.3c12.5,2.6,21.7,11.4,22.1,21.8h0v6.2a20.2,20.2,0,0,0,20.2,20.2l2.9-.2A20.2,20.2,0,0,1,500.8,398.5Z"/>
          </g>
          <circle class="cls-3" cx="164.9" cy="200.8" r="80.9"/>
          <path class="cls-7" d="M92.3,200.8A80.9,80.9,0,0,1,169,120.1h-4.1a80.9,80.9,0,1,0,0,161.7H169A80.9,80.9,0,0,1,92.3,200.8Z"/>
          <ellipse class="cls-8" cx="136.4" cy="197.2" rx="21" ry="39.9"/>
          <path class="cls-9" d="M136.4,157.3l-2,.2c10.7,1.9,19,19,19,39.7s-8.3,37.8-19,39.7l2,.2c11.6,0,21-17.9,21-39.9S148,157.3,136.4,157.3Z"/>
          <ellipse class="cls-8" cx="165" cy="203.8" rx="39.9" ry="21" transform="translate(-90.8 261.7) rotate(-63.7)"/>
          <path class="cls-9" d="M182.7,168.1a12.6,12.6,0,0,0-7.5-1,11.5,11.5,0,0,1,3.2,1c10.4,5.1,10.9,25.3,1.2,45.1-7.6,15.5-19.3,26.1-29,27.5,10.3,1.7,24.5-9.7,33.2-27.5C193.6,193.4,193.1,173.2,182.7,168.1Z"/>
          <circle class="cls-3" cx="136.5" cy="261.8" r="61.2"/>
          <ellipse class="cls-3" cx="126.5" cy="186.9" rx="6.1" ry="11.5"/>
          <ellipse class="cls-3" cx="163.4" cy="192.3" rx="6.1" ry="11.5"/>
          <path class="cls-7" d="M81.4,262a61.2,61.2,0,0,1,58-61.1h-3.1a61.2,61.2,0,1,0,0,122.3h3.1A61.2,61.2,0,0,1,81.4,262Z"/>
          <g>
            <circle class="cls-6" cx="160.8" cy="281.7" r="26.1"/>
            <path class="cls-7" d="M160.8,255.6h-1.3a26.1,26.1,0,0,1,0,52.1h1.3a26.1,26.1,0,0,0,0-52.1Z"/>
            <circle class="cls-3" cx="154.8" cy="287.7" r="20.1"/>
          </g>
        </g>
      </g>
    </g>
  </g>
</svg>
