<svg xmlns="http://www.w3.org/2000/svg" xmlns:xlink="http://www.w3.org/1999/xlink" viewBox="0 0 426.4 442.1">
  <defs>
    <style>
      .cls-1 {
        fill: none;
      }

      .cls-2 {
        isolation: isolate;
      }

      .cls-15, .cls-3, .cls-7 {
        opacity: 0.8;
      }

      .cls-3 {
        mix-blend-mode: color-burn;
      }

      .cls-4 {
        fill: gray;
      }

      .cls-5 {
        clip-path: url(#clip-path);
      }

      .cls-6 {
        fill: #f2f2f2;
      }

      .cls-10, .cls-7 {
        fill: #4d4d4d;
      }

      .cls-15, .cls-7 {
        mix-blend-mode: multiply;
      }

      .cls-8 {
        fill: #999;
      }

      .cls-9 {
        clip-path: url(#clip-path-2);
      }

      .cls-11 {
        fill: #ccc;
      }

      .cls-12 {
        clip-path: url(#clip-path-3);
      }

      .cls-13 {
        clip-path: url(#clip-path-4);
      }

      .cls-14 {
        clip-path: url(#clip-path-5);
      }

      .cls-16 {
        clip-path: url(#clip-path-6);
      }

      .cls-17 {
        fill: #333;
      }

      .cls-18 {
        fill: #e6e6e6;
      }
    </style>
    <clipPath id="clip-path">
      <path class="cls-1" d="M380.4,395.2,212,112.9,46,395.2h.3a7.1,7.1,0,0,0-.3,2.1c0,18.5,74.9,33.4,167.2,33.4s167.2-15,167.2-33.4a7.1,7.1,0,0,0-.3-2.1Z"/>
    </clipPath>
    <clipPath id="clip-path-2">
      <path class="cls-1" d="M324.6,301.7l2.7,4.5c24.3,5.4,39.1,12.6,39.1,20.4,0,.1,0,.2,0,.3h0v.6h0v.3h0v.6h0v.6a8.9,8.9,0,0,1-1,1.7l-.2.3-.2.3h0l-.3.3c-2.8,3.3-8.3,6.5-16.1,9.3-25.9,9.6-76.6,16.1-135,16.1S103.6,350.7,77.8,341c-8.2-3.1-13.9-6.5-16.4-10.1h0l-.2-.3-.2-.3-.2-.3-.2-.3-.2-.4v-.6h0V328h0v-.3h0V327h0c0-.1,0-.2,0-.3,0-7.8,14.4-14.9,38.2-20.2l2.7-4.5C67.1,308,46,316.8,46,326.6v11.1c0,6.3,8.7,12.2,23.7,17.2,29.2,9.7,82.6,16.3,143.5,16.3s113.9-6.5,143.2-16.2c15.2-5,24-11,24-17.3V326.6C380.4,316.7,358.9,307.8,324.6,301.7Z"/>
    </clipPath>
    <clipPath id="clip-path-3">
      <path class="cls-1" d="M313.2,282.6l2.4,4c21.9,4.9,35.2,11.3,35.2,18.4,0,.1,0,.2,0,.3h0v.6h0v.2h0v.5h0v.5a8,8,0,0,1-.9,1.6l-.2.2-.2.3h0l-.2.3c-2.5,3-7.5,5.8-14.4,8.4-23.3,8.6-68.9,14.5-121.5,14.5s-98.6-5.9-121.8-14.6c-7.4-2.8-12.5-5.8-14.7-9.1h0l-.2-.3-.2-.3-.2-.3v-.3l-.2-.4v-.5h0v-.5h0v-.2h0v-.6h0V305c0-7,13-13.4,34.4-18.2l2.4-4.1c-30.4,5.5-49.4,13.5-49.4,22.3v10c0,5.7,7.8,10.9,21.3,15.5,26.3,8.8,74.3,14.6,129.2,14.6s102.5-5.8,128.9-14.6c13.7-4.5,21.6-9.9,21.6-15.5V305C363.4,296.1,344,288.1,313.2,282.6Z"/>
    </clipPath>
    <clipPath id="clip-path-4">
      <path class="cls-1" d="M303,265.5l2.2,3.6c19.7,4.4,31.7,10.2,31.7,16.6v.3h0v.5h0v.2h0v.5h0v.5a7.2,7.2,0,0,1-.8,1.4l-.2.2-.2.2h0l-.2.3c-2.3,2.7-6.8,5.2-13,7.5-21,7.8-62.1,13.1-109.3,13.1s-88.8-5.3-109.6-13.2c-6.7-2.5-11.2-5.3-13.3-8.2h0l-.2-.3-.2-.3v-1.3h0v-.5h0v-.2h0V286h0v-.3c0-6.3,11.7-12,31-16.4l2.2-3.7c-27.3,5-44.5,12.1-44.5,20.1v9c0,5.1,7,9.8,19.2,13.9,23.7,7.9,66.9,13.2,116.2,13.2s92.3-5.2,116-13.1c12.3-4.1,19.4-8.9,19.4-14v-9C348.2,277.7,330.7,270.5,303,265.5Z"/>
    </clipPath>
    <clipPath id="clip-path-5">
      <path class="cls-1" d="M293.7,249.6l2,3.3c17.7,4,28.5,9.2,28.5,14.9v.2h0v.5h0v.2h0v.4h0v.4a6.5,6.5,0,0,1-.7,1.3v.2l-.2.2h0l-.2.2c-2.1,2.4-6.1,4.7-11.7,6.8-18.9,7-55.8,11.8-98.4,11.8s-79.9-4.8-98.7-11.9c-6-2.2-10.1-4.7-11.9-7.4h0l-.2-.2v-1.4h0v-.4h0v-.2h0V268h0v-.2c0-5.7,10.5-10.8,27.9-14.8l1.9-3.3c-24.6,4.5-40,10.9-40,18.1v8.1c0,4.6,6.3,8.9,17.3,12.5,21.3,7.1,60.2,11.9,104.6,11.9s83.1-4.7,104.4-11.8c11.1-3.7,17.5-8,17.5-12.6v-8.1C334.4,260.5,318.7,254,293.7,249.6Z"/>
    </clipPath>
    <clipPath id="clip-path-6">
      <path class="cls-1" d="M308.7,96.5q0,3.4-.2,6.7c-24.9,3.8-56,6.1-89.9,6.1s-65-2.3-89.9-6.1q-.2-3.3-.2-6.7a90.1,90.1,0,1,1,180.2,0Z"/>
    </clipPath>
  </defs>
  <title>Animal_3</title>
  <g class="cls-2">
    <g id="Layer_2" data-name="Layer 2">
      <g id="Layer_4" data-name="Layer 4">
        <g class="cls-3">
          <path class="cls-4" d="M380.4,395.2,212,112.9,46,395.2h.3a7.1,7.1,0,0,0-.3,2.1c0,18.5,74.9,33.4,167.2,33.4s167.2-15,167.2-33.4a7.1,7.1,0,0,0-.3-2.1Z"/>
          <g class="cls-5">
            <g>
              <path class="cls-6" d="M380.8,398.9,212.3,116.5l-2.2,3.8L376.3,398.9H376a7.1,7.1,0,0,1,.3,2.1c0,18.3-73.7,33.2-165,33.4h2.3c92.4,0,167.2-15,167.2-33.4a7.1,7.1,0,0,0-.3-2.1Z"/>
              <path class="cls-6" d="M374,402.7,205.5,120.4,204,123,370.8,402.7h-.3a7.1,7.1,0,0,1,.3,2.1c0,18.4-74,33.3-165.6,33.4h1.5c92.4,0,167.2-15,167.2-33.4a7.1,7.1,0,0,0-.3-2.1Z"/>
              <path class="cls-6" d="M367.1,406.6,198.7,124.2l-.7,1.2L365.7,406.6h-.3a7.1,7.1,0,0,1,.3,2.1c0,18.4-74.5,33.4-166.5,33.4h.7c92.4,0,167.2-15,167.2-33.4a7.1,7.1,0,0,0-.3-2.1Z"/>
            </g>
          </g>
          <path class="cls-7" d="M54.4,397.4a7.1,7.1,0,0,1,.3-2.1h-.3L216.2,120l-4.2-7.1L46,395.2h.3a7.1,7.1,0,0,0-.3,2.1c0,18.5,74.9,33.4,167.2,33.4h4.2C127,430.4,54.4,415.6,54.4,397.4Z"/>
          <g>
            <path class="cls-8" d="M324.6,301.7l2.7,4.5c24.3,5.4,39.1,12.6,39.1,20.4,0,.1,0,.2,0,.3h0v.6h0v.3h0v.6h0v.6a8.9,8.9,0,0,1-1,1.7l-.2.3-.2.3h0l-.3.3c-2.8,3.3-8.3,6.5-16.1,9.3-25.9,9.6-76.6,16.1-135,16.1S103.6,350.7,77.8,341c-8.2-3.1-13.9-6.5-16.4-10.1h0l-.2-.3-.2-.3-.2-.3-.2-.3-.2-.4v-.6h0V328h0v-.3h0V327h0c0-.1,0-.2,0-.3,0-7.8,14.4-14.9,38.2-20.2l2.7-4.5C67.1,308,46,316.8,46,326.6v11.1c0,6.3,8.7,12.2,23.7,17.2,29.2,9.7,82.6,16.3,143.5,16.3s113.9-6.5,143.2-16.2c15.2-5,24-11,24-17.3V326.6C380.4,316.7,358.9,307.8,324.6,301.7Z"/>
            <path class="cls-4" d="M98.2,306.4l-7.1,12.1c-14.5,3.8-24.7,8.4-28.9,13.3l-.7-.9h0l-.2-.3-.2-.3-.2-.3-.2-.3-.2-.4v-.6h0V328h0v-.3h0V327h0c0-.1,0-.2,0-.3C60,318.9,74.4,311.8,98.2,306.4Z"/>
            <path class="cls-4" d="M366.4,326.6c0,.1,0,.2,0,.3h0v.6h0v.3h0v.6h0v.6a8.9,8.9,0,0,1-1,1.7l-.2.3-.2.3h0l-.3.3c-4.3-5-14.7-9.6-29.7-13.5l-7.2-12.1C351.6,311.6,366.4,318.8,366.4,326.6Z"/>
            <g class="cls-9">
              <g>
                <rect class="cls-4" x="40.8" y="316.9" width="14.3" height="38.58"/>
                <rect class="cls-10" x="40.8" y="316.9" width="9.9" height="38.58"/>
              </g>
            </g>
            <path class="cls-11" d="M324.6,301.7l2.7,4.5c24.3,5.4,39.1,12.6,39.1,20.4,0,.1,0,.2,0,.3h0v.6h0v.3h0v.6h0v.6a8.9,8.9,0,0,1-1,1.7l-.2.3-.2.3h0l-.3.3c-2.8,3.3-8.3,6.5-16.1,9.3-25.9,9.6-76.6,16.1-135,16.1S103.6,350.7,77.8,341c-8.2-3.1-13.9-6.5-16.4-10.1h0l-.2-.3-.2-.3-.2-.3-.2-.3-.2-.4v-.6h0V328h0v-.3h0V327h0c0-.1,0-.2,0-.3,0-7.8,14.4-14.9,38.2-20.2l2.7-4.5C67.1,308,46,316.8,46,326.6c0,7,10.8,13.5,29.2,18.9,30.1,8.8,80.7,14.6,138,14.6s107.5-5.7,137.6-14.4c18.7-5.4,29.6-11.9,29.6-19C380.4,316.7,358.9,307.8,324.6,301.7Z"/>
          </g>
          <g>
            <path class="cls-8" d="M313.2,282.6l2.4,4c21.9,4.9,35.2,11.3,35.2,18.4,0,.1,0,.2,0,.3h0v.6h0v.2h0v.5h0v.5a8,8,0,0,1-.9,1.6l-.2.2-.2.3h0l-.2.3c-2.5,3-7.5,5.8-14.4,8.4-23.3,8.6-68.9,14.5-121.5,14.5s-98.6-5.9-121.8-14.6c-7.4-2.8-12.5-5.8-14.7-9.1h0l-.2-.3-.2-.3-.2-.3v-.3l-.2-.4v-.5h0v-.5h0v-.2h0v-.6h0V305c0-7,13-13.4,34.4-18.2l2.4-4.1c-30.4,5.5-49.4,13.5-49.4,22.3v10c0,5.7,7.8,10.9,21.3,15.5,26.3,8.8,74.3,14.6,129.2,14.6s102.5-5.8,128.9-14.6c13.7-4.5,21.6-9.9,21.6-15.5V305C363.4,296.1,344,288.1,313.2,282.6Z"/>
            <path class="cls-4" d="M109.4,286.8,103,297.7c-13.1,3.4-22.2,7.5-26,12l-.6-.8h0l-.2-.3-.2-.3-.2-.3v-.3l-.2-.4v-.5h0v-.5h0v-.2h0v-.6h0V305C75,298,88,291.6,109.4,286.8Z"/>
            <path class="cls-4" d="M350.8,305c0,.1,0,.2,0,.3h0v.6h0v.2h0v.5h0v.5a8,8,0,0,1-.9,1.6l-.2.2-.2.3h0l-.2.3c-3.9-4.5-13.2-8.7-26.7-12.2l-6.5-10.9C337.5,291.5,350.8,297.9,350.8,305Z"/>
            <g class="cls-12">
              <g>
                <rect class="cls-4" x="57.7" y="296.3" width="12.9" height="34.72"/>
                <rect class="cls-10" x="57.7" y="296.3" width="8.9" height="34.72"/>
              </g>
            </g>
            <path class="cls-11" d="M313.2,282.6l2.4,4c21.9,4.9,35.2,11.3,35.2,18.4,0,.1,0,.2,0,.3h0v.6h0v.2h0v.5h0v.5a8,8,0,0,1-.9,1.6l-.2.2-.2.3h0l-.2.3c-2.5,3-7.5,5.8-14.4,8.4-23.3,8.6-68.9,14.5-121.5,14.5s-98.6-5.9-121.8-14.6c-7.4-2.8-12.5-5.8-14.7-9.1h0l-.2-.3-.2-.3-.2-.3v-.3l-.2-.4v-.5h0v-.5h0v-.2h0v-.6h0V305c0-7,13-13.4,34.4-18.2l2.4-4.1c-30.4,5.5-49.4,13.5-49.4,22.3,0,6.3,9.7,12.2,26.3,17,27.1,7.9,72.6,13.1,124.2,13.1s96.7-5.1,123.9-13c16.8-4.9,26.6-10.8,26.6-17.1C363.4,296.1,344,288.1,313.2,282.6Z"/>
          </g>
          <g>
            <path class="cls-8" d="M303,265.5l2.2,3.6c19.7,4.4,31.7,10.2,31.7,16.6v.3h0v.5h0v.2h0v.5h0v.5a7.2,7.2,0,0,1-.8,1.4l-.2.2-.2.2h0l-.2.3c-2.3,2.7-6.8,5.2-13,7.5-21,7.8-62.1,13.1-109.3,13.1s-88.8-5.3-109.6-13.2c-6.7-2.5-11.2-5.3-13.3-8.2h0l-.2-.3-.2-.3v-1.3h0v-.5h0v-.2h0V286h0v-.3c0-6.3,11.7-12,31-16.4l2.2-3.7c-27.3,5-44.5,12.1-44.5,20.1v9c0,5.1,7,9.8,19.2,13.9,23.7,7.9,66.9,13.2,116.2,13.2s92.3-5.2,116-13.1c12.3-4.1,19.4-8.9,19.4-14v-9C348.2,277.7,330.7,270.5,303,265.5Z"/>
            <path class="cls-4" d="M119.6,269.3l-5.8,9.8c-11.8,3.1-20,6.8-23.4,10.8l-.6-.7h0l-.2-.3-.2-.3v-1.3h0v-.5h0v-.2h0V286h0v-.3C88.6,279.4,100.3,273.7,119.6,269.3Z"/>
            <path class="cls-4" d="M336.8,285.7v.3h0v.5h0v.2h0v.5h0v.5a7.2,7.2,0,0,1-.8,1.4l-.2.2-.2.2h0l-.2.3c-3.5-4.1-11.9-7.8-24-10.9l-5.9-9.8C324.8,273.6,336.8,279.4,336.8,285.7Z"/>
            <g class="cls-13">
              <g>
                <rect class="cls-4" x="73" y="277.9" width="11.6" height="31.25"/>
                <rect class="cls-10" x="73" y="277.9" width="8" height="31.25"/>
              </g>
            </g>
            <path class="cls-11" d="M303,265.5l2.2,3.6c19.7,4.4,31.7,10.2,31.7,16.6v.3h0v.5h0v.2h0v.5h0v.5a7.2,7.2,0,0,1-.8,1.4l-.2.2-.2.2h0l-.2.3c-2.3,2.7-6.8,5.2-13,7.5-21,7.8-62.1,13.1-109.3,13.1s-88.8-5.3-109.6-13.2c-6.7-2.5-11.2-5.3-13.3-8.2h0l-.2-.3-.2-.3v-1.3h0v-.5h0v-.2h0V286h0v-.3c0-6.3,11.7-12,31-16.4l2.2-3.7c-27.3,5-44.5,12.1-44.5,20.1,0,5.7,8.7,11,23.7,15.3,24.4,7.1,65.4,11.8,111.8,11.8s87-4.6,111.5-11.7c15.1-4.4,24-9.7,24-15.4C348.2,277.7,330.7,270.5,303,265.5Z"/>
          </g>
          <g>
            <path class="cls-8" d="M293.7,249.6l2,3.3c17.7,4,28.5,9.2,28.5,14.9v.2h0v.5h0v.2h0v.4h0v.4a6.5,6.5,0,0,1-.7,1.3v.2l-.2.2h0l-.2.2c-2.1,2.4-6.1,4.7-11.7,6.8-18.9,7-55.8,11.8-98.4,11.8s-79.9-4.8-98.7-11.9c-6-2.2-10.1-4.7-11.9-7.4h0l-.2-.2v-1.4h0v-.4h0v-.2h0V268h0v-.2c0-5.7,10.5-10.8,27.9-14.8l1.9-3.3c-24.6,4.5-40,10.9-40,18.1v8.1c0,4.6,6.3,8.9,17.3,12.5,21.3,7.1,60.2,11.9,104.6,11.9s83.1-4.7,104.4-11.8c11.1-3.7,17.5-8,17.5-12.6v-8.1C334.4,260.5,318.7,254,293.7,249.6Z"/>
            <path class="cls-4" d="M128.7,253l-5.2,8.8c-10.6,2.8-18,6.1-21.1,9.7l-.5-.7h0l-.2-.2v-1.4h0v-.4h0v-.2h0V268h0v-.2C100.8,262.1,111.3,256.9,128.7,253Z"/>
            <path class="cls-4" d="M324.2,267.8v.2h0v.5h0v.2h0v.4h0v.4a6.5,6.5,0,0,1-.7,1.3v.2l-.2.2h0l-.2.2c-3.1-3.7-10.7-7-21.6-9.9l-5.3-8.8C313.4,256.8,324.2,262,324.2,267.8Z"/>
            <g class="cls-14">
              <g>
                <rect class="cls-4" x="86.8" y="260.7" width="10.4" height="28.12"/>
                <rect class="cls-10" x="86.8" y="260.7" width="7.2" height="28.12"/>
              </g>
            </g>
            <path class="cls-11" d="M293.7,249.6l2,3.3c17.7,4,28.5,9.2,28.5,14.9v.2h0v.5h0v.2h0v.4h0v.4a6.5,6.5,0,0,1-.7,1.3v.2l-.2.2h0l-.2.2c-2.1,2.4-6.1,4.7-11.7,6.8-18.9,7-55.8,11.8-98.4,11.8s-79.9-4.8-98.7-11.9c-6-2.2-10.1-4.7-11.9-7.4h0l-.2-.2v-1.4h0v-.4h0v-.2h0V268h0v-.2c0-5.7,10.5-10.8,27.9-14.8l1.9-3.3c-24.6,4.5-40,10.9-40,18.1,0,5.1,7.9,9.9,21.3,13.8,22,6.4,58.8,10.6,100.6,10.6s78.3-4.2,100.3-10.5c13.6-3.9,21.6-8.7,21.6-13.9C334.4,260.5,318.7,254,293.7,249.6Z"/>
          </g>
          <g>
            <path class="cls-8" d="M376.4,171.5l44.3-27.4-66.4,1.3,1,1.2c-29.5-9.5-82.1-15.8-142.1-15.8s-112.9,6.4-142.4,15.9l1.1-1.3L5.5,144.1l44.3,27.4h.1c16.5,15,83.4,26.2,163.3,26.2S359.7,186.4,376.4,171.5Z"/>
            <path class="cls-6" d="M405.2,144.2l-44,27.3c-16.5,14.7-81.5,25.8-159.7,26.1h3.5c79.7,0,146.5-11.2,163.2-26.1l44.3-27.4Z"/>
            <g class="cls-15">
              <path class="cls-10" d="M361.1,146.5l-1-1.2,60.4-1.2h.2l-63.6,1.2Z"/>
              <path class="cls-10" d="M55.7,171.4h-.1L11.5,144.2h-6l44.3,27.4h.1c16.5,15,83.4,26.2,163.3,26.2h2.9C137.5,197.3,72,186.2,55.7,171.4Z"/>
              <path class="cls-10" d="M77.7,145.3l-1.1,1.3c29-9.4,80.5-15.7,139.5-15.9h-2.9c-57.4,0-108,5.8-138.1,14.6Z"/>
            </g>
            <path class="cls-4" d="M420.3,124h.4l-2-1.2a49.8,49.8,0,0,0-5.5-3.4L376.4,96.6h-.1c-16.5-15-83.4-26.2-163.3-26.2S66.5,81.6,49.8,96.6L5.5,124h.6c-4,3.3-6.1,6.7-6.1,10.2,0,23.5,95.5,42.6,213.2,42.6s213.2-19.1,213.2-42.6C426.4,130.7,424.3,127.3,420.3,124Z"/>
            <path class="cls-7" d="M11.4,134.2c0-3.5,2.1-6.9,6.1-10.2H17L61.2,96.6C77.5,82,141.5,71,218.7,70.5H213c-79.7,0-146.5,11.2-163.2,26.1L5.5,124h.6c-4,3.3-6.1,6.7-6.1,10.2,0,23.5,95.5,42.6,213.2,42.6h5.7C103.8,176.2,11.4,157.4,11.4,134.2Z"/>
            <path class="cls-6" d="M420.3,124h.4l-2-1.2a49.8,49.8,0,0,0-5.5-3.4L376.4,96.6h-.1c-16.5-15-83.4-26.2-163.3-26.2h-1.8c79.1.2,145.1,11.3,161.5,26.2h.1l36.8,22.8a49.8,49.8,0,0,1,5.5,3.4l2,1.2h-.4c4,3.3,6.1,6.7,6.1,10.2,0,23.4-94.5,42.4-211.4,42.6h1.8c117.7,0,213.2-19.1,213.2-42.6C426.4,130.7,424.3,127.3,420.3,124Z"/>
            <ellipse class="cls-8" cx="213.2" cy="103.9" rx="167.2" ry="33.4"/>
            <path class="cls-7" d="M51.7,103.9c0-18.3,73.3-33.1,164.4-33.4h-2.9C120.8,70.5,46,85.4,46,103.9s74.9,33.4,167.2,33.4h2.9C125,137,51.7,122.2,51.7,103.9Z"/>
            <path class="cls-11" d="M315.6,102.4q0,3.8-.3,7.6c-28.2,4.4-63.7,7-102.1,7s-73.9-2.6-102.1-7q-.3-3.8-.3-7.6a102.4,102.4,0,1,1,204.8,0Z"/>
            <path class="cls-7" d="M308.7,96.5q0,3.4-.2,6.7c-24.9,3.8-56,6.1-89.9,6.1s-65-2.3-89.9-6.1q-.2-3.3-.2-6.7a90.1,90.1,0,1,1,180.2,0Z"/>
            <g class="cls-16">
              <ellipse class="cls-7" cx="195.5" cy="117" rx="167.2" ry="33.4"/>
              <ellipse class="cls-4" cx="194.5" cy="120.6" rx="167.2" ry="33.4"/>
              <g>
                <path class="cls-8" d="M222.7,97.9a8.9,8.9,0,1,0-17.4,0,8.9,8.9,0,0,0-.1,3.5,8.8,8.8,0,0,0-.1,2.9,8.9,8.9,0,1,0,17.6,0,8.8,8.8,0,0,0-.1-2.9,8.9,8.9,0,0,0-.1-3.5Z"/>
                <path class="cls-17" d="M207,105.6a9,9,0,0,1,.1-1.3,8.8,8.8,0,0,1,.1-2.9,8.9,8.9,0,0,1,.1-3.5A8.9,8.9,0,0,1,215,87.1h-.9a8.9,8.9,0,0,0-8.7,10.8,8.9,8.9,0,0,0-.1,3.5,8.8,8.8,0,0,0-.1,2.9,8.9,8.9,0,0,0,8.8,10.2h.9A8.9,8.9,0,0,1,207,105.6Z"/>
                <g>
                  <circle class="cls-8" cx="187.3" cy="32.9" r="8.9"/>
                  <path class="cls-17" d="M180.5,32.9a8.9,8.9,0,0,1,7.9-8.8h-1a8.9,8.9,0,0,0,0,17.8h1A8.9,8.9,0,0,1,180.5,32.9Z"/>
                </g>
                <g>
                  <circle class="cls-8" cx="213.2" cy="27.7" r="8.9"/>
                  <path class="cls-17" d="M206.4,27.7a8.9,8.9,0,0,1,7.9-8.8h-1a8.9,8.9,0,0,0,0,17.8h1A8.9,8.9,0,0,1,206.4,27.7Z"/>
                </g>
                <g>
                  <circle class="cls-8" cx="239" cy="32.9" r="8.9"/>
                  <path class="cls-17" d="M232.2,32.9a8.9,8.9,0,0,1,7.9-8.8h-1a8.9,8.9,0,0,0,0,17.8h1A8.9,8.9,0,0,1,232.2,32.9Z"/>
                </g>
                <ellipse class="cls-8" cx="213.2" cy="61.8" rx="41.5" ry="34.9"/>
                <ellipse class="cls-18" cx="213.2" cy="61.8" rx="29.3" ry="20"/>
                <circle class="cls-17" cx="212.7" cy="62.4" r="8.3"/>
                <path class="cls-17" d="M176.3,61.8c0-18.6,17.4-33.8,39.2-34.9h-2.3c-22.9,0-41.5,15.6-41.5,34.9s18.6,34.9,41.5,34.9h2.3C193.7,95.7,176.3,80.4,176.3,61.8Z"/>
              </g>
              <g>
                <path class="cls-8" d="M162.8,68.4a4.7,4.7,0,1,1,9.1,2.1l-.4.9a4.7,4.7,0,0,1-.2,1l-.4.8a4.7,4.7,0,0,1-.2.8l-.3.6-.2.7a4.7,4.7,0,0,1-8.8-3.1l.3-.6.2-.7.4-.8a4.7,4.7,0,0,1,.2-.8Z"/>
                <path class="cls-7" d="M165.4,78.2a4.7,4.7,0,0,1-2.9-6l.3-.6.2-.7.4-.8a4.7,4.7,0,0,1,.2-.8l.4-.9a4.7,4.7,0,0,1,4.1-4.1,4.7,4.7,0,0,0-5.2,4.1l-.4.9a4.7,4.7,0,0,0-.2.8l-.4.8-.2.7-.3.6a4.7,4.7,0,0,0,5,6.2Z"/>
                <path class="cls-8" d="M158,67.9a4.7,4.7,0,1,0-9,1.5,4.7,4.7,0,0,0,.3,1.8,4.7,4.7,0,0,0,.1.9l.2.7a4.7,4.7,0,1,0,9.3-.8l-.2-.7a4.7,4.7,0,0,0-.3-1.5,4.7,4.7,0,0,0-.3-1.8Z"/>
                <path class="cls-7" d="M150.6,73.4a4.7,4.7,0,0,1-.1-.7l-.2-.7a4.7,4.7,0,0,1-.1-.9,4.7,4.7,0,0,1-.3-1.8,4.7,4.7,0,0,1,3.6-6.3h-1.1a4.7,4.7,0,0,0-3.6,6.3,4.7,4.7,0,0,0,.3,1.8,4.7,4.7,0,0,0,.1.9l.2.7a4.7,4.7,0,0,0,5.2,4.6A4.7,4.7,0,0,1,150.6,73.4Z"/>
                <path class="cls-8" d="M169.6,80.9c-1-6.3-7.9-10.4-15.4-9.2S141.5,79,142.5,85.3s5.1,8.4,10.4,9.3V95a4.7,4.7,0,0,0,.3,1,4.7,4.7,0,0,0,.3,1.8,4.7,4.7,0,0,0,.1.9l.2.7a4.7,4.7,0,0,0,.4,1.7,4.7,4.7,0,0,0,.3,2,4.7,4.7,0,0,0,.3,1.8,4.7,4.7,0,0,0,.1.9l.2.7a4.7,4.7,0,1,0,9.3-.8l-.2-.7a4.7,4.7,0,0,0-.3-1.5,4.7,4.7,0,0,0-.3-1.8,4.7,4.7,0,0,0-.3-2,4.7,4.7,0,0,0,0-1.1l-.2-.7a4.7,4.7,0,0,0-.3-1.5,4.7,4.7,0,0,0-.3-1.8,4.7,4.7,0,0,0-.1-1v-.3C167.3,90.8,170.5,85.9,169.6,80.9Z"/>
                <path class="cls-7" d="M156.9,107.2a4.7,4.7,0,0,1-.1-.7l-.2-.7a4.7,4.7,0,0,1-.1-.9,4.7,4.7,0,0,1-.3-1.8,4.7,4.7,0,0,1-.3-2,4.7,4.7,0,0,1-.4-1.7l-.2-.7a4.7,4.7,0,0,1-.1-.9,4.7,4.7,0,0,1-.3-1.8,4.7,4.7,0,0,1-.3-1v-.5c-5.4-.8-9.7-4.4-10.4-9.3s4.2-12.4,11.7-13.6l1.6-.2a16.2,16.2,0,0,0-3.6.2c-7.5,1.2-12.8,7.3-11.7,13.6s5.1,8.4,10.4,9.3V95a4.7,4.7,0,0,0,.3,1,4.7,4.7,0,0,0,.3,1.8,4.7,4.7,0,0,0,.1.9l.2.7a4.7,4.7,0,0,0,.4,1.7,4.7,4.7,0,0,0,.3,2,4.7,4.7,0,0,0,.3,1.8,4.7,4.7,0,0,0,.1.9l.2.7a4.7,4.7,0,0,0,5.4,4.6h.2A4.7,4.7,0,0,1,156.9,107.2Z"/>
                <path class="cls-8" d="M144.5,71.3l-.5-.9a4.7,4.7,0,0,0-7.4,5.7l.7.7.5.9.6.6.5.7.5.5.4.6a4.7,4.7,0,1,0,7.4-5.7l-.5-.5-.4-.6-.6-.6-.5-.7Z"/>
                <path class="cls-7" d="M140.8,80.2l-.4-.6-.5-.5-.5-.7-.6-.6-.5-.9-.7-.7a4.7,4.7,0,0,1,3.1-7.5,4.7,4.7,0,0,0-4.3,7.5l.7.7.5.9.6.6.5.7.5.5.4.6A4.7,4.7,0,0,0,144,82,4.7,4.7,0,0,1,140.8,80.2Z"/>
              </g>
            </g>
            <path class="cls-6" d="M301.4,104.1q.2-3.3.2-6.8a94.6,94.6,0,0,0-9.5-41.6C278.1,27,249.8,7.2,217.2,6.7h1.3c34.1,0,63.7,20,78.4,49.1a92.4,92.4,0,0,1,9.8,41.6q0,3.4-.2,6.8c-24.3,3.9-54.8,6.2-87.9,6.2h-1.3C248.9,110.2,278.1,107.9,301.4,104.1Z"/>
          </g>
        </g>
      </g>
    </g>
  </g>
</svg>
