<svg xmlns="http://www.w3.org/2000/svg" xmlns:xlink="http://www.w3.org/1999/xlink" viewBox="0 0 629.2 409">
  <defs>
    <style>
      .cls-1 {
        fill: none;
      }

      .cls-2 {
        isolation: isolate;
      }

      .cls-3 {
        mix-blend-mode: color-burn;
      }

      .cls-4 {
        fill: #999;
      }

      .cls-5 {
        fill: #f2f2f2;
      }

      .cls-6 {
        fill: gray;
      }

      .cls-7, .cls-8 {
        fill: #4d4d4d;
      }

      .cls-7, .cls-9 {
        opacity: 0.8;
        mix-blend-mode: multiply;
      }

      .cls-10 {
        fill: #ccc;
      }

      .cls-11 {
        clip-path: url(#clip-path);
      }

      .cls-12 {
        clip-path: url(#clip-path-2);
      }

      .cls-13 {
        clip-path: url(#clip-path-3);
      }

      .cls-14 {
        clip-path: url(#clip-path-4);
      }
    </style>
    <clipPath id="clip-path">
      <path class="cls-1" d="M603.1,155.5c0,6.2-43.1,11.2-58.4,11.2s-56.9-5-56.9-11.2,41.6-11.2,56.9-11.2S603.1,149.3,603.1,155.5Z"/>
    </clipPath>
    <clipPath id="clip-path-2">
      <path class="cls-1" d="M606.8,306.7c0,6.2-43.1,11.2-58.4,11.2s-56.9-5-56.9-11.2,41.6-11.2,56.9-11.2S606.8,300.5,606.8,306.7Z"/>
    </clipPath>
    <clipPath id="clip-path-3">
      <path class="cls-1" d="M136.2,115.4c0,6.2-43.1,11.2-58.4,11.2S21,121.6,21,115.4s41.6-11.2,56.9-11.2S136.2,109.3,136.2,115.4Z"/>
    </clipPath>
    <clipPath id="clip-path-4">
      <path class="cls-1" d="M139.3,273.4c0,6.2-43.1,11.2-58.4,11.2S24,279.6,24,273.4s41.6-11.2,56.9-11.2S139.3,267.2,139.3,273.4Z"/>
    </clipPath>
  </defs>
  <title>Animal_2</title>
  <g class="cls-2">
    <g id="Layer_2" data-name="Layer 2">
      <g id="Layer_4" data-name="Layer 4">
        <g class="cls-3">
          <ellipse class="cls-4" cx="310" cy="376.6" rx="168.9" ry="32.4"/>
          <polygon class="cls-4" points="144 370.6 218.9 297 408 297 476 370.6 144 370.6"/>
          <ellipse class="cls-5" cx="313.4" cy="300.3" rx="96.1" ry="18.6"/>
          <path class="cls-6" d="M394.7,300.3c0,3-4.4,5.8-11.9,8.2l-2.1.6c-12.6,3.6-32.8,6.2-56.1,6.8H313.4c-7,0-13.9-.2-20.4-.5l-6.4-.4a249.9,249.9,0,0,1-31.9-4l-2.5-.5-3.7-.9-4.6-1.3c-7.6-2.4-11.9-5.2-11.9-8.2s4.4-5.8,11.9-8.2l4.6-1.3,3.7-.9,2.5-.5a249.9,249.9,0,0,1,31.9-4l6.4-.4c6.5-.3,13.3-.5,20.4-.5h11.1c23.3.6,43.5,3.2,56.1,6.8l2.1.6C390.3,294.5,394.7,297.3,394.7,300.3Z"/>
          <path class="cls-7" d="M313.4,284.5h-4.8c42.9.6,77,9.5,77,20.5a5.8,5.8,0,0,1-.7,2.7c6.2-2.2,9.7-4.8,9.7-7.5C394.7,291.6,358.3,284.5,313.4,284.5Z"/>
          <g>
            <path class="cls-4" d="M382.8,115.6V308.5l-2.1.6c-12.6,3.6-32.8,6.2-56.1,6.8H313.4c-7,0-13.9-.2-20.4-.5l-6.4-.4a249.9,249.9,0,0,1-31.9-4l-2.5-.5-3.7-.9-4.6-1.3V115.6Z"/>
            <path class="cls-8" d="M248.6,115.6V309.8l-4.6-1.3V115.6Z"/>
            <path class="cls-8" d="M254.8,119.8V311.2l-2.5-.5V119.8Z"/>
            <path class="cls-5" d="M382.8,115.6V308.5l-2.1.6V115.6Z"/>
          </g>
          <ellipse class="cls-5" cx="313.4" cy="115.6" rx="69.4" ry="13.5"/>
          <path class="cls-6" d="M372.1,115.6c0,5.8-22,10.5-50.6,11.3h-8c-5.1,0-10-.1-14.7-.4l-4.6-.3c-22.9-1.6-39.3-5.8-39.3-10.8s16.4-9.2,39.3-10.8l4.6-.3c4.7-.2,9.6-.4,14.7-.4h8C350.1,105.1,372.1,109.9,372.1,115.6Z"/>
          <path class="cls-7" d="M313.4,104.3H310c31,.4,55.6,6.9,55.6,14.8a4.2,4.2,0,0,1-.5,2c4.5-1.6,7-3.4,7-5.4C372.1,109.4,345.8,104.3,313.4,104.3Z"/>
          <g>
            <g>
              <path class="cls-4" d="M447.3,156.8v96.4A13.7,13.7,0,0,0,461,266.9H562.4v27.4H433.6a13.7,13.7,0,0,1-13.7-13.7V87.3a13.7,13.7,0,0,0-13.7-13.7H321.5v53.3h-8c-5.1,0-10-.1-14.7-.4l-4.6-.3V43a13.7,13.7,0,0,0-13.7-13.7H227a13.7,13.7,0,0,0-11.5,6.3h0l-.5.8-.2.4-.2.4-.4.9-.2.6V39h0v.2a13.5,13.5,0,0,0-.5,3.7V233.6c0,.2,0,.4,0,.7s0,.3,0,.5a0,0,0,0,1,0,0v.2h0v1.9l-.2.7v.2l-.2.6v.4h0v1.1l-.8,1.4-.2.3-.6.7-.4.5h0a13.6,13.6,0,0,1-10.1,4.4H70.8V219.9H172.2a13.7,13.7,0,0,0,13.7-13.7V109.1a9.7,9.7,0,0,0-9.7-9.7H70.8V72H176.2a9.7,9.7,0,0,0,9.7-9.7V15.6A13.7,13.7,0,0,1,199.6,2H307.8a13.7,13.7,0,0,1,13.7,13.7V46.3H433.6A13.7,13.7,0,0,1,447.3,60v46.2A12.9,12.9,0,0,0,460.2,119H562.4v27.4H457.7a10.4,10.4,0,0,0-9,5.1l-.7,1.4v.9h-.1v2.2C447.3,156.5,447.3,156.7,447.3,156.8Z"/>
              <g class="cls-9">
                <path class="cls-8" d="M172.2,219.9h4.6a13.7,13.7,0,0,0,13.7-13.7V109.1a9.7,9.7,0,0,0-9.7-9.7h-4.6a9.7,9.7,0,0,1,9.7,9.7v97.1A13.7,13.7,0,0,1,172.2,219.9Z"/>
                <rect class="cls-8" x="70.8" y="72" width="4.6" height="27.37"/>
                <path class="cls-8" d="M190.5,62.3V15.6A13.7,13.7,0,0,1,204.2,2h-4.6a13.7,13.7,0,0,0-13.7,13.7V62.3a9.7,9.7,0,0,1-9.7,9.7h4.6A9.7,9.7,0,0,0,190.5,62.3Z"/>
                <path class="cls-8" d="M424.5,280.6V87.3a13.7,13.7,0,0,0-13.7-13.7h-4.6a13.7,13.7,0,0,1,13.7,13.7V280.6a13.7,13.7,0,0,0,13.7,13.7h4.6A13.7,13.7,0,0,1,424.5,280.6Z"/>
                <path class="cls-8" d="M298.7,43v83.7l-4.6-.3V43a13.7,13.7,0,0,0-13.7-13.7H285A13.7,13.7,0,0,1,298.7,43Z"/>
                <rect class="cls-8" x="70.8" y="219.9" width="4.6" height="27.37"/>
              </g>
            </g>
            <g>
              <path class="cls-10" d="M174.7,73.9h1l1.9-.4a9.7,9.7,0,0,0,2.9-1.5H75.4v1.9Z"/>
              <path class="cls-10" d="M172.8,221.6l1.3-.3,1.3-.4,2.4-1.1H75.4v1.9h95.3Z"/>
              <path class="cls-10" d="M211.8,44.9V235.5a13.6,13.6,0,0,1-2.1,7.3,13.6,13.6,0,0,0,3.6-9.3V43a13.6,13.6,0,0,1,2.1-7.3A13.6,13.6,0,0,0,211.8,44.9Z"/>
              <path class="cls-10" d="M460.2,119a12.9,12.9,0,0,1-12.9-12.9V60a13.7,13.7,0,0,0-13.7-13.7H321.5V15.6A13.7,13.7,0,0,0,307.8,2H204.2a13.6,13.6,0,0,0-7.1,2H306.3A13.7,13.7,0,0,1,320,17.6V48.2H432.1a13.7,13.7,0,0,1,13.7,13.7v46.2A12.9,12.9,0,0,0,458.7,121H560.9v25.4h1.5V119Z"/>
              <path class="cls-10" d="M321.5,75.6v51.3H320V75.6Z"/>
              <path class="cls-10" d="M447.3,253.2V156.8a10.4,10.4,0,0,1,1.5-5.3,10.4,10.4,0,0,0-2.9,7.3v96.4a13.7,13.7,0,0,0,13.7,13.7H560.9v25.4h1.5V266.9H461A13.7,13.7,0,0,1,447.3,253.2Z"/>
            </g>
          </g>
          <g>
            <ellipse class="cls-4" cx="546.1" cy="136.4" rx="79.3" ry="54.9"/>
            <path class="cls-10" d="M546.1,81.5h-3.1c42.4,1.1,76.3,25.2,76.3,54.8s-33.9,53.7-76.3,54.8h3.1c43.8,0,79.3-24.6,79.3-54.9S589.9,81.5,546.1,81.5Z"/>
            <g>
              <path class="cls-7" d="M611.7,154.6c0,7.8-46.3,14-62.8,14s-61.1-6.3-61.1-14,44.7-14,61.1-14S611.7,146.9,611.7,154.6Z"/>
              <g>
                <path class="cls-5" d="M603.1,155.5c0,6.2-43.1,11.2-58.4,11.2s-56.9-5-56.9-11.2,41.6-11.2,56.9-11.2S603.1,149.3,603.1,155.5Z"/>
                <g class="cls-11">
                  <ellipse class="cls-10" cx="534.4" cy="155.5" rx="22.8" ry="25.3"/>
                  <ellipse class="cls-4" cx="534.4" cy="155.5" rx="7.7" ry="8.6"/>
                </g>
              </g>
            </g>
            <path class="cls-7" d="M472.7,136.4c0-29.6,33.9-53.8,76.4-54.8h-2.9c-43.8,0-79.3,24.6-79.3,54.9s35.5,54.9,79.3,54.9H549C506.6,190.1,472.7,166,472.7,136.4Z"/>
            <g>
              <path class="cls-4" d="M561,115.7a15.8,15.8,0,1,1-31.4-4.1c1.1-8.7,25.1-70.5,25.1-70.5S562.2,107,561,115.7Z"/>
              <path class="cls-7" d="M545.4,129.3a15.8,15.8,0,0,1-13.6-17.7c.9-7.3,18.1-52.3,23.5-66.4l-.5-4.2s-24,61.9-25.1,70.5a15.8,15.8,0,0,0,16.8,17.8Z"/>
            </g>
            <g>
              <path class="cls-4" d="M595.8,119.4a15.8,15.8,0,1,1-30.5-8.6c2.4-8.4,35-66.2,35-66.2S598.1,111,595.8,119.4Z"/>
              <path class="cls-7" d="M578.3,130.6a15.8,15.8,0,0,1-10.9-19.5c2-7.1,25.5-49.2,32.8-62.3V44.6s-32.7,57.8-35,66.2a15.8,15.8,0,0,0,14,20.1Z"/>
            </g>
            <g>
              <path class="cls-4" d="M527,111.4a15.8,15.8,0,0,1-31.5,3c-.8-8.7,8.7-74.4,8.7-74.4S526.1,102.7,527,111.4Z"/>
              <path class="cls-7" d="M514.8,128.2A15.8,15.8,0,0,1,497.5,114c-.7-7.3,5.9-55,8.1-69.9l-1.4-4s-9.5,65.7-8.7,74.4A15.8,15.8,0,0,0,515.8,128Z"/>
            </g>
          </g>
          <g>
            <ellipse class="cls-4" cx="549.9" cy="287.6" rx="79.3" ry="54.9"/>
            <path class="cls-10" d="M549.9,232.7h-3.1c42.4,1.1,76.3,25.2,76.3,54.8s-33.9,53.7-76.3,54.8h3.1c43.8,0,79.3-24.6,79.3-54.9S593.7,232.7,549.9,232.7Z"/>
            <g>
              <path class="cls-7" d="M615.5,305.8c0,7.8-46.3,14-62.8,14s-61.1-6.3-61.1-14,44.7-14,61.1-14S615.5,298,615.5,305.8Z"/>
              <g>
                <path class="cls-5" d="M606.8,306.7c0,6.2-43.1,11.2-58.4,11.2s-56.9-5-56.9-11.2,41.6-11.2,56.9-11.2S606.8,300.5,606.8,306.7Z"/>
                <g class="cls-12">
                  <ellipse class="cls-10" cx="538.2" cy="306.7" rx="22.8" ry="25.3"/>
                  <ellipse class="cls-4" cx="538.2" cy="306.7" rx="7.7" ry="8.6"/>
                </g>
              </g>
            </g>
            <path class="cls-7" d="M476.4,287.6c0-29.6,33.9-53.8,76.4-54.8h-2.9c-43.8,0-79.3,24.6-79.3,54.9s35.5,54.9,79.3,54.9h2.9C510.3,341.3,476.4,317.2,476.4,287.6Z"/>
            <g>
              <path class="cls-4" d="M564.8,266.9a15.8,15.8,0,1,1-31.4-4.1c1.1-8.7,25.1-70.5,25.1-70.5S565.9,258.2,564.8,266.9Z"/>
              <path class="cls-7" d="M549.1,280.5a15.8,15.8,0,0,1-13.6-17.7c.9-7.3,18.1-52.3,23.5-66.4l-.5-4.2s-24,61.9-25.1,70.5a15.8,15.8,0,0,0,16.8,17.8Z"/>
            </g>
            <g>
              <path class="cls-4" d="M599.5,270.6a15.8,15.8,0,1,1-30.5-8.6c2.4-8.4,35-66.2,35-66.2S601.9,262.2,599.5,270.6Z"/>
              <path class="cls-7" d="M582.1,281.8a15.8,15.8,0,0,1-10.9-19.5c2-7.1,25.5-49.2,32.8-62.3v-4.2s-32.7,57.8-35,66.2a15.8,15.8,0,0,0,14,20.1Z"/>
            </g>
            <g>
              <path class="cls-4" d="M530.7,262.6a15.8,15.8,0,0,1-31.5,3c-.8-8.7,8.7-74.4,8.7-74.4S529.9,253.9,530.7,262.6Z"/>
              <path class="cls-7" d="M518.5,279.4a15.8,15.8,0,0,1-17.3-14.2c-.7-7.3,5.9-55,8.1-69.9l-1.4-4s-9.5,65.7-8.7,74.4a15.8,15.8,0,0,0,20.3,13.6Z"/>
            </g>
          </g>
          <g>
            <ellipse class="cls-4" cx="79.3" cy="96.3" rx="79.3" ry="54.9"/>
            <path class="cls-10" d="M79.3,41.4H76.3c42.4,1.1,76.3,25.2,76.3,54.8S118.7,150,76.3,151.1h3.1c43.8,0,79.3-24.6,79.3-54.9S123.1,41.4,79.3,41.4Z"/>
            <g>
              <path class="cls-7" d="M144.9,114.5c0,7.8-46.3,14-62.8,14S21,122.3,21,114.5s44.7-14,61.1-14S144.9,106.8,144.9,114.5Z"/>
              <g>
                <path class="cls-5" d="M136.2,115.4c0,6.2-43.1,11.2-58.4,11.2S21,121.6,21,115.4s41.6-11.2,56.9-11.2S136.2,109.3,136.2,115.4Z"/>
                <g class="cls-13">
                  <ellipse class="cls-10" cx="67.6" cy="115.4" rx="22.8" ry="25.3"/>
                  <ellipse class="cls-4" cx="67.6" cy="115.4" rx="7.7" ry="8.6"/>
                </g>
              </g>
            </g>
            <path class="cls-7" d="M5.8,96.3c0-29.6,33.9-53.8,76.4-54.8H79.3C35.5,41.4,0,66,0,96.3s35.5,54.9,79.3,54.9h2.9C39.8,150.1,5.8,125.9,5.8,96.3Z"/>
            <g>
              <path class="cls-4" d="M94.2,75.6a15.8,15.8,0,0,1-31.4-4.1C64,62.9,88,1,88,1S95.3,66.9,94.2,75.6Z"/>
              <path class="cls-7" d="M78.6,89.3A15.8,15.8,0,0,1,64.9,71.5C65.9,64.2,83,19.2,88.4,5.2L88,1S64,62.9,62.8,71.5A15.8,15.8,0,0,0,79.6,89.4Z"/>
            </g>
            <g>
              <path class="cls-4" d="M129,79.3a15.8,15.8,0,1,1-30.5-8.6c2.4-8.4,35-66.2,35-66.2S131.3,70.9,129,79.3Z"/>
              <path class="cls-7" d="M111.5,90.6a15.8,15.8,0,0,1-10.9-19.5c2-7.1,25.5-49.2,32.8-62.3V4.6s-32.7,57.8-35,66.2a15.8,15.8,0,0,0,14,20.1Z"/>
            </g>
            <g>
              <path class="cls-4" d="M60.1,71.3a15.8,15.8,0,0,1-31.5,3C27.8,65.7,37.3,0,37.3,0S59.3,62.6,60.1,71.3Z"/>
              <path class="cls-7" d="M47.9,88.1A15.8,15.8,0,0,1,30.7,73.9c-.7-7.3,5.9-55,8.1-69.9L37.3,0s-9.5,65.7-8.7,74.4A15.8,15.8,0,0,0,49,88Z"/>
            </g>
          </g>
          <g>
            <ellipse class="cls-4" cx="82.4" cy="254.3" rx="79.3" ry="54.9"/>
            <path class="cls-10" d="M82.4,199.4H79.3c42.4,1.1,76.3,25.2,76.3,54.8S121.7,308,79.3,309.1h3.1c43.8,0,79.3-24.6,79.3-54.9S126.2,199.4,82.4,199.4Z"/>
            <g>
              <path class="cls-7" d="M148,272.5c0,7.8-46.3,14-62.8,14S24,280.3,24,272.5s44.7-14,61.1-14S148,264.8,148,272.5Z"/>
              <g>
                <path class="cls-5" d="M139.3,273.4c0,6.2-43.1,11.2-58.4,11.2S24,279.6,24,273.4s41.6-11.2,56.9-11.2S139.3,267.2,139.3,273.4Z"/>
                <g class="cls-14">
                  <ellipse class="cls-10" cx="70.7" cy="273.4" rx="22.8" ry="25.3"/>
                  <ellipse class="cls-4" cx="70.7" cy="273.4" rx="7.7" ry="8.6"/>
                </g>
              </g>
            </g>
            <path class="cls-7" d="M8.9,254.3c0-29.6,33.9-53.8,76.4-54.8H82.4c-43.8,0-79.3,24.6-79.3,54.9s35.5,54.9,79.3,54.9h2.9C42.8,308,8.9,283.9,8.9,254.3Z"/>
            <g>
              <path class="cls-4" d="M97.3,233.6a15.8,15.8,0,1,1-31.4-4.1C67,220.8,91,159,91,159S98.4,224.9,97.3,233.6Z"/>
              <path class="cls-7" d="M81.6,247.2A15.8,15.8,0,0,1,68,229.5c.9-7.3,18.1-52.3,23.5-66.4L91,159s-24,61.9-25.1,70.5a15.8,15.8,0,0,0,16.8,17.8Z"/>
            </g>
            <g>
              <path class="cls-4" d="M132,237.3a15.8,15.8,0,0,1-30.5-8.6c2.4-8.4,35-66.2,35-66.2S134.4,228.9,132,237.3Z"/>
              <path class="cls-7" d="M114.6,248.5A15.8,15.8,0,0,1,103.6,229c2-7.1,25.5-49.2,32.8-62.3v-4.2s-32.7,57.8-35,66.2a15.8,15.8,0,0,0,14,20.1Z"/>
            </g>
            <g>
              <path class="cls-4" d="M63.2,229.3a15.8,15.8,0,1,1-31.5,3c-.8-8.7,8.7-74.4,8.7-74.4S62.4,220.6,63.2,229.3Z"/>
              <path class="cls-7" d="M51,246.1a15.8,15.8,0,0,1-17.3-14.2c-.7-7.3,5.9-55,8.1-69.9l-1.4-4s-9.5,65.7-8.7,74.4A15.8,15.8,0,0,0,52,246Z"/>
            </g>
          </g>
        </g>
      </g>
    </g>
  </g>
</svg>
