<svg xmlns="http://www.w3.org/2000/svg" viewBox="0 0 300.35 300.35"><defs><style>.cls-1{fill:#9563f7;}</style></defs><g id="Layer_2" data-name="Layer 2"><g id="Layer_3" data-name="Layer 3"><path class="cls-1" d="M300.35,150.18q0,4.42-.26,8.79-.4,7-1.42,13.73a147.49,147.49,0,0,1-4.8,21.22c-.13.44-.26.87-.4,1.31a149.92,149.92,0,0,1-7.7,19.56c-.25.53-.5,1.05-.76,1.57-.41.83-.82,1.66-1.25,2.48a151,151,0,0,1-19.85,29.41q-3.84,4.42-8,8.55a150.38,150.38,0,0,1-41,28.92,148.88,148.88,0,0,1-32.44,11.15c-4.38,1-8.84,1.73-13.35,2.3a151.91,151.91,0,0,1-18.94,1.18q-4.6,0-9.15-.28c-2.62-.16-5.21-.38-7.8-.68h0a147.63,147.63,0,0,1-25.88-5.24h0a150.62,150.62,0,0,1-18.37-6.82q-2.19-1-4.33-2c-3.71-1.8-7.32-3.76-10.85-5.85h0q-2.61-1.54-5.14-3.18-5.73-3.7-11.08-7.92-3.69-2.89-7.19-6a149.7,149.7,0,0,1-16.9-17.71c-.88-1.08-1.74-2.17-2.59-3.28a150.08,150.08,0,0,1-14.39-22.78c-.37-.73-.74-1.46-1.1-2.2A149,149,0,0,1,5.21,189.55c-.1-.36-.19-.72-.29-1.08Q4,185.1,3.3,181.67A152.2,152.2,0,0,1,.31,160c0-.28,0-.56,0-.84-.18-3-.26-5.94-.26-8.93q0-6.37.52-12.62l.12-1.33A149.58,149.58,0,0,1,6.9,105c.36-1.16.74-2.31,1.13-3.45A148.84,148.84,0,0,1,18.72,77.52c1.26-2.29,2.58-4.53,4-6.75s3-4.66,4.59-6.92A150.74,150.74,0,0,1,93.9,10.9h0A147.94,147.94,0,0,1,120,3h0l.17,0,.1,0A151.64,151.64,0,0,1,173,1.72l1,.16a148.52,148.52,0,0,1,31.59,8.68h0c.23.08.44.17.67.27h0c2.43,1,4.82,2,7.19,3.11l1.76.84h0q5.06,2.41,9.9,5.22a149.87,149.87,0,0,1,25.62,18.62c1.49,1.34,2.95,2.7,4.37,4.1s3,3,4.37,4.47c.34.34.65.68,1,1,3.07,3.32,6,6.78,8.75,10.37a150.27,150.27,0,0,1,10.28,15.14q3.23,5.44,6,11.18,2.63,5.41,4.82,11.09c.77,2,1.51,4,2.2,6.07q1.15,3.42,2.14,6.91.86,3,1.58,6a150.8,150.8,0,0,1,3.72,23.85C300.2,142.57,300.35,146.35,300.35,150.18Z"/></g></g></svg>