<svg xmlns="http://www.w3.org/2000/svg" viewBox="0 0 300.95 300.35"><defs><style>.cls-1{isolation:isolate;}.cls-2{fill:#e54e76;}.cls-3{fill:#ce0241;}.cls-4{fill:#1c1535;opacity:0.2;mix-blend-mode:multiply;}</style></defs><g class="cls-1"><g id="Layer_2" data-name="Layer 2"><g id="Layer_3" data-name="Layer 3"><path class="cls-2" d="M301,150.18q0,4.42-.26,8.79-.4,7-1.42,13.73l-.3,1.9c-.4,2.46-.86,4.91-1.39,7.33-.65,3-1.39,6-2.23,9-.28,1-.57,2-.88,3-.13.44-.26.87-.4,1.31-.85,2.69-1.76,5.34-2.76,8q-2.24,5.92-4.94,11.6c-.25.53-.5,1.05-.76,1.57-.41.83-.82,1.66-1.25,2.48a150.7,150.7,0,0,1-15.65,24.32c-.65.82-1.3,1.64-2,2.44s-1.47,1.78-2.23,2.65q-3.84,4.42-8,8.55-3.33,3.31-6.87,6.4a150.14,150.14,0,0,1-34.15,22.52,148.11,148.11,0,0,1-27.9,10.07h0q-2.25.58-4.53,1.08-4,.87-8,1.52c-1.78.29-3.56.55-5.36.78-1,.13-2,.24-3,.34a150,150,0,0,1-15.94.84h-1.16q-4,0-8-.27c-2.62-.16-5.21-.38-7.8-.68h0c-3-.33-6-.75-8.9-1.26l-.19,0c-1.45-.25-2.88-.53-4.31-.82s-2.67-.57-4-.88q-4.29-1-8.49-2.25h0q-4.27-1.27-8.43-2.8c-3.37-1.22-6.68-2.57-9.94-4-1.45-.65-2.88-1.31-4.3-2h0c-3.71-1.8-7.32-3.76-10.85-5.85h0q-2.61-1.54-5.14-3.18-5.73-3.7-11.08-7.92-2.78-2.17-5.43-4.47l-1.76-1.55a149.48,149.48,0,0,1-14.66-15c-.76-.89-1.51-1.79-2.24-2.7l-.29-.36c-.78-1-1.54-1.93-2.3-2.92s-1.32-1.75-2-2.63q-3.07-4.2-5.84-8.6-3.55-5.61-6.59-11.55c-.37-.73-.74-1.46-1.1-2.2a147.12,147.12,0,0,1-7.06-16.92s0,0,0,0q-1.32-3.76-2.43-7.62a.64.64,0,0,0,0-.07c-.15-.51-.3-1-.44-1.54v0c0-.2-.11-.4-.16-.6-.1-.36-.19-.72-.29-1.08-.52-2-1-3.94-1.43-5.93h0c-.07-.29-.13-.57-.19-.86A152.2,152.2,0,0,1,.91,160c0-.28,0-.56-.05-.84q-.07-1.17-.12-2.34h0c-.1-2.19-.14-4.38-.14-6.58q0-6.37.52-12.62l.12-1.33A149.58,149.58,0,0,1,7.5,105c.36-1.16.74-2.31,1.13-3.45a148.71,148.71,0,0,1,9.09-21.11c.52-1,1.06-2,1.6-3,1.26-2.29,2.58-4.53,4-6.75.75-1.2,1.52-2.39,2.3-3.57s1.51-2.25,2.29-3.35c.13-.19.26-.38.4-.56A148.89,148.89,0,0,1,40.39,48.35q2.73-3,5.61-5.77a151.17,151.17,0,0,1,18.45-15.3q2.31-1.63,4.7-3.18a147.2,147.2,0,0,1,19.5-10.69q1.72-.79,3.48-1.53h0c.78-.34,1.57-.66,2.36-1h0c2.7-1.09,5.44-2.11,8.22-3h0c1.72-.59,3.46-1.15,5.21-1.66Q114.17,4.34,120.63,3h0l.17,0,.1,0c2.87-.58,5.78-1.08,8.71-1.48A147.82,147.82,0,0,1,144.76.12c1.06,0,2.13-.07,3.2-.09s1.87,0,2.81,0c.71,0,1.42,0,2.13,0q3.58,0,7.11.27,6.86.41,13.54,1.43l1,.16q6.7,1.08,13.2,2.72h0a146.58,146.58,0,0,1,18.38,6h0c.23.08.44.17.67.27h0c2.43,1,4.82,2,7.19,3.11l1.76.84h0c1.5.72,3,1.45,4.44,2.22l1.3.69q2.1,1.11,4.16,2.31a149.87,149.87,0,0,1,25.62,18.62c1.49,1.34,3,2.7,4.37,4.1.4.39.79.77,1.18,1.17q1.63,1.62,3.19,3.3c.34.34.65.68,1,1l.71.79c2.82,3.08,5.51,6.27,8,9.58q2,2.64,4,5.37,3.36,4.75,6.33,9.77c1.4,2.37,2.75,4.78,4,7.24.69,1.3,1.35,2.61,2,3.94q1.95,4,3.66,8.18c.4,1,.78,1.93,1.16,2.91.48,1.26,1,2.52,1.4,3.8.28.75.54,1.51.8,2.27q1.16,3.42,2.14,6.91.86,3,1.58,6a150.62,150.62,0,0,1,3.67,23.25c0,.2,0,.4,0,.6C300.8,142.57,301,146.35,301,150.18Z"/><path class="cls-3" d="M151,272.6c-.12-1.81-.28-3.62-.47-5.42,0-.21-.05-.42-.08-.63v0a153.69,153.69,0,0,0-5.35-21.77c-.63-1.84-1.33-3.65-2-5.47-.13-.3-.25-.59-.38-.88-1.48-3.21-3.09-6.35-4.86-9.41a27.47,27.47,0,0,0-1.58-2.4c-11.64-14-27.68-23.68-42.21-34.35-.68-.54-1.35-1.08-2-1.63q-2.58-2.16-5-4.45c-1.59-1.51-3.14-3.06-4.62-4.68-.35-.39-1.38-1.43-2.21-2.26-2.53-2.88-4.51-6.78-6.3-10-1-1.87-1.92-3.79-2.86-5.7-.1-.3-.24-.71-.44-1.24a87.92,87.92,0,0,1-3.32-11.58c-.22-1-.42-2.09-.61-3.15q-.6-3.84.13,1.34c-.72-2.21-.48-5.32-.57-7.64-.11-2.92-.09-5.83,0-8.75a9,9,0,0,1-.63-3.4c0-13.94,1.89-33.49-3.93-48a40.45,40.45,0,0,0-2.73-4.54c-3.48-5-7.7-8.91-13.74-10.57a24.44,24.44,0,0,0-15,.92A45.84,45.84,0,0,1,41,92.34a21.26,21.26,0,0,1,.82,5.89c0,10.4-.61,20.78-1.05,31.17-.2,4.55-.36,9.1-.42,13.65,0,2.49-.06,5,0,7.46.05,1.3-.34,5.59.5,6.59-.28-1.93-.41-2.95-.41-3,0,.06.11.59.27,1.57s.37,2,.59,3c.42,1.91.92,3.81,1.48,5.69.42,1.39.88,2.76,1.37,4.12.15.42.32.84.47,1.26.83.65,2,4.37,2.4,5.24.89,1.8,1.82,3.59,2.75,5.38,1.57,3,3.17,5.92,4.77,8.87,19.41,18.29,40.69,34,56.51,55.85a73.13,73.13,0,0,1,14.3,45.3c-.07,2.61-.25,5.22-.5,7.82,2.94.51,5.9.93,8.9,1.26h0c2.59.3,5.18.52,7.8.68s5.31.26,8,.27c.13-.59.25-1.19.36-1.79.08-.42.28-1.64.46-2.76s.41-3.62.46-4.28q.26-3.35.34-6.71Q151.38,278.7,151,272.6Z"/><path class="cls-3" d="M193.84,258.16c-.06.67-.28,3.07-.55,4.26-.32,1.43-.7,2.85-1.15,4.24a9.29,9.29,0,0,0-.61,1.14c-.05.12-.09.22-.12.31s-.32.48-.48.72a24.84,24.84,0,0,1-5.47-.23c-1.36-22.39-6.21-44.72-19.51-63.29-13.95-19.48-32.58-33.43-50.77-48.61a16.35,16.35,0,0,0-1.29-1.2,90.13,90.13,0,0,1-8.53-8.28c-.48-.68-1-1.34-1.47-2-1-1.58-2-3.2-2.93-4.86-.72-1.31-1.35-2.65-2-4-.24-.7-.51-1.38-.75-2.08a92,92,0,0,1-3.12-11.55c-.32-1.55-.58-3.1-.84-4.65-.08-.66-.18-1.33-.25-2-.4-3.86-.65-7.74-.82-11.62-.36-8.34-.32-16.68-.31-25,0-.18,0-.36,0-.54l0-.21c1.48-21.78-8.8-40.28-23.72-54.62a147.2,147.2,0,0,1,19.5-10.69c.83.88,1.65,1.78,2.45,2.71.51.69,1,1.39,1.5,2.1,1.47,2.15,2.84,4.35,4.13,6.61s2.53,4.62,3.67,7c.48,1,.92,2,1.39,3a163.53,163.53,0,0,1,8.63,30.79c.28,1.52.54,3.06.79,4.59,0,.26.11.75.19,1.31.1.8.24,1.88.29,2.32.16,1.51.31,3,.44,4.54.47,5.47.71,11,.75,16.45-1,18.88,7.78,35.94,20.28,49.52,9.51,10.33,21.3,18.09,32,27.14a96.62,96.62,0,0,1,8.71,8.58c1.48,1.62,2.89,3.3,4.3,5a5.57,5.57,0,0,0,.58.6c.45.67.85,1.41,1.25,2a94,94,0,0,1,6.28,10.53c.35.69.68,1.38,1,2.08-.11,1.33,2,5.67,2.36,6.8a134.39,134.39,0,0,1,3.31,16.63l0,.26c.17,1.44.33,2.89.47,4.33.36,3.63.64,7.27.81,10.92A174.32,174.32,0,0,1,193.84,258.16Z"/><path class="cls-3" d="M216.19,145c-.41-.24-.83-.47-1.26-.68a98.28,98.28,0,0,0-16.75-20c-9.34-8.69-19.37-15.45-31.06-19q-1.59-1.52-3.08-3.12a2.75,2.75,0,0,0-1.42-2c-.24-.47-.48-1-.74-1.45a5.41,5.41,0,0,0-1-1.76c-.18-.63-.38-1.26-.53-1.9-.05-.21-.23-1-.38-1.83-.09-4.81-.36-9.54-.13-14.36.45-9.46,1.67-18.94,1.39-28.43-.54-17.6-7-35.25-16.27-50.09l-.18-.29c1.06,0,2.13-.07,3.2-.09s1.87,0,2.81,0c.71,0,1.42,0,2.13,0q2.21,1.31,4.38,2.67c1.73,1.09,3.43,2.21,5.1,3.38.52.36,1,.74,1.54,1.11a86.84,86.84,0,0,1,8.86,8.51c.4.45.78.91,1.17,1.37.6,1.84,2.94,4.13,3.93,5.78,1.3,2.19,2.39,4.48,3.5,6.77h0c.33,1,.76,2,1.11,3.08a107.41,107.41,0,0,1,3.38,13.67v.07c.09,1.12.2,2.23.28,3.35.19,2.89.26,5.78.28,8.67,0,.28,0,.56,0,.83s0,.45,0,.67c.06,9.82.84,20.12,4.23,29.4,3.16,8.66,7.61,16.28,12.48,24,2.51,4,5.09,8,7.42,12.09.55,1,1.06,2,1.57,3,0,1.15,2.33,7,2.51,7.73.57,2.24,1,4.51,1.39,6.78,0,.07,0,.14,0,.22Z"/><path class="cls-3" d="M301,150.18q0,4.42-.26,8.79-.4,7-1.42,13.73l-.3,1.9c-.4,2.46-.86,4.91-1.39,7.33-.65,3-1.39,6-2.23,9-.28,1-.57,2-.88,3-.13.44-.26.87-.4,1.31-.85,2.69-1.76,5.34-2.76,8A85.31,85.31,0,0,1,284,196.1c-.38-.44-.75-1-1.14-1.46-.92-1.44-1.87-2.86-2.71-4.37-.19-.34-.37-.7-.55-1.06,0-.55.06-1.12.06-1.69-.05-15.42-1.33-31.28-5.8-46.1-4.72-15.63-12.58-29.13-22.25-42.12-9-12-17.91-24.17-24.29-37.84-.12-.26-.26-.53-.4-.81,0-.13-.09-.27-.14-.45-.66-2.08-1.48-4.11-2.12-6.21a109.62,109.62,0,0,1-2.83-11.57c-.17-.89-.32-1.79-.48-2.68-.84-4.54-.2.11,0,.7-.67-1.12-.43-4-.54-5.34-.36-4.19-.54-8.39-.61-12.6,0-1.83,0-3.66,0-5.49l1.3.69q2.1,1.11,4.16,2.31a149.87,149.87,0,0,1,25.62,18.62c1.49,1.34,3,2.7,4.37,4.1.4.39.79.77,1.18,1.17q1.63,1.62,3.19,3.3c.34.34.65.68,1,1l.71.79c2.82,3.08,5.51,6.27,8,9.58q2,2.64,4,5.37,3.36,4.75,6.33,9.77c1.4,2.37,2.75,4.78,4,7.24.69,1.3,1.35,2.61,2,3.94q1.95,4,3.66,8.18c.4,1,.78,1.93,1.16,2.91.48,1.26,1,2.52,1.4,3.8.28.75.54,1.51.8,2.27q1.16,3.42,2.14,6.91.86,3,1.58,6a150.62,150.62,0,0,1,3.67,23.25c0,.2,0,.4,0,.6C300.8,142.57,301,146.35,301,150.18Z"/><path class="cls-3" d="M266.74,245.6c-.73.89-1.47,1.78-2.23,2.65q-3.84,4.42-8,8.55-3.33,3.31-6.87,6.4c-.9-.85-1.79-1.73-2.67-2.63-2.25-2.3-4.37-4.71-6.43-7.17l-.41-.74c-1.12-1.92-2.29-3.77-3.31-5.75-.51-1-1.14-3.41-2-4.28l-.3-.76c-1.34-3.59-2.53-7.24-3.72-10.89a241.52,241.52,0,0,0-9.45-25C215,191.91,204.35,179.57,193.17,169a267.49,267.49,0,0,0-29.45-23.74,24.2,24.2,0,0,1,3.85-6.66c1.4.46,3.62.57,4.77.89.33.09,3.19,1,4.68,1.53.78.36,1.55.72,2.32,1.1a147.1,147.1,0,0,1,19.8,12.52l.5.38,1,.75c1.56,1.25,3.1,2.51,4.64,3.79,2.86,2.38,5.68,4.81,8.5,7.24a77.47,77.47,0,0,1,7.78,7.7c.51.58,1,1.17,1.48,1.77,1.16,1.71,2.36,3.39,3.46,5.14,8.59,13.6,14.05,28.87,22.48,42.56A102.6,102.6,0,0,0,266.74,245.6Z"/><path class="cls-3" d="M85.22,285.32h0c-3.71-1.8-7.32-3.76-10.85-5.85h0q-2.61-1.54-5.14-3.18-5.73-3.7-11.08-7.92-2.78-2.17-5.43-4.47a87,87,0,0,0-10.82-21.3c-5.38-7.43-11.59-14.22-17.59-21.13C22.14,219,20,216.54,18,214l-.89-1.09c-.83-1.15-1.68-2.28-2.48-3.45a81.1,81.1,0,0,1-4.29-7c-.51-.94-.92-2-1.42-3,0,0,0,0,0,0-.11-.22-.22-.43-.34-.63-.15-.4-.3-.8-.44-1.21q-1-2.85-1.65-5.78a.64.64,0,0,0,0-.07c-.27-1.15-.51-2.31-.73-3.47-.08-.4-.13-.83-.19-1.25-.15-1.89-.31-3.77-.37-5.66A203.51,203.51,0,0,1,6,155.93c.13-1.5.31-3,.46-4.49l.09-.55q.88-5.55,2.27-11a103.86,103.86,0,0,1,3.28-10.46l0-.06c-.35,1.31,0,1.78.83-2,.71-1.5,1.41-3,2.18-4.47.63-1.24,1.3-2.46,2-3.68-.32,1.61-.63,3.21-.93,4.82-4.58,13.75-4.16,29.38-.9,43.28,3.59,15.35,13.19,28.33,24,39.43,9.46,9.69,20.23,18.1,29.13,28.35l.65.77c.43.65,1.78,2.49,2.14,3a94.61,94.61,0,0,1,6.34,11.34l.09.2a3.5,3.5,0,0,0,.83,2.06c.55,1.59,1.13,3.16,1.64,4.76a119.08,119.08,0,0,1,3.09,12.06c.37,1.84.68,3.68,1,5.53-.4,2.6.13,3.1.23,2.18.07.35.13.7.16,1C84.87,280.44,85.06,282.88,85.22,285.32Z"/><path class="cls-4" d="M60.72,270.79q-3.54-2.64-6.91-5.45c-3.57-3-7-6.09-10.18-9.32a148.92,148.92,0,0,1-26.92-37c-.43-.83-.85-1.65-1.26-2.49A150,150,0,0,1,3.66,183.1c-.84-3.81-1.56-7.65-2.12-11.52A149.84,149.84,0,0,1,13.12,88.71q2.76-6.13,6.11-12.09A152.09,152.09,0,0,1,29.57,60.71q2.74-3.7,5.66-7.19A149.14,149.14,0,0,1,76.51,19.28c1.39-.79,2.79-1.56,4.19-2.29l.08,0q-4.05,5.88-7.5,12T67.16,41A150.1,150.1,0,0,0,55.58,123.9q.84,5.79,2.13,11.51a150.72,150.72,0,0,0,11.78,33.47c.42.83.82,1.65,1.25,2.48a149.3,149.3,0,0,0,26.93,37q4.83,4.84,10.18,9.33,3.36,2.81,6.92,5.44c3.07,2.27,6.19,4.42,9.37,6.42a149.37,149.37,0,0,0,21.37,11.21q6.23,2.66,12.58,4.7a148.43,148.43,0,0,0,18,4.59q6.25,1.2,12.55,1.85A150.68,150.68,0,0,0,228,250.75c2-.31,3.95-.67,5.9-1.06a150,150,0,0,0,39.71-14c-.92,1.32-1.86,2.64-2.83,3.94a151.07,151.07,0,0,1-14.94,17.28,149.68,149.68,0,0,1-76,40.47q-2.94.6-5.9,1.08a151.1,151.1,0,0,1-39.41,1.1c-4.19-.43-8.39-1-12.55-1.84a147.48,147.48,0,0,1-18-4.59c-4.23-1.37-8.44-2.93-12.58-4.69a151.6,151.6,0,0,1-21.38-11.22C66.93,275.2,63.79,273.07,60.72,270.79Z"/></g></g></g></svg>