<svg xmlns="http://www.w3.org/2000/svg" viewBox="0 0 300.95 298.47"><defs><style>.cls-1{isolation:isolate;}.cls-2{fill:#ef4136;}.cls-3{fill:#1c1535;opacity:0.2;mix-blend-mode:multiply;}</style></defs><g class="cls-1"><g id="Layer_2" data-name="Layer 2"><g id="Layer_3" data-name="Layer 3"><path class="cls-2" d="M171.39,239.28c-14,9-9,44-35,45,.88,4.41-1.35,8.82-2.57,13.23h0a147.63,147.63,0,0,1-25.88-5.24h0a150.62,150.62,0,0,1-18.37-6.82q-2.19-1-4.33-2c-3.71-1.8-7.32-3.76-10.85-5.85h0q-2.61-1.54-5.14-3.18-5.73-3.7-11.08-7.92c-1-19.21,16.26-39.43,36.28-44.2,8-2,18-17,26-24,9-8,24-29,37.69-15.12,5.1-2.72,11-2.14,16.5.86,6.81,3.26,9.81,9.26,13.81,15.26C196.39,214.28,185.39,230.28,171.39,239.28Z"/><path class="cls-2" d="M301,148.3q0,4.42-.26,8.79-.4,7-1.42,13.73a147.49,147.49,0,0,1-4.8,21.22c-4.72,2.38-9.18,5-15.08,8.24-19,11-38-7-54-20-5-3-15-1-22-4-18-7-45-29-28-48,5-5,8-11,14-15,6-6,16-6,24-3,6-21,32-16,49-12,5,1,11-4,17-5a53.65,53.65,0,0,1,11.49.84c.77,2,1.51,4,2.2,6.07q1.16,3.42,2.14,6.91.86,3,1.58,6a150.8,150.8,0,0,1,3.72,23.85C300.8,140.69,301,144.47,301,148.3Z"/><path class="cls-2" d="M148.45,99.55c-3.06-11.27-18.06-10.27-25.06-12.27-16-6-35,1-41,15-1,4-3,8-4,9-17,9-24,26-30,42-2,4-9,4-13,9-10,12-14,35,2,42,8,4,15,7,24,8,15,3,21-17,29-25,6-6,13-17,20-20,20-9,36-32,31.71-52.54C146.86,110.55,149.49,105,148.45,99.55Z"/><path class="cls-2" d="M86.61,45.81c1.78,3.47,2.78,6.47,2.78,9.47-2,17-17,31-32,39-6,3-10,10-17,14-3,1-7,1-7,2-5.27,13.55-19,25.41-32.15,24.07A149.58,149.58,0,0,1,7.5,103.16c.36-1.16.74-2.31,1.13-3.45A148.84,148.84,0,0,1,19.32,75.64c1.26-2.29,2.58-4.53,4-6.75s3-4.66,4.59-6.92A151,151,0,0,1,64.45,25.4c3.22-.12,8.58-4,13.94-3.12,5,1,10,2,11.32,7.71C91.82,34.87,90.4,40.71,86.61,45.81Z"/><path class="cls-2" d="M260.06,45.32c-.35,2.72-.45,5.53-1.67,8-7,16-27,11-40,12a110.7,110.7,0,0,0-30,5c-17,5-40,4-56-6-3-2-11,1-17,1-10-1-17-12-11-21,5-7,15-9,17-14,8-15,27-17,38-24A95.14,95.14,0,0,1,174.56,0a148.52,148.52,0,0,1,31.59,8.68h0c.23.08.44.17.67.27h0c2.43,1,4.82,2,7.19,3.11l1.76.84h0q5.05,2.41,9.9,5.22a149.87,149.87,0,0,1,25.62,18.62c1.49,1.34,3,2.7,4.37,4.1S258.65,43.8,260.06,45.32Z"/><path class="cls-3" d="M60.72,268.91q-3.54-2.64-6.91-5.45c-3.57-3-7-6.09-10.18-9.32a148.92,148.92,0,0,1-26.92-37c-.43-.83-.85-1.65-1.26-2.49A150,150,0,0,1,3.66,181.22c-.84-3.81-1.56-7.65-2.12-11.52A149.84,149.84,0,0,1,13.12,86.83q2.76-6.14,6.11-12.09A151.05,151.05,0,0,1,29.57,58.83q2.74-3.7,5.66-7.19A149.14,149.14,0,0,1,76.51,17.4c1.39-.79,2.79-1.56,4.19-2.29l.08,0q-4.05,5.87-7.5,12-3.36,6-6.12,12.09A150.1,150.1,0,0,0,55.58,122q.84,5.79,2.13,11.51A150.72,150.72,0,0,0,69.49,167c.42.83.82,1.65,1.25,2.48a149.3,149.3,0,0,0,26.93,37q4.83,4.85,10.18,9.33,3.36,2.81,6.92,5.44c3.07,2.27,6.19,4.42,9.37,6.42a149.37,149.37,0,0,0,21.37,11.21q6.23,2.66,12.58,4.7a148.43,148.43,0,0,0,18,4.59c4.17.8,8.36,1.4,12.55,1.85A150.68,150.68,0,0,0,228,248.87c2-.31,3.95-.67,5.9-1.06a150,150,0,0,0,39.71-14c-.92,1.32-1.86,2.64-2.83,3.94A151.07,151.07,0,0,1,255.86,255a149.68,149.68,0,0,1-76,40.47q-2.94.6-5.9,1.08a151.1,151.1,0,0,1-39.41,1.1c-4.19-.43-8.39-1-12.55-1.84a147.48,147.48,0,0,1-18-4.59c-4.23-1.37-8.44-2.93-12.58-4.7a150.49,150.49,0,0,1-21.38-11.21C66.93,273.32,63.79,271.19,60.72,268.91Z"/></g></g></g></svg>