<svg xmlns="http://www.w3.org/2000/svg" viewBox="0 0 300.35 300.34"><defs><style>.cls-1{isolation:isolate;}.cls-2{fill:#e54e76;}.cls-3{fill:#ce0241;}.cls-4{fill:#1c1535;opacity:0.2;mix-blend-mode:multiply;}</style></defs><g class="cls-1"><g id="Layer_2" data-name="Layer 2"><g id="Layer_3" data-name="Layer 3"><path class="cls-2" d="M300.35,150.17q0,4.43-.25,8.8c-.27,4.63-.75,9.22-1.43,13.73s-1.56,9-2.65,13.37c-.75,3.09-1.6,6.15-2.55,9.16a147.16,147.16,0,0,1-8.38,21l-.07.15c-.41.84-.83,1.66-1.25,2.49a151,151,0,0,1-19.85,29.4q-3.84,4.42-8,8.56a150.49,150.49,0,0,1-41,28.92,148.77,148.77,0,0,1-32.43,11.14q-6.58,1.45-13.36,2.3a151.63,151.63,0,0,1-18.93,1.18c-3.08,0-6.12-.09-9.15-.27a149.27,149.27,0,0,1-52.1-12.75q-2.19-1-4.33-2l-.31-.15a145.51,145.51,0,0,1-15.69-8.88q-5.41-3.51-10.51-7.48-4-3.09-7.77-6.45-4.27-3.81-8.23-7.93-4.55-4.69-8.66-9.78c-.88-1.08-1.74-2.18-2.59-3.28-.47-.61-.93-1.22-1.38-1.84A150.09,150.09,0,0,1,17.21,220c-.26-.49-.52-1-.77-1.47-.37-.73-.73-1.46-1.09-2.19a150.4,150.4,0,0,1-7-16.85q-1.71-4.92-3.08-10c-.1-.36-.19-.72-.29-1.08a147.6,147.6,0,0,1-3.6-18.32q-.67-5-1-10.19c0-.28,0-.57,0-.85Q0,154.68,0,150.17q0-6.37.53-12.61a148.89,148.89,0,0,1,7.51-36c.79-2.3,1.63-4.58,2.52-6.82a148.7,148.7,0,0,1,8.16-17.25c1.26-2.28,2.59-4.53,4-6.74A150.93,150.93,0,0,1,63.57,27.48,149.56,149.56,0,0,1,150.18,0c1.56,0,3.11,0,4.66.08A150.05,150.05,0,0,1,173,1.71c1.46.22,2.92.47,4.37.74a148.58,148.58,0,0,1,34.61,10.8l1.49.68a151.48,151.48,0,0,1,37.3,24.69q2.22,2,4.37,4.11A150.08,150.08,0,0,1,266,54.55q2.13,2.56,4.13,5.22a147.67,147.67,0,0,1,9.37,13.95q3.22,5.44,6,11.18a148.73,148.73,0,0,1,7,17.16q2.14,6.33,3.72,12.91a149.67,149.67,0,0,1,3.73,23.85C300.21,142.56,300.35,146.35,300.35,150.17Z"/><path class="cls-3" d="M18.78,147.72c11.43.36,20.72,3.4,31.38,3.21,8.54-.16,19.12-4.86,27.12-9.36,9.94-5.6,18.35-13,27.48-19.7,18.35-13.51,43.85-9.26,61.16-23.64C189.71,78.45,192.06,32.79,219.61,17c-2-1.06-4.09-2.09-6.18-3.06l-.41-.19a32.48,32.48,0,0,0-12.48,9.74c-.12.17-.8,1-1,1.33-.47.65-.92,1.31-1.37,2-1,1.53-2,3.09-3,4.67-2.32,3.77-4.51,7.62-6.88,11.36-8.66,13.7-18.93,26.26-31.95,36C144.06,88,129.75,93.3,115.43,98.38c-.32.12-1.66.67-1.85.73-.49.23-1,.46-1.47.71-1.42.72-2.82,1.51-4.2,2.32-3.14,1.87-6.17,3.91-9.18,6-6.3,4.36-12.45,9-19,12.93-14.07,8.51-30,13.35-45.44,5.42A10.16,10.16,0,0,1,30,122.13c-3.32-2.91-4.28-6.89-3.82-10.93a6.73,6.73,0,0,1-.23-1.32c-.58-8.94,3.5-17.12,9.86-23.22,12.92-12.38,32-18.09,49-22A242.09,242.09,0,0,1,109,60.33c6.87-.88,14.2-1,20.69-3.3a16.76,16.76,0,0,0,5.58-7.16c-16.69-5.14-34.07-3.31-50.69,1.74-7.18,2.18-14.33,4.47-21.35,7.11C58.15,61.2,53,63.47,47.8,65.93c-.76.46-1.51.94-2.29,1.39l-.47.27-.07.06c-.61.51-1.19,1-1.76,1.58a11,11,0,0,1-7.91,3.31A81.53,81.53,0,0,0,17.05,86.85a87.4,87.4,0,0,0-6.49,7.91C9.67,97,8.83,99.28,8,101.58a148.89,148.89,0,0,0-7.51,36Q0,143.8,0,150.17c0,.37,0,.74,0,1.11A40.72,40.72,0,0,1,18.78,147.72Z"/><path class="cls-3" d="M264.49,123.84a63,63,0,0,1-3.23,22.91A48.14,48.14,0,0,1,237.81,174a53.29,53.29,0,0,1-23.43,5.79c-10.68.17-21.32-1.53-32-.85-19.32,1.23-35,11.48-52.84,17.52C107.84,203.79,85.7,202,63.18,202c-15.33-.84-28.46,7.28-41,15.05-1.66,1-3.32,2.05-5,3-.26-.49-.52-1-.77-1.47-.37-.73-.73-1.46-1.09-2.19a150.4,150.4,0,0,1-7-16.85C28.49,195,47.24,184,67.94,181.19c14.2-1.9,28.6-1.74,42.82-3.6s27.87-6,41.45-10.64,26.83-11.71,34.23-24.44c20.39-19.33,28.69-47.41,47.54-68,7.66-8.35,16.77-15.06,26.25-18.27,2-.66,3.86-1.23,5.74-1.7q2.13,2.56,4.13,5.22c-31.29,16.58-50.24,54.38-67.49,84.18-4.5,7.78,1.26,17.41,10.09,17.59C236.06,162,253.1,143.88,264.49,123.84Z"/><path class="cls-3" d="M284.08,195.21c-8.55,5.73-16,12.95-24.48,18.82-8.21,6.79-16.32,14.59-26.74,17.59a91.62,91.62,0,0,1-21.75,9c-14.61,4-29.88,4.6-45,4.68a165.25,165.25,0,0,1-20,.06,110.65,110.65,0,0,1-16.87,1,85.63,85.63,0,0,1-14.41.16c-7.21.13-14.3-.23-21.13-2.38-.08.28-.16.57-.23.87a.13.13,0,0,1,0,.06,4.35,4.35,0,0,1,1.27.3c6.32,2.56,12.46,6.47,19.49,6.08a6.08,6.08,0,0,1,2.75.45h1.62c6.24-.09,12.48-.28,18.72-.27,5.7,0,16.15-.86,22.42,2.59,4.52.44,8.29,6.36,4.12,10.6-7.51,7.62-16.4,10.42-25.83,11.23-.83.25-1.67.47-2.53.65a51.92,51.92,0,0,1-18,.86c-.32,0-.64.05-1,.05a251.89,251.89,0,0,1-26.31-2h0c-11,.77-21.88-2.12-32-6.82h0q5.08,4,10.51,7.48a145.51,145.51,0,0,0,15.69,8.88,12.14,12.14,0,0,1,4-.6c12.08.09,24,1.71,36,2.94,1,.1,2,.19,3,.27a9.82,9.82,0,0,1,1.72-.07,113.3,113.3,0,0,0,46.71-7.22c15-5.58,28-14.63,42-22.23,7.55-4.12,15.16-8.16,22.41-12.79,7-4.49,13.35-10.14,20.86-13.83a54.15,54.15,0,0,1,5.11-2.19,64.89,64.89,0,0,1,13-10c1.95-1.13,3.93-2.22,6-3.25a147.16,147.16,0,0,0,8.38-21c.62-1.95,1.17-3.92,1.71-5.91A64,64,0,0,0,284.08,195.21Z"/><path class="cls-3" d="M177.33,2.45c-2.12,2-4.37,3.86-6.5,5.63a65,65,0,0,1-28.1,13.63c-11.33,2.44-22.93,1.7-34.43,1.71a166.13,166.13,0,0,0-18.79.79C80.62,24.07,72,24,63.57,27.48a149.06,149.06,0,0,1,24-13.86c10,.53,19.89.36,29.91-2.29C129.9,8.05,143,4.91,154.84.08A150.05,150.05,0,0,1,173,1.71C174.42,1.93,175.88,2.18,177.33,2.45Z"/><path class="cls-3" d="M184.33,199.67c-4.23-2.2-23.09,13.36-26.46,15.23l-.5.26a6.26,6.26,0,0,1-2.66,1.63l-3.6,1.16a47.4,47.4,0,0,1-5,1.5A39.59,39.59,0,0,1,135.53,221c-7.5,0-15.07-2-22.55-2.6a6.47,6.47,0,0,1-2.83-.89c-11.86-1.36-23.73-2.58-35.61-1.2a51.6,51.6,0,0,0-28.05,11.86c-5.29,4.56-10.16,9.26-15.92,12.78l.27.36c.85,1.1,1.71,2.2,2.59,3.28q4.11,5.09,8.66,9.78c8.46-9,19.63-16,31.64-18.18,16.89-3.06,33.86-.19,50.84-.2A81.36,81.36,0,0,0,163,226.84c10.3-5.45,20.15-13.35,22.63-25.23A17.9,17.9,0,0,0,184.33,199.67Z"/><path class="cls-4" d="M60.74,270.78q-3.56-2.64-6.91-5.45c-3.57-3-7-6.09-10.18-9.32a149.3,149.3,0,0,1-26.93-37c-.43-.83-.84-1.65-1.25-2.49A150,150,0,0,1,3.68,183.09q-1.27-5.72-2.12-11.52A150.51,150.51,0,0,1,2.77,121.4,148.63,148.63,0,0,1,13.14,88.7q2.75-6.14,6.11-12.09A153.62,153.62,0,0,1,29.58,60.7q2.75-3.71,5.67-7.19A149.1,149.1,0,0,1,76.52,19.27c1.39-.79,2.8-1.56,4.2-2.29l.08,0q-4.06,5.88-7.51,12T67.18,41A149.85,149.85,0,0,0,55.6,123.89q.84,5.79,2.12,11.51a150.25,150.25,0,0,0,11.79,33.47c.41.83.82,1.65,1.24,2.48a149.68,149.68,0,0,0,26.94,37q4.83,4.85,10.18,9.33,3.34,2.81,6.92,5.44c3.06,2.27,6.19,4.42,9.36,6.42a148.94,148.94,0,0,0,21.38,11.21c4.14,1.77,8.35,3.34,12.58,4.7a148,148,0,0,0,18,4.59q6.25,1.2,12.55,1.85A150.68,150.68,0,0,0,228,250.74c2-.31,3.94-.67,5.89-1.06a150,150,0,0,0,39.72-14c-.92,1.32-1.86,2.64-2.83,3.94a152.07,152.07,0,0,1-14.94,17.28,149.68,149.68,0,0,1-76,40.47q-2.94.6-5.91,1.08a151,151,0,0,1-39.4,1.1q-6.3-.65-12.55-1.84a148.11,148.11,0,0,1-18-4.59c-4.22-1.37-8.43-2.93-12.57-4.7A150,150,0,0,1,70.11,277.2C66.94,275.19,63.81,273.06,60.74,270.78Z"/></g></g></g></svg>