<svg xmlns="http://www.w3.org/2000/svg" viewBox="0 0 301.25 300.95"><defs><style>.cls-1{isolation:isolate;}.cls-2{fill:#4337e2;}.cls-3{fill:#ff8939;}.cls-4{fill:#1c1535;opacity:0.2;mix-blend-mode:multiply;}</style></defs><g class="cls-1"><g id="Layer_2" data-name="Layer 2"><g id="Layer_3" data-name="Layer 3"><path class="cls-2" d="M150.59,36.85a3.17,3.17,0,0,0-.08.55c0-.1,0-.2.05-.3Z"/><path class="cls-3" d="M124.11,62.86a4.21,4.21,0,0,1-1.3-8.22C159,42.9,194.53,36.63,228.58,36h.08a4.21,4.21,0,0,1,.08,8.42c-33.22.6-68,6.73-103.33,18.22A4.21,4.21,0,0,1,124.11,62.86Z"/><path class="cls-3" d="M89.76,76A437.37,437.37,0,0,0,2.33,125.7q1-6.2,2.55-12.21A450.4,450.4,0,0,1,86.46,68.28,4.21,4.21,0,0,1,89.76,76Z"/><path class="cls-3" d="M285.56,217.44q-2,4-4.27,8c-56.87-6.65-110.45,5.24-148,17.75a4.12,4.12,0,0,1-1.33.22,4.21,4.21,0,0,1-1.34-8.21C169.76,222.12,226,209.76,285.56,217.44Z"/><path class="cls-3" d="M123.84,135.61c-40,13.87-79.19,34-116.67,59.95-.89-2.83-1.69-5.68-2.4-8.57,37.37-25.6,76.39-45.51,116.32-59.34a4.21,4.21,0,1,1,2.75,8Z"/><path class="cls-3" d="M297.26,115.94q-7.53-1-15.34-1.67c-39.78-3.36-81.16.29-123,10.85a4,4,0,0,1-1,.12,4.2,4.2,0,0,1-1-8.28c42.74-10.79,85-14.52,125.76-11.08q6.22.53,12.28,1.27C295.78,110,296.57,113,297.26,115.94Z"/><path class="cls-3" d="M57.3,198.59c-13.16,6.92-26.25,14.62-39.15,23q-2-3.72-3.8-7.57,19.29-12.54,39-22.92a4.21,4.21,0,0,1,3.92,7.46Z"/><path class="cls-3" d="M301.25,150.47c0,1,0,2,0,3-12.31-1.68-24.75-2.77-37.13-3.25-52.21-2-104.26,6.42-154.7,25.12a4.21,4.21,0,1,1-2.93-7.89c51.49-19.09,104.63-27.72,158-25.65,12.25.48,24.55,1.54,36.74,3.17C301.21,146.76,301.25,148.62,301.25,150.47Z"/><path class="cls-3" d="M206.66,190.46c-59.53,5.36-117,24.28-171.44,56.4-1.82-2.18-3.57-4.4-5.27-6.68,55.83-33.1,114.8-52.6,176-58.11a4.21,4.21,0,0,1,.75,8.39Z"/><path class="cls-3" d="M237.76,255.35a4.23,4.23,0,0,1-4,4.38,401.6,401.6,0,0,0-114.08,21.46q-12.24,4.19-24.37,9.18-5.39-2.13-10.57-4.67,16-6.93,32.22-12.47a409.69,409.69,0,0,1,116.47-21.92A4.23,4.23,0,0,1,237.76,255.35Z"/><path class="cls-3" d="M216.85,285.7A149.91,149.91,0,0,1,150.77,301q-7,0-13.82-.63a413.58,413.58,0,0,1,44.89-10.24Q199.33,287.13,216.85,285.7Z"/><path class="cls-3" d="M69.33,51A504.37,504.37,0,0,0,16.54,82.43,149.24,149.24,0,0,1,26.2,66q19.88-12.57,39.3-22.5A4.21,4.21,0,0,1,69.33,51Z"/><path class="cls-3" d="M211.32,12.68a303.54,303.54,0,0,0-83.49,14.15,4.3,4.3,0,0,1-1.27.19,4.21,4.21,0,0,1-1.26-8.22A314,314,0,0,1,191,5.44,149.7,149.7,0,0,1,211.32,12.68Z"/><path class="cls-3" d="M136.35,94.75c-44.56,13.79-90,37.3-135.38,70-.31-3.28-.52-6.58-.61-9.92C45,123.2,89.85,100.33,133.87,86.71a4.21,4.21,0,1,1,2.48,8Z"/><path class="cls-3" d="M285.82,84a315.63,315.63,0,0,0-107.28.45,4.21,4.21,0,1,1-1.46-8.29,322.7,322.7,0,0,1,103.75-1.45Q283.49,79.3,285.82,84Z"/><path class="cls-3" d="M88.11,95.7a4.21,4.21,0,0,1-1.68-8.08c57.51-25,115.5-36.18,167.7-32.49a4.21,4.21,0,0,1-.6,8.4c-50.85-3.6-107.48,7.4-163.75,31.82A4.28,4.28,0,0,1,88.11,95.7Z"/><path class="cls-3" d="M50.6,114.63A440.84,440.84,0,0,0,.34,146.92Q.46,141.42,1,136a453.93,453.93,0,0,1,45.54-28.76,4.21,4.21,0,0,1,4.07,7.38Z"/><path class="cls-3" d="M104,270.62a4.21,4.21,0,0,1-1.63-8.09c50.3-21.21,101.92-32.15,149.27-31.68a4.21,4.21,0,0,1,0,8.42h-.05l-2.94,0c-45.41,0-94.76,10.71-143,31A4.14,4.14,0,0,1,104,270.62Z"/><path class="cls-3" d="M27.66,199.07a4.21,4.21,0,0,1-2.2-7.8c48.72-29.88,99.71-50.2,151.54-60.39a4.21,4.21,0,1,1,1.62,8.26c-50.84,10-100.89,30-148.76,59.31A4.22,4.22,0,0,1,27.66,199.07Z"/><path class="cls-3" d="M300.5,135.4a328.29,328.29,0,0,0-55.94-3.47,4.21,4.21,0,0,1-.17-8.42,338.7,338.7,0,0,1,55,3.21Q300.07,131,300.5,135.4Z"/><path class="cls-3" d="M96.36,201A459.65,459.65,0,0,0,27,236.1c-1.6-2.3-3.14-4.65-4.6-7a466.53,466.53,0,0,1,70.8-35.9A4.21,4.21,0,1,1,96.36,201Z"/><path class="cls-3" d="M300.39,166.58q-.45,4.21-1.12,8.35a389,389,0,0,0-140.43,6.41,4.38,4.38,0,0,1-.94.11,4.21,4.21,0,0,1-.93-8.32A397.6,397.6,0,0,1,300.39,166.58Z"/><path class="cls-3" d="M71.37,247.21a4.21,4.21,0,0,1-1.79-8,425.68,425.68,0,0,1,113.55-35.41,399.52,399.52,0,0,1,90.59-4.2,4.21,4.21,0,1,1-.58,8.4,391.91,391.91,0,0,0-88.67,4.11A417.25,417.25,0,0,0,73.16,246.81,4.24,4.24,0,0,1,71.37,247.21Z"/><path class="cls-3" d="M242,270.17A152.73,152.73,0,0,1,229.12,279a399.75,399.75,0,0,0-92.56,15.34,4,4,0,0,1-1.17.17,4.21,4.21,0,0,1-1.17-8.25,406.69,406.69,0,0,1,107.37-16.05Z"/><path class="cls-3" d="M27.66,91.28a4.21,4.21,0,0,1-2.23-7.78c40.23-25.07,80.85-42.85,120.75-52.86a4.21,4.21,0,0,1,2,8.17C109.18,48.6,69.37,66,29.88,90.65A4.18,4.18,0,0,1,27.66,91.28Z"/><path class="cls-3" d="M240.09,29.37a313,313,0,0,0-51.77,2,4.21,4.21,0,1,1-1-8.36,320.13,320.13,0,0,1,39.56-2.35h0A150.47,150.47,0,0,1,240.09,29.37Z"/><path class="cls-3" d="M164.78.65c-1.63.29-3.27.61-4.92.94-39,7.76-78.58,23-118.37,45.45a151.17,151.17,0,0,1,32.7-26.12A409.5,409.5,0,0,1,120.5,3.05a150.86,150.86,0,0,1,30.27-3Q157.87,0,164.78.65Z"/><path class="cls-3" d="M34.81,161.41a4.21,4.21,0,0,1-2.19-7.81c53.82-32.8,108.53-53.77,162.61-62.34a4.21,4.21,0,1,1,1.31,8.31c-53,8.4-106.66,29-159.54,61.22A4.18,4.18,0,0,1,34.81,161.41Z"/><path class="cls-3" d="M291.94,98.26c-4.27-.62-8.6-1.14-13-1.56a313.76,313.76,0,0,0-45.21-1,4.21,4.21,0,1,1-.41-8.41,322.07,322.07,0,0,1,46.43,1q4.26.41,8.48,1Q290.25,93.68,291.94,98.26Z"/><path class="cls-4" d="M60.72,271.09q-3.54-2.64-6.91-5.45-5.36-4.47-10.18-9.32a149,149,0,0,1-15-17.6,147,147,0,0,1-11.92-19.38c-.43-.83-.85-1.64-1.26-2.48A150,150,0,0,1,3.66,183.4c-.84-3.81-1.56-7.65-2.12-11.52A149.84,149.84,0,0,1,13.12,89q2.76-6.14,6.11-12.09A151.05,151.05,0,0,1,29.57,61q2.74-3.7,5.66-7.19A149.35,149.35,0,0,1,76.51,19.57c1.39-.78,2.79-1.55,4.19-2.28l.08,0q-4.05,5.87-7.5,12-3.36,6-6.12,12.09A150.1,150.1,0,0,0,55.58,124.2q.84,5.79,2.13,11.51a150.46,150.46,0,0,0,11.78,33.46c.42.84.82,1.66,1.25,2.49a149.3,149.3,0,0,0,26.93,37q4.83,4.85,10.18,9.32,3.36,2.81,6.92,5.45c3.07,2.27,6.19,4.42,9.37,6.42A149.37,149.37,0,0,0,145.51,241q6.23,2.66,12.58,4.7a148.43,148.43,0,0,0,18,4.59c4.17.8,8.36,1.4,12.55,1.85A151.12,151.12,0,0,0,228,251.05c2-.31,3.95-.67,5.9-1.06a149.65,149.65,0,0,0,39.71-14q-1.38,2-2.83,3.95a151.07,151.07,0,0,1-14.94,17.28,149.68,149.68,0,0,1-76,40.47q-2.94.6-5.9,1.07a150.67,150.67,0,0,1-39.41,1.11c-4.19-.44-8.39-1-12.55-1.84a147.48,147.48,0,0,1-18-4.59c-4.23-1.37-8.44-2.93-12.58-4.7a150.49,150.49,0,0,1-21.38-11.21C66.93,275.5,63.79,273.36,60.72,271.09Z"/></g></g></g></svg>