<svg xmlns="http://www.w3.org/2000/svg" viewBox="0 0 300.35 300.35"><defs><style>.cls-1{fill:#5bd678;}</style></defs><g id="Layer_2" data-name="Layer 2"><g id="Layer_3" data-name="Layer 3"><path class="cls-1" d="M300.35,150.18q0,4.42-.26,8.79-.4,7-1.42,13.73a149.07,149.07,0,0,1-12.9,42.09c-.25.53-.5,1.05-.76,1.57-.41.83-.82,1.66-1.25,2.48a151,151,0,0,1-19.85,29.41q-3.84,4.42-8,8.55a150.38,150.38,0,0,1-41,28.92,148.88,148.88,0,0,1-32.44,11.15c-4.38,1-8.84,1.73-13.35,2.3a151.91,151.91,0,0,1-18.94,1.18q-4.6,0-9.15-.28a149.29,149.29,0,0,1-33.69-5.92h0a150.62,150.62,0,0,1-18.37-6.82q-2.19-1-4.33-2c-3.71-1.8-7.32-3.76-10.85-5.85h0q-2.61-1.54-5.14-3.18a151.28,151.28,0,0,1-35.17-31.65c-.88-1.08-1.74-2.17-2.59-3.28a150.08,150.08,0,0,1-14.39-22.78c-.37-.73-.74-1.46-1.1-2.2A149,149,0,0,1,5.21,189.55c-.1-.36-.19-.72-.29-1.08Q4,185.1,3.3,181.67A152.2,152.2,0,0,1,.31,160c0-.28,0-.56,0-.84-.18-3-.26-5.94-.26-8.93q0-6.37.52-12.62A150,150,0,0,1,6.9,105c.36-1.16.74-2.31,1.13-3.45A148.84,148.84,0,0,1,18.72,77.52c1.26-2.29,2.58-4.53,4-6.75s3-4.66,4.59-6.92A150.87,150.87,0,0,1,93.9,10.9h0A147.94,147.94,0,0,1,120,3h0l.17,0,.1,0A151.64,151.64,0,0,1,173,1.72a148.84,148.84,0,0,1,32.6,8.84h0c.23.08.44.17.67.27h0c2.43,1,4.82,2,7.19,3.11l1.76.84h0q5.06,2.41,9.9,5.22a149.87,149.87,0,0,1,25.62,18.62c1.49,1.34,2.95,2.7,4.37,4.1q2.75,2.69,5.34,5.49c3.07,3.32,6,6.78,8.75,10.37a150.27,150.27,0,0,1,10.28,15.14q3.23,5.44,6,11.18a149.79,149.79,0,0,1,7,17.16q1.15,3.42,2.14,6.91.86,3,1.58,6a150.8,150.8,0,0,1,3.72,23.85C300.2,142.57,300.35,146.35,300.35,150.18Z"/></g></g></svg>