<svg xmlns="http://www.w3.org/2000/svg" viewBox="0 0 295.18 300.26"><defs><style>.cls-1{isolation:isolate;}.cls-2{fill:#00ba7c;}.cls-3{fill:#1c1535;opacity:0.2;mix-blend-mode:multiply;}</style></defs><g class="cls-1"><g id="Layer_2" data-name="Layer 2"><g id="Layer_3" data-name="Layer 3"><path class="cls-2" d="M18.78,147.64c11.43.36,20.72,3.4,31.38,3.21,8.54-.16,19.12-4.86,27.12-9.36,9.94-5.6,18.35-13,27.48-19.7,18.35-13.51,43.85-9.26,61.16-23.64,23.79-19.78,26.14-65.44,53.69-81.24-2-1.06-4.09-2.09-6.18-3.06l-.41-.19a32.48,32.48,0,0,0-12.48,9.74c-.12.17-.8,1-1,1.33-.47.65-.92,1.31-1.37,2-1,1.53-2,3.09-3,4.67-2.32,3.77-4.51,7.62-6.88,11.36-8.66,13.7-18.93,26.26-31.95,36-12.28,9.18-26.59,14.49-40.91,19.57-.32.12-1.66.67-1.85.73-.49.23-1,.46-1.47.71-1.42.72-2.82,1.51-4.2,2.32-3.14,1.87-6.17,3.91-9.18,6-6.3,4.36-12.45,9-19,12.93-14.07,8.51-30,13.35-45.44,5.42A10.16,10.16,0,0,1,30,122.05c-3.32-2.91-4.28-6.89-3.82-10.93a6.73,6.73,0,0,1-.23-1.32c-.58-8.94,3.5-17.12,9.86-23.22,12.92-12.38,32-18.09,49-22A242.09,242.09,0,0,1,109,60.25c6.87-.88,14.2-1,20.69-3.3a16.76,16.76,0,0,0,5.58-7.16c-16.69-5.14-34.07-3.31-50.69,1.74C77.41,53.71,70.26,56,63.24,58.64,58.15,61.12,53,63.39,47.8,65.85c-.76.46-1.51.94-2.29,1.39l-.47.27-.07.06c-.61.51-1.19,1-1.76,1.58a11,11,0,0,1-7.91,3.31A81.53,81.53,0,0,0,17.05,86.77a87.4,87.4,0,0,0-6.49,7.91C9.67,96.92,8.83,99.2,8,101.5a148.89,148.89,0,0,0-7.51,36Q0,143.72,0,150.09c0,.37,0,.74,0,1.11A40.72,40.72,0,0,1,18.78,147.64Z"/><path class="cls-2" d="M264.49,123.76a63,63,0,0,1-3.23,22.91,48.14,48.14,0,0,1-23.45,27.25,53.29,53.29,0,0,1-23.43,5.79c-10.68.17-21.32-1.53-32-.85-19.32,1.23-35,11.48-52.84,17.52-21.7,7.33-43.84,5.55-66.36,5.49-15.33-.84-28.46,7.28-41,15-1.66,1-3.32,2.05-5,3-.26-.49-.52-1-.77-1.47-.37-.73-.73-1.46-1.09-2.19a150.4,150.4,0,0,1-7-16.85c20.19-4.48,38.94-15.56,59.64-18.33,14.2-1.9,28.6-1.74,42.82-3.6s27.87-6,41.45-10.64,26.83-11.71,34.23-24.44C206.83,123.1,215.13,95,234,74.44c7.66-8.35,16.77-15.06,26.25-18.27,2-.66,3.86-1.23,5.74-1.7q2.13,2.56,4.13,5.22c-31.29,16.58-50.24,54.38-67.49,84.18-4.5,7.78,1.26,17.41,10.09,17.59C236.06,161.93,253.1,143.8,264.49,123.76Z"/><path class="cls-2" d="M284.08,195.13c-8.55,5.73-16,13-24.48,18.82-8.21,6.79-16.32,14.59-26.74,17.59a91.62,91.62,0,0,1-21.75,9c-14.61,4-29.88,4.6-45,4.68a165.25,165.25,0,0,1-20,.06,110.65,110.65,0,0,1-16.87,1,85.63,85.63,0,0,1-14.41.16c-7.21.13-14.3-.23-21.13-2.38-.08.28-.16.57-.23.87a.13.13,0,0,1,0,.06,4.35,4.35,0,0,1,1.27.3c6.32,2.56,12.46,6.47,19.49,6.08a6.08,6.08,0,0,1,2.75.45h1.62c6.24-.09,12.48-.28,18.72-.27,5.7,0,16.15-.86,22.42,2.59,4.52.44,8.29,6.36,4.12,10.6-7.51,7.62-16.4,10.42-25.83,11.23-.83.25-1.67.47-2.53.65a51.92,51.92,0,0,1-18,.86c-.32,0-.64,0-1,0a251.89,251.89,0,0,1-26.31-2h0c-11,.77-21.88-2.12-32-6.82h0q5.08,4,10.51,7.48a145.51,145.51,0,0,0,15.69,8.88,12.14,12.14,0,0,1,4-.6c12.08.09,24,1.71,36,2.94,1,.1,2,.19,3,.27a9.82,9.82,0,0,1,1.72-.07,113.3,113.3,0,0,0,46.71-7.22c15-5.58,28-14.63,42-22.23,7.55-4.12,15.16-8.16,22.41-12.79,7-4.49,13.35-10.14,20.86-13.83a54.15,54.15,0,0,1,5.11-2.19,64.89,64.89,0,0,1,13-10c1.95-1.13,3.93-2.22,6-3.25a147.16,147.16,0,0,0,8.38-21c.62-2,1.17-3.92,1.71-5.91A64,64,0,0,0,284.08,195.13Z"/><path class="cls-2" d="M177.33,2.37c-2.12,2-4.37,3.86-6.5,5.63a65,65,0,0,1-28.1,13.63c-11.33,2.44-22.93,1.7-34.43,1.71a166.13,166.13,0,0,0-18.79.79C80.62,24,72,24,63.57,27.4a149.06,149.06,0,0,1,24-13.86c10,.53,19.89.36,29.91-2.29C129.9,8,143,4.83,154.84,0A150.05,150.05,0,0,1,173,1.63C174.42,1.85,175.88,2.1,177.33,2.37Z"/><path class="cls-2" d="M184.33,199.59c-4.23-2.2-23.09,13.36-26.46,15.23l-.5.26a6.26,6.26,0,0,1-2.66,1.63l-3.6,1.16a47.4,47.4,0,0,1-5,1.5A39.59,39.59,0,0,1,135.53,221c-7.5,0-15.07-2-22.55-2.6a6.47,6.47,0,0,1-2.83-.89c-11.86-1.37-23.73-2.58-35.61-1.2a51.6,51.6,0,0,0-28.05,11.86c-5.29,4.56-10.16,9.26-15.92,12.78l.27.36c.85,1.1,1.71,2.2,2.59,3.28q4.11,5.08,8.66,9.78c8.46-9,19.63-16,31.64-18.18,16.89-3.06,33.86-.19,50.84-.2A81.36,81.36,0,0,0,163,226.76c10.3-5.45,20.15-13.35,22.63-25.23A17.9,17.9,0,0,0,184.33,199.59Z"/><path class="cls-3" d="M60.74,270.7q-3.56-2.64-6.91-5.45c-3.57-3-7-6.09-10.18-9.32a149.3,149.3,0,0,1-26.93-37c-.43-.83-.84-1.65-1.25-2.49A150,150,0,0,1,3.68,183q-1.27-5.72-2.12-11.52a150.51,150.51,0,0,1,1.21-50.17,148.63,148.63,0,0,1,10.37-32.7q2.75-6.14,6.11-12.09A152.56,152.56,0,0,1,29.58,60.62q2.75-3.7,5.67-7.19A149.1,149.1,0,0,1,76.52,19.19c1.39-.79,2.8-1.56,4.2-2.29l.08,0q-4.06,5.87-7.51,12-3.35,6-6.11,12.09A149.85,149.85,0,0,0,55.6,123.81q.84,5.79,2.12,11.51a150.25,150.25,0,0,0,11.79,33.47c.41.83.82,1.65,1.24,2.48a149.68,149.68,0,0,0,26.94,37q4.83,4.84,10.18,9.33,3.34,2.81,6.92,5.44c3.06,2.27,6.19,4.42,9.36,6.42a148.94,148.94,0,0,0,21.38,11.21c4.14,1.77,8.35,3.34,12.58,4.7a148,148,0,0,0,18,4.59c4.17.8,8.36,1.4,12.55,1.85A150.68,150.68,0,0,0,228,250.66c2-.31,3.94-.67,5.89-1.06a150,150,0,0,0,39.72-14c-.92,1.32-1.86,2.64-2.83,3.94a152.07,152.07,0,0,1-14.94,17.28,149.68,149.68,0,0,1-76,40.47q-2.94.6-5.91,1.08a151,151,0,0,1-39.4,1.1q-6.3-.65-12.55-1.84a148.11,148.11,0,0,1-18-4.59c-4.22-1.37-8.43-2.93-12.57-4.7a150,150,0,0,1-21.38-11.21C66.94,275.11,63.81,273,60.74,270.7Z"/></g></g></g></svg>