<svg xmlns="http://www.w3.org/2000/svg" viewBox="0 0 300.35 300.34"><defs><style>.cls-1{fill:#ff8939;}</style></defs><g id="Layer_2" data-name="Layer 2"><g id="Layer_3" data-name="Layer 3"><path class="cls-1" d="M300.35,150.17q0,4.43-.25,8.8c-.27,4.63-.75,9.22-1.43,13.73s-1.56,9-2.65,13.37c-.75,3.09-1.6,6.15-2.55,9.16a147.16,147.16,0,0,1-8.38,21l-.07.15c-.41.84-.83,1.66-1.25,2.49a151,151,0,0,1-19.85,29.4q-3.84,4.42-8,8.56a150.49,150.49,0,0,1-41,28.92,148.77,148.77,0,0,1-32.43,11.14q-6.58,1.45-13.36,2.3a151.63,151.63,0,0,1-18.93,1.18c-3.08,0-6.12-.09-9.15-.27a149.27,149.27,0,0,1-52.1-12.75q-2.19-1-4.33-2l-.31-.15a145.51,145.51,0,0,1-15.69-8.88q-5.41-3.51-10.51-7.48-4-3.09-7.77-6.45-4.27-3.81-8.23-7.93-4.55-4.69-8.66-9.78c-.88-1.08-1.74-2.18-2.59-3.28-.47-.61-.93-1.22-1.38-1.84A150.09,150.09,0,0,1,17.21,220c-.26-.49-.52-1-.77-1.47-.37-.73-.73-1.46-1.09-2.19a150.4,150.4,0,0,1-7-16.85q-1.71-4.92-3.08-10c-.1-.36-.19-.72-.29-1.08a147.6,147.6,0,0,1-3.6-18.32q-.67-5-1-10.19c0-.28,0-.57,0-.85Q0,154.68,0,150.17q0-6.37.53-12.61a148.89,148.89,0,0,1,7.51-36c.79-2.3,1.63-4.58,2.52-6.82a148.7,148.7,0,0,1,8.16-17.25c1.26-2.28,2.59-4.53,4-6.74A150.93,150.93,0,0,1,63.57,27.48,149.56,149.56,0,0,1,150.18,0c1.56,0,3.11,0,4.66.08A150.05,150.05,0,0,1,173,1.71c1.46.22,2.92.47,4.37.74a148.58,148.58,0,0,1,34.61,10.8l1.49.68a151.48,151.48,0,0,1,37.3,24.69q2.22,2,4.37,4.11A150.08,150.08,0,0,1,266,54.55q2.13,2.56,4.13,5.22a147.67,147.67,0,0,1,9.37,13.95q3.22,5.44,6,11.18a148.73,148.73,0,0,1,7,17.16q2.14,6.33,3.72,12.91a149.67,149.67,0,0,1,3.73,23.85C300.21,142.56,300.35,146.35,300.35,150.17Z"/></g></g></svg>