<svg xmlns="http://www.w3.org/2000/svg" viewBox="0 0 300.95 300.95"><defs><style>.cls-1{fill:#f9d438;}</style></defs><g id="Layer_2" data-name="Layer 2"><g id="Layer_3" data-name="Layer 3"><path class="cls-1" d="M301,150.47c0,1,0,2,0,3q-.12,6.65-.82,13.15c-.29,2.81-.67,5.59-1.12,8.35a149.29,149.29,0,0,1-13.71,42.51q-2,4-4.26,8a151.4,151.4,0,0,1-39.32,44.77A149.55,149.55,0,0,1,228.82,279q-6,3.65-12.26,6.74A150,150,0,0,1,150.47,301q-7,0-13.82-.63A149.31,149.31,0,0,1,95,290.37q-5.38-2.13-10.57-4.67a151,151,0,0,1-49.47-38.84c-1.82-2.18-3.57-4.4-5.27-6.68-1-1.34-2-2.7-2.93-4.08-1.59-2.3-3.13-4.65-4.6-7s-2.92-4.91-4.27-7.43-2.6-5-3.8-7.57a148,148,0,0,1-7.18-18.49c-.89-2.83-1.69-5.68-2.4-8.57a148.46,148.46,0,0,1-3.8-22.26c-.31-3.28-.52-6.58-.6-9.92,0-1.44-.07-2.88-.07-4.34,0-1.18,0-2.37.05-3.55q.12-5.5.64-10.91C1,132.54,1.46,129.1,2,125.7q1-6.2,2.55-12.21A149.7,149.7,0,0,1,16.23,82.43h0A149.79,149.79,0,0,1,41.19,47a151.41,151.41,0,0,1,32.7-26.12A150,150,0,0,1,150.47,0q7.09,0,14,.65h0a149.47,149.47,0,0,1,62.08,20h0a151.17,151.17,0,0,1,54,54.12q2.66,4.55,5,9.29c.85,1.72,1.67,3.47,2.45,5.23q2,4.41,3.67,9,1.62,4.38,3,8.89c.87,2.89,1.66,5.82,2.35,8.79q1.26,5.31,2.12,10.78.69,4.31,1.12,8.68c.32,3.15.53,6.32.64,9.53C300.91,146.76,301,148.62,301,150.47Z"/></g></g></svg>