<svg xmlns="http://www.w3.org/2000/svg" viewBox="0 0 300.95 300.35"><defs><style>.cls-1{isolation:isolate;}.cls-2{fill:#00ba7c;}.cls-3{fill:#9563f7;}.cls-4{fill:#4337e2;}.cls-5{fill:#1c1535;opacity:0.2;mix-blend-mode:multiply;}</style></defs><g class="cls-1"><g id="Layer_2" data-name="Layer 2"><g id="Layer_3" data-name="Layer 3"><path class="cls-2" d="M120.81,3c.43-.44.86-.87,1.3-1.3.2-.19.4-.36.61-.53l-3,3Z"/><path class="cls-2" d="M206.87,11a7.8,7.8,0,0,1-.71-.46c.23.08.44.17.67.27h0c2.43,1,4.82,2,7.19,3.11l1.76.84a28.23,28.23,0,0,1-5.07-1.62A36,36,0,0,1,206.87,11Z"/><path class="cls-3" d="M301,150.18q0,4.42-.26,8.79-.4,7-1.42,13.73a149.07,149.07,0,0,1-12.9,42.09c-.25.53-.5,1.05-.76,1.57-.41.83-.82,1.66-1.25,2.48a151,151,0,0,1-19.85,29.41q-3.84,4.42-8,8.55a150.38,150.38,0,0,1-41,28.92,148.88,148.88,0,0,1-32.44,11.15c-4.38,1-8.84,1.73-13.35,2.3a151.91,151.91,0,0,1-18.94,1.18q-4.61,0-9.15-.28a149.29,149.29,0,0,1-33.69-5.92h0a150.62,150.62,0,0,1-18.37-6.82q-2.19-1-4.33-2c-3.71-1.8-7.32-3.76-10.85-5.85h0q-2.61-1.54-5.14-3.18A151.28,151.28,0,0,1,34,244.63c-.88-1.08-1.74-2.17-2.59-3.28A150.08,150.08,0,0,1,17,218.57c-.37-.73-.74-1.46-1.1-2.2A149,149,0,0,1,5.81,189.55c-.1-.36-.19-.72-.29-1.08q-.88-3.37-1.62-6.8A152.2,152.2,0,0,1,.91,160c0-.28,0-.56-.05-.84-.18-3-.26-5.94-.26-8.93q0-6.37.52-12.62A150,150,0,0,1,7.5,105c.36-1.16.74-2.31,1.13-3.45A148.84,148.84,0,0,1,19.32,77.52c1.26-2.29,2.58-4.53,4-6.75s3-4.66,4.59-6.92A150.87,150.87,0,0,1,94.5,10.9h0A147.94,147.94,0,0,1,120.63,3h0l.17,0,.1,0a151.64,151.64,0,0,1,52.64-1.25,148.84,148.84,0,0,1,32.6,8.84h0c.23.08.44.17.67.27h0c2.43,1,4.82,2,7.19,3.11l1.76.84h0q5.05,2.41,9.9,5.22a149.87,149.87,0,0,1,25.62,18.62c1.49,1.34,3,2.7,4.37,4.1q2.74,2.69,5.34,5.49c3.07,3.32,6,6.78,8.75,10.37a150.27,150.27,0,0,1,10.28,15.14q3.22,5.44,6,11.18a149.79,149.79,0,0,1,7,17.16q1.16,3.42,2.14,6.91.86,3,1.58,6a150.8,150.8,0,0,1,3.72,23.85C300.8,142.57,301,146.35,301,150.18Z"/><path class="cls-4" d="M114,95.78a56.13,56.13,0,0,1-13.62-2.17c-6.64-2.45-12.64-7.45-18.64-11.45-3,8,4,14,5,21h-1c1,2,2,5,1,6a6.16,6.16,0,0,1-7-1c-4-3-6-8-8-12-8-19-5-39,2-57,2-4,4-7,6-11A190.45,190.45,0,0,1,94.5,10.9h0A147.94,147.94,0,0,1,120.63,3c-9.53,9.24-13.29,22.62-13.83,35.66.41,9.8,2.67,19.43,8.92,27.47h-1c6,7,15,13,17,22C134.72,98.16,119.72,95.16,114,95.78Z"/><path class="cls-4" d="M225.7,20a18.57,18.57,0,0,1-1,6.15c-2,4-3,9-7,12-10,7-27,7-30-4-3-10,14-5,19-13l-2,2A19.15,19.15,0,0,0,206.87,11a1.48,1.48,0,0,0,0-.19c2.43,1,4.82,2,7.19,3.11l1.76.84h0Q220.85,17.2,225.7,20Z"/><path class="cls-4" d="M301,150.18q0,4.42-.26,8.79-.4,7-1.42,13.73a149.07,149.07,0,0,1-12.9,42.09,130.29,130.29,0,0,1-13.65-3.63c-15-6-34-21-29-39,5-14,27-6,36-16,3-3,2-10-2-15a75,75,0,0,0-28-18,340.2,340.2,0,0,0-34-7c-32-6-61,15-59,47-9-6-10-17-14.66-26.09a39.4,39.4,0,0,1,1.27-16.71c19.39-41.2,73.39-21.2,108.39-21.2-30-4-60-10-90-15,45.81-3,91.63,6.92,133.5,24.82q.86,3,1.58,6a150.8,150.8,0,0,1,3.72,23.85C300.8,142.57,301,146.35,301,150.18Z"/><path class="cls-4" d="M57.72,100.16c-2,17-3,33-8,49-3,10-8,19-16,26A38.77,38.77,0,0,1,3.9,181.67,152.2,152.2,0,0,1,.91,160c0-.28,0-.56-.05-.84-.18-3-.26-5.94-.26-8.93q0-6.37.52-12.62A150,150,0,0,1,7.5,105c10.78,6.55,14.11,21.56,13.61,33.21a36.29,36.29,0,0,1-1.69,10.62c-2.7,4.29-5.7,8.29-6.7,12.29a3.19,3.19,0,0,0,3,3c2,0,5,0,7-1,3-1,5-4,8-6,6-6,8-13,11-21a141.59,141.59,0,0,0,4-20c4.33-21.63-3.63-40.33-17.85-52.31a149.33,149.33,0,0,1,12.52-15.5A47.52,47.52,0,0,1,51.72,62.16a84.47,84.47,0,0,1,5,17C56.72,86.16,58.72,93.16,57.72,100.16Z"/><path class="cls-4" d="M269.78,58.59c-5.23,5.71-10.74,11-17.06,14.57-4,2-8,4-13,5-28,4-62-6-76-31,30,11,65,22,93.85,3.21,1.17-.69,2.33-1.4,3.46-2.15C264.1,51.54,267,55,269.78,58.59Z"/><path class="cls-4" d="M225.72,206.16c-19,48-64,90-117,88h-.83a150.62,150.62,0,0,1-18.37-6.82q-2.19-1-4.33-2c-3.71-1.8-7.32-3.76-10.85-5.85h0c-.88-.75-1.75-1.51-2.61-2.3-4-4-7-7-10-12-5-9-10-16-13-26-9-38,0-93,39-108a9.72,9.72,0,0,1,9,1c2,3,6,4,8,7,13,18,16,44,0,59-9,9-13-8-20-12-3-2-6,3-7,6l-3,12c-2,14,1,30,13,38,50,38,74-36,98-68a122.52,122.52,0,0,1,2,19,200.24,200.24,0,0,1-4,24c-7.94,36.16-38.43,72.32-75.7,69.38,56.29,5.86,88.15-65.91,116.18-106.43.76-1.67,1.43-1.32,2,.51.53,2.54.53,5.54,1.53,8.54C228.72,195.16,227.72,200.16,225.72,206.16Z"/><path class="cls-5" d="M60.72,270.79q-3.54-2.64-6.91-5.45c-3.57-3-7-6.09-10.18-9.32a148.92,148.92,0,0,1-26.92-37c-.43-.83-.85-1.65-1.26-2.49A150,150,0,0,1,3.66,183.1c-.84-3.81-1.56-7.65-2.12-11.52A149.84,149.84,0,0,1,13.12,88.71q2.76-6.13,6.11-12.09A151.05,151.05,0,0,1,29.57,60.71q2.74-3.7,5.66-7.19A149.14,149.14,0,0,1,76.51,19.28c1.39-.79,2.79-1.56,4.19-2.29l.08,0q-4.05,5.86-7.5,12-3.36,6-6.12,12.09A150.1,150.1,0,0,0,55.58,123.9q.84,5.79,2.13,11.51a150.72,150.72,0,0,0,11.78,33.47c.42.83.82,1.65,1.25,2.48a149.3,149.3,0,0,0,26.93,37q4.83,4.84,10.18,9.33,3.36,2.81,6.92,5.44c3.07,2.27,6.19,4.42,9.37,6.42a149.37,149.37,0,0,0,21.37,11.21q6.23,2.66,12.58,4.7a148.43,148.43,0,0,0,18,4.59c4.17.8,8.36,1.4,12.55,1.85A150.68,150.68,0,0,0,228,250.75c2-.31,3.95-.67,5.9-1.06a150,150,0,0,0,39.71-14c-.92,1.32-1.86,2.64-2.83,3.94a151.07,151.07,0,0,1-14.94,17.28,149.68,149.68,0,0,1-76,40.47q-2.94.6-5.9,1.08a151.1,151.1,0,0,1-39.41,1.1c-4.19-.43-8.39-1-12.55-1.84a147.48,147.48,0,0,1-18-4.59c-4.23-1.37-8.44-2.93-12.58-4.7a150.49,150.49,0,0,1-21.38-11.21C66.93,275.2,63.79,273.07,60.72,270.79Z"/></g></g></g></svg>