<svg xmlns="http://www.w3.org/2000/svg" viewBox="0 0 300.95 299.19"><defs><style>.cls-1{isolation:isolate;}.cls-2{fill:#00ba7c;}.cls-3{fill:#ef4136;}.cls-4{fill:#1c1535;opacity:0.2;mix-blend-mode:multiply;}</style></defs><g class="cls-1"><g id="Layer_2" data-name="Layer 2"><g id="Layer_3" data-name="Layer 3"><path class="cls-2" d="M120.81,1.83c.43-.44.86-.87,1.3-1.3.2-.19.4-.36.61-.53l-3,3Z"/><path class="cls-2" d="M206.87,9.86a7.8,7.8,0,0,1-.71-.46c.23.08.44.17.67.27h0c2.43,1,4.82,2,7.19,3.11l1.76.84A28.23,28.23,0,0,1,210.72,12,36,36,0,0,1,206.87,9.86Z"/><path class="cls-3" d="M114,94.62a56.13,56.13,0,0,1-13.62-2.17C93.72,90,87.72,85,81.72,81c-3,8,4,14,5,21h-1c1,2,2,5,1,6a6.16,6.16,0,0,1-7-1c-4-3-6-8-8-12-8-19-5-39,2-57,2-4,4-7,6-11A190.45,190.45,0,0,1,94.5,9.74h0a147.94,147.94,0,0,1,26.12-7.87c-9.53,9.24-13.29,22.62-13.83,35.66.41,9.8,2.67,19.43,8.92,27.47h-1c6,7,15,13,17,22C134.72,97,119.72,94,114,94.62Z"/><path class="cls-3" d="M225.7,18.85a18.57,18.57,0,0,1-1,6.15c-2,4-3,9-7,12-10,7-27,7-30-4-3-10,14-5,19-13l-2,2a19.15,19.15,0,0,0,2.15-12.14,1.48,1.48,0,0,0,0-.19c2.43,1,4.82,2,7.19,3.11l1.76.84s0,0,0,0Q220.85,16,225.7,18.85Z"/><path class="cls-3" d="M301,149q0,4.42-.26,8.79-.4,7-1.42,13.73a149.07,149.07,0,0,1-12.9,42.09A130.29,130.29,0,0,1,272.72,210c-15-6-34-21-29-39,5-14,27-6,36-16,3-3,2-10-2-15a75,75,0,0,0-28-18,340.2,340.2,0,0,0-34-7c-32-6-61,15-59,47-9-6-10-17-14.66-26.09a39.4,39.4,0,0,1,1.27-16.71C162.72,78,216.72,98,251.72,98c-30-4-60-10-90-15,45.81-3,91.63,6.92,133.5,24.82q.86,3,1.58,6a150.8,150.8,0,0,1,3.72,23.85C300.8,141.41,301,145.19,301,149Z"/><path class="cls-3" d="M57.72,99c-2,17-3,33-8,49-3,10-8,19-16,26A38.77,38.77,0,0,1,3.9,180.51a152.2,152.2,0,0,1-3-21.72c0-.28,0-.56-.05-.84C.68,155,.6,152,.6,149q0-6.37.52-12.62A150,150,0,0,1,7.5,103.88c10.78,6.55,14.11,21.56,13.61,33.21a36.29,36.29,0,0,1-1.69,10.62c-2.7,4.29-5.7,8.29-6.7,12.29a3.19,3.19,0,0,0,3,3c2,0,5,0,7-1,3-1,5-4,8-6,6-6,8-13,11-21a141.59,141.59,0,0,0,4-20c4.33-21.63-3.63-40.33-17.85-52.31a149.33,149.33,0,0,1,12.52-15.5A47.52,47.52,0,0,1,51.72,61a84.47,84.47,0,0,1,5,17C56.72,85,58.72,92,57.72,99Z"/><path class="cls-3" d="M269.78,57.43c-5.23,5.71-10.74,11-17.06,14.57-4,2-8,4-13,5-28,4-62-6-76-31,30,11,65,22,93.85,3.21,1.17-.69,2.33-1.4,3.46-2.15C264.1,50.38,267,53.84,269.78,57.43Z"/><path class="cls-3" d="M225.72,205c-19,48-64,90-117,88h-.83a150.62,150.62,0,0,1-18.37-6.82q-2.19-1-4.33-2c-3.71-1.8-7.32-3.76-10.85-5.85h0c-.88-.75-1.75-1.51-2.61-2.3-4-4-7-7-10-12-5-9-10-16-13-26-9-38,0-93,39-108a9.72,9.72,0,0,1,9,1c2,3,6,4,8,7,13,18,16,44,0,59-9,9-13-8-20-12-3-2-6,3-7,6l-3,12c-2,14,1,30,13,38,50,38,74-36,98-68a122.52,122.52,0,0,1,2,19,200.24,200.24,0,0,1-4,24c-7.94,36.16-38.43,72.32-75.7,69.38,56.29,5.86,88.15-65.91,116.18-106.43.76-1.67,1.43-1.32,2,.51.53,2.54.53,5.54,1.53,8.54C228.72,194,227.72,199,225.72,205Z"/><path class="cls-4" d="M60.72,269.63q-3.54-2.64-6.91-5.45c-3.57-3-7-6.09-10.18-9.32a148.92,148.92,0,0,1-26.92-37c-.43-.83-.85-1.65-1.26-2.49A150,150,0,0,1,3.66,181.94c-.84-3.81-1.56-7.65-2.12-11.52A149.84,149.84,0,0,1,13.12,87.55q2.76-6.14,6.11-12.09A151.05,151.05,0,0,1,29.57,59.55q2.74-3.7,5.66-7.19A149.14,149.14,0,0,1,76.51,18.12c1.39-.79,2.79-1.56,4.19-2.29l.08,0q-4.05,5.87-7.5,12-3.36,6-6.12,12.09a150.1,150.1,0,0,0-11.58,82.88q.84,5.79,2.13,11.51a150.46,150.46,0,0,0,11.78,33.46c.42.84.82,1.66,1.25,2.49a149.3,149.3,0,0,0,26.93,37q4.83,4.85,10.18,9.33,3.36,2.81,6.92,5.44c3.07,2.27,6.19,4.42,9.37,6.42a149.37,149.37,0,0,0,21.37,11.21q6.23,2.66,12.58,4.7a148.43,148.43,0,0,0,18,4.59c4.17.8,8.36,1.4,12.55,1.85A150.68,150.68,0,0,0,228,249.59c2-.31,3.95-.67,5.9-1.06a150,150,0,0,0,39.71-14c-.92,1.32-1.86,2.64-2.83,3.94a151.07,151.07,0,0,1-14.94,17.28,149.68,149.68,0,0,1-76,40.47q-2.94.6-5.9,1.08a151.1,151.1,0,0,1-39.41,1.1c-4.19-.43-8.39-1-12.55-1.84a147.48,147.48,0,0,1-18-4.59c-4.23-1.37-8.44-2.93-12.58-4.7a150.49,150.49,0,0,1-21.38-11.21C66.93,274,63.79,271.91,60.72,269.63Z"/></g></g></g></svg>