<svg xmlns="http://www.w3.org/2000/svg" viewBox="0 0 300.94 298.86"><defs><style>.cls-1{isolation:isolate;}.cls-2{fill:#09587f;}.cls-3{fill:#1c1535;opacity:0.2;mix-blend-mode:multiply;}</style></defs><g class="cls-1"><g id="Layer_2" data-name="Layer 2"><g id="Layer_3" data-name="Layer 3"><path class="cls-2" d="M221.53,16.21A143.61,143.61,0,0,0,202.66,25c-11.83,6.64-22.12,15.62-29.34,27.17-4.41,7-7.22,15.15-9.69,23-1,3.15-1.94,6.32-3.06,9.42-.07.2-.44,1-.67,1.56-.75,1.42-1.45,2.86-2.31,4.23-1,1.6-2.17,3.1-3.17,4.7l-.27.43c-.39.41-.78.81-1.11,1.19a87.1,87.1,0,0,1-8,8c-.38.34-.77.66-1.16,1l-.08,0c-1.22.35-3.39,2.48-4.35,3.09-1.56,1-3.14,1.92-4.77,2.79-.35.19-1,.51-1.68.83-.27.05-.54.08-.81.14-7.83,1.7-15.59,3.66-23.41,5.38-7.38,1.64-14.86,2.58-22.26,4.07-12.31,2.46-24,8.63-32.26,18.19-4.59,5.3-8.56,11.09-12.59,16.81-1,1.38-2,2.73-3,4.09l0,.06c-2,2.39-3.94,4.77-6,7.06A136.17,136.17,0,0,1,20.19,180.2l-.17.12c-1.09.79-2.19,1.55-3.31,2.29-2.42,1.6-4.91,3.09-7.47,4.45-1.08.57-2.17,1.12-3.27,1.64v0c0-.2-.11-.4-.16-.6-.1-.36-.19-.72-.29-1.08-.52-2-1-3.94-1.43-5.93h0c-.07-.29-.13-.57-.19-.86a152.2,152.2,0,0,1-3-21.72c0-.28,0-.56-.05-.84q-.07-1.17-.12-2.34h0c.21-.34.42-.68.64-1A130.43,130.43,0,0,0,20.06,133c3.55-4.83,6.83-9.85,10.16-14.84,1.74-2.6,3.48-5.2,5.29-7.76.9-1.29,1.84-2.55,2.76-3.83l.08-.09c1.81-2.17,3.64-4.31,5.61-6.33,1-1.06,2.11-2.06,3.22-3,.49-.43,5-3.78,3.19-2.61l2.48-1.67q2-1.35,4.12-2.6,4.17-2.51,8.56-4.6c1-.46,2-.91,3-1.34L66,85.39c1.11-1,3.9-1.47,5.33-1.94a94.55,94.55,0,0,1,10.18-2.78,31.33,31.33,0,0,0,4.62-.82l.56-.06a96.45,96.45,0,0,1,11.53-.28,20.33,20.33,0,0,0,4.93-.5c.72-.09,1.44-.19,2.17-.33a58.23,58.23,0,0,0,14.75-4.94l2-.61h0c.94-.5,1.88-1,2.8-1.49.28-.17,1.81-1.26,2.58-1.72l.2-.18c.4-.37.78-.75,1.15-1.15a74.43,74.43,0,0,0,15.28-14.26,223.24,223.24,0,0,0,13.74-19.19c1.76-2.7,3.5-5.42,5.3-8.09.85-1.25,1.7-2.49,2.57-3.72a11.67,11.67,0,0,1,1-1.17c2.87-2.73,1.35-1.47,0,0l-.74.69c2.37-2.23,4.31-5.05,6.61-7.38,2.84-2.87,5.86-5.51,8.91-8.14.46-.33.91-.67,1.37-1q1.77-1.25,3.6-2.42l1.28-.8h0a146.58,146.58,0,0,1,18.38,6h0c.23.08.44.17.67.27h0c2.43,1,4.82,2,7.19,3.11l1.76.84s0,0,0,0C217.73,14.23,219.64,15.19,221.53,16.21Z"/><path class="cls-2" d="M284.06,79.48a133.36,133.36,0,0,0-30.29,18c-11.84,9.39-18.51,22.49-27,34.67-.89,1.29-1.81,2.58-2.74,3.85l-.43.6c-2,2.16-3.72,4.62-5.68,6.81a148.82,148.82,0,0,1-12.53,11.95c-.38.3-.75.6-1.13.86q-2,1.44-4.14,2.78-4.6,2.93-9.48,5.39c-1.47.75-3,1.44-4.44,2.13-2,.75-2.33.92-2.05.84-3.31,1.28-6.68,2.43-10.07,3.49-25.79,1.88-52.56,10.16-74.34,23.87-11.72,7.38-20.45,17-30,26.74-4.3,4.39-8.73,8.68-13.42,12.65-.57.48-1.15.95-1.73,1.41-.27.22-.52.44-.78.62-2.45,1.71-4.91,3.39-7.49,4.91s-5,2.57-7.47,3.89l-.48.2c-.71.26-1.42.51-2.14.75-.76-.89-1.51-1.79-2.24-2.7l-.29-.36c-.78-1-1.54-1.93-2.3-2.92s-1.32-1.75-2-2.63q-3.08-4.2-5.84-8.6c1.12-.73,2.11-1.42,2.66-1.76,1.81-1.11,3.53-2.35,5.3-3.51l.26-.17c.52-.44,1-.89,1.53-1.33A94.07,94.07,0,0,0,49.8,209.74c10-9,18.12-19.86,26.77-30.1q2.88-3.42,5.91-6.65c1.82-1.07,3.68-2.1,5.56-3.07s3.78-1.86,5.69-2.75l.16-.06c1-.33,2.07-.88,3-1.25,4.38-1.67,8.82-3.16,13.3-4.57,19.75-6.21,39.46-11.53,58.31-20.33.18-.08.35-.18.53-.27a66.44,66.44,0,0,0,14.55-8.24c11.84-8.85,20.76-19.54,29.7-31.22q2.52-3.3,5-6.63l2.29-3,.22-.29a145.22,145.22,0,0,1,10.1-11.66q1.81-1.82,3.75-3.51c.38-.33,1.18-.87,1.79-1.36,2.72-1.69,5.33-3.46,8.23-4.9.16-.08.46-.23.82-.39.64-.23,2.38-.93,2.89-1.11,3.09-1,6.24-1.92,9.42-2.68,5.26-1.25,10.57-2.24,15.88-3.2q3.36,4.75,6.33,9.77C281.45,74.61,282.8,77,284.06,79.48Z"/><path class="cls-2" d="M129.61,0c-.1.48-.18.89-.21,1A129.77,129.77,0,0,1,126.23,15q-.89,3-1.92,6l-.76,2c-2,2.64-3.25,6.49-5.13,9.29-.16.24-1,1.14-1.34,1.76-.71.83-1.43,1.65-2.18,2.45-1.07,1.12-2.17,2.22-3.3,3.27-.65.61-1.31,1.2-2,1.78-.44.38-1.92,1.43-2.1,1.6l1.34-.86,1.18-.76-3.15,2.13c-1.47,1-3,2-4.51,2.92a106.62,106.62,0,0,1-9.53,5.15c-.52.25-2.69,1.19-3.37,1.51l-1.23.48c-3.43,1.3-6.92,2.48-10.44,3.55-6.55,2-13.22,3.6-19.93,4.95-1.82.36-3.73.58-5.53,1l-3.72.39c-5.37.55-10.75,1.07-16.13,1.52q-3.46.3-6.93.54c.75-1.13,1.51-2.25,2.29-3.35.13-.19.26-.38.4-.56A148.89,148.89,0,0,1,40.38,46.86q2.73-3,5.61-5.77C55.5,38.45,64.73,34.83,72.81,29A91.94,91.94,0,0,0,92.12,10.39h0c.78-.34,1.57-.66,2.36-1h0c2.7-1.09,5.44-2.11,8.22-3h0c1.72-.59,3.46-1.15,5.21-1.66q6.23-1.86,12.68-3.17h0l.17,0,.1,0C123.77.9,126.68.4,129.61,0Z"/><path class="cls-2" d="M300.94,148.69q0,4.42-.26,8.79-.4,7-1.42,13.73l-.3,1.9c-6.06,6.31-11.63,13-17.77,19.4q-3.29,3.41-6.84,6.55c-1.18,1-2.4,2-3.6,3.07-.24.2-.95.74-1.22.94-3.09,2.28-6.29,4.41-9.54,6.46-1.32.67-2.65,1.31-4,1.94-.45.21-1.31.53-2,.78l2-.69c-1.42.49-2.82,1.14-4.23,1.67a173.45,173.45,0,0,1-18.11,5.67c-12.25,3.16-24.62,5.78-36.45,10.35a140.56,140.56,0,0,0-26.5,13.45,110.77,110.77,0,0,0-25,15.93c-11.85,10-20.09,23-25.28,37.16-1.34-.28-2.67-.57-4-.88q-4.29-1-8.49-2.25h0q-4.27-1.28-8.43-2.8.18-3.8.57-7.59c.13-1.37.33-2.74.47-4.12-.72,7.26-.1,1.08.22-.69a127.2,127.2,0,0,1,4.74-18.56c.51-1.52,1.06-3,1.63-4.52.1-.27.19-.49.26-.69,1.29-2.78,2.62-5.54,4.1-8.23q2.37-4.34,5.11-8.45c.79-1.19,1.61-2.37,2.45-3.53l.25-.32a10.31,10.31,0,0,0,1.38-1.72q3.18-3.7,6.53-7.21c3.9-2.76,7.87-5.39,12-7.81q4.17-2.44,8.48-4.62,2.28-1.16,4.6-2.21l1.37-.62c13.17-5.08,26.74-8.34,40.58-11a237.53,237.53,0,0,0,37.42-10.27,7.33,7.33,0,0,0,2-.77c18.46-7.11,35.62-17.07,50.22-31.22a167.4,167.4,0,0,0,16.61-19c0,.2,0,.4.05.6C300.79,141.08,300.94,144.86,300.94,148.69Z"/><path class="cls-2" d="M204.45,265.12c-14.75,8.06-28,19.24-37.75,32.9,1-.1,2-.21,3-.34,1.8-.23,3.58-.49,5.36-.78q4-.64,8-1.52,2.28-.5,4.53-1.08h0a148.11,148.11,0,0,0,27.9-10.07,150.38,150.38,0,0,0,41-28.92q4.15-4.12,8-8.55,2.16-2.49,4.2-5.09C246.71,247.82,224.49,254.17,204.45,265.12Z"/><path class="cls-3" d="M60.72,269.3q-3.54-2.64-6.91-5.45c-3.57-3-7-6.09-10.18-9.32a148.92,148.92,0,0,1-26.92-37c-.43-.83-.85-1.65-1.26-2.49A150,150,0,0,1,3.66,181.61C2.82,177.8,2.1,174,1.54,170.09A149.84,149.84,0,0,1,13.12,87.22q2.76-6.14,6.11-12.09A152.09,152.09,0,0,1,29.57,59.22q2.74-3.7,5.66-7.19A149.14,149.14,0,0,1,76.51,17.79C77.9,17,79.3,16.23,80.7,15.5l.08,0q-4.05,5.88-7.5,12T67.16,39.53a150.1,150.1,0,0,0-11.58,82.88q.84,5.79,2.13,11.51a150.72,150.72,0,0,0,11.78,33.47c.42.83.82,1.65,1.25,2.48a149.3,149.3,0,0,0,26.93,37q4.83,4.84,10.18,9.33,3.36,2.81,6.92,5.44c3.07,2.27,6.19,4.42,9.37,6.42a149.37,149.37,0,0,0,21.37,11.21q6.23,2.65,12.58,4.7a148.43,148.43,0,0,0,18,4.59q6.25,1.2,12.55,1.85A150.68,150.68,0,0,0,228,249.26c2-.31,3.95-.67,5.9-1.06a150,150,0,0,0,39.71-14c-.92,1.32-1.86,2.64-2.83,3.94a151.07,151.07,0,0,1-14.94,17.28,149.68,149.68,0,0,1-76,40.47q-2.94.6-5.9,1.08a151.1,151.1,0,0,1-39.41,1.1c-4.19-.43-8.39-1-12.55-1.84a147.48,147.48,0,0,1-18-4.59c-4.23-1.37-8.44-2.93-12.58-4.7a150.49,150.49,0,0,1-21.38-11.21C66.93,273.71,63.79,271.58,60.72,269.3Z"/></g></g></g></svg>