<svg xmlns="http://www.w3.org/2000/svg" viewBox="0 0 1187.65 540.33"><defs><style>.cls-1,.cls-2,.cls-4{fill:#01587f;}.cls-1,.cls-5{opacity:0.3;}.cls-2,.cls-3{opacity:0.6;}.cls-5{fill:#4038e2;}</style></defs><g id="Layer_2" data-name="Layer 2"><g id="Layer_1-2" data-name="Layer 1"><path class="cls-1" d="M687,65.19A42.11,42.11,0,0,0,629.27,47.1,42.1,42.1,0,0,0,580.17,36a42.08,42.08,0,0,0-76,25c0,1.15.05,2.29.14,3.42h-.14a33.17,33.17,0,1,0,22,58,42.09,42.09,0,0,0,73.38,11.35,42.09,42.09,0,0,0,58.7-8.45,42.07,42.07,0,0,0,12.5-4.91A29.91,29.91,0,1,0,687,65.19Z"/><path class="cls-1" d="M1187.65,138.12V257.51a42.14,42.14,0,0,1-33.87-10.36,42.09,42.09,0,0,1-56.59-2.22,42.08,42.08,0,0,1-65.71-28.4c-.72,0-1.43-.08-2.15-.17a33.16,33.16,0,1,1,20.83-61.4A42.08,42.08,0,0,1,1118,139a42.08,42.08,0,0,1,69.61-.91Z"/><path class="cls-1" d="M463.21,179.12a42.11,42.11,0,0,0-56.46-39.56,42.08,42.08,0,0,0-68,15.53,42.13,42.13,0,0,0-47.3,25.85,42.09,42.09,0,0,0,21.39,81.34,42.09,42.09,0,0,0,74.57,16A48.35,48.35,0,0,0,443,258.11a42.08,42.08,0,1,0,20.21-79Z"/><path class="cls-1" d="M285.31,113.08A29.91,29.91,0,0,0,255.4,83.17a31.91,31.91,0,0,0-3.8.24,42.09,42.09,0,0,0-73.53-5.48,42.12,42.12,0,0,0-58.3,21,33.17,33.17,0,1,0-20.68,62.8,42.09,42.09,0,0,0,66.49,12,42.15,42.15,0,0,0,40,3.15A42.08,42.08,0,0,0,272.63,143a41,41,0,0,0-.33-5.23A29.86,29.86,0,0,0,285.31,113.08Z"/><path class="cls-1" d="M840.3,219.36a29.92,29.92,0,0,0-33.7-29.66,42.09,42.09,0,0,0-73.54-5.49,42.11,42.11,0,0,0-58.29,21A33.18,33.18,0,1,0,654.09,268a42.08,42.08,0,0,0,66.49,12,42.12,42.12,0,0,0,40,3.16,42.08,42.08,0,0,0,67.09-33.84,43.11,43.11,0,0,0-.33-5.24A29.88,29.88,0,0,0,840.3,219.36Z"/><path class="cls-1" d="M1015.35,62.48c0-.5,0-1,0-1.52a42.09,42.09,0,0,0-55.76-39.8,42.09,42.09,0,0,0-65.16-9.91,42.09,42.09,0,0,0-65.27,10.11,33.17,33.17,0,1,0-17.73,62.93,42.08,42.08,0,0,0,63.11,36.32,42.12,42.12,0,0,0,42.92-.5,42.07,42.07,0,0,0,69.57-6.83,29.91,29.91,0,0,0,28.29-50.8Z"/><path class="cls-1" d="M186.67,289.83a29.93,29.93,0,0,1-37.93,28.81,42.09,42.09,0,0,1-69.58,6.84,42.13,42.13,0,0,1-42.91.49,42.21,42.21,0,0,1-36,2.89V215.4a42.05,42.05,0,0,1,55.91,1.22,42.07,42.07,0,0,1,65.16,9.91,42.09,42.09,0,0,1,55.76,39.8c0,.5,0,1,0,1.51A29.85,29.85,0,0,1,186.67,289.83Z"/><path class="cls-2" d="M390.39,91a27.15,27.15,0,0,1-5.13,2.6,47.94,47.94,0,0,1-17.42,3,53.26,53.26,0,0,1-25.5-7c-7.38-2.65-14.59-5.8-22.16-7.84a86.41,86.41,0,0,0-38.48-1.65,85.54,85.54,0,0,0-20.79,6.8,10.51,10.51,0,0,0-5.67,10.79A25.78,25.78,0,0,1,258.38,96a35.91,35.91,0,0,1,18-2.74c1.39.12,2.76.31,4.13.53a76.45,76.45,0,0,1,15.27,1.29,90.08,90.08,0,0,1,17.26,5q2.52,1.05,5,2.24c7.12,2.34,14,5.35,21.15,7.68,10.21,3.34,21.29,5.26,31.95,3a38.18,38.18,0,0,0,17.49-8.51C392.36,101.18,393.4,95,390.39,91Z"/><path class="cls-2" d="M867,134.15a35.13,35.13,0,0,0-17-9.7,55.55,55.55,0,0,0-20.6-.67c-5.68.74-11.23,2.21-16.82,3.48A147.07,147.07,0,0,1,796.85,130a146.59,146.59,0,0,1-35.76-1A144.45,144.45,0,0,1,729,119.51a5.37,5.37,0,0,0-1.16-.33c.16.43.31.88.44,1.33s.3,1,.46,1.48a35.94,35.94,0,0,0,2.69,5.05,42.12,42.12,0,0,0,4.71,5c1.34,1,2.73,2,4.16,2.88l.26.12a67.15,67.15,0,0,0,13.51,3.59c17.06,1.86,34.21-1.24,51.3-1.34a46.38,46.38,0,0,1,8.18-1.05A99,99,0,0,1,826.71,134a46.2,46.2,0,0,1,12.9.41A65.69,65.69,0,0,1,854,136.07a50.77,50.77,0,0,1,10.34,3.35c1.27.57,2.5,1.14,3.7,1.74l1.65-.17A9.5,9.5,0,0,0,867,134.15Z"/><path class="cls-2" d="M349.06,210.32a11.3,11.3,0,0,0-4.82-2.43,54.17,54.17,0,0,1-9.68,12.68c-9.1,8.84-20.64,14.81-32.77,18.29a108.52,108.52,0,0,1-34.48,4,16,16,0,0,1-4.35-.79c-10.72-.39-21.46-1.28-32.14-.24a63,63,0,0,0-16.24,5.68c-2.16,1.09-3.94,3.9-4.52,6.17a11,11,0,0,0,.06,5.16,90.16,90.16,0,0,1,23.23-2.55c10,.36,19.73,2.7,29.61,4l.45.05a151.6,151.6,0,0,0,20.66-.75,101.72,101.72,0,0,0,45.39-16.93,100,100,0,0,0,20-18C352.82,220.58,353.38,214.07,349.06,210.32Z"/><path class="cls-2" d="M1089.53,44.66a34,34,0,0,1-15.88,6.18c-11.07,1.36-21.88-2-32.68-3.83a186.52,186.52,0,0,0-29-2.83,94.73,94.73,0,0,0-20.94,2.66,67.74,67.74,0,0,0-12.61,5.3,63.77,63.77,0,0,0-9.61,7.47l-.63.69.07.16a11.14,11.14,0,0,0,2.48,3.32c11-3.34,22-6.89,33.43-8.34a73.09,73.09,0,0,1,19.82-.1A51.91,51.91,0,0,1,1034.45,58c1,.2,1.93.42,2.9.65,8.31,2.4,16.52,6.17,25.24,6.52,9.84.39,19.22-2.39,25.8-10C1090.8,52.35,1091.05,48.05,1089.53,44.66Z"/><path class="cls-2" d="M1105.69,232.48a109.54,109.54,0,0,1-20,5.35c-6.81,1.16-13.73,2.3-20.65,2.07a67.61,67.61,0,0,1-7.29-.67,159.88,159.88,0,0,1-17-1.65c-18.32-2.68-35.15-10.52-51.08-19.68-4.85-2.31-9.65-4.73-14.49-7-1-.47-2-.94-3.07-1.39a126,126,0,0,0-18.26-5.85A91.65,91.65,0,0,0,924,201.56a58,58,0,0,0-29.91,12,9.65,9.65,0,0,0-3,5.3,35,35,0,0,1,14.64-5.57c13.24-1.88,27,.35,39.57,4.63S969.13,228.64,980.6,235c8.38,3.71,16.74,7.47,25.4,10.36a137.88,137.88,0,0,0,33.36,6.66c2.58-.4,5.18-.78,7.77-1.14,15.39-2.13,31-4,45.77-9a73.84,73.84,0,0,0,13.86-7.07,54.32,54.32,0,0,0,6.78-6.17A36.53,36.53,0,0,1,1105.69,232.48Z"/><g class="cls-3"><path class="cls-4" d="M639,149.7a46.63,46.63,0,0,1-10.15,10,56.21,56.21,0,0,1-17,8.2,59.48,59.48,0,0,1-20.68,2.29c-2.61-.15-5.22-.42-7.82-.78-.33,0-.67.05-1,.06-9.67.21-18.9-1.78-28-4.44l-.78-.12c-14.11-2.35-27.52-7.45-41.19-11.52-4.81-1-9.62-1.9-14.47-2.62a68.63,68.63,0,0,0-14.18-.37,38.31,38.31,0,0,0-5.75,1.51,30.83,30.83,0,0,0-3.47,2,33.13,33.13,0,0,0-3.12,3.15c-.68,1-1.31,2-1.91,3a10.54,10.54,0,0,0,1.43,3.16,75.75,75.75,0,0,1,13.63-2,63.62,63.62,0,0,1,12.55.9,77.78,77.78,0,0,1,9.21,2c.72.12,1.44.26,2.16.41,7,1.45,13.79,4.51,20.35,7.35,5.43,2.35,10.75,4.93,16.1,7.46a75.37,75.37,0,0,0,14.34,3.71,14.08,14.08,0,0,1,4.06.65c15.77,1.82,32,1.42,47.17-3.58a71.53,71.53,0,0,0,28-16.6C642,160,642.47,153.53,639,149.7Z"/></g><path class="cls-2" d="M602.83,66.29a33.38,33.38,0,0,1-10,7,41.81,41.81,0,0,1-10.24,3.36,63.92,63.92,0,0,1-11.3,1A97.45,97.45,0,0,1,551.16,75a199.48,199.48,0,0,1-20.46-6.11c-13.34-3.54-26.21-8.9-39.11-13.75C473.69,48.35,455,42.67,435.65,43a78.38,78.38,0,0,0-33,7.73c-4.12,2-5.92,7.6-4.55,11.9a99.55,99.55,0,0,1,10.59-4.25,53.16,53.16,0,0,1,33.09,0c2.66.88,5.27,1.87,7.85,2.92a78.26,78.26,0,0,1,12.23,4.31c2,.85,4,1.77,5.92,2.7,13.3,4,26.17,9.41,39.21,14.15,18.93,6.88,39.23,12.13,59.51,9.55,11.66-1.49,23.09-5,32.69-12,2.19-1.61,3.91-3.34,4.66-6.06A10.4,10.4,0,0,0,602.83,66.29Z"/><path class="cls-2" d="M1158.24,144.78a149.75,149.75,0,0,1-23.29.71c-14.13-.57-28-3.51-41.48-7.7-1.68-.52-3.35-1.08-5-1.66a32.1,32.1,0,0,1-4.69-1.27c-.2-.06-.4-.14-.6-.22-5.52-.37-10.93-2-16.35-3.14-3.66-.79-7.41-1.07-11.11-1.61-1.59-.24-3.17-.46-4.75-.65a130.34,130.34,0,0,0-13.24,1.6l-.11,0a18.91,18.91,0,0,1-4.35.92,80.37,80.37,0,0,0-12.31,5.32,31.37,31.37,0,0,0-3.54,2.65,24.32,24.32,0,0,0-2.28,3.13c-.08.14-.17.26-.25.39a8.72,8.72,0,0,0,.81,3,11.24,11.24,0,0,0,.87,1.5,39.6,39.6,0,0,1,21.44-7.35,101.42,101.42,0,0,1,25.59,2.29c6.89,1.42,13.68,3.28,20.58,4.68,3.64.74,7.33,1.18,11,1.92,4.66,1,9.28,2.14,13.9,3.3,8.54,2.14,17.16,4.21,26,4.53a53.08,53.08,0,0,0,9.89-1.23,38.47,38.47,0,0,0,5.67-2.35,35.59,35.59,0,0,0,4.3-3.34,38.75,38.75,0,0,0,3.46-4.53l.19-.38Z"/><path class="cls-2" d="M113.63,128.42c-.19.33-.38.66-.59,1a25.05,25.05,0,0,1-1.8,1.77,37.26,37.26,0,0,1-4.77,2.7,59.43,59.43,0,0,1-11,2.87A73.87,73.87,0,0,1,80,136.63c-9.89-1.56-19.46-4.59-29.16-7-4.13-1-8.16-2.43-12.32-3.34l-1.6-.33-.63-.24a17.25,17.25,0,0,0-3.55-.89,49.89,49.89,0,0,0-7.31-.74,49.65,49.65,0,0,0-7.09.71c-.38,0-.76.12-1.13.19h-.53c-5.53,0-11.36.72-16.41,3.15V108.55c.54-.12,1.07-.23,1.62-.33,10.9-2,21.73-1,32.33,1.55,9.73,4.27,19.28,9,29.23,12.74C73.74,126.43,85,127.8,96,127.74c5.71,0,11.42-.41,17.12-.7a10,10,0,0,1,.48,1.2C113.6,128.3,113.61,128.36,113.63,128.42Z"/><rect class="cls-5" y="527.89" width="1187.42" height="12.44"/></g></g></svg>