<svg xmlns="http://www.w3.org/2000/svg" viewBox="0 0 1187.42 527.83"><defs><style>.cls-1,.cls-2{fill:#00b77c;}.cls-1,.cls-3{opacity:0.3;}.cls-2{opacity:0.6;}.cls-3{fill:#00b97c;}</style></defs><g id="Layer_2" data-name="Layer 2"><g id="Layer_1-2" data-name="Layer 1"><path class="cls-1" d="M761.17,39a74.39,74.39,0,0,1-3.52,7.54,80.27,80.27,0,0,1-10.3,12.58,102.6,102.6,0,0,1-14,9.87,151.67,151.67,0,0,1-21.51,8.76A251.73,251.73,0,0,1,672.68,85c-24.87,2-50.06,1.44-74.88-.73Q583,82.72,568.3,80.47c-12.43-1.9-24.65-4.38-37.15-6-31.71-4.24-64.1-5.86-96.19-3a481,481,0,0,0-85,15c-27.24,7.47-53.53,16.44-79.58,25.76-27.1,9.69-54.09,19.55-82,28-34.54,10.1-71,18.34-108,22.26a270.33,270.33,0,0,1-41.82.45A170.6,170.6,0,0,1,15,158.48a133,133,0,0,1-15-6V69q8.64.6,17.32,1A366.56,366.56,0,0,0,70.83,75.8C105,77,139.6,73.49,172.74,67.86c31.7-5.4,62.55-13,93-21.11,15-4,29.83-8.07,44.74-12.11,15.61-4.22,31.63-7.75,47.31-11.86C391.42,14,425.19,4.93,460.72,1.05A265.8,265.8,0,0,1,501.61.58c24,2.84,46.46,9.53,69.24,15.42,16.94,4.37,34.29,8.1,51.47,12,17.43,4,35,7.63,53,10.28,19.86,2.95,41,5.43,61.32,4A167,167,0,0,0,761.17,39Z"/><path class="cls-1" d="M1187.42,116.3v28.43a558.78,558.78,0,0,0-74.73-27.23c-27.11-7.9-55.28-14.45-84.42-14.07-23.92.31-47.88,4.13-70.72,9.58-25,6-49.13,13.92-73,22.1-23.21,7.94-46.13,16.36-69.34,24.29-2.16.74-4.33,1.46-6.49,2.19-25.17,8.33-50.87,16-77.5,20.77q-9.4,1.71-18.93,2.85a221.85,221.85,0,0,1-39.34.34,164,164,0,0,1-27.82-6A150,150,0,0,1,620.31,168a164.21,164.21,0,0,1-18.48-13.85,26.84,26.84,0,0,1,.8-3.89c2.6.36,5.23.59,7.82.82,7.35.68,15-.22,22.17-1.48a112.68,112.68,0,0,0,16-4.22c7.31-2.44,14.47-5,21.57-7.8l2.16-.85,1.08-.29c8.38-2.34,16.63-4.95,24.89-7.54.16,0,.32-.05.48-.06a22.44,22.44,0,0,0,5.75-1.89c3.79-1.18,7.59-2.35,11.42-3.46,6.87-2,13.88-3.64,20.7-5.76C748,114.26,759,110.34,770,106.19c9.27-3.54,18.46-7.22,27.68-10.86L804,93.48c18.93-5.57,37.72-11.42,56.67-17l4-.46c3.23-.39,6.44-.94,9.6-1.6,6.76-1.41,13.36-3.28,19.88-5.24,13.12-3.94,26.17-8.42,40-10.57,6.27-1,12.6-1.79,18.93-2.5,7.69-.76,15.44-1.3,23.19-1.48q4.63.24,9.24.65c27.22,3.33,53.16,11.15,78.51,19.44,6,2,12,4,18.06,6,18,6.17,35.37,13.26,53.21,19.62C1152.16,106.38,1169.48,112.29,1187.42,116.3Z"/><path class="cls-1" d="M506.25,190.2c-.21,1.09-.46,2.19-.77,3.28-1.71-.1-3.41-.17-5.09-.22-13.42-.37-27.17,1.32-40.21,3.44-21.71,3.53-43,8.9-64.12,14-57.34,13.75-113.51,30-171.53,42.27a895.14,895.14,0,0,1-96.34,15.48l-10.33.94,4.64-.45c-39.4,3.76-79.28,4.45-118.76,1L0,269.51V217.9c4.73.26,9.46.44,14.16.54,21.42.46,42.66-1,63.83-3.21,36-3.69,70.37-12.86,103.75-22.85,20-6,39.8-12.26,59.76-18.28,32.61-9.67,66.19-18.36,101.23-22.14a387.07,387.07,0,0,1,64.33,0A296.21,296.21,0,0,1,455.38,161a185.12,185.12,0,0,1,28.51,11.64A119.77,119.77,0,0,1,501.34,185Q503.92,187.51,506.25,190.2Z"/><path class="cls-1" d="M1187.42,188.27v47.79c-18.44,1.09-36.75,4.83-54.8,8.41-10,2-20.06,3.94-30.17,5.43a258.16,258.16,0,0,1-61.43-.32A224.7,224.7,0,0,1,990.53,236a243.39,243.39,0,0,1-47.78-28.46q-5.31-4.2-10.43-8.6c.19-1.48.39-2.95.59-4.43l.06-.21a342.68,342.68,0,0,0,35,6.66,436.55,436.55,0,0,0,48.45,4.31,355.39,355.39,0,0,0,42-1.32,341.41,341.41,0,0,0,46.3-7.16c6.85-1.6,13.62-3.53,20.49-5q8.6-1.87,17.28-3.18a194.51,194.51,0,0,1,44.14-.46Z"/><path class="cls-2" d="M1187.42,161.37v11.79c-16.61-2.59-32.24-7.57-48.41-11.34-19.4-4.53-39.26-8-59.28-10.79-17.9-2.49-36-4.72-54.26-5.2-7.68-.21-15.39-.11-23.05.35a268.14,268.14,0,0,0-29.54,3.24,173,173,0,0,0-29.64,8,92.6,92.6,0,0,0-9.53,4.09,10.86,10.86,0,0,1-2.78-2.55,263.6,263.6,0,0,1,28-10.75,290.18,290.18,0,0,1,48.54-9.43,432.88,432.88,0,0,1,65.12-.19q2.77.18,5.52.39,6.66,1.09,13.2,2.45c29.72,6.16,58,16.22,88.81,19.49C1182.57,161.11,1185,161.27,1187.42,161.37Z"/><path class="cls-2" d="M678.63,104.85l-2.87.76c-6.92,1.57-14.13,2.79-21.5,3.71A337.75,337.75,0,0,1,620.17,111c-23.32-.23-45.79-2.38-68.26-4.28-22.14-1.87-44.4-3.21-67.38-3.3a806.22,806.22,0,0,0-139.62,11.41q-3.89.67-7.74,1.39l-2.85.64A324.53,324.53,0,0,0,298.48,128a158,158,0,0,0-19.49,9.7,72.77,72.77,0,0,0-7.49,5.88,28.9,28.9,0,0,0,4.79.87c6.24-2.76,13-5.37,20-7.7a378.52,378.52,0,0,1,40.94-10.53c12.19-2.54,24.8-4.61,37.56-6.26,15.09-2,30.43-3.64,45.8-4.61q8.32-.54,16.63-.74c15.39-.78,30.82-.73,45.92-.14,20.75.8,40.79,2.88,61,4.64,5.2.19,10.37.46,15.53.75,11.45.65,22.86,1.44,34.42,1.88q3.23,0,6.31.21l3.71.08c10.65-.13,21.42-.78,32-1.85,7.82-1,15.49-2.3,22.89-3.92,5.17-1.37,10.11-2.91,14.78-4.62a115.12,115.12,0,0,0,12-6.09,27.74,27.74,0,0,1,3.29-2.22A41.1,41.1,0,0,0,678.63,104.85Z"/><path class="cls-2" d="M909.34,281.63c4.79.93,9.58,1.83,14.37,2.74,22.95,4.33,46,8.59,68.43,16.88l.87.35c19.32,4.34,38.58,9.25,58,12.64,25.18,4.4,50.79,6.11,75.45,1.18,1.49-.3,3-.63,4.45-1a112.18,112.18,0,0,0,19.66-12.25,79,79,0,0,0,9.4-10.48,72.72,72.72,0,0,0,4.58-9.23q1-3.48,1.67-7.07a13.92,13.92,0,0,0-2.13-1.43c-8.29,7.23-16.68,14.58-26.29,19.49-6.25,3.2-12.88,6.15-19.73,7.66a116.07,116.07,0,0,1-20.91,2.28,145,145,0,0,1-29.88-2.55c-12.32-2.17-24.56-5-36.78-8-9.75-2.43-19.51-4.93-29.32-6.87l7,1.38c-6.83-1.33-13.64-2.77-20.47-4.14q-9-1.74-18.1-3.21c-23.52-3.75-47.24-5.78-70.62-3.78q-4.21.52-8.38,1.25C896.85,279,903.09,280.37,909.34,281.63Z"/><path class="cls-2" d="M239.26,276.39c0,.34,0,.69,0,1-.15.66-.33,1.31-.53,2s-.66,1.17-1,1.73a41.61,41.61,0,0,1-3,2.94,71.21,71.21,0,0,1-9.69,5.42c-15.48,5.94-32.08,8.52-48.4,11-4.4.65-8.79,1.39-13.19,2.05-21.66,2.55-43.48,2.06-65.27,2.41a379.93,379.93,0,0,0-71.85,8A177,177,0,0,0,7.23,318L0,318.12V305.21a266.08,266.08,0,0,1,47.26-11.37c11.89-1.45,23.85-2.22,35.83-2.55,13.57-.37,27.12,0,40.69,0a365.89,365.89,0,0,0,84.82-9.81c9.59-2.27,19.06-5,28.42-8A12.16,12.16,0,0,1,239.26,276.39Z"/><path class="cls-2" d="M787.67,229.69a234.81,234.81,0,0,0-33.17-12.58,216.43,216.43,0,0,0-26.58-4.85c-7.84.26-15.68.81-23.49,1.45-17.69,1.59-35.38,3.34-53.22,3.95q-4.62,1.36-9.28,2.67A508.12,508.12,0,0,1,558.25,235a549.39,549.39,0,0,1-88.13,0l-1.83-.17c-12.06-.45-24.13-1.41-36-2.79q-8.62-1-17-2.6a23.25,23.25,0,0,0-8.38,3.49A36.73,36.73,0,0,1,417.55,237,27.29,27.29,0,0,1,427.69,244a77.17,77.17,0,0,0,7.21,4.6,128.25,128.25,0,0,0,13.66,5,226.94,226.94,0,0,0,28.68,4.76,426.06,426.06,0,0,0,61.47-.56q6.79-.66,13.55-1.48a429,429,0,0,0,55.09-10.13c14.13-3.92,28.15-8,42.35-11.82,11.56-3.1,23.32-5.95,35.45-8q9-1.51,18.22-2.35c9.52-.86,19-1.73,28.6-1.67a179.43,179.43,0,0,1,44.1,5.4c5.19,1.35,10.34,2.81,15.59,4.08C790.34,231.12,789,230.4,787.67,229.69Z"/><rect class="cls-3" y="514.65" width="1187.42" height="13.19"/></g></g></svg>