<svg xmlns="http://www.w3.org/2000/svg" viewBox="0 0 1187.42 569.93"><defs><style>.cls-1,.cls-3,.cls-4{fill:#00587f;}.cls-1,.cls-5{opacity:0.3;}.cls-2,.cls-4{opacity:0.6;}.cls-5{fill:#4038e2;}</style></defs><g id="Layer_2" data-name="Layer 2"><g id="Layer_1-2" data-name="Layer 1"><path class="cls-1" d="M65.64,291.24c6.73,6.66,22.68,14.86,25.76,2.69,3.51-13.9.19-28.14,2.29-41.94l.32.55c2.34-18.36,10.43-35.73,19.17-52l-5.24,9.76c11.69-22.46,29.57-42,53.61-51.14a17.44,17.44,0,0,1-5.22,2.38c30.57-13.06,71.95-3.06,84.45,31.54a31,31,0,0,1,2.25,11.2l-1,9.45c-.56,4-2.85,7.6-4.6,10.85a28.37,28.37,0,0,1-11.22,9.64,7.94,7.94,0,0,0,3.59-1.4c-9,4.65-18-1.79-27,.58-7.83,1.71-5.9,12.37-1.57,17.16a39.13,39.13,0,0,0,6.61,4.91,26.89,26.89,0,0,0,9.89,3c3.15.34,6.52-.2,9.34-.41l7.51-2.26,9.25-5.51a46.5,46.5,0,0,0,11-12.47c4.26-7.7,6.24-15.52,7.25-25a34.69,34.69,0,0,0-.52-10.76c-1.59-13.81-8.4-25.24-16.85-35.69-2.81-3.49-6.39-5.78-9.75-8.94-4.78-3.06-8.68-5.9-13.67-8.08a89.93,89.93,0,0,0-21-6.69,127.15,127.15,0,0,0-14-1.24c-28,1.23-53.61,9.09-80.15,19-23.82,8.3-42,23.57-58.58,41.56a83.13,83.13,0,0,0-10.81,15.29c-5.68,11.51-9.73,22-11.94,34.42-.77,4.89-2.09,10.1,0,14.78,1.3,2.18,4,4.25,4.76,6.75a15.12,15.12,0,0,0,4-6.84,2.21,2.21,0,0,0,1.19.77c5-8.9,2.57-22.92,13-27.68a137.25,137.25,0,0,0,6.85,35.28A64.93,64.93,0,0,0,65.64,291.24Z"/><path class="cls-1" d="M906.91,211.62c-5.63-8.56-10.91-27.24,2.65-27.9,15.5-.76,29.9,5.82,45,6.54l-.51-.46c20,1.45,40.13-3.41,59.27-9.2l-11.48,3.47c26.33-7.6,50.85-22.39,65.73-45.93a18.73,18.73,0,0,0-3.64,5c20.4-29.64,18.64-75.67-15.39-96.35a33.75,33.75,0,0,0-11.4-4.78l-10.24-1c-4.38-.27-8.67,1.4-12.5,2.55-4.75,2.18-9.45,5.32-12.62,9.84A8.64,8.64,0,0,1,1004,50c-6.86,8.58-2,19.51-6.38,28.47-3.49,7.93-14.39,3.61-18.54-2a41.38,41.38,0,0,1-3.8-8.07,29.37,29.37,0,0,1-1-11.12c.31-3.41,1.6-6.87,2.43-9.83l4-7.47,7.84-8.64a50.12,50.12,0,0,1,15.58-9c9.08-2.87,17.8-3.3,28-2.34a37.44,37.44,0,0,1,11.31,2.85c14.3,4.64,25,14.31,34.26,25.51,3.09,3.73,4.76,8,7.39,12.26,2.22,5.72,4.4,10.47,5.65,16.23a98.39,98.39,0,0,1,2.61,23.67,138.53,138.53,0,0,1-1.69,15.13c-7.3,29.49-21.11,54.92-37.32,81-13.9,23.49-34,39.53-56.63,53.25A89.69,89.69,0,0,1,979.22,258c-13.42,3.57-25.46,5.61-39.07,5.3-5.35-.22-11.16.06-15.69-3.11-2-1.85-3.65-5.17-6.14-6.5a16.44,16.44,0,0,1,8.11-2.83,2.41,2.41,0,0,1-.55-1.42c10.51-3.43,24.87,2.18,32.14-7.88a149.15,149.15,0,0,1-36-14.82A70.79,70.79,0,0,1,906.91,211.62Z"/><path class="cls-1" d="M314.9,159.8c8,3.92,15.9,13.06,25,9.4-21.94-31.08-32.91-78,.61-106a43.38,43.38,0,0,1,25-10.36c3.66-.61,6.71,0,10.36.61a22.37,22.37,0,0,1,10.36,6.09c2.44,3,4.88,6.1,3.05,9.76-8.53,15.23-15.23,37.17,4.27,46.92,3,1.22,6.09,3,9.14,3,5.48,0,11,.61,15.84-1.22a47.67,47.67,0,0,0,20.11-14.63,38.59,38.59,0,0,0,4.88-8.53,54.59,54.59,0,0,0,3-26.2c-4.88-37.79-43.88-60.34-80.45-54.24a97.69,97.69,0,0,0-12.8,3c-22.54,7.93-41.44,21.33-57.28,39.62C286.92,68.65,282.65,81.44,279,95.46c-.61.61-.61,3.66,0,2.44C293.62,75.35,307,52.8,327.75,37,297.89,62.55,283.26,108.87,304,145A57,57,0,0,0,314.9,159.8Z"/><path class="cls-1" d="M428.68,227.31c-14.8,19.52-14.34,50.45,8.74,63.68a54.84,54.84,0,0,0,11.14,4.43,43.85,43.85,0,0,0,15.58.39,47,47,0,0,0,15.06-6c4-2.67,7.33-5.86,11.25-9.16a55.25,55.25,0,0,0,8.07-12.45c2.61-6.93,4.71-13.13,4.71-20.23-.13-36.15-29-63.2-63.29-67.28-5.34-1-11,.06-16.2-.28-14,1.26-26.65,6.15-38.25,13.43a114.07,114.07,0,0,0-38.23,41.85c-7.84,13.7-11.08,27.85-10.84,43.31.91,19.21,6.72,36.89,18.43,51.55,3.18,3.3,5.12,6.82,8.64,9.44a65.29,65.29,0,0,0,11,9.13,46.44,46.44,0,0,0,21.91,9,46.64,46.64,0,0,0,12.08,2.11c4.08.16,6.1-.35,5.78-1.45-43.94-28.49-73.06-89.07-35-135.41,8.52-10,19.61-16.49,31.77-20.64,4.88-1.54,10-1.83,15-2.74,4.38-.8,9.1.28,13.81,1.36,6.09,1.48,15.13,5,15.92,9.37.52,6.37-11.42,4.67-17.39,8.18A32.85,32.85,0,0,0,428.68,227.31Z"/><path class="cls-1" d="M881.17,349.41c-38.37,7.95-81.42-19.89-79.62-62.78A56.2,56.2,0,0,1,804,274.28a85.08,85.08,0,0,1,7.51-14.41A43.54,43.54,0,0,1,824.31,249a35.17,35.17,0,0,1,13.54-4.1,49.69,49.69,0,0,1,11.44,1c3.15,1.17,6.3,2.34,8.86,5.09.5,1.08,1.74,2.08,2.23,3.16.58,1.83,1.23,4.4-1.34,5.06-14.95,5-27.69,20-17.7,35.53a15.83,15.83,0,0,0,5.95,6.16c1.66,1.33,3.39,3.41,5.71,3.91a36.62,36.62,0,0,0,27.47-1.07c5.4-2.47,8.73-6.61,12-11.49a45.33,45.33,0,0,0,6.78-17.73c2.13-18.75-7.27-35.87-23-45.12a77.13,77.13,0,0,0-9.94-4.6c-9.36-2.77-19.31-4-29.27-1.75a51.82,51.82,0,0,0-10.22,3.37,62.24,62.24,0,0,0-18.7,12.21C796,249.45,790.75,263.62,788.63,279c-1.62,13,.83,25.22,6.27,37.1,13.52,27.26,41.18,42,68.43,53.07A66.12,66.12,0,0,0,883.4,373a78.38,78.38,0,0,0,13.19-.29c5.56-1,10.79-1.55,16.19-4,6.06-3.3,11.8-6.18,17-10.89a36,36,0,0,0,6.66-8.28c1.84-4,2.93-7.87,1.7-12.27-.58-1.83-1.5.16-3.4,0-8.38-.61-34.87,6-39.78,7.77A102,102,0,0,1,881.17,349.41Z"/><path class="cls-1" d="M1123.05,203.71c39,45.59,61.54,127.78,2.36,166.75,34.23-23.14,43.7-72.95,20.86-107.71-5-7.2-10.29-13.88-17-19.28a53.66,53.66,0,0,0-15.07-8.17l-1.24,2.11c22.81,31.19,34.93,78.1,1.69,106.8-5.52,4.56-11.17,6.91-18,10-5.65,2.35-11.42,2.5-16.87,2.13-8.19-.57-16.19-3.86-21.49-10.53-1.49-2.3-3.51-4.91-3.84-7.95-.65-2.51-.25-4.4.47-6.82.62-1.06,1.77-1.8,2.39-2.85,2-1,4.81-2.14,6.39-1.21,10.51,2.65,22.52-4.48,22.44-15.18a23,23,0,0,0-3.13-10.37c-3.5-4.9-7.62-8.75-12.68-11a40.55,40.55,0,0,0-23.42-2.43c-2.82,1.17-5.86,1.51-8.68,2.69-9.41,5.11-16.48,12.3-20.49,22.72-2.68,7-3.15,13.77-3.09,20.91,2.34,29.78,27.57,49.62,54.46,53.39,16.6,2,32.85.89,48.43-6.26a80,80,0,0,0,40.2-38.09c7-14.33,12.46-29.59,14.43-46.18,3.43-29.93-7.53-62-29.32-84-5.39-5.3-12.34-8-19.14-10.95C1121.94,201.73,1121.57,202.14,1123.05,203.71Z"/><path class="cls-1" d="M739,288.52c-71.56,8-168.46-24.95-167.32-110-.07,49.62,43.06,92.59,93,93.32,10.51-.11,20.72-.88,30.64-4a64.39,64.39,0,0,0,18.28-9.47l-1.26-2.66C666,257.37,611.2,237.81,605.08,185.43c-.81-8.56.66-15.76,2.16-24.6,1.47-7.19,5.21-13,9.26-18.2,6.08-7.76,14.74-13.49,25-14.26,3.28.07,7.23-.18,10.48,1.53,2.94,1,4.54,2.73,6.47,5.07.62,1.33.59,3,1.22,4.3-.38,2.62-1.12,6.22-3.11,7.16-9.71,8.67-10.72,25.41,0,32.53,3.56,2.38,8.14,3.46,12.41,3.88,7.23-.18,13.83-1.68,19.49-5.18A48.68,48.68,0,0,0,706.59,156c.73-3.6,2.44-6.85,3.17-10.45,1.26-12.79-1.12-24.67-8.77-35.67-5.11-7.34-11.57-12.41-18.7-17.16-31.17-17.74-67.9-6-89.77,18.15-13.13,15.17-23,32-26.41,52.35a96,96,0,0,0,10.78,65.62c9.5,16.64,21,32.32,36.17,45.46,27.43,23.58,66.64,34.27,103.26,27.48,8.91-1.78,16.25-6.88,23.79-11.64C741.75,288.75,741.59,288.1,739,288.52Z"/><path class="cls-1" d="M805.18,134.34c-3.64,16.91,7.26,35.22,24.43,39a2.73,2.73,0,0,0,1.38-.87c6-21.4,21.23-41.13,41.59-49.68,7.39-2.9,15.42-3,23.24-5.17,12.06-3.72,24-1.22,35.79-.17-6.83-13.95-27.91-16.66-42.78-19.24C874.37,96,860.58,97,846.28,100.17c-7.49,1.82-14.09,5.38-21.44,8.65-3.88,1.47-6.93,4-9.94,6.8-4,4-5.71,9-8.38,13.57A17.7,17.7,0,0,0,805.18,134.34Z"/><path class="cls-1" d="M723.52,34.24c-11.84-.2-22.67,9.55-22.95,21.59a1.88,1.88,0,0,0,.76.81c15.16,1.16,30.43,8.77,38.87,21.3,2.94,4.57,4,10,6.56,14.91,4.11,7.6,4,15.94,4.88,24,8.45-6.44,7.47-20.95,7.22-31.27a76.47,76.47,0,0,0-6.94-28.3c-2.22-4.79-5.49-8.74-8.66-13.25a20.59,20.59,0,0,0-5.89-5.76c-3.24-2.14-6.77-2.64-10.22-3.82A11.74,11.74,0,0,0,723.52,34.24Z"/><path class="cls-1" d="M149.57,83.55c-5.75,6.14-5.79,16.5.41,22.39a1.34,1.34,0,0,0,.79,0c7.84-7.42,19.14-11.82,29.77-10.29,3.8.64,7.16,2.64,11,3.67,6,1.47,10.3,5.5,14.95,8.89.65-7.52-7.46-13.93-13-18.73a54.48,54.48,0,0,0-18.22-9.86c-3.58-1.11-7.22-1.28-11.1-1.76a14.42,14.42,0,0,0-5.84.35c-2.68.68-4.62,2.3-6.89,3.55A8.94,8.94,0,0,0,149.57,83.55Z"/><path class="cls-1" d="M1149.19,162.56c-8.66,7.71-23,7.41-30.85-1.34a1.86,1.86,0,0,1,0-1.09c10.51-10.56,17-26,15.23-40.7-.75-5.27-3.38-10-4.67-15.27-1.82-8.26-7.22-14.4-11.74-20.93,10.4-.63,19,10.77,25.38,18.59a74.84,74.84,0,0,1,13,25.46c1.42,5,1.52,10,2,15.37a20.34,20.34,0,0,1-.68,8c-1,3.66-3.34,6.29-5.15,9.37A12,12,0,0,1,1149.19,162.56Z"/><path class="cls-1" d="M283.11,301.44c1.32-9.59-5.53-19.34-15.27-20.75a1.52,1.52,0,0,0-.74.54C264.68,293.42,257,305.07,246,310.7c-4,1.93-8.48,2.29-12.75,3.86-6.57,2.58-13.34,1.69-20,1.6,4.4,7.5,16.27,8.12,24.67,8.94a62.5,62.5,0,0,0,23.66-2.87c4.11-1.33,7.64-3.59,11.6-5.73a16.85,16.85,0,0,0,5.26-4.21c2.06-2.42,2.81-5.24,4.1-7.93A9.6,9.6,0,0,0,283.11,301.44Z"/><path class="cls-1" d="M216.22,22.42c9.19-7.36,23.64-6.29,31.19,3a1.88,1.88,0,0,1-.11,1.1C236.09,36.66,228.72,52,229.71,66.94c.48,5.38,2.89,10.28,3.92,15.72,1.4,8.47,6.55,15,10.78,21.83-10.57.08-18.63-11.92-24.72-20.18a76.16,76.16,0,0,1-11.77-26.48c-1.17-5.12-1-10.22-1.25-15.69A20.28,20.28,0,0,1,207.79,34c1.24-3.66,3.71-6.2,5.71-9.23A12.1,12.1,0,0,1,216.22,22.42Z"/><path class="cls-1" d="M20.47,306.71c-.72-8.49,5.75-16.75,14.38-17.54a1.45,1.45,0,0,1,.62.51c1.57,10.83,7.79,21.42,17.19,26.87,3.43,1.88,7.35,2.41,11,4,5.66,2.57,11.64,2.1,17.46,2.32-4.21,6.39-14.67,6.39-22.09,6.72A55,55,0,0,1,38.4,326c-3.55-1.36-6.54-3.51-9.93-5.57A14.91,14.91,0,0,1,24,316.45c-1.69-2.22-2.22-4.73-3.24-7.15A8.47,8.47,0,0,1,20.47,306.71Z"/><path class="cls-1" d="M582.38,329.54c-7.88,3.24-17.7-.45-21-8.44a1.47,1.47,0,0,1,.3-.75c9.85-4.75,18.09-13.86,20.46-24.47.76-3.84.08-7.73.48-11.72.75-6.16-1.5-11.73-3-17.35,7.35,2.1,10.5,12.08,13.05,19.05a55.05,55.05,0,0,1,2.77,20.79c-.23,3.79-1.38,7.3-2.33,11.15a14.71,14.71,0,0,1-2.43,5.4c-1.61,2.29-3.84,3.55-5.85,5.24A8.56,8.56,0,0,1,582.38,329.54Z"/><g class="cls-2"><path class="cls-3" d="M165.07,129.93h0C164.45,130,162.86,130.19,165.07,129.93Z"/><path class="cls-3" d="M215.66,134c3.2.86,6.38,1.84,9.5,3,.65.23,1.31.47,2,.72.1,0,1.61.65.65.25l.49.2c1.52.63,3,1.29,4.51,2a89,89,0,0,1,8.13,4.32l.47.29,1.08.69c.57.38,1.14.76,1.7,1.15,1.4,1,2.76,2,4.1,3.05a59.53,59.53,0,0,1,12.6,13.4c.78,1.14,1.52,2.29,2.23,3.46,3.65,3.58,6.34,8.15,9,12.43,4.69,7.56,7.38,16.14,10.06,24.54a142.73,142.73,0,0,1,5,21.69A164.28,164.28,0,0,1,289,243.4c4.57-24.48,5.3-51.47-6.54-74-13.53-25.71-41.78-38.17-69-43.51a203.87,203.87,0,0,0-80.94.85,212.79,212.79,0,0,0-72.33,29.79,204.3,204.3,0,0,0-28.79,22.74L29.44,182c-2.35,3.34-4.79,6.55-7.35,9.67a128.18,128.18,0,0,0-5.61,17c-.81,4.38-1.39,8.78-1.77,13.21a4.46,4.46,0,0,0,2.94-1.51,183.42,183.42,0,0,1,22.24-29.27q6.34-6.83,13.33-13,3.41-3,6.94-5.86c2-1.6,4.1-3.23,6.63-5.06a203,203,0,0,1,31.58-18.92q4.22-2,8.51-3.87l2-.86.65-.26.4-.16q2.28-.92,4.58-1.77,8.53-3.16,17.31-5.57,4.5-1.23,9.06-2.24l.51-.14.27,0,2.17-.44c1.6-.32,3.21-.61,4.82-.89,3-.51,6-1,9-1.33,1.46-.18,2.92-.35,4.39-.49q1.09-.12,2.19-.21c.33,0,.66-.05,1-.09l-.16,0c5.93-.44,11.85-.54,17.79-.46l1.09,0,2.21.1c1.63.08,3.26.19,4.9.32,2.89.23,5.78.55,8.67.91l.68.1c.76.11,1.52.22,2.28.35,1.63.26,3.25.54,4.87.86s3.08.61,4.61,1a19.57,19.57,0,0,0,2.49.59Z"/></g><g class="cls-2"><path class="cls-3" d="M393.71,170c1.46-.26.86-.19.4-.1l-.23.05Z"/><path class="cls-3" d="M541.68,232.55c-9.86-26.56-31.45-47-56.33-59.71a164.71,164.71,0,0,0-23.6-9.77c-2-.26-4-.61-6-.92a47.24,47.24,0,0,1-5.39-1.23c-2.65-.74-5.3-1.66-8-2.31-2.16-.12-4.31-.15-6.46-.29q-4-.25-8-.86a155.23,155.23,0,0,0-56.62,12.69,151.46,151.46,0,0,0-19.88,10.3c-1.38.85-7.07,4.29-4.15,6.37,1.19.85,3.32.59,4.61.36a19.05,19.05,0,0,0,6.52-2.32c2.39-1.47,4.81-2.89,7.29-4.22,1.19-.64,2.39-1.26,3.6-1.87.61-.3,1.22-.58,1.82-.89-2.39,1.25-.12.07.48-.2q4-1.81,8-3.36l1.9-.71.23-.08c1.37-.46,2.74-.91,4.12-1.34,2.62-.8,5.25-1.5,7.9-2.17l-.2,0,.37-.08h.05l.18,0,.25-.06,2-.43c1.42-.29,2.85-.56,4.28-.81q4.14-.74,8.33-1.2l.69-.09.31,0,1.73-.15c1.55-.12,3.09-.22,4.64-.29,3.09-.14,6.19-.17,9.28-.1,1,0,1.93.06,2.9.1a180.46,180.46,0,0,1,17.75,4.57,147,147,0,0,1,19.17,7.46,132.17,132.17,0,0,1,35.05,23.53c18.9,18,30.8,43.45,30.57,69.58a81.47,81.47,0,0,1-2.92,21.17,74.07,74.07,0,0,1-3.6,10l-.26.57-.51,1q-.63,1.26-1.29,2.49-1.37,2.46-2.91,4.82c-2.15,3.3,2.71,3.58,4.81,3.2,3.69-.68,8.68-2.51,10.86-5.85C550.07,286.78,551,257.58,541.68,232.55Z"/></g><g class="cls-2"><path class="cls-3" d="M1042,87.88c-.86-1.2-2.81-1.78-4.12-2.09a19,19,0,0,0-3.19-.46,60,60,0,0,1,1,7.09c.34,3.49-.42,7.45-1,10.7-1,5.25-3.42,10.27-5.85,15-1.49,2.9-3.22,5.68-4.9,8.47a27.25,27.25,0,0,1-13.82,11.4c-.45.26-.9.53-1.36.78l-1,.51-.91.45a63.18,63.18,0,0,1-6.35,2.54,10.11,10.11,0,0,1-1.5.49l.14,0-.36.08c-1,.29-2,.55-3.09.8s-2.08.46-3.13.67l-1.05.2-.42.07H991c-2.13.3-4.26.57-6.4.75-.75.07-1.5.09-2.25.15l-.73.06h0l-.22,0,.16,0-2.06.07c-2.37,0-4.74,0-7.11,0l-3.26-.1-2-.08-1,0c-5.39-.22-10.78-.68-16.16-1-11-.59-22.07-.88-33,.58a122.56,122.56,0,0,0-49.57,17.92q-4.11,2.61-8,5.57c-.85.89-1.69,1.79-2.49,2.73a69.63,69.63,0,0,0-5.44,9.29,56.28,56.28,0,0,0-1.94,6.7,62,62,0,0,0,.18,9.24c.14.84.29,1.67.45,2.51a105.44,105.44,0,0,1,11.09-14.44,101.94,101.94,0,0,1,17.88-15.58,115.19,115.19,0,0,1,10.65-6.55l1.8-1,.8-.4,1.35-.65c2-.93,4-1.8,6-2.62s3.73-1.45,5.62-2.09c.95-.33,1.9-.63,2.85-.94l.08,0h0l1.92-.54q2.89-.78,5.83-1.41c.81-.17,1.63-.34,2.45-.49l1.25-.23.55-.08c2-.29,4-.53,6-.71,1-.09,2.08-.21,3.12-.24H930l2.6-.07c2.61,0,5.21,0,7.82.06q1.95.06,3.9.15c.65,0,1.31,0,2,.09-2.62-.23.36,0,.87,0,10.93.63,21.89,1.63,32.85,1.33,19.07-.51,39.91-4.2,54.33-17.7C1046.73,123.29,1052.43,102.49,1042,87.88Z"/><path class="cls-3" d="M982.37,145.45c.58-.07.92-.14-.81.06h.06Z"/></g><path class="cls-4" d="M1089.78,249.79l.12.11.45.43c.78.77,1.54,1.56,2.26,2.38a49.65,49.65,0,0,1,7,10.53c8.85,17.67,6.66,38.33,1.94,56.85q-1,3.82-2.1,7.62c-.33,1.14,2.07,2.25,2.63,2.48l.11,0a22.63,22.63,0,0,1,2.47-.89q1-.54,1.92-1.14a45.92,45.92,0,0,0,3.31-3.38,74.74,74.74,0,0,0,5.86-10.49,190.39,190.39,0,0,0,7.68-26.64,67.66,67.66,0,0,0-3.81-19.94,51.57,51.57,0,0,0-14.58-21.66c-7.64-6.71-17.46-10.1-27.4-11.54-20.45-3-41.53,3.37-58.74,14.27-16.59,10.51-30.44,24.65-46.46,35.95a116.57,116.57,0,0,1-11.94,7.43c-.56.31-1.13.6-1.69.89l-.68.34c-1.1.53-2.21,1-3.34,1.53-2.14,1-4.33,1.8-6.54,2.57l-1.59.53-.18.07-.14,0c-1.25.34-2.5.69-3.76,1-1.07.25-2.15.44-3.22.67h0c-.63.1-1.26.18-1.9.25-.88.1-1.77.16-2.65.23h-2a79.48,79.48,0,0,1-12.23,2,23.88,23.88,0,0,1-5.21,0c-2.32-.28-4.72-.46-7-.91.2,1.13,1.7,1.91,2.6,2.22,21.27,7.41,44.29,3,63.82-7.2,17.08-8.89,31-22.56,46-34.32,3.79-3,7.67-5.83,11.69-8.48,2-1.32,4.06-2.59,6.14-3.79.92-.53,1.84-1,2.77-1.53l.84-.43c.44-.22.87-.43,1.31-.63q3.14-1.49,6.39-2.7c1-.37,2-.72,3-1.06l1.08-.34.94-.26c2.06-.56,4.14-1,6.23-1.41l.19,0,1.56-.21a13.47,13.47,0,0,1,3.39-.31c.11,0-2.09.08-1.08,0l.78,0,1.55,0c.52,0,1,0,1.55,0h.2c.93.09,1.86.16,2.79.28l.5.07,1.13.21c1,.21,2,.46,2.92.72l.17.06c.56.2,1.12.39,1.68.6,1,.36,1.89.76,2.82,1.19l.45.22c.52.29,1,.56,1.56.87a39.64,39.64,0,0,1,5.24,3.66C1089,249.12,1089.4,249.45,1089.78,249.79Z"/><g class="cls-2"><path class="cls-3" d="M174.19,256.91a94.43,94.43,0,0,0-4.5-17.2,65.4,65.4,0,0,0-5-8.69c-.81-.91-1.65-1.8-2.52-2.65,5.65,30-1.74,61.66-19.4,86.45A102.07,102.07,0,0,1,109,345.37c-.89.5-1.78,1-2.69,1.47l-.88.46-.9.44q-2.74,1.35-5.57,2.53a66.11,66.11,0,0,1-11,4c2-.45-.59.17-1.12.31q-1.49.42-3,.78-3,.75-6,1.33c-1,.2-2,.31-3,.55,2.56-.64-.29,0-.88.12-2,.28-4.06.52-6.09.7-1.19.1-2.39.13-3.57.26,3.07-.33-.35,0-1.19,0q-3.31.09-6.64,0l-1.51-.05-.18,0-.5,0a130.34,130.34,0,0,1-21.51,2.42,73.57,73.57,0,0,1-10.57-.61,130.7,130.7,0,0,0,40.4,5.3c18-.42,36-4.06,52.32-11.58A113.7,113.7,0,0,0,155,323.37a114.26,114.26,0,0,0,14.87-23.11,109.8,109.8,0,0,0,4.28-17.41A125,125,0,0,0,174.19,256.91Z"/></g><path class="cls-4" d="M829.8,87.24c.69-.38,1.38-.75,2.08-1.11l.84-.41.4-.19A20.28,20.28,0,0,1,835,84.36a71.14,71.14,0,0,1,19.38-7.09,99.27,99.27,0,0,1,20.35-1.87A203.14,203.14,0,0,1,900,78.08c5.53.53,11.05,1.16,16.57,1.83a76.34,76.34,0,0,0,8.82-.09,48,48,0,0,0,8.4-2.51l.13,0c.12-2.32-5.32-3.21-6.59-3.37-39.73-5-85.17-9.81-120.12,14.16-13.43,9.21-24.47,22.16-29.18,37.93A55.38,55.38,0,0,0,777,151.9c1.88,10.3,5.72,20.09,8.43,30.18,2.78,10.35,4.77,22.14,1.11,32.49a32.4,32.4,0,0,1-7,11.43,10.82,10.82,0,0,1-1.87,1.71,26.11,26.11,0,0,1-2.68,1.86l-.75.43a12.62,12.62,0,0,0-1.19.51l-1,.36-.77.17c-2,.44-6.55,2.63-3.22,4.79s8.54,2.07,12.28,1.26a31.76,31.76,0,0,0,21.06-15.39c4.59-8.08,5.66-17.41,4.6-26.53-2.33-20-13.83-38.53-11.93-59.11a51.84,51.84,0,0,1,6.8-21.1,66.59,66.59,0,0,1,6.74-9.69q1.83-2.2,3.84-4.26c.56-.57,1.13-1.14,1.7-1.7l.66-.62c.42-.39.85-.77,1.28-1.15a83.2,83.2,0,0,1,9.71-7.3Q827.24,88.65,829.8,87.24Z"/><g class="cls-2"><path class="cls-3" d="M408.38,11.49h0a4.72,4.72,0,0,0,.63.19l-.1,0Z"/><path class="cls-3" d="M394.52,8.29h0c1,.18,2,.36,3,.56,2.06.41,4.12.87,6.16,1.38,1.06.26,2.12.54,3.17.84l1.43.4.38.12.15,0,.22.06-.12,0c3.93,1.25,7.8,2.65,11.6,4.25,2,.85,4,1.76,6,2.71l1,.48.77.4q1.45.76,2.88,1.56c2.37,1.31,4.68,2.72,6.95,4.19l.54.25a85.67,85.67,0,0,1,7.91,4.22c4.27,2.51,8.46,5.2,12.9,7.4a65.4,65.4,0,0,0,9.71,2.63q2,.16,4,.21c.56-.61,1-1.44.27-2.13A126.91,126.91,0,0,0,427.16,8.58a147.21,147.21,0,0,0-59-8.3A127.67,127.67,0,0,0,275,49.06c-1.47,1.85-2.87,3.74-4.23,5.68a72.47,72.47,0,0,0-2.38,9.33c-.87,10,0,20,1.27,29.85l.27,2a118.62,118.62,0,0,1,17.9-38.95,127.55,127.55,0,0,1,15.82-18.59c1.58-1.53,2.27-2.16,4.09-3.75q2.28-2,4.66-3.86a122.45,122.45,0,0,1,10-7.15Q325,22,327.59,20.47c.84-.48,1.68-.95,2.53-1.41l1.5-.79c.2-.1.4-.2.59-.31,3.61-1.75,7.26-3.38,11-4.78q3-1.11,5.95-2l.19-.06,1.36-.39c1-.29,2.11-.57,3.17-.83q3.06-.75,6.16-1.34l1.66-.3c1-.16,2.1-.31,3.16-.45q3.12-.39,6.26-.63l1.37-.09c1.1,0,2.19-.08,3.29-.1q3.15,0,6.3.06l1.09,0h.05c1.09.07,2.18.16,3.27.25q3.25.3,6.51.76Z"/></g><g class="cls-2"><path class="cls-3" d="M623.51,68.69Z"/><path class="cls-3" d="M678.42,72.67l1.93.91.68.33.61.32A91.53,91.53,0,0,1,696.55,84a75.49,75.49,0,0,1,12,12.16,78.42,78.42,0,0,1,9.93,16.26,63.87,63.87,0,0,1,5.25,36.37c-2.17,13.31-9.62,24.9-17.52,35.53-2,2.68-4,5.32-6.08,8-1,1.23.11,2.54,1.08,3.24a8.75,8.75,0,0,0,2.1,1c.47,0,.93-.07,1.39-.08,1.09-.27,2.16-.58,3.23-.92a68.17,68.17,0,0,0,7.45-4.53,125.78,125.78,0,0,0,16.12-16.75,204.25,204.25,0,0,0,12.2-18.63,62.38,62.38,0,0,0-1.11-36.83c-8.46-25.68-29.32-44.75-54.23-54.36a120.8,120.8,0,0,0-85-.18,118.8,118.8,0,0,0-54.88,42.57,113.35,113.35,0,0,0-5.36,10,58.57,58.57,0,0,0-2.93,10.69,33.31,33.31,0,0,1-1.21,3.53q-1.05,5.3-1.87,10.63a176.61,176.61,0,0,0-.67,38,93.28,93.28,0,0,0,4,15.44,61.62,61.62,0,0,0,3.62,6.31q1.44,1.59,3,3.05c.36.23.71.47,1.06.71a2,2,0,0,0,1-1.84c-4.12-26-1.08-53.51,10.28-77.42C570.2,103.35,587,86.26,608.87,74.49l0,0,.74-.36,1.94-.91c1.47-.68,3-1.33,4.48-1.94,2.69-1.1,5.72-1.74,8.32-3l-.87.41a12.4,12.4,0,0,1,1.32-.54l2.07-.55c1.57-.41,3.16-.78,4.75-1.11l2.1-.41.36-.06c1.44-.21,2.87-.41,4.32-.56a33.1,33.1,0,0,1,4.55-.37c.15,0-2.55.1-1.35.08l1.22,0c.81,0,1.63,0,2.44,0,1.3,0,2.61,0,3.92.08h.21q1.22.09,2.43.21c1.52.14,3,.32,4.54.54l.45.06c.69.14,1.39.25,2.08.38,2.93.58,5.8,1.59,8.72,2.15l.59.19c.67.22,1.35.44,2,.68,1.43.5,2.85,1,4.26,1.61S677.13,72.09,678.42,72.67Z"/></g><rect class="cls-5" y="557.48" width="1187.42" height="12.44"/></g></g></svg>