<svg xmlns="http://www.w3.org/2000/svg" viewBox="0 0 1187.65 476.72"><defs><style>.cls-1,.cls-2{fill:#e8513b;}.cls-1,.cls-3{opacity:0.3;}.cls-2{opacity:0.6;}.cls-3{fill:#ee4e38;}</style></defs><g id="Layer_2" data-name="Layer 2"><g id="Layer_1-2" data-name="Layer 1"><rect class="cls-1" x="119.74" y="159.58" width="91.82" height="12.3" rx="6.15"/><path class="cls-1" d="M278.52,193.45a6.18,6.18,0,0,1-6.15,6.15H.23V187.3H272.37A6.17,6.17,0,0,1,278.52,193.45Z"/><rect class="cls-1" x="326.86" y="187.3" width="328.53" height="12.3" rx="6.15"/><rect class="cls-1" x="711.2" y="187.3" width="364.4" height="12.3" rx="6.15"/><rect class="cls-1" x="573.42" y="158.61" width="245.74" height="13.28" rx="6.64"/><path class="cls-1" d="M1187.65,158.61v13.27H870.42a6.16,6.16,0,0,1-6.15-6.15v-1a6.17,6.17,0,0,1,6.15-6.15Z"/><rect class="cls-1" x="231.03" width="275.5" height="12.3" rx="6.15"/><rect class="cls-1" x="558.54" width="305.07" height="12.3" rx="6.15"/><rect class="cls-2" x="875.13" width="43.87" height="12.3" rx="6.15"/><rect class="cls-2" x="1057.33" y="131.87" width="43.87" height="12.3" rx="6.15"/><rect class="cls-2" x="909.41" y="105.12" width="34.58" height="12.3" rx="6.15"/><rect class="cls-2" x="667.66" y="189.1" width="57.25" height="12.3" rx="6.15"/><rect class="cls-2" x="382.54" y="52.56" width="57.25" height="12.3" rx="6.15"/><rect class="cls-2" x="54.74" y="78.38" width="43.86" height="12.3" rx="6.15"/><rect class="cls-2" x="424.69" y="105.35" width="64.91" height="12.3" rx="6.15"/><rect class="cls-2" x="514.69" width="39.09" height="12.3" rx="6.15"/><rect class="cls-2" x="197.22" width="26.85" height="12.3" rx="6.15"/><rect class="cls-2" x="764.55" y="78.38" width="26.85" height="12.3" rx="6.15"/><rect class="cls-2" x="624.15" y="26.29" width="20.07" height="12.3" rx="6.15"/><rect class="cls-2" x="1041.64" y="52.56" width="20.07" height="12.3" rx="6.15"/><rect class="cls-2" x="1066.7" y="52.56" width="29.14" height="12.3" rx="6.15"/><rect class="cls-2" x="217.91" y="158.61" width="12.3" height="12.3" rx="6.15"/><rect class="cls-2" x="811.64" y="158.94" width="20.07" height="12.3" rx="6.15"/><rect class="cls-2" x="836.69" y="158.94" width="20.07" height="12.3" rx="6.15"/><rect class="cls-2" x="892.41" y="105.35" width="12.3" height="12.3" rx="6.15"/><rect class="cls-2" x="1081.5" y="186.32" width="20.07" height="12.3" rx="6.15"/><rect class="cls-2" x="757.9" y="52.56" width="20.07" height="12.3" rx="6.15"/><rect class="cls-2" x="782.96" y="52.56" width="20.07" height="12.3" rx="6.15"/><rect class="cls-2" x="545.8" y="158.61" width="20.07" height="12.3" rx="6.15"/><rect class="cls-2" x="275.25" y="78.38" width="34" height="12.3" rx="6.15"/><rect class="cls-2" x="143.92" y="26.29" width="34" height="12.3" rx="6.15"/><rect class="cls-2" x="126.17" y="131.87" width="20.07" height="12.3" rx="6.15"/><rect class="cls-2" x="581.11" y="26.29" width="36.23" height="12.3" rx="6.15"/><rect class="cls-2" x="329.87" y="131.87" width="36.23" height="12.3" rx="6.15"/><rect class="cls-2" x="284.58" y="187.3" width="36.23" height="12.3" rx="6.15"/><rect class="cls-1" x="184.76" y="26.28" width="390.25" height="12.3" rx="6.15"/><path class="cls-1" d="M133.8,32.43a6.18,6.18,0,0,1-6.15,6.16H.23V26.28H127.65A6.17,6.17,0,0,1,133.8,32.43Z"/><rect class="cls-1" x="450.44" y="52.56" width="301.61" height="12.3" rx="6.15"/><rect class="cls-1" x="808.89" y="52.56" width="225.04" height="12.3" rx="6.15"/><path class="cls-1" d="M1187.65,52.56V64.87h-77.24a6.16,6.16,0,0,1,0-12.31Z"/><rect class="cls-1" x="107.59" y="78.84" width="158.89" height="12.3" rx="6.15"/><rect class="cls-1" x="802.51" y="78.84" width="196.72" height="12.3" rx="6.15"/><path class="cls-1" d="M.23,117.43H409.87a6.16,6.16,0,0,0,0-12.31H.23Z"/><rect class="cls-1" x="150.31" y="131.87" width="173.4" height="12.3" rx="6.15"/><rect class="cls-1" x="373.57" y="131.87" width="319.7" height="12.3" rx="6.15"/><rect class="cls-1" x="499.32" y="105.12" width="207.01" height="12.3" rx="6.15"/><rect class="cls-1" x="949.76" y="105.12" width="187.75" height="12.3" rx="6.15"/><rect class="cls-3" y="461.77" width="1187.42" height="14.95"/></g></g></svg>