<svg xmlns="http://www.w3.org/2000/svg" viewBox="0 0 1187.42 476.72"><defs><style>.cls-1,.cls-2{fill:#00b87c;}.cls-1,.cls-3{opacity:0.3;}.cls-2{opacity:0.6;}.cls-3{fill:#00b97c;}</style></defs><g id="Layer_2" data-name="Layer 2"><g id="Layer_1-2" data-name="Layer 1"><rect class="cls-1" x="119.51" y="159.58" width="91.82" height="12.3" rx="6.15"/><path class="cls-1" d="M278.29,193.45a6.18,6.18,0,0,1-6.15,6.15H0V187.3H272.14A6.17,6.17,0,0,1,278.29,193.45Z"/><rect class="cls-1" x="326.63" y="187.3" width="328.53" height="12.3" rx="6.15"/><rect class="cls-1" x="710.96" y="187.3" width="364.4" height="12.3" rx="6.15"/><rect class="cls-1" x="573.19" y="158.61" width="245.74" height="13.28" rx="6.64"/><path class="cls-1" d="M1187.42,158.61v13.27H870.19a6.16,6.16,0,0,1-6.15-6.15v-1a6.16,6.16,0,0,1,6.15-6.15Z"/><rect class="cls-1" x="230.8" width="275.5" height="12.3" rx="6.15"/><rect class="cls-1" x="558.31" width="305.07" height="12.3" rx="6.15"/><rect class="cls-2" x="874.9" width="43.87" height="12.3" rx="6.15"/><rect class="cls-2" x="1057.1" y="131.87" width="43.87" height="12.3" rx="6.15"/><rect class="cls-2" x="909.18" y="105.12" width="34.58" height="12.3" rx="6.15"/><rect class="cls-2" x="667.43" y="189.1" width="57.25" height="12.3" rx="6.15"/><rect class="cls-2" x="382.31" y="52.56" width="57.25" height="12.3" rx="6.15"/><rect class="cls-2" x="54.5" y="78.38" width="43.86" height="12.3" rx="6.15"/><rect class="cls-2" x="424.46" y="105.35" width="64.91" height="12.3" rx="6.15"/><rect class="cls-2" x="514.46" width="39.09" height="12.3" rx="6.15"/><rect class="cls-2" x="196.99" width="26.85" height="12.3" rx="6.15"/><rect class="cls-2" x="764.32" y="78.38" width="26.85" height="12.3" rx="6.15"/><rect class="cls-2" x="623.91" y="26.29" width="20.07" height="12.3" rx="6.15"/><rect class="cls-2" x="1041.41" y="52.56" width="20.07" height="12.3" rx="6.15"/><rect class="cls-2" x="1066.47" y="52.56" width="29.14" height="12.3" rx="6.15"/><rect class="cls-2" x="217.68" y="158.61" width="12.3" height="12.3" rx="6.15"/><rect class="cls-2" x="811.41" y="158.94" width="20.07" height="12.3" rx="6.15"/><rect class="cls-2" x="836.46" y="158.94" width="20.07" height="12.3" rx="6.15"/><rect class="cls-2" x="892.18" y="105.35" width="12.3" height="12.3" rx="6.15"/><rect class="cls-2" x="1081.27" y="186.32" width="20.07" height="12.3" rx="6.15"/><rect class="cls-2" x="757.67" y="52.56" width="20.07" height="12.3" rx="6.15"/><rect class="cls-2" x="782.73" y="52.56" width="20.07" height="12.3" rx="6.15"/><rect class="cls-2" x="545.56" y="158.61" width="20.07" height="12.3" rx="6.15"/><rect class="cls-2" x="275.02" y="78.38" width="34" height="12.3" rx="6.15"/><rect class="cls-2" x="143.69" y="26.29" width="34" height="12.3" rx="6.15"/><rect class="cls-2" x="125.94" y="131.87" width="20.07" height="12.3" rx="6.15"/><rect class="cls-2" x="580.88" y="26.29" width="36.23" height="12.3" rx="6.15"/><rect class="cls-2" x="329.64" y="131.87" width="36.23" height="12.3" rx="6.15"/><rect class="cls-2" x="284.35" y="187.3" width="36.23" height="12.3" rx="6.15"/><rect class="cls-1" x="184.53" y="26.28" width="390.25" height="12.3" rx="6.15"/><path class="cls-1" d="M133.57,32.43a6.18,6.18,0,0,1-6.15,6.16H0V26.28H127.42A6.17,6.17,0,0,1,133.57,32.43Z"/><rect class="cls-1" x="450.2" y="52.56" width="301.61" height="12.3" rx="6.15"/><rect class="cls-1" x="808.65" y="52.56" width="225.04" height="12.3" rx="6.15"/><path class="cls-1" d="M1187.42,52.56V64.87h-77.24a6.16,6.16,0,0,1,0-12.31Z"/><rect class="cls-1" x="107.36" y="78.84" width="158.89" height="12.3" rx="6.15"/><rect class="cls-1" x="802.28" y="78.84" width="196.72" height="12.3" rx="6.15"/><path class="cls-1" d="M0,117.43H409.64a6.18,6.18,0,0,0,6.15-6.15,6.17,6.17,0,0,0-6.15-6.16H0Z"/><rect class="cls-1" x="150.08" y="131.87" width="173.4" height="12.3" rx="6.15"/><rect class="cls-1" x="373.34" y="131.87" width="319.7" height="12.3" rx="6.15"/><rect class="cls-1" x="499.09" y="105.12" width="207.01" height="12.3" rx="6.15"/><rect class="cls-1" x="949.53" y="105.12" width="187.75" height="12.3" rx="6.15"/><rect class="cls-3" y="463.53" width="1187.42" height="13.19"/></g></g></svg>