<svg xmlns="http://www.w3.org/2000/svg" viewBox="0 0 1187.65 597.21"><defs><style>.cls-1,.cls-2{fill:#ea503a;}.cls-1,.cls-3{opacity:0.3;}.cls-2{opacity:0.6;}.cls-3{fill:#ee4e38;}</style></defs><g id="Layer_2" data-name="Layer 2"><g id="Layer_1-2" data-name="Layer 1"><path class="cls-1" d="M1139.69,501.16c-6.53-16.36-12.65-32.9-17.75-49.77-2.58-8.53-4.9-17.13-6.86-25.83-3.23-14.36-5.09-28.89-6.94-43.5a201.67,201.67,0,0,1-1.65-25.53c0-4.2.18-8.41.52-12.6.17-2,.37-4,.62-6,1-8,2-16,3.28-24a120.8,120.8,0,0,1,6.35-23.56c2.79-7.27,5.89-14.43,9-21.54q1.26-2.83,2.68-5.6a105.58,105.58,0,0,1,6.28-10.66c1.19-1.78,2.43-3.53,3.73-5.23,1-1.28,1.93-2.56,2.9-3.83,1.92-4,3.95-7.85,6.12-11.67,4.23-7.41,8.86-14.57,13.65-21.62,8.55-12.57,17.62-24.8,26-37.5V150.3a18.56,18.56,0,0,0-8,.68l-5.24,2.22a22,22,0,0,0-7.87,7.86q-21.16,30.7-42.34,61.39c-6.69,9.7-13.51,19.34-19.6,29.44A197.08,197.08,0,0,0,1088,287.16a178.75,178.75,0,0,0-8.07,31.63,256,256,0,0,0-3.5,38c-.31,24.69,3.13,49.46,8.33,73.55,5,23.4,12,46.33,19.17,69.15.9,2.84,1.79,5.68,2.69,8.52a23,23,0,0,0,10.08,13.11c4.7,2.75,11.63,3.92,16.9,2.21a23.76,23.76,0,0,0,11.41-7.48,54.08,54.08,0,0,1-2.94-8.91C1141.24,505,1140.46,503.08,1139.69,501.16Z"/><path class="cls-1" d="M1008.88,217.39a128.88,128.88,0,0,0-6.78-24c-3.73-9.37-8-18.39-13.91-26.56a24.47,24.47,0,0,0-13.11-10.08,24.65,24.65,0,0,0-16.9,2.21l-.19.12q1.07,1.42,2.1,2.85a77.7,77.7,0,0,1,6,9.66q1.36,2.58,2.57,5.25c3.21,7.11,6.28,14.3,9.08,21.58a131.74,131.74,0,0,1,6.58,24.31c.38,2.16.71,4.32,1,6.49,1.14,8.16,2.36,16.32,3.22,24.52.47,4.53.79,9.09,1,13.64.35,8.12.32,16.24,0,24.36.53,4.59,1,9.19,1.32,13.79,1.9,25.59.28,51.27-1.55,76.83-1.67,23.45-3.48,46.94-3.11,70.47a16.14,16.14,0,0,0,3.16.18c5.67-.25,11.56-2.12,15.51-6.42a23,23,0,0,0,6.42-15.51q.74-55.8,1.45-111.59C1013.2,285.5,1015.19,251,1008.88,217.39Z"/><path class="cls-1" d="M880.69,223.14c-2.65-16.89-5.25-33.8-7.57-50.74-2.92-22.46-4.85-45.31-2.26-67.89a125.6,125.6,0,0,1,6.89-26.28A98.47,98.47,0,0,1,887,62.13,16.29,16.29,0,0,0,889.59,54a16.7,16.7,0,0,0-.39-8.75A22.7,22.7,0,0,0,886,38.47l-2.36,0c-1.1.28-2.2.57-3.29.89-.9.51-1.78,1-2.66,1.57q-2.61,2.47-5,5.15a153,153,0,0,0-10.21,18.2c-7.85,21-12.74,43.19-16.12,65.38q-1.38,12-2.19,24a582.38,582.38,0,0,0,3.12,107.65q3.16,21.27,7.77,42.29c5,22.58,11.48,44.8,14.65,67.75,2.45,17.72,5.5,35.72,3.9,53.68-.48,5.38-1.11,10.76-1.88,16.11a18,18,0,0,0,5.93.81c5.67-.25,11.55-2.12,15.51-6.42a23.56,23.56,0,0,0,6.42-15.51c1.23-32-.78-64.1-4.36-95.93C891.33,290.33,886,256.73,880.69,223.14Z"/><path class="cls-1" d="M767.43,286.62q-2-13.2-4.67-26.3c-4.25-21.23-9.53-42.24-15.26-63.12-1.42-5.17-2.82-10.3-4.63-15.35s-3.79-9.94-5.73-14.89c-2-5.22-4-10.46-5.69-15.81a129.1,129.1,0,0,1-4.31-21.05,124.46,124.46,0,0,1-1.92-21.17,54,54,0,0,1-5.24,5.6,74.7,74.7,0,0,0-7,6.6,123.52,123.52,0,0,0-6.21,10.76c-.89,2.66-1.68,5.35-2.35,8.07.09,1.71.11,3.45,0,5.21a168.85,168.85,0,0,0,.62,19.61,363.17,363.17,0,0,0,8.52,35.92c3.7,13,8,25.9,11.68,39a154.87,154.87,0,0,1,4.13,19.42c1.8,12.22,3.62,24.51,4.21,36.87,1,21.79-1.58,43.62,0,65.36a128.82,128.82,0,0,0,4,15.08,136.26,136.26,0,0,0,12.58,19.86,71,71,0,0,1,4.1,8.24,22.9,22.9,0,0,0,4.14-1.31,262.48,262.48,0,0,0,10.09-40.25q.59-5.76,1-11.54A368.82,368.82,0,0,0,767.43,286.62Z"/><path class="cls-1" d="M673.59,392.31c-.68-20.58-1.7-41.16-4-61.63-2.42-22.11-5.84-44.23-12-65.63a275,275,0,0,0-12-32.87,183.48,183.48,0,0,0-13.87-26.27,190.09,190.09,0,0,0-21.3-27.48c-8.87-9.47-19-17.59-29.43-25.29-18.37-13.57-38.38-24.7-56.91-38-1.42-1-2.82-2.07-4.22-3.12a165,165,0,0,1-25.56-24.84,103.19,103.19,0,0,1-10.49-17.59,81.92,81.92,0,0,1-4.18-15,16.51,16.51,0,0,0-3.93-7.46,16.48,16.48,0,0,0-6.15-5.65c-.37-.22-.75-.42-1.15-.62-2.26,3.74-4.33,7.6-6.24,11.52a112.19,112.19,0,0,0-3.44,11.44c-.09,2.71-.07,5.43.06,8.14a134.92,134.92,0,0,0,4.68,16.27,207.85,207.85,0,0,0,18.25,30.28q5.23,6.31,10.83,12.32c.87.82,1.71,1.67,2.54,2.56,9.92,11.41,21.09,21.72,32.51,31.6,9.7,8.38,19.95,16.12,29.5,24.66l.72.66c1,.71,1.95,1.42,2.92,2.15a168.66,168.66,0,0,1,26.52,26.09,176,176,0,0,1,17.62,29.54q2.37,3.9,4.55,7.94c2.78,5.17,5.34,10.45,7.74,15.8,2.88,6.46,5.69,13,8.38,19.5,2.81,4.9,5.56,9.82,8.21,14.8,3.28,6.15,6.43,12.38,9.36,18.71,3.86,8.37,7.35,16.92,10.89,25.42q1.88,4.51,3.55,9.13a115.51,115.51,0,0,1,4.89,17.3c.81,4.28,1.27,8.66,1.85,12.95s1.3,8.52,1.6,12.79a42.31,42.31,0,0,1,0,6.66,16.49,16.49,0,0,0,1.27-1.24C671,403.61,673.78,398.18,673.59,392.31Z"/><path class="cls-1" d="M524.1,398.91a68.09,68.09,0,0,1,1.93,8.94c.22,1.46.45,3,.68,4.47a17.19,17.19,0,0,0,3.88.29,21.6,21.6,0,0,0,4.84-.58c2.69-4.4,5.26-8.86,7.6-13.45q1.15-3.51,2-7.08c0-.93,0-1.85,0-2.77-.69-2.72-1.52-5.41-2.45-8.06-3.43-7.26-7.08-14.41-10.43-21.71l-40-46.65-53.71-62.62c-9-10.44-18.11-20.75-26.63-31.56a149.19,149.19,0,0,1-16.77-27.38,92.76,92.76,0,0,1-4.92-17.45,71.54,71.54,0,0,1-.09-12.59c.27-1.48.59-2.94,1-4.39a21.79,21.79,0,0,0-7.86-23.24q-1.25.34-2.49.75c-3.24,1.71-6.38,3.59-9.44,5.61a126.65,126.65,0,0,0-10.1,10.1c-1.86,2.82-3.61,5.73-5.2,8.71q-1.14,3.6-2,7.28-.23,5.44.09,10.89a151.86,151.86,0,0,0,6.07,21.08,237,237,0,0,0,22,36.61Q391,245,401,255a69.29,69.29,0,0,1,7.25,8.54c7.22,6.93,15,13.3,22.72,19.6,20.51,16.72,42.13,33,58.55,54,7.3,9.33,15.14,18.64,20.87,29.11,4.24,7.75,7.45,16.36,10.78,24.39A78.24,78.24,0,0,1,524.1,398.91Z"/><path class="cls-1" d="M297.84,371.91a469.91,469.91,0,0,0-20.52-61.5c-1.58-3.46-3.21-6.9-4.76-10.37-4.6-10.36-9.18-20.76-13.07-31.41a116.66,116.66,0,0,1-4.79-16.4c-.26-1.29-.5-2.6-.7-3.91-.45-3-.9-6-1.32-9-.64-1.57-1.26-3.15-1.87-4.72a36.7,36.7,0,0,1-1.5-5c-1.72-7.61-2.47-15.46-3.25-23.21a45.68,45.68,0,0,1-.22-5.61,55.51,55.51,0,0,1,.43-5.61c.85-6.91,1.6-15.76,3.37-23.21a45.2,45.2,0,0,1,1.54-5.18c.2-.57.42-1.13.64-1.7a177.55,177.55,0,0,1,10.41-37.37,175.5,175.5,0,0,1,8.86-17.33,21.65,21.65,0,0,0-1.22-23.92q-3.81.9-7.55,2.1a124.79,124.79,0,0,0-12.58,7.61,163,163,0,0,0-16.55,16.16,146.42,146.42,0,0,0-10,17.34A213.8,213.8,0,0,0,213.7,167c-.32,3-.59,6-.83,9.05-.93,11.57-1.36,23.16-1.56,34.75,1.06,4.67,2.27,9.32,3.56,13.94,2.76,10,5.48,19.94,8.65,29.77,11.22,34.82,27.28,68,37.58,103.07a396.07,396.07,0,0,1,11.14,51.33c2.76,17.82,5,35.71,7,53.64a22,22,0,0,0,3.39,1A50.94,50.94,0,0,1,288,459.6a51.14,51.14,0,0,1,7.34-5.61,157.17,157.17,0,0,0,5.21-21.3c.25-2.53.45-5.06.62-7.6a275.84,275.84,0,0,0,0-38.89Q299.63,379,297.84,371.91Z"/><path class="cls-1" d="M186.84,470.49c-8.8-11-17.29-22.33-24.21-34.63q-3.82-6.81-7.09-13.92c-4.56-10-8.9-20.07-12.65-30.37a177.38,177.38,0,0,1-8-29.88c-1.46-8.38-2.44-16.86-3.52-25.29-.32-2.52-.59-5-.8-7.56a147.18,147.18,0,0,1-.44-15c0-.37,0-.73,0-1.1-.07-1.53-.08-3.07,0-4.64q-.25-8.76-.58-17.53c-.48-12.1-1.13-24.19-2-36.27q-1.19-15.65-3-31.23-1-6.51-2.11-13c-2.27-12.93-5-25.79-8.49-38.46-2.59-9.46-5.57-18.82-9-28L104,142a178.23,178.23,0,0,0-13.2-23.16,116,116,0,0,0-8.85-9c-2.17-1.4-4.39-2.7-6.65-3.92q-3.83-1.22-7.74-2.11a26.73,26.73,0,0,0-4.66,4.3q1.27,2.22,2.44,4.49,1.59,3.11,3,6.29,4.9,11,9.34,22.16c1.69,4.29,3.18,8.66,4.49,13.08a204.16,204.16,0,0,1,6,27.33c1.63,10.83,3.14,21.69,4.19,32.6,1.17,5,2.17,10.11,3,15.23,2,17.32,1.53,34.79,1.34,52.2a432.13,432.13,0,0,0,2.17,51.13,421.57,421.57,0,0,0,20.43,93.12c1,1.56,2.09,3.1,3.17,4.63A207.75,207.75,0,0,0,147,454.92a183.47,183.47,0,0,0,25.2,14.89,153.81,153.81,0,0,0,15.95,4.79A22.21,22.21,0,0,0,186.84,470.49Z"/><path class="cls-1" d="M72.68,461.88a496.15,496.15,0,0,0-11.93-60.14,497,497,0,0,0-19.4-58.48A538.71,538.71,0,0,0,13,283.17q-6.12-11-12.8-21.73v59.81a51.07,51.07,0,0,1,6.48,13.19c.49.93,1,1.87,1.37,2.82a151.9,151.9,0,0,1,8.12,15.61c5.23,11.67,10.45,23.59,14.19,35.88,4.94,16.18,7.29,33,9.33,49.75,2.21,10.38,4.19,20.81,5.69,31.31.92,6.45,1.84,12.91,2.65,19.37,3.65,10.78,7.48,21.55,9.58,32.76,1.66,8.84,2.86,17.8,3.64,26.76l.06.74a19.79,19.79,0,0,0,10-5.62,22.68,22.68,0,0,0,6.42-15.51A521.86,521.86,0,0,0,72.68,461.88Z"/><path class="cls-2" d="M1140.09,85.75c-18.83,16.53-38,33-53.75,52.56a179.08,179.08,0,0,0-19.58,34q-1.24,3.08-2.38,6.16a175.53,175.53,0,0,0-8.81,32.31,89.81,89.81,0,0,0-.3,16,51.85,51.85,0,0,0,1.63,6.26q.7,1.33,1.5,2.61c.5.53,1,1,1.55,1.54,1,.62,2,1.21,3,1.74,1.56.53,3.15,1,4.75,1.37a23,23,0,0,1,3.11,1,94.51,94.51,0,0,1-4-27.69c.16-15.33,4.25-29.73,11-43.37a88.24,88.24,0,0,1,9-14.24,150.66,150.66,0,0,1,15.92-18.3c13.71-13,30-23.51,42.23-38a65.65,65.65,0,0,0,5.21-8.76,66.38,66.38,0,0,0,2.66-10l.09-1.23a14.93,14.93,0,0,0-3.93-1.82Q1144.57,81.82,1140.09,85.75Z"/><path class="cls-2" d="M901.48,219.38a135.26,135.26,0,0,0,8.84,18.52q2.1,1.59,4.3,3,1.47.58,3,1a12.45,12.45,0,0,0,3.17-2.44c-2.14-8.24-4-16.6-5.37-25.08a254.22,254.22,0,0,1-3.32-33.33c-.28-10.84.76-21.43,2-32.15,2.29-19.24,7.88-37.37,14.19-55.15A187.42,187.42,0,0,0,936,61.19a143.76,143.76,0,0,0,.12-22.35,117.27,117.27,0,0,0-3.87-17.14,109,109,0,0,0-6.21-13,13.21,13.21,0,0,0-3.41.61,29.38,29.38,0,0,1,1.08,9c1,13.6-.39,27.08-2,40.53-2.44,20-7.3,39.48-12.2,58.79-4.58,18-8.82,36.25-11.24,54.91a181.36,181.36,0,0,0-.47,30.65A108.37,108.37,0,0,0,901.48,219.38Z"/><path class="cls-2" d="M798.73,108.87q-.6-6.24-1.45-12.45a156.48,156.48,0,0,0-8.23-28.95,118.7,118.7,0,0,0-11.46-20.09A81.8,81.8,0,0,0,768,37.57a63.12,63.12,0,0,0-7.59-4.5,56.31,56.31,0,0,0-6.87-1.89c-1-.06-2-.1-2.93-.12a27.57,27.57,0,0,1-6.29-.82,16,16,0,0,0-1.51,4.36c1.66,1.26,3.3,2.56,4.93,3.88A66.76,66.76,0,0,1,757.26,48a111.58,111.58,0,0,1,10.55,14.73,129.13,129.13,0,0,1,7.65,16.76,112.13,112.13,0,0,1,6.11,22.93c2.94,17.79,3.67,35.57,3.73,53.55h.09a16.15,16.15,0,0,0,5.28-1.12q1.73-2.82,3.16-5.81a95.27,95.27,0,0,0,4.47-17.23A140.7,140.7,0,0,0,798.73,108.87Z"/><path class="cls-2" d="M693,225.49a22.15,22.15,0,0,1-.12-3.27,52.66,52.66,0,0,0,0-5.76,72,72,0,0,0-3.13-10.76c-5.55-12-13.12-22.88-20.22-34-3.32-5.2-6.58-10.45-9.45-15.92A114.47,114.47,0,0,1,651.61,136c-1.92-6.38-2.69-13.13-3.46-19.72a102.22,102.22,0,0,1-.61-14.64,145.12,145.12,0,0,1,2.5-21.9,71.66,71.66,0,0,1,4-14.08,99.63,99.63,0,0,1,5.68-12.5,80.81,80.81,0,0,1,7.76-10.61c.07-.08.14-.15.2-.23a14.19,14.19,0,0,0-1.13-1.07c-1.7.42-3.38.91-5,1.49a52,52,0,0,0-5.45,3.18,56.65,56.65,0,0,0-4.88,4.92,70.55,70.55,0,0,0-5.52,9.67,107.63,107.63,0,0,0-5.26,20.38c-.25,2.23-.44,4.47-.59,6.7a188,188,0,0,0,1,33.71c.41,2.69.87,5.38,1.38,8.05a184.93,184.93,0,0,0,9.34,33q2.38,5.27,5.23,10.28c6.37,11.21,14.53,21.22,22,31.67a155.82,155.82,0,0,1,13.35,22.1C692.48,226.08,692.77,225.79,693,225.49Z"/><path class="cls-2" d="M506.34,26.1c4.84,4.49,9.59,9.07,14.15,13.85a243.48,243.48,0,0,1,16.7,19.85c6.86,8.92,12.36,18.74,19,27.82a128.61,128.61,0,0,0,17.8,18,144.11,144.11,0,0,0,15.19,9.57.94.94,0,0,0,.1-.1,82.8,82.8,0,0,0-2.66-8.12C581,94.67,573.44,83.2,565.28,72.37,555.08,59.5,543.81,47.36,531,37a152,152,0,0,0-27.58-16.21c-1.61-.63-3.24-1.23-4.87-1.81C501.18,21.35,503.78,23.71,506.34,26.1Z"/><path class="cls-2" d="M425.54,121.69c-5.43-11.68-11-24-13.08-36.8a110.06,110.06,0,0,1-1.69-14.5,79.71,79.71,0,0,1,1.31-14c.06-.41.13-.81.2-1.22q-2.41,1.34-4.7,2.88a48.13,48.13,0,0,0-4.06,4,45.69,45.69,0,0,0-2.67,4.59A54.55,54.55,0,0,0,398.91,74a81.54,81.54,0,0,0,.21,14.32,154.5,154.5,0,0,0,9.36,31.91c1.79,4.07,3.7,8.08,5.7,12.05a299.75,299.75,0,0,0,28.31,45.22,113.07,113.07,0,0,0,14.43,15.7,69.71,69.71,0,0,0,9.15,5.33,83.75,83.75,0,0,0,12.43,3.41,15.64,15.64,0,0,0,.86-1.68c-2-1.55-4-3.18-5.86-4.84a100.18,100.18,0,0,1-12.83-13.93A226.17,226.17,0,0,1,447,162.28c-2.9-4.63-5.61-9.37-8.23-14.17C434.05,139.48,429.69,130.61,425.54,121.69Z"/><path class="cls-2" d="M301.68,50.87a28.53,28.53,0,0,1,1,3.12,82,82,0,0,1,2.51,20.47c.06,4.25-.16,8.49-.38,12.73s-.28,8.4-.63,12.59c-.94,11.53-2.52,23-4,34.47-2.88,21.87-5.62,44.08-3.3,66.11.25,1.49.53,3,.83,4.45.1.5.21,1,.32,1.49s.27,1.24.42,1.86a121.87,121.87,0,0,0,5.13,16.49,149.8,149.8,0,0,0,15.5,26.83A107.13,107.13,0,0,0,333,265.66a76.91,76.91,0,0,0,10.77,6.42c.76.27,1.53.53,2.3.78l-.47-.48a97.53,97.53,0,0,1-8.31-10.59A72.84,72.84,0,0,1,331,250.7c-2.72-5.86-5.2-11.87-7.36-18-1.36-3.85-2.54-7.75-3.84-11.62A105.12,105.12,0,0,1,315.25,197a89.84,89.84,0,0,1,.19-17.12c.79-7.89,2-15.76,3.55-23.53,2-10.15,4.59-20.21,6.23-30.43a147.15,147.15,0,0,0,.15-31.19A126,126,0,0,0,318.67,70,115.74,115.74,0,0,0,307.43,50.7c-.83-1-1.68-2-2.54-3a17.3,17.3,0,0,0-3.26,3A.69.69,0,0,0,301.68,50.87Z"/><path class="cls-2" d="M181.61,63.75A76.72,76.72,0,0,0,170,70.07a64.35,64.35,0,0,0-6.59,6.72,117.52,117.52,0,0,0-10.86,19,107.08,107.08,0,0,0-5.6,20.35c-1.36,13.67-.31,27.43,1.39,41,1.75,12.18,4,24.32,4,36.66,0,9.53-.64,19.09.17,28.59a63.54,63.54,0,0,0,2.51,9.4l0,.1c.23.39.44.79.65,1.19a12.5,12.5,0,0,0,4.72.79l.75-.05c.15-.17.31-.34.45-.51a58.19,58.19,0,0,0,4.09-6.94,64.09,64.09,0,0,0,2.49-9.35,118.17,118.17,0,0,0-.73-23.55c-1.4-9.41-3.18-18.77-4.44-28.21a173.16,173.16,0,0,1-1.9-28.68,178,178,0,0,1,2-19.12,97.23,97.23,0,0,1,2.4-11.71,129.19,129.19,0,0,1,6.49-17.2,75.46,75.46,0,0,1,5.57-10.56A120.91,120.91,0,0,1,189,63.14q1.72-1.94,3.55-3.77C188.88,60.84,185.24,62.27,181.61,63.75Z"/><path class="cls-2" d="M55.78,238.68c-2.12-12.77-6.34-25.15-11.23-37.13a207.53,207.53,0,0,0-18.67-33.88Q24,165.48,22,163.36A163.88,163.88,0,0,0,.23,143.72v29.1c2.69,2.59,5.3,5.29,7.79,8.13a183.84,183.84,0,0,1,20.11,27.29A178.34,178.34,0,0,1,42.34,239a137.14,137.14,0,0,1,6.73,27,194,194,0,0,1,2.32,28.3,11.33,11.33,0,0,0,2.51.2,18.34,18.34,0,0,0,2.23-.26C56.41,275.72,57.73,257.14,55.78,238.68Z"/><path class="cls-2" d="M1123.55.56q-4.89,2-9.65,4.27a263.52,263.52,0,0,0-26,17.26c-9,7.18-17.63,14.59-26.1,22.06s-16.36,14.94-23.64,22.76a229.47,229.47,0,0,0-23.84,33.21,120.33,120.33,0,0,0-9.34,23.95,59,59,0,0,0-.45,14.61,41,41,0,0,0,3.88,9.18,46,46,0,0,0,6.49,6,9.09,9.09,0,0,0-.27-7.09,21.11,21.11,0,0,1-1.66-4,31.88,31.88,0,0,1,.26-7.46,93.05,93.05,0,0,1,8.11-19.6,262.33,262.33,0,0,1,31-43.44A361.23,361.23,0,0,1,1097,31q8.29-6.27,17-12.22c5.19-3.54,9.32-7.88,11-12.34a12.32,12.32,0,0,0,.67-6.43C1125,.18,1124.26.36,1123.55.56Z"/><rect class="cls-3" y="582.26" width="1187.42" height="14.95"/></g></g></svg>