<svg xmlns="http://www.w3.org/2000/svg" viewBox="0 0 1189.65 578.69"><defs><style>.cls-1,.cls-2,.cls-3,.cls-4{fill:#00b97c;}.cls-2{opacity:0.3;}.cls-3{opacity:0.7;}.cls-4{opacity:0.6;}</style></defs><g id="Layer_2" data-name="Layer 2"><g id="Layer_1-2" data-name="Layer 1"><path class="cls-1" d="M14.6,164.56l-.66-.11L10.35,164Z"/><path class="cls-2" d="M1173.29,99.18a162.51,162.51,0,0,0-22.67,13.5,207.14,207.14,0,0,0-26.27,26.54A229.4,229.4,0,0,0,1108.84,164a59.83,59.83,0,0,1-8.71,11.39,44.2,44.2,0,0,1-8.65,7.32,52.53,52.53,0,0,1-43.22,11.51,43.49,43.49,0,0,1-21.75-6.94c-14-7.71-27.71-16.08-41.16-24.79-23.27-15.06-45.9-31.08-69.23-46-21.69-13.91-44-26.82-67.57-37.34A233.81,233.81,0,0,0,805,66.17,148.14,148.14,0,0,0,781.79,66a149.77,149.77,0,0,0-23,6.52c-5.33,2.51-10.56,5.23-15.7,8.12-16.28,9.13-31.85,19.45-47.47,29.68a47.69,47.69,0,0,1-3.43,3.55c-5,4.33-10.44,8.3-15.75,12.3a63.48,63.48,0,0,1-8.51,5.42c-3.63,1.91-7.5,3.39-11.26,5-2.56,1.08-5.12,2.24-7.73,3.26a65.26,65.26,0,0,1-22.28,4.77,85.63,85.63,0,0,1-13.62,1c-1.45,0-2.91-.13-4.35-.27-6.6-.65-13.21-1.55-19.75-2.65a73.61,73.61,0,0,1-8.75-2.07c-3-.9-5.9-2-8.77-3.16-7.52-3.11-15.17-6.12-22.44-9.83-12.63-6.45-24.28-14.69-35.64-23.13C501.51,95.73,490,86.55,478,78c-3-2.18-6.12-4.33-9.25-6.41Q455,66.64,441,62.52c-9.07-2.65-18.31-5.41-27.64-7.29a112.61,112.61,0,0,0-13.5.07,149,149,0,0,0-22.45,6.46A250.69,250.69,0,0,0,335.78,87q-7,5.65-13.73,11.66a459.53,459.53,0,0,0-51.81,54.6,59.66,59.66,0,0,1-8.33,10.7c-.83.9-1.71,1.79-2.63,2.65a43.89,43.89,0,0,1-18.82,12.09,44.13,44.13,0,0,1-22.54,5c-2.44.15-4.89.25-7.33.29-3.35.45-6.71.83-10.05,1.25-1.39.18-2.79.3-4.19.37a76.62,76.62,0,0,1-9.34-.24c-8.69-.72-17.36-2-26-3.41a246.42,246.42,0,0,1-24.19-5.43c-18.36-5-36.37-11.23-54.2-17.81C68.54,153.53,54.53,148,40.52,142.53c-8.15-2.18-16.39-4-24.72-5.41a77.8,77.8,0,0,0-10.12-.43c-1.15.29-2.3.6-3.44.95v62.45q8.37-1.18,16.78-2a183.78,183.78,0,0,1,27.86-.39q7,.42,14,1.32c9.79,1.26,19.64,2.43,29.34,4.33a224.74,224.74,0,0,1,27.83,7.33,348,348,0,0,1,40.21,16.49q8.66,4.14,16.91,9a142.49,142.49,0,0,0,17.81,4,111.84,111.84,0,0,0,22.7.33A72.3,72.3,0,0,0,228,237.3a85.49,85.49,0,0,0,13.38-8.09c6.48-5.25,12.5-11,18.72-16.58,5.17-4.62,10.51-9.13,16.11-13.28q1.5-2.17,3-4.3c7.64-10.53,15.64-21.15,24.75-30.5,8.49-8.7,18.26-16.16,28.06-23.28a101.07,101.07,0,0,1,17.11-10.1c9.88-4.55,20.24-9.25,31-11.74,7.78-1.82,16.07-2.63,23.87-3.6,2.92-.37,5.85-.61,8.79-.69,10.91-.3,22,1.53,32.65,3.25a106,106,0,0,1,17.38,4.37,233.57,233.57,0,0,1,30.58,13A154.12,154.12,0,0,1,510,145.58a275.43,275.43,0,0,1,42.38,35q2.76,2.84,5.43,5.76a137.63,137.63,0,0,0,15,8.1,91.72,91.72,0,0,0,17,4.73,80.77,80.77,0,0,0,14.67,0,91.75,91.75,0,0,0,17.17-4.93c3.32-1.5,6.59-3.11,9.83-4.78,7.1-3.66,14.08-7.56,21.37-10.85,3.11-1.4,6.23-2.76,9.4-4,11.87-9.73,24-19.2,36.63-27.9a104.78,104.78,0,0,1,14.25-9,211.18,211.18,0,0,1,30.67-12.84,130.6,130.6,0,0,1,16.89-4.3,252.72,252.72,0,0,1,32.45-4.12,122.72,122.72,0,0,1,17.78.31c7.94.73,15.88,1.83,23.74,3.15,2.81.47,5.61,1.06,8.37,1.77,10.18,2.61,20,7,29.49,11.4a87.5,87.5,0,0,1,14.87,9.12c.94.49,1.87,1,2.79,1.52,6.19,3.49,12.14,7.4,18,11.44,1,.68,2,1.37,3,2.07,10.15,4,20.17,8.35,30.05,13,8.1,3.78,16.07,7.83,23.95,12.06,16.18,8.71,31.93,18.21,47.38,28.15q10,6.45,19.86,13.15c2.78,1,5.58,2,8.4,2.9a149.27,149.27,0,0,0,19.55,5.19,62,62,0,0,0,10.2,0,70,70,0,0,0,11.78-3.36,135,135,0,0,0,18.71-10.81l2.09-2.67c6.51-8.48,13-17,19.69-25.3,9.45-11.78,19.52-23.22,31.34-32.7,9.6-7.71,19.35-15.61,30.34-21.32,1.69-.88,3.41-1.72,5.16-2.5l.09,0V94.52A127.58,127.58,0,0,0,1173.29,99.18Z"/><path class="cls-2" d="M1174.81,282c-2.82,3.49-5.73,6.9-8.8,10.17a109.91,109.91,0,0,1-8.41,8.17c-5,4.32-10.37,8.24-15.62,12.23-1.36,1-2.74,2-4.17,2.95-4.74,3.09-9.82,5.07-15,7.28-5,2.12-9.87,4.42-15.21,5.52a127.2,127.2,0,0,1-23.82,3c-8.12.09-16.66-1.54-24.45-2.77a93.35,93.35,0,0,1-20.67-6.18,392.44,392.44,0,0,1-38.49-17.81l-7.67-4.16a123.83,123.83,0,0,1-15.55-7.31,99.54,99.54,0,0,1-8.4-5.66c-10.14-5.41-20.27-10.84-30.22-16.61s-19.84-11.95-29.23-18.73c-8.55-6.18-16.95-12.63-25-19.4l-.09-.08q-2.49-1.86-4.93-3.8c-10.4-5.29-20.89-10.4-31.53-15.2-12.45-3.36-25-6.37-37.71-8.62a140.92,140.92,0,0,0-21.44.7,174.52,174.52,0,0,0-38.17,11.21c-12.92,5.6-25.52,11.92-38.32,17.79l-.34.19c-9.8,7.88-19.75,15.58-30.1,22.73A174.76,174.76,0,0,1,656,272.41c-6.66,3.1-13.47,5.9-20.28,8.63-1.22.49-2.45.95-3.69,1.4l-.24.22c-1.8,1.15-3.62,2.25-5.48,3.29-1.55.46-3.11.87-4.67,1.26q-3.85.12-7.71,0c-9.57,1.65-19.41,3.15-29.17,3.36-10.32.22-20.47-1.55-30.67-2.94q-19.27-2.62-38.41-6.3c-26-4.95-51.73-11.44-76.58-20.56-2.49-.91-5-1.85-7.47-2.8a45.94,45.94,0,0,1-8.79-1.86c-6.27-2-12.55-3.93-18.87-5.75-5.57-.32-11.15-.49-16.72-.44q-3.42.81-6.81,1.79c-15.72,4.56-30.74,11.3-46.4,16l-5,4.06c-24.07,19.4-48.8,38-73.95,56q-7.71,5.5-15.48,11C234.5,342.3,229.41,346,224,349.24s-11,6.34-16.75,9.11q-4.26,2.06-8.62,3.9c-7.25,3.09-14.48,6.3-21.88,9a167.86,167.86,0,0,1-17.56,5.39c-10.68,2.64-21.58,3.88-32.48,5.3a147.33,147.33,0,0,1-35.24.37c-17.26-1.93-34.17-4.4-50.49-10.44A258.07,258.07,0,0,1,0,353v81.5q3.1,1.56,6.25,3A209.37,209.37,0,0,0,44.57,448a238.31,238.31,0,0,0,47.32-.36q6.81-1.11,13.56-2.54c1.11-.23,2.21-.48,3.32-.72l5.71-2.64c6-2.77,12.11-5.34,17.87-8.51q8.34-4.59,16.62-9.29c22-12.45,43.73-25.33,65.55-38.07,22.09-12.89,44.32-25.49,66.83-37.62,8.72-4.7,16.9-10.5,25.23-15.84A280.8,280.8,0,0,1,334,316.49c10.74-5.27,22.18-10.1,34.06-12.06l1.59-.25c4.85-1.8,9.72-3.55,14.68-5a94.53,94.53,0,0,1,12.85-3,109.89,109.89,0,0,1,19.57-1.67,112.81,112.81,0,0,1,35.72,7.21c20,7.26,38.52,17.59,57.94,26.07q6.82,2.76,13.84,5a351,351,0,0,0,57.63,13.13q5.54.69,11.09,1.24a217.48,217.48,0,0,0,22.7-.77,207.46,207.46,0,0,0,37.78-10.68l1.61-.75a17.64,17.64,0,0,1,7.8-4.07l1-.19c3.35-1.67,6.68-3.4,10-5.16l2.77-1.49a46.14,46.14,0,0,1,4.4-4.69c7.92-6.3,15.76-12.64,24.52-17.72l.81-.46c3.89-4,7.77-8,11.76-11.85a198.12,198.12,0,0,1,22.54-19c1.16-.83,2.33-1.63,3.53-2.41,1.13-1.44,2.29-2.85,3.5-4.21a81.31,81.31,0,0,1,13.16-11.33,48.77,48.77,0,0,1,9.31-5.26c5-2.16,9.89-4.23,15.27-5.24a88.77,88.77,0,0,1,16.34-1.73,110.75,110.75,0,0,1,16.45,1.66,91.24,91.24,0,0,1,11.08,2.44A174.84,174.84,0,0,1,856.56,255c14.43,6.87,28,15.49,41.15,24.45,15,10.16,29.67,20.7,44.46,31.12,9.34,6.59,18.77,13,28.5,19,7.9,4.86,15.77,9.61,24.22,13.4,8.64,3.52,17.38,6.73,25.94,10.44a96.92,96.92,0,0,1,16.72,9.23c8.09,1.26,16.1,2.92,24.1,4.8,9,2.12,18,4.35,27.13,5.8a99.07,99.07,0,0,0,19.63.27,78.4,78.4,0,0,0,14-3.87,106.87,106.87,0,0,0,17.8-10.64c3.6-2.92,7.06-6,10.41-9.2,12.87-12.3,24.11-26.17,36.77-38.66V265.89Q1181.24,274.06,1174.81,282Z"/><path class="cls-3" d="M1177.36,179.21c-6.25,8.91-11.7,18.36-17.95,27.27-4.43,6.31-9.25,12.35-14,18.4a71.16,71.16,0,0,1-5.53,6.36c-5.14,5.13-11.42,9.47-17.11,13.72a44.35,44.35,0,0,1-5.94,3.76c-1.08.57-2.17,1.07-3.28,1.55-5.44,2.37-10.87,4.9-16.48,6.87a45.42,45.42,0,0,1-6.62,1.75c-6.06,1.13-12.26,1.8-18.38,2.53-1.1.13-2.2.23-3.3.29a55.47,55.47,0,0,1-6.7,0c-14.42-.9-28.84-3.28-42.27-8.69a297.47,297.47,0,0,1-33.29-15.39c-4.12-1.07-8.17-2.39-12.17-3.86-11-4.07-21.89-8.74-32.5-13.82-11.13-5.34-21.91-11.37-32.48-17.72s-21-13.44-31.62-20q-19.83-12.35-40.58-23.1-9.64-2.57-19.47-4.26c-11.76-1.17-23.59-1.53-35.41-1.56-13.41,3-26.61,6.71-39.69,10.85-5.31,2.74-10.51,5.69-15.63,8.78-7.93,4.8-15.67,9.92-23.28,15.21S688,198.38,679.89,203c-13.64,7.82-27.6,15.19-40.55,24.13l-.54.48a58.94,58.94,0,0,1-7.17,5.63,54.7,54.7,0,0,1-35.94,10.58l-.18,0a48.79,48.79,0,0,1-7,0c-1.2-.25-2.38-.54-3.54-.89-.2-.26-.42-.51-.63-.75a43.89,43.89,0,0,1-15.56-6.22,205.08,205.08,0,0,1-18.19-11.68c-14.5-10.37-28.39-21.64-42-33.15-8.24-7-16.42-14-24.83-20.73a205.29,205.29,0,0,0-26.58-16.88c-7.64-1.73-15.29-3.41-23-4.73a180.1,180.1,0,0,0-20.91-.74c-5.28.13-10.58.54-15.86,1.11a192.43,192.43,0,0,0-34.65,8.9,144.39,144.39,0,0,0-19,11.06,151.06,151.06,0,0,0-16,16.1,43.93,43.93,0,0,1-8.53,12c-4.36,6.26-8.47,12.69-12.65,19.05a395,395,0,0,1-26.41,35.84,101.81,101.81,0,0,1-9.58,10.12c-2.58,2.36-4.91,5-7.55,7.28-1,.84-10.92,8.63-12,9.31l-.2.13a51,51,0,0,1-6.82,2.94,70.7,70.7,0,0,1-7.87,3.29c-.87.23-15,2.13-15.85,2.13a41,41,0,0,1-6.33-.75,97.85,97.85,0,0,1-10-1.43,11.25,11.25,0,0,1-1.11-.39,56.61,56.61,0,0,0-10.7-3.13c-11.19-2.14-22.1-5.49-33.07-8.49a61.45,61.45,0,0,1-7-2.43c-4.12-1.24-8.19-2.64-12.24-4.11-9.68-3.53-19.23-7.44-29.13-10.32a161.09,161.09,0,0,0-19-4.18,235.51,235.51,0,0,0-46.59-.4A162.21,162.21,0,0,0,19,258.6c-2.94,1.45-5.83,3-8.64,4.72a60.76,60.76,0,0,1-8.09,3.92V281.9a89.76,89.76,0,0,1,13.6-7.64,113.68,113.68,0,0,1,23.66-6.32,133.59,133.59,0,0,1,29.58,0c17.06,2.65,33.58,8.25,49.5,14.83,13.65,5.87,27,12.44,40.4,18.83,6.25,3,12.52,5.92,18.85,8.74q4.74,1,9.53,1.73a163.4,163.4,0,0,0,36.79.17,144.6,144.6,0,0,0,30.77-8.35,143,143,0,0,0,26.3-15.42,155.21,155.21,0,0,0,13.21-12c3.81-5.7,7.94-11.19,12-16.66,3.83-5.15,7.67-10.29,11.28-15.6,3.15-4.63,6.16-9.36,9.3-14,7.17-10.61,14.79-21.3,24.12-30.14a95.13,95.13,0,0,1,30.93-19.84,79.08,79.08,0,0,1,14.05-8.44c4.55-2,9.11-4,14-4.95a63.75,63.75,0,0,1,15.34-1.38,73.15,73.15,0,0,1,15.14,2.39,102.86,102.86,0,0,1,14.74,5.72,110.5,110.5,0,0,1,18.45,10.91c7.14,5.1,14,10.59,20.68,16.31,10.45,9,20.8,18,30.82,27.5,8.85,8.36,17.66,16.81,27.17,24.42a131.34,131.34,0,0,0,20.17,12.47,132.31,132.31,0,0,0,15.53,3.6,70,70,0,0,0,12.62,0,110.71,110.71,0,0,0,21.66-6.36c6.17-2.75,12.17-5.84,18.06-9.14,5.53-3.1,11-6.35,16.44-9.63a177.89,177.89,0,0,0,14.89-10.4c10.33-7.75,20.73-15.28,33-19.57a242.26,242.26,0,0,1,36.79-20.56c13.54-6,27.49-11.11,42.11-13.15.94-.23,1.89-.46,2.85-.67a23.49,23.49,0,0,1,11.3-.26,82.19,82.19,0,0,1,8.43.74,175.3,175.3,0,0,1,17.51,2.1,143,143,0,0,1,25,6.6,277.35,277.35,0,0,1,53.79,26.77c16,10.07,31.28,21.22,46.47,32.45q7.3,5.4,14.6,10.8l18.62,9.28c20.39,10.17,41,21.14,63.15,26.89a134.14,134.14,0,0,0,18.62,3.51l.78-.06a106.8,106.8,0,0,0,20.83-5.8,148.45,148.45,0,0,0,27-16.24c17.58-14.07,32.27-31,46.1-48.67,3.6-4.75,7.06-9.67,11-14.07,2.41-2.65,5-5.17,7.52-7.68,4.16-4.11,8.36-8.21,12.26-12.56V165.4C1185.44,169.91,1181.31,174.49,1177.36,179.21Z"/><path class="cls-4" d="M1151.44,48.15c-11.75,8.14-23.47,16.44-36.19,23-15.93,8.27-33,14.22-51.11,15.06-1.94.09-3.87.09-5.8,0a110,110,0,0,1-15.18-.54,102.15,102.15,0,0,1-21.68-6c-.4-.13-.81-.23-1.21-.33l-.76-.48c-1-.21-1.91-.43-2.87-.69-8.45-2.22-16.49-5.58-24.5-9-6.72-2.9-13.26-6.18-19.7-9.66s-13-7.34-19.41-11.17c-8.36-2.85-16.65-5.86-24.92-9-21.42-8-42.68-16.41-64.36-23.68A408.67,408.67,0,0,0,815.19,2.36C798.55.53,781.85-1,765.15.83a78.22,78.22,0,0,0-10.67,2.31c-2.54.77-5,1.71-7.5,2.7-5.66,2.5-11.2,5.24-16.72,8-13.43,6.78-26.83,13.6-41,18.88a120,120,0,0,1-12.71,4,193.88,193.88,0,0,1-31.28,10.59Q638,49,630.55,50.16a132.33,132.33,0,0,1-17.69,2.47l-3.55,1a23.36,23.36,0,0,1-15.66-1.27l-.78-.07c-1.45-.25-2.89-.55-4.32-.89-4.06-.34-8.1-.88-12.16-1.58-9.31-1.62-18-5.17-26.61-8.95-9-4-17.41-9-26.07-13.6-7.86-4.17-15.8-8.19-23.94-11.76a160.44,160.44,0,0,0-34.6-9.86c-1.84-.2-3.67-.37-5.52-.51a23.25,23.25,0,0,1-8.58-1.64c-22.2-1.27-44.46-1-66.69-1h-1.44a134.24,134.24,0,0,0-16.65.8,150.14,150.14,0,0,0-32.1,9,269.54,269.54,0,0,0-36.91,20.46c-17,11-33.32,23.06-50.35,34-1.12,1.24-2.29,2.45-3.53,3.6a105,105,0,0,1-13.24,10.33c-1.75,1.17-3.55,2.25-5.39,3.28a87.35,87.35,0,0,1-13.83,10.48,58.76,58.76,0,0,1-14.39,6.27l-.22.07a43.06,43.06,0,0,1-4.64,2.37,69.42,69.42,0,0,1-13.81,4.75c-13.73,2.85-28.23,3.8-41.72.11q-3.66-.47-7.32-1a263.79,263.79,0,0,1-34.79-5A312.7,312.7,0,0,1,43,87.45,266.9,266.9,0,0,1,2.24,68.23V91.42a250.09,250.09,0,0,0,46.43,26.71q6.54,2.67,13.21,5A300.71,300.71,0,0,0,116.81,136q7.68,1,15.39,1.68c2.25.2,4.52.39,6.78.56,1-.1,2-.2,3-.32,5-.75,10-1.67,14.91-2.7,10.65-2.21,21.33-4.63,31.73-7.86,5.5-1.72,11-3.6,16.4-5.49,4.2-1.45,8.47-2.76,12.63-4.33,5.29-2.45,10.4-5.29,15.64-7.84,4-2,8.08-3.79,12.25-5.36q6.64-5.41,13.18-11c16.35-14,32.88-28.1,51.17-39.49a147.51,147.51,0,0,1,30.7-14.68,70.7,70.7,0,0,1,12.58-3c6.13-.88,12.1-1.7,18.27-1h.05c6.84-1.12,13.75-1.87,20.67-2.31,21.17-1.36,42.27,1.29,63.06,5.13,23.14,4.26,45.7,10.3,67.08,20.31,16.17,7.56,29.16,20.41,45.24,28.05,1.45.54,2.91,1,4.4,1.46a24.82,24.82,0,0,1,2.59.92c1.37.39,2.75.75,4.14,1.06A98.31,98.31,0,0,0,593,91.83c2.85-.59,5.68-1.23,8.49-1.94a171.6,171.6,0,0,0,19-5.72c8.07-3.71,15.71-8.31,23.58-12.42a173.06,173.06,0,0,1,18.43-8.31,57.16,57.16,0,0,1,8.6-2.49,187.85,187.85,0,0,1,32.19-15.69A172,172,0,0,1,732.24,37a249.66,249.66,0,0,1,59.64-4.4c11.06.51,22,1.82,33,3.32,9.09,1.25,18.39,2.57,27.25,5a359.2,359.2,0,0,1,61.13,22.8,99,99,0,0,1,11.7,6.83,357.52,357.52,0,0,1,44.39,20.86,25.09,25.09,0,0,1,13,6.65,151.57,151.57,0,0,0,21,11.4,151.34,151.34,0,0,0,32.21,8.9,129.73,129.73,0,0,0,27.72.14,109.28,109.28,0,0,0,21.55-5.81c11.35-5.22,21.65-12.45,31.57-20,4.54-3.55,9-7.13,13.6-10.66,10.68-8.26,21.39-16.6,33.3-23a139.86,139.86,0,0,1,20.43-9c2-.7,4-1.29,6-1.81V25C1176.1,31.23,1163.69,39.67,1151.44,48.15Z"/><rect class="cls-2" x="2.24" y="565.5" width="1187.42" height="13.19"/></g></g></svg>