<svg xmlns="http://www.w3.org/2000/svg" xmlns:xlink="http://www.w3.org/1999/xlink" viewBox="0 0 106.95 168.3"><defs><style>.cls-1{fill:#9563f7;}.cls-2{fill:url(#linear-gradient);}.cls-3{fill:url(#linear-gradient-2);}.cls-4{fill:url(#linear-gradient-3);}.cls-5{fill:url(#linear-gradient-4);}.cls-6{fill:url(#linear-gradient-5);}.cls-7{fill:url(#linear-gradient-6);}.cls-8{fill:url(#linear-gradient-7);}.cls-9{fill:url(#linear-gradient-8);}.cls-10{fill:url(#linear-gradient-9);}.cls-11{fill:url(#linear-gradient-10);}.cls-12{fill:url(#linear-gradient-11);}.cls-13{fill:url(#linear-gradient-12);}.cls-14{fill:url(#linear-gradient-13);}.cls-15{fill:url(#linear-gradient-14);}.cls-16{fill:url(#linear-gradient-15);}.cls-17{fill:url(#linear-gradient-16);}.cls-18{fill:url(#linear-gradient-17);}.cls-19{fill:url(#linear-gradient-18);}.cls-20{fill:url(#linear-gradient-19);}.cls-21{fill:url(#linear-gradient-20);}.cls-22{fill:url(#linear-gradient-21);}.cls-23{fill:url(#linear-gradient-22);}.cls-24{fill:url(#linear-gradient-23);}.cls-25{fill:url(#linear-gradient-24);}.cls-26{fill:url(#linear-gradient-25);}.cls-27{fill:url(#linear-gradient-26);}.cls-28{fill:url(#linear-gradient-27);}.cls-29{fill:url(#linear-gradient-28);}.cls-30{fill:url(#linear-gradient-29);}.cls-31{fill:url(#linear-gradient-30);}.cls-32{fill:url(#linear-gradient-31);}.cls-33{fill:url(#linear-gradient-32);}.cls-34{fill:url(#linear-gradient-33);}.cls-35{fill:url(#linear-gradient-34);}.cls-36{fill:url(#linear-gradient-35);}.cls-37{fill:url(#linear-gradient-36);}.cls-38{fill:url(#linear-gradient-37);}.cls-39{fill:url(#linear-gradient-38);}.cls-40{fill:url(#linear-gradient-39);}.cls-41{fill:url(#linear-gradient-40);}.cls-42{fill:url(#linear-gradient-41);}.cls-43{fill:url(#linear-gradient-42);}.cls-44{fill:url(#linear-gradient-43);}.cls-45{fill:url(#linear-gradient-44);}.cls-46{fill:url(#linear-gradient-45);}.cls-47{fill:url(#linear-gradient-46);}.cls-48{fill:url(#linear-gradient-47);}.cls-49{fill:url(#linear-gradient-48);}.cls-50{fill:url(#linear-gradient-49);}.cls-51{fill:url(#linear-gradient-50);}.cls-52{fill:url(#linear-gradient-51);}.cls-53{fill:url(#linear-gradient-52);}.cls-54{fill:url(#linear-gradient-53);}</style><linearGradient id="linear-gradient" x1="70.31" y1="121.61" x2="73.21" y2="121.61" gradientUnits="userSpaceOnUse"><stop offset="0" stop-color="#9563f7"/><stop offset="1" stop-color="#6928e4"/></linearGradient><linearGradient id="linear-gradient-2" x1="61.1" y1="61.47" x2="101.83" y2="84.98" xlink:href="#linear-gradient"/><linearGradient id="linear-gradient-3" x1="57.56" y1="76.05" x2="99.09" y2="100.03" xlink:href="#linear-gradient"/><linearGradient id="linear-gradient-4" x1="49.06" y1="97.15" x2="90.8" y2="121.25" xlink:href="#linear-gradient"/><linearGradient id="linear-gradient-5" x1="34.31" y1="86.3" x2="81.75" y2="113.69" xlink:href="#linear-gradient"/><linearGradient id="linear-gradient-6" x1="26.08" y1="89.04" x2="78.16" y2="119.1" xlink:href="#linear-gradient"/><linearGradient id="linear-gradient-7" x1="11.3" y1="80.5" x2="55.04" y2="105.75" xlink:href="#linear-gradient"/><linearGradient id="linear-gradient-8" x1="12.9" y1="92.72" x2="51.23" y2="114.86" xlink:href="#linear-gradient"/><linearGradient id="linear-gradient-9" x1="4.41" y1="83.6" x2="38.47" y2="103.26" xlink:href="#linear-gradient"/><linearGradient id="linear-gradient-10" x1="-2.09" y1="65.93" x2="32.43" y2="85.87" xlink:href="#linear-gradient"/><linearGradient id="linear-gradient-11" x1="-4.36" y1="45.52" x2="22.77" y2="61.19" xlink:href="#linear-gradient"/><linearGradient id="linear-gradient-12" x1="64.04" y1="95.16" x2="93" y2="111.88" xlink:href="#linear-gradient"/><linearGradient id="linear-gradient-13" x1="62.36" y1="82.37" x2="111.95" y2="111" xlink:href="#linear-gradient"/><linearGradient id="linear-gradient-14" x1="51.38" y1="112.45" x2="86.72" y2="132.86" xlink:href="#linear-gradient"/><linearGradient id="linear-gradient-15" x1="17.68" y1="96.25" x2="69.6" y2="126.22" xlink:href="#linear-gradient"/><linearGradient id="linear-gradient-16" x1="5.76" y1="55.94" x2="32.18" y2="71.2" xlink:href="#linear-gradient"/><linearGradient id="linear-gradient-17" x1="4.93" y1="66.7" x2="45.88" y2="90.34" xlink:href="#linear-gradient"/><linearGradient id="linear-gradient-18" x1="49.33" y1="78.81" x2="91.65" y2="103.24" xlink:href="#linear-gradient"/><linearGradient id="linear-gradient-19" x1="55.87" y1="71.49" x2="103.03" y2="98.71" xlink:href="#linear-gradient"/><linearGradient id="linear-gradient-20" x1="35.77" y1="112.55" x2="55.85" y2="124.15" xlink:href="#linear-gradient"/><linearGradient id="linear-gradient-21" x1="29.49" y1="102.72" x2="65.79" y2="123.68" xlink:href="#linear-gradient"/><linearGradient id="linear-gradient-22" x1="43.78" y1="115.24" x2="71.1" y2="131.01" xlink:href="#linear-gradient"/><linearGradient id="linear-gradient-23" x1="54.29" y1="115.26" x2="78.52" y2="129.25" xlink:href="#linear-gradient"/><linearGradient id="linear-gradient-24" x1="68.32" y1="102.91" x2="103.68" y2="123.32" xlink:href="#linear-gradient"/><linearGradient id="linear-gradient-25" x1="23.39" y1="106.78" x2="40.29" y2="116.53" xlink:href="#linear-gradient"/><linearGradient id="linear-gradient-26" x1="75.02" y1="75.28" x2="114.4" y2="98.01" xlink:href="#linear-gradient"/><linearGradient id="linear-gradient-27" x1="1.09" y1="62.56" x2="25.94" y2="76.9" gradientUnits="userSpaceOnUse"><stop offset="0" stop-color="#9563f7"/><stop offset="0.5" stop-color="#a981fb"/><stop offset="1" stop-color="#bb9bff"/></linearGradient><linearGradient id="linear-gradient-28" x1="-0.59" y1="52.5" x2="45.54" y2="79.13" xlink:href="#linear-gradient-27"/><linearGradient id="linear-gradient-29" x1="13.43" y1="78.16" x2="47.77" y2="97.99" xlink:href="#linear-gradient-27"/><linearGradient id="linear-gradient-30" x1="21.05" y1="89.27" x2="65.87" y2="115.15" xlink:href="#linear-gradient-27"/><linearGradient id="linear-gradient-31" x1="25.23" y1="82.1" x2="74.71" y2="110.67" xlink:href="#linear-gradient-27"/><linearGradient id="linear-gradient-32" x1="27.41" y1="74.14" x2="86.07" y2="108.01" xlink:href="#linear-gradient-27"/><linearGradient id="linear-gradient-33" x1="29.67" y1="55.19" x2="91.98" y2="91.16" xlink:href="#linear-gradient-27"/><linearGradient id="linear-gradient-34" x1="50.86" y1="59.21" x2="102.75" y2="89.17" xlink:href="#linear-gradient-27"/><linearGradient id="linear-gradient-35" x1="59.41" y1="49.14" x2="101.06" y2="73.19" xlink:href="#linear-gradient-27"/><linearGradient id="linear-gradient-36" x1="59.46" y1="93.72" x2="97.96" y2="115.95" xlink:href="#linear-gradient-27"/><linearGradient id="linear-gradient-37" x1="14.72" y1="79.22" x2="60.21" y2="105.49" xlink:href="#linear-gradient-27"/><linearGradient id="linear-gradient-38" x1="25.22" y1="72.51" x2="69.58" y2="98.13" xlink:href="#linear-gradient-27"/><linearGradient id="linear-gradient-39" x1="35.82" y1="81.15" x2="75.65" y2="104.14" xlink:href="#linear-gradient-27"/><linearGradient id="linear-gradient-40" x1="47.27" y1="79.24" x2="84.2" y2="100.56" xlink:href="#linear-gradient-27"/><linearGradient id="linear-gradient-41" x1="42.73" y1="33.58" x2="100.07" y2="66.69" gradientUnits="userSpaceOnUse"><stop offset="0" stop-color="#9563f7"/><stop offset="0.65" stop-color="#b99cfc"/><stop offset="1" stop-color="#cab6ff"/></linearGradient><linearGradient id="linear-gradient-42" x1="44.56" y1="49.1" x2="93.48" y2="77.35" xlink:href="#linear-gradient-41"/><linearGradient id="linear-gradient-43" x1="16.54" y1="40.12" x2="88.14" y2="81.46" xlink:href="#linear-gradient-41"/><linearGradient id="linear-gradient-44" x1="18.84" y1="62.79" x2="77.93" y2="96.9" xlink:href="#linear-gradient-41"/><linearGradient id="linear-gradient-45" x1="9.61" y1="63.97" x2="62.74" y2="94.64" xlink:href="#linear-gradient-41"/><linearGradient id="linear-gradient-46" x1="-3.36" y1="71.32" x2="52.31" y2="103.46" xlink:href="#linear-gradient-41"/><linearGradient id="linear-gradient-47" x1="-3.14" y1="57.17" x2="36.43" y2="80.02" xlink:href="#linear-gradient-41"/><linearGradient id="linear-gradient-48" x1="-3.66" y1="51.71" x2="24.55" y2="68" xlink:href="#linear-gradient-41"/><linearGradient id="linear-gradient-49" x1="1.03" y1="36.48" x2="29.62" y2="52.98" xlink:href="#linear-gradient-41"/><linearGradient id="linear-gradient-50" x1="2.66" y1="27.53" x2="46.24" y2="52.69" xlink:href="#linear-gradient-41"/><linearGradient id="linear-gradient-51" x1="10.78" y1="27.49" x2="59.34" y2="55.53" xlink:href="#linear-gradient-41"/><linearGradient id="linear-gradient-52" x1="22.96" y1="29.89" x2="75.05" y2="59.96" xlink:href="#linear-gradient-41"/><linearGradient id="linear-gradient-53" x1="1360.89" y1="1566.82" x2="1417.84" y2="1599.7" gradientTransform="translate(-1761.77 -1040.71) rotate(-18.13)" xlink:href="#linear-gradient-41"/></defs><g id="Layer_2" data-name="Layer 2"><g id="Layer_1-2" data-name="Layer 1"><path class="cls-1" d="M80.71,75.25c-.95-25.48-11-56.14-30.93-68C35-1.54,17.88-3.58,4.58,8.17c-5,4.44-6,16.41-2.54,24.18,2.75,6.22,8.77,13.95,13.25,18C26.45,61.54,18.1,82.9,26.82,96.14c7.78,14.34,24.49,13.32,37,10.57C76.11,103.81,82,89,80.71,75.25Z"/><path class="cls-2" d="M70.57,122.84c-.06-.16-.11-.27-.13-.34a1.39,1.39,0,0,1,.19-1.49l.52-.64.81.15c.84.15,1.07.84,1.24,1.34v0l-.09,0v-.08l-1.24.49-1.28.43,0,.06Z"/><path class="cls-3" d="M89.33,105.45h-.06a1.18,1.18,0,0,1-1.12-1.24c1-21.61-4.64-44-15.55-61.41a1.18,1.18,0,0,1,2-1.25A104.11,104.11,0,0,1,87.16,71.33a112.51,112.51,0,0,1,3.35,33A1.18,1.18,0,0,1,89.33,105.45Z"/><path class="cls-4" d="M85.65,121.91a1.41,1.41,0,0,1-1.41-1.38A161.65,161.65,0,0,0,69.73,56.16,1.4,1.4,0,1,1,72.28,55a164.48,164.48,0,0,1,14.77,65.49,1.4,1.4,0,0,1-1.38,1.43Z"/><path class="cls-5" d="M74.63,147.86h-.14a1.4,1.4,0,0,1-1.26-1.53,168,168,0,0,0-9.31-73.89,1.4,1.4,0,1,1,2.63-1,167.17,167.17,0,0,1,8.91,36.84A172.14,172.14,0,0,1,76,146.59,1.4,1.4,0,0,1,74.63,147.86Z"/><path class="cls-6" d="M61.17,148.15a1.07,1.07,0,0,1-.25,0,1.18,1.18,0,0,1-.91-1.4C65.8,120,61,62.85,54,53.74a1.18,1.18,0,1,1,1.87-1.44C60.21,58,63,77.37,64.16,93.62c.7,9.84.94,19.83.68,28.9a142.84,142.84,0,0,1-2.52,24.7A1.18,1.18,0,0,1,61.17,148.15Z"/><path class="cls-7" d="M55.48,156.75h-.1A1.62,1.62,0,0,1,53.85,155c1.7-27.85,4.55-74.46-6.6-101.38a1.63,1.63,0,0,1,3-1.25A102.38,102.38,0,0,1,56.36,75.9,228.72,228.72,0,0,1,58.59,103c.53,19.14-.68,39-1.49,52.19A1.63,1.63,0,0,1,55.48,156.75Z"/><path class="cls-8" d="M33.83,140.87a1.7,1.7,0,0,1-.66-.14,1.63,1.63,0,0,1-.83-2.15c8.95-20.23,5.33-69.21-1.39-91.09a1.63,1.63,0,0,1,3.12-1C37.58,58,40.16,76,40.78,93.54c.42,11.75.27,33.39-5.46,46.36A1.65,1.65,0,0,1,33.83,140.87Z"/><path class="cls-9" d="M33.55,144.08h0a1.39,1.39,0,0,1-1.35-1.45,537,537,0,0,0-3-77.57A1.4,1.4,0,1,1,32,64.75a538.45,538.45,0,0,1,3,78A1.39,1.39,0,0,1,33.55,144.08Z"/><path class="cls-10" d="M19.45,135a1,1,0,0,1-.29,0,1.17,1.17,0,0,1-.86-1.42c6-24.46,7.56-55.26,4-80.39a1.18,1.18,0,0,1,2.34-.33c3.64,25.4,2.1,56.55-4,81.28A1.17,1.17,0,0,1,19.45,135Z"/><path class="cls-11" d="M17.36,110.8a1,1,0,0,1-.24,0,1.18,1.18,0,0,1-.92-1.39,128.89,128.89,0,0,0-4.33-66.81,1.17,1.17,0,0,1,.73-1.5,1.18,1.18,0,0,1,1.5.73,131.37,131.37,0,0,1,4.41,68.05A1.18,1.18,0,0,1,17.36,110.8Z"/><path class="cls-12" d="M13.83,75.05h-.14a1.62,1.62,0,0,1-1.48-1.76,65.43,65.43,0,0,0-9-39.13A1.63,1.63,0,1,1,6,32.43a68.78,68.78,0,0,1,9.48,41.13A1.62,1.62,0,0,1,13.83,75.05Z"/><path class="cls-13" d="M81.65,130.36h-.11a1.19,1.19,0,0,1-1.07-1.29,121,121,0,0,0-6.19-50.83,1.18,1.18,0,1,1,2.22-.78,123.28,123.28,0,0,1,6.32,51.83A1.17,1.17,0,0,1,81.65,130.36Z"/><path class="cls-14" d="M96.42,136.5A1.41,1.41,0,0,1,95,135.11a169.3,169.3,0,0,0-18.36-76.2,1.41,1.41,0,1,1,2.5-1.29A166.29,166.29,0,0,1,92.91,94.89a176.33,176.33,0,0,1,4.91,40.2,1.39,1.39,0,0,1-1.39,1.41Z"/><path class="cls-15" d="M69.78,160.79h-.15a1.4,1.4,0,0,1-1.25-1.54c2.72-26.27,2.18-53.59-1.44-73.08a1.4,1.4,0,0,1,2.76-.51,218.14,218.14,0,0,1,3.17,36.84,330.06,330.06,0,0,1-1.7,37A1.39,1.39,0,0,1,69.78,160.79Z"/><path class="cls-16" d="M44.5,168.3l-.26,0a1.4,1.4,0,0,1-1.12-1.64c2.23-11.89,3.5-33.21,3.32-55.63-.21-24.15-2-44.22-5-55.06a1.41,1.41,0,0,1,2.71-.75c3,11.07,4.9,31.4,5.1,55.79.19,22.59-1.1,44.11-3.36,56.17A1.41,1.41,0,0,1,44.5,168.3Z"/><path class="cls-17" d="M18.87,92.85l-.32,0a1.42,1.42,0,0,1-1.05-1.69A124.5,124.5,0,0,0,17.71,36a1.4,1.4,0,1,1,2.74-.62,126.8,126.8,0,0,1,3,28.21,126.52,126.52,0,0,1-3.25,28.18A1.4,1.4,0,0,1,18.87,92.85Z"/><path class="cls-18" d="M27.4,120.72a1.22,1.22,0,0,1-.32,0,1.61,1.61,0,0,1-1.27-1.91,166.37,166.37,0,0,0-4-80.34,1.63,1.63,0,1,1,3.11-1A165.8,165.8,0,0,1,32,78.1a167.87,167.87,0,0,1-3,41.31A1.64,1.64,0,0,1,27.4,120.72Z"/><path class="cls-19" d="M77.63,125.9h-.16A1.62,1.62,0,0,1,76,124.11c2.25-22.82-2.87-46.69-14.05-65.5A1.63,1.63,0,1,1,64.76,57,106.68,106.68,0,0,1,77.22,89.16a114.47,114.47,0,0,1,2,35.27A1.63,1.63,0,0,1,77.63,125.9Z"/><path class="cls-20" d="M89.21,121.23a1.4,1.4,0,0,1-1.4-1.37C87.28,95.46,80.42,71,68.48,51.09a1.4,1.4,0,0,1,2.41-1.44A137.28,137.28,0,0,1,85.14,83a147.59,147.59,0,0,1,5.48,36.77,1.41,1.41,0,0,1-1.38,1.43Z"/><path class="cls-21" d="M41.35,147.86a1.39,1.39,0,0,1-.44-.07A1.41,1.41,0,0,1,40,146a175.79,175.79,0,0,0,8.85-55.76,1.41,1.41,0,0,1,1.4-1.41h0a1.4,1.4,0,0,1,1.4,1.4,179.65,179.65,0,0,1-2.22,28.83,174.43,174.43,0,0,1-6.78,27.83A1.39,1.39,0,0,1,41.35,147.86Z"/><path class="cls-22" d="M52.5,145.3a1.4,1.4,0,0,1-1.17-.62c-10.11-15.15-10-39.34-9.95-58.78V82.5a1.41,1.41,0,0,1,1.41-1.41h0a1.41,1.41,0,0,1,1.4,1.41c0,1.12,0,2.26,0,3.41-.06,19.06-.14,42.78,9.48,57.21a1.4,1.4,0,0,1-.39,1.95A1.38,1.38,0,0,1,52.5,145.3Z"/><path class="cls-23" d="M56.05,155.67a1.39,1.39,0,0,1-1.33-1.85,111.39,111.39,0,0,0,2.74-61.51,1.4,1.4,0,0,1,2.73-.66,114,114,0,0,1,3,31.81,112.41,112.41,0,0,1-5.83,31.26A1.39,1.39,0,0,1,56.05,155.67Z"/><path class="cls-24" d="M64.3,152.25a1.52,1.52,0,0,1-.51-.09,1.63,1.63,0,0,1-1-2.06A117.66,117.66,0,0,0,66.9,94.16a1.63,1.63,0,1,1,3.21-.55,120.36,120.36,0,0,1,1.36,29.11,117.71,117.71,0,0,1-5.63,28.41A1.63,1.63,0,0,1,64.3,152.25Z"/><path class="cls-25" d="M90,145.36h-.13a1.62,1.62,0,0,1-1.49-1.76,143.26,143.26,0,0,0-7.94-60.53,1.63,1.63,0,0,1,3.06-1.12,146.58,146.58,0,0,1,8.13,61.92A1.64,1.64,0,0,1,90,145.36Z"/><path class="cls-26" d="M28.44,135.66a1.58,1.58,0,0,1-.52-.09,1.41,1.41,0,0,1-.79-1.82c2.73-7,5.56-14.19,7.12-21.74,1.72-8.32,1.6-16.11-.35-22.55a1.4,1.4,0,1,1,2.69-.81c2.08,6.88,2.23,15.16.41,23.93-1.61,7.78-4.48,15.11-7.26,22.19A1.39,1.39,0,0,1,28.44,135.66Z"/><path class="cls-27" d="M105.32,112.11a1.63,1.63,0,0,1-1.49-1L82.61,63.47a1.64,1.64,0,0,1,.83-2.15,1.62,1.62,0,0,1,2.15.83l21.22,47.67A1.64,1.64,0,0,1,106,112,1.7,1.7,0,0,1,105.32,112.11Z"/><path class="cls-28" d="M13,97.68a1.6,1.6,0,0,1-.53-.09,1.63,1.63,0,0,1-1-2.07,86.16,86.16,0,0,0,1-51.64,1.63,1.63,0,0,1,3.12-.94,87.78,87.78,0,0,1,3.6,26.93,87.24,87.24,0,0,1-4.65,26.71A1.64,1.64,0,0,1,13,97.68Z"/><path class="cls-29" d="M29.67,105.45a1.18,1.18,0,0,1-1.15-.9c-1.28-5.33-1.59-11.19-1.95-18C25.8,72,24.83,53.93,14.2,27.8a1.18,1.18,0,1,1,2.18-.89,164.46,164.46,0,0,1,10,34.33,202.33,202.33,0,0,1,2.51,25.21c.36,6.67.67,12.43,1.89,17.55a1.17,1.17,0,0,1-.87,1.42A1.24,1.24,0,0,1,29.67,105.45Z"/><path class="cls-30" d="M32,124.05H32a1.17,1.17,0,0,1-1.08-1.27A286.89,286.89,0,0,0,28,53.48a1.18,1.18,0,1,1,2.32-.38A289,289,0,0,1,33.22,123,1.19,1.19,0,0,1,32,124.05Z"/><path class="cls-31" d="M49.77,141.62a1.4,1.4,0,0,1-1.4-1.34A305.62,305.62,0,0,0,35.81,64.6a1.4,1.4,0,0,1,2.69-.81,308.47,308.47,0,0,1,12.68,76.37,1.4,1.4,0,0,1-1.35,1.46Z"/><path class="cls-32" d="M58.37,137.78h0a1.17,1.17,0,0,1-1.17-1.18c.1-21.43-8.17-61-16.7-79.95a1.18,1.18,0,1,1,2.15-1c4.14,9.18,8.42,23.58,11.75,39.51s5.21,31,5.16,41.42A1.17,1.17,0,0,1,58.37,137.78Z"/><path class="cls-33" d="M67.21,139.05h-.09a1.63,1.63,0,0,1-1.54-1.72c1.78-32.25-5.58-64.86-20.73-91.8a1.63,1.63,0,0,1,2.84-1.6,165.68,165.68,0,0,1,17,44.79,177.06,177.06,0,0,1,4.11,48.79A1.62,1.62,0,0,1,67.21,139.05Z"/><path class="cls-34" d="M75.37,118.74H75.3a1.17,1.17,0,0,1-1.1-1.25c1.74-27.17-10.66-65-28.85-88a1.18,1.18,0,1,1,1.85-1.46C55.83,39,63.59,53.81,69.05,69.86a152,152,0,0,1,6.14,24.27,105.8,105.8,0,0,1,1.36,23.5A1.18,1.18,0,0,1,75.37,118.74Z"/><path class="cls-35" d="M90.39,109.16A1.41,1.41,0,0,1,89,108.05,211,211,0,0,0,62,41.37a1.4,1.4,0,1,1,2.37-1.49A204.83,204.83,0,0,1,80.86,72.12a220.15,220.15,0,0,1,10.91,35.34,1.42,1.42,0,0,1-1.08,1.67A1.53,1.53,0,0,1,90.39,109.16Z"/><path class="cls-36" d="M90.67,89.55a1.62,1.62,0,0,1-1.59-1.32,156.22,156.22,0,0,0-20.66-53,1.63,1.63,0,1,1,2.76-1.73A153.14,153.14,0,0,1,84.1,59.3a163.13,163.13,0,0,1,8.17,28.31A1.63,1.63,0,0,1,91,89.52,1.55,1.55,0,0,1,90.67,89.55Z"/><path class="cls-37" d="M82.58,141.2h-.16a1.41,1.41,0,0,1-1.24-1.55,158.26,158.26,0,0,0-7.66-69.29,1.4,1.4,0,1,1,2.65-.93A158,158,0,0,1,84,104.09,162.25,162.25,0,0,1,84,140,1.4,1.4,0,0,1,82.58,141.2Z"/><path class="cls-38" d="M41.54,136.2h0a1.62,1.62,0,0,1-1.6-1.65c.21-13.67-.82-55.41-8.09-84a1.63,1.63,0,0,1,3.16-.8c7.36,29,8.4,71.08,8.19,84.87A1.63,1.63,0,0,1,41.54,136.2Z"/><path class="cls-39" d="M53.24,125a1.41,1.41,0,0,1-1.41-1.37c-.47-23.36-4.69-58-11.58-76.15a1.41,1.41,0,0,1,2.63-1c4.26,11.24,7,26.83,8.51,37.93a353.52,353.52,0,0,1,3.25,39.16A1.4,1.4,0,0,1,53.27,125Z"/><path class="cls-40" d="M62.18,126.27a1.18,1.18,0,0,1-1.15-1l-12.9-64.9A1.16,1.16,0,0,1,49.05,59a1.18,1.18,0,0,1,1.39.92l12.9,64.9a1.18,1.18,0,0,1-.92,1.39Z"/><path class="cls-41" d="M71.15,121.76a1.4,1.4,0,0,1-1.4-1.34A229.36,229.36,0,0,0,59,59.88,1.4,1.4,0,1,1,61.65,59a231.63,231.63,0,0,1,10.9,61.28,1.39,1.39,0,0,1-1.34,1.46Z"/><path class="cls-42" d="M86.8,88.05h-.08a1.62,1.62,0,0,1-1.55-1.7C86.4,58.57,74.56,30.61,55,15.12a1.63,1.63,0,1,1,2-2.55C77.38,28.69,89.7,57.71,88.42,86.5A1.63,1.63,0,0,1,86.8,88.05Z"/><path class="cls-43" d="M78.18,102.45H78.1A1.41,1.41,0,0,1,76.77,101c1.47-26.59-5-53.17-18.11-74.85a1.41,1.41,0,0,1,2.41-1.45A128,128,0,0,1,75.88,61.05a137.93,137.93,0,0,1,3.7,40.08A1.4,1.4,0,0,1,78.18,102.45Z"/><path class="cls-44" d="M69.62,111.92h-.17A1.63,1.63,0,0,1,68,110.12c2.72-26.67-2.34-54-14.22-76.91-6-11.58-12.38-18-19.47-19.63A1.63,1.63,0,1,1,35,10.4c4.49,1,8.76,3.73,12.71,8a60.68,60.68,0,0,1,8.93,13.29A136.34,136.34,0,0,1,69.53,69.66a143.72,143.72,0,0,1,1.7,40.79A1.63,1.63,0,0,1,69.62,111.92Z"/><path class="cls-45" d="M55.85,133.74h-.17a1.41,1.41,0,0,1-1.23-1.56C58.66,96.78,53.4,59.76,39.63,27.91a1.4,1.4,0,0,1,2.58-1.11A201.1,201.1,0,0,1,56.57,78.31a209.37,209.37,0,0,1,.67,54.2A1.4,1.4,0,0,1,55.85,133.74Z"/><path class="cls-46" d="M40.81,131.22h-.19a1.41,1.41,0,0,1-1.21-1.58,226.45,226.45,0,0,0-9.2-100.4,1.41,1.41,0,1,1,2.67-.88A225.61,225.61,0,0,1,43.22,78.46a231.09,231.09,0,0,1-1,51.54A1.41,1.41,0,0,1,40.81,131.22Z"/><path class="cls-47" d="M27.34,145.3a1.36,1.36,0,0,1-.29,0A1.4,1.4,0,0,1,26,143.6a220.36,220.36,0,0,0-5.7-112.29,1.4,1.4,0,1,1,2.67-.87,223.14,223.14,0,0,1,5.77,113.75A1.4,1.4,0,0,1,27.34,145.3Z"/><path class="cls-48" d="M20.48,106.24h-.19a1.39,1.39,0,0,1-1.2-1.58C23.11,74.74,20.71,52,11.54,33a1.4,1.4,0,0,1,2.53-1.22,99.12,99.12,0,0,1,9.27,35.6c.92,11.16.44,23.49-1.47,37.68A1.4,1.4,0,0,1,20.48,106.24Z"/><path class="cls-49" d="M12.58,87.32a.9.9,0,0,1-.23,0,1.4,1.4,0,0,1-1.16-1.61A107.41,107.41,0,0,0,7,34.25a1.41,1.41,0,1,1,2.66-.91,107.34,107.34,0,0,1,5.39,26A110.27,110.27,0,0,1,14,86.15,1.4,1.4,0,0,1,12.58,87.32Z"/><path class="cls-50" d="M17.46,72.42l-.27,0a1.62,1.62,0,0,1-1.34-1.87,107.32,107.32,0,0,0-4.2-51.33,1.63,1.63,0,1,1,3.08-1.06,107.83,107.83,0,0,1,5.4,26.1,109.68,109.68,0,0,1-1.07,26.82A1.62,1.62,0,0,1,17.46,72.42Z"/><path class="cls-51" d="M35.9,69.42a1.19,1.19,0,0,1-1.17-1.11c-1.32-22.46-9.54-42.68-22.56-55.48a1.18,1.18,0,1,1,1.66-1.68,73.3,73.3,0,0,1,16.5,25.74,102.56,102.56,0,0,1,6.75,31.28A1.18,1.18,0,0,1,36,69.42Z"/><path class="cls-52" d="M48.5,72.66a1.62,1.62,0,0,1-1.62-1.54c-1-19.24-8.5-45.92-26.18-57.78a1.63,1.63,0,0,1,1.82-2.7C30.57,16,37.43,25,42.36,36.61A103.81,103.81,0,0,1,50.13,71a1.62,1.62,0,0,1-1.54,1.71Z"/><path class="cls-53" d="M63.35,79a1.18,1.18,0,0,1-1.17-1.09C60.31,53.88,46.56,27.86,33.76,12.75a1.18,1.18,0,0,1,1.8-1.52c13,15.4,27.06,41.94,29,66.53A1.18,1.18,0,0,1,63.45,79Z"/><path class="cls-54" d="M77.9,59.67a1.41,1.41,0,0,1-1.34-1c-9-28.66-28-47.84-52-52.62a1.41,1.41,0,0,1,.55-2.76A62.31,62.31,0,0,1,43.25,10,66.31,66.31,0,0,1,58.52,21.75,80.33,80.33,0,0,1,70.61,37.93a101.57,101.57,0,0,1,8.63,19.91,1.41,1.41,0,0,1-.92,1.76A1.23,1.23,0,0,1,77.9,59.67Z"/></g></g></svg>