<svg xmlns="http://www.w3.org/2000/svg" xmlns:xlink="http://www.w3.org/1999/xlink" viewBox="0 0 117.94 88.41"><defs><style>.cls-1{fill:url(#radial-gradient);}.cls-2{fill:url(#radial-gradient-2);}.cls-3{fill:url(#radial-gradient-3);}.cls-4{fill:url(#radial-gradient-4);}.cls-5{fill:url(#radial-gradient-5);}.cls-6{fill:url(#linear-gradient);}.cls-7{fill:url(#linear-gradient-2);}.cls-8{fill:url(#linear-gradient-3);}.cls-9{fill:url(#linear-gradient-4);}.cls-10{fill:#fd8caf;}.cls-11{fill:url(#linear-gradient-5);}.cls-12{fill:url(#linear-gradient-6);}.cls-13{fill:url(#linear-gradient-7);}.cls-14{fill:url(#linear-gradient-8);}.cls-15{fill:url(#linear-gradient-9);}.cls-16{fill:url(#linear-gradient-10);}.cls-17{fill:url(#radial-gradient-6);}.cls-18{fill:url(#radial-gradient-7);}.cls-19{fill:url(#radial-gradient-8);}.cls-20{fill:url(#radial-gradient-9);}.cls-21{fill:url(#radial-gradient-10);}.cls-22{fill:url(#linear-gradient-11);}.cls-23{fill:url(#linear-gradient-12);}.cls-24{fill:url(#radial-gradient-11);}.cls-25{fill:url(#radial-gradient-12);}.cls-26{fill:url(#radial-gradient-13);}.cls-27{fill:url(#radial-gradient-14);}.cls-28{fill:url(#radial-gradient-15);}.cls-29{fill:url(#radial-gradient-16);}</style><radialGradient id="radial-gradient" cx="66.87" cy="86.99" r="74.44" gradientUnits="userSpaceOnUse"><stop offset="0" stop-color="#d01b48"/><stop offset="0.39" stop-color="#da355f"/><stop offset="0.73" stop-color="#e34f76"/><stop offset="1" stop-color="#fd8caf"/></radialGradient><radialGradient id="radial-gradient-2" cx="64.89" cy="48.5" r="29.98" xlink:href="#radial-gradient"/><radialGradient id="radial-gradient-3" cx="70.1" cy="85.14" r="69.46" xlink:href="#radial-gradient"/><radialGradient id="radial-gradient-4" cx="68.25" cy="86.76" r="96.82" xlink:href="#radial-gradient"/><radialGradient id="radial-gradient-5" cx="68.24" cy="88.25" r="48.92" xlink:href="#radial-gradient"/><linearGradient id="linear-gradient" x1="39.14" y1="71.37" x2="58.51" y2="37.83" gradientUnits="userSpaceOnUse"><stop offset="0.01" stop-color="#e34f76"/><stop offset="0.17" stop-color="#e7587e"/><stop offset="0.43" stop-color="#f17095"/><stop offset="0.67" stop-color="#fd8caf"/><stop offset="0.86" stop-color="#fd8eb1"/><stop offset="0.93" stop-color="#fd95b7"/><stop offset="0.98" stop-color="#fda0c1"/><stop offset="1" stop-color="#fda7c7"/></linearGradient><linearGradient id="linear-gradient-2" x1="9.52" y1="54.27" x2="28.88" y2="20.73" xlink:href="#linear-gradient"/><linearGradient id="linear-gradient-3" x1="61.77" y1="84.37" x2="92.34" y2="31.41" xlink:href="#linear-gradient"/><linearGradient id="linear-gradient-4" x1="55.07" y1="80.51" x2="85.65" y2="27.54" xlink:href="#linear-gradient"/><linearGradient id="linear-gradient-5" x1="73.89" y1="90.78" x2="91.8" y2="59.76" xlink:href="#linear-gradient"/><linearGradient id="linear-gradient-6" x1="79.26" y1="93.88" x2="97.17" y2="62.86" xlink:href="#linear-gradient"/><linearGradient id="linear-gradient-7" x1="50.23" y1="77.07" x2="55.41" y2="68.09" xlink:href="#linear-gradient"/><linearGradient id="linear-gradient-8" x1="31.84" y1="66.45" x2="37.03" y2="57.48" xlink:href="#linear-gradient"/><linearGradient id="linear-gradient-9" x1="83.54" y1="79.83" x2="70.75" y2="57.68" xlink:href="#linear-gradient"/><linearGradient id="linear-gradient-10" x1="98.33" y1="71.29" x2="85.54" y2="49.14" xlink:href="#linear-gradient"/><radialGradient id="radial-gradient-6" cx="311.53" cy="243.34" r="27.75" gradientTransform="translate(-254.94 -140.2) rotate(-2.66)" xlink:href="#radial-gradient"/><radialGradient id="radial-gradient-7" cx="714.51" cy="535.34" r="41.01" gradientTransform="matrix(0.99, -0.13, 0.13, 0.99, -707.29, -352.97)" xlink:href="#radial-gradient"/><radialGradient id="radial-gradient-8" cx="8.91" cy="38.9" fy="27.872444637972897" r="11.03" gradientTransform="matrix(0.55, -0.83, 0.52, 0.35, -16.35, 32.86)" gradientUnits="userSpaceOnUse"><stop offset="0.02" stop-color="#fda7c7"/><stop offset="0.2" stop-color="#fa9ebf"/><stop offset="0.5" stop-color="#f386a8"/><stop offset="0.87" stop-color="#e75e84"/><stop offset="0.99" stop-color="#e34f76"/></radialGradient><radialGradient id="radial-gradient-9" cx="24.97" cy="7.78" fy="0.9324469152893657" r="9.86" gradientTransform="translate(1.56 17.58) rotate(-33.05) scale(1 0.59)" gradientUnits="userSpaceOnUse"><stop offset="0" stop-color="#fda7c7"/><stop offset="0.18" stop-color="#fa9ebf"/><stop offset="0.49" stop-color="#f386a8"/><stop offset="0.87" stop-color="#e75e84"/><stop offset="0.99" stop-color="#e34f76"/></radialGradient><radialGradient id="radial-gradient-10" cx="66.22" cy="15.45" fy="3.5264643576405703" r="11.97" gradientTransform="translate(1.65 -1.1) rotate(7.78) scale(1 0.5)" xlink:href="#radial-gradient-9"/><linearGradient id="linear-gradient-11" x1="48.27" y1="76.63" x2="84.94" y2="13.12" xlink:href="#linear-gradient"/><linearGradient id="linear-gradient-12" x1="28.09" y1="64.98" x2="64.76" y2="1.46" xlink:href="#linear-gradient"/><radialGradient id="radial-gradient-11" cx="100.49" cy="15.98" fy="25.571889981757316" r="9.61" gradientTransform="translate(190.12 61.93) rotate(-156.72) scale(1 0.42)" gradientUnits="userSpaceOnUse"><stop offset="0" stop-color="#fda7c7"/><stop offset="0.19" stop-color="#fa9ebf"/><stop offset="0.49" stop-color="#f386a8"/><stop offset="0.87" stop-color="#e75e84"/><stop offset="1" stop-color="#e34f76"/></radialGradient><radialGradient id="radial-gradient-12" cx="112.04" cy="52.3" fy="43.588555822181355" r="8.73" gradientTransform="matrix(0.58, 0.81, -0.32, 0.23, 63.47, -50.72)" gradientUnits="userSpaceOnUse"><stop offset="0.26" stop-color="#fda7c7"/><stop offset="0.4" stop-color="#fa9ebf"/><stop offset="0.62" stop-color="#f386a8"/><stop offset="0.91" stop-color="#e75e84"/><stop offset="1" stop-color="#e34f76"/></radialGradient><radialGradient id="radial-gradient-13" cx="47.26" cy="53.45" fy="53.45422707143189" r="6.8" gradientTransform="matrix(-0.74, 0.67, -0.39, -0.43, 103.31, 44.84)" xlink:href="#radial-gradient-9"/><radialGradient id="radial-gradient-14" cx="79.58" cy="66.8" r="5.44" gradientTransform="matrix(0.8, 0.6, -0.29, 0.38, 34.81, -6.34)" gradientUnits="userSpaceOnUse"><stop offset="0.44" stop-color="#fd8caf"/><stop offset="0.99" stop-color="#e34f76"/></radialGradient><radialGradient id="radial-gradient-15" cx="404.99" cy="-271.03" r="47.24" gradientTransform="matrix(1, -0.05, 0.06, 0.91, -320.79, 352.64)" xlink:href="#radial-gradient"/><radialGradient id="radial-gradient-16" cx="68.26" cy="47.33" fy="47.325048050473924" r="5.87" gradientTransform="translate(2.33 15.94) rotate(4.66) scale(1 0.55)" xlink:href="#radial-gradient-9"/></defs><g id="Layer_2" data-name="Layer 2"><g id="Layer_1-2" data-name="Layer 1"><path class="cls-1" d="M68.79,88.05S23,64.73,8.71,55.37C4,52.32-5,44.75,3.49,33.67c8.29-10.84,18.21-3.82,22.12.09C37.9,46,68.79,88.05,68.79,88.05Z"/><path class="cls-2" d="M68.79,88.05S52.59,44.93,50,29.87C48.91,23.75,49.35,9.74,63.41,9S80.23,19.25,80.17,25.06C80,41.06,68.79,88.05,68.79,88.05Z"/><path class="cls-3" d="M68.79,88.05s8.6-49.26,14-65c1.76-5.16,7.45-15.62,18.56-11.44,12.5,4.69,8,15.12,5.55,19.54C98.45,46.06,68.79,88.05,68.79,88.05Z"/><path class="cls-4" d="M68.79,88.05S31.37,37.3,19.24,20.14C16.68,16.52,11.48,8.8,21.4,2.52,31.87-4.11,36.85,4,38.79,8.11,47.82,27.45,68.79,88.05,68.79,88.05Z"/><path class="cls-5" d="M68.79,88.05S88.65,57.13,97.45,48.73c3.19-3,11.69-7.69,17.62,1s1.31,12.5-1.76,14.45C102.67,71,68.79,88.05,68.79,88.05Z"/><path class="cls-6" d="M68.31,88.21A254,254,0,0,0,56.94,60.82c-6.5-13.36-16.77-31-28.74-39.21l.57-.83c5.38,3.67,10.86,9.5,16.29,17.31a168.75,168.75,0,0,1,12.8,22.3,257.88,257.88,0,0,1,11.42,27.5Z"/><path class="cls-7" d="M29.78,19.4a2.22,2.22,0,1,0,.66,3.07A2.23,2.23,0,0,0,29.78,19.4Z"/><path class="cls-8" d="M69.31,88.25l-1-.1c0-.12,1.22-11.41,3.76-24.24A174.42,174.42,0,0,1,77,44.3c2.22-6.86,4.64-12,7.18-15.16l.8.63c-4.45,5.59-8.56,17.46-11.9,34.33C70.53,76.89,69.33,88.14,69.31,88.25Z"/><path class="cls-9" d="M86.15,31A2.22,2.22,0,1,0,83,31.2,2.22,2.22,0,0,0,86.15,31Z"/><path class="cls-10" d="M43.77,70.89a46.88,46.88,0,0,1,10.35,4.37,47.11,47.11,0,0,1,9.55,7,29.13,29.13,0,0,1,4,4.66c.49.72,1.66,0,1.17-.68a35.87,35.87,0,0,0-8.16-8.29,52.33,52.33,0,0,0-10.47-6.14,45.54,45.54,0,0,0-6.08-2.21.68.68,0,0,0-.36,1.31Z"/><path class="cls-10" d="M37.38,49.61c5.49,2.86,10.2,7.17,14.38,11.68A82.83,82.83,0,0,1,63.69,77.68a45.41,45.41,0,0,1,3.91,9.06.68.68,0,0,0,1.31-.36,58.55,58.55,0,0,0-8.69-16.79A82.87,82.87,0,0,0,46.38,54.22a45.75,45.75,0,0,0-8.31-5.78c-.78-.4-1.46.77-.69,1.17Z"/><path class="cls-10" d="M51.88,38.26c1.77,6.11,3.82,12.14,5.83,18.17,2.35,7,4.73,14,7,21.08,1,3.07,2,6.14,2.87,9.23a.68.68,0,0,0,1.31-.36c-1.76-6.11-3.81-12.14-5.83-18.17-2.34-7-4.72-14-7-21.08-1-3.07-2-6.13-2.88-9.23a.68.68,0,0,0-1.31.36Z"/><path class="cls-10" d="M66.68,32c-2.16,6.56-2.4,13.72-2.25,20.57.16,7.62,1,15.21,1.85,22.77.44,3.73.91,7.46,1.3,11.2.09.86,1.45.87,1.36,0-.73-7-1.69-13.92-2.35-20.89A132.74,132.74,0,0,1,66,43.12a46,46,0,0,1,2-10.74c.28-.83-1-1.19-1.31-.36Z"/><path class="cls-10" d="M77.85,32.64A103.56,103.56,0,0,0,71,52.85a131.84,131.84,0,0,0-3.2,21.73q-.39,6-.2,12a.68.68,0,0,0,1.36,0A127.72,127.72,0,0,1,70,65.42a121.41,121.41,0,0,1,4.72-21.14,94.09,94.09,0,0,1,4.26-11c.37-.79-.8-1.48-1.17-.68Z"/><path class="cls-10" d="M83.62,39.71a53,53,0,0,0-9.28,16.64,121.63,121.63,0,0,0-5,19.27c-.65,3.58-1.22,7.17-1.79,10.76-.13.85,1.18,1.22,1.31.36,1-6.37,2-12.75,3.51-19a81.09,81.09,0,0,1,6.39-18.32,44.1,44.1,0,0,1,5.77-8.72c.57-.66-.39-1.62-1-1Z"/><path class="cls-10" d="M84.77,55.68C76.9,61,73.53,70.47,70.42,79c-.91,2.48-1.81,5-2.82,7.4-.33.81,1,1.16,1.31.36,1.75-4.23,3.18-8.59,4.86-12.85a48.34,48.34,0,0,1,6.39-12,22.77,22.77,0,0,1,5.3-5c.72-.49,0-1.66-.69-1.17Z"/><path class="cls-10" d="M89.78,61.71c-8.39,3.12-14.13,10.41-18.52,17.9C70,81.77,68.81,84,67.67,86.22c-.39.77.78,1.46,1.17.68,3.83-7.48,8.2-15.36,15.09-20.47A25.2,25.2,0,0,1,90.14,63c.81-.3.46-1.61-.36-1.31Z"/><path class="cls-11" d="M69,88l-.88-.51a58,58,0,0,1,7.15-9.16A56,56,0,0,1,96.09,64.09l.35,1A55,55,0,0,0,76,79,57.24,57.24,0,0,0,69,88Z"/><path class="cls-12" d="M96.89,66.7a2.22,2.22,0,1,0-2.82-1.37A2.22,2.22,0,0,0,96.89,66.7Z"/><path class="cls-13" d="M68.16,87.42a27.67,27.67,0,0,0-5.45-10.74c-4.16-5.31-12.3-12.4-27.45-16.07l.24-1A58.65,58.65,0,0,1,53.37,67a40.68,40.68,0,0,1,10.18,9.14C68.18,82,69.12,87,69.16,87.24Z"/><path class="cls-14" d="M36,58a2.22,2.22,0,1,0,1.65,2.66A2.22,2.22,0,0,0,36,58Z"/><path class="cls-15" d="M68.29,88.06A45.22,45.22,0,0,1,70.4,75.75a61.66,61.66,0,0,1,5.18-12.33A66.82,66.82,0,0,1,85.79,49.64l.74.71A63.3,63.3,0,0,0,71.38,76,46,46,0,0,0,69.3,88.05Z"/><path class="cls-16" d="M87.67,51.63a2.22,2.22,0,1,0-3.14,0A2.22,2.22,0,0,0,87.67,51.63Z"/><path class="cls-17" d="M68.31,88.05s1.75-13.51,2.54-18c.51-2.86,2.17-10.18,9.68-6.46s2.82,10.42,2.23,11C81.05,76.22,68.31,88.05,68.31,88.05Z"/><path class="cls-18" d="M68.79,88.05S50.7,71.39,45.19,65.34c-2.53-2.78-8.13-10.21-.19-15,8.93-5.41,12.3,1.95,13.57,5.37C61.53,63.64,68.79,88.05,68.79,88.05Z"/><path class="cls-19" d="M3.33,36.34c5.19-9.43,18.46-11.86,11.59,3.32S-4.19,50,3.33,36.34Z"/><path class="cls-20" d="M21.43,4.65c12.08-8.79,15.84,2.26,6.15,7.57S12.43,11.2,21.43,4.65Z"/><path class="cls-21" d="M66.67,10.75c9.51.9,17.58,10.86,0,9.35S54.44,9.59,66.67,10.75Z"/><path class="cls-22" d="M68.31,88.2a264.09,264.09,0,0,1-6.88-31.42A177,177,0,0,1,59.13,29c.06-10.37,1.43-19.06,4.07-25.83l1,.37C58.26,18.57,60,40.7,62.43,56.61A262.77,262.77,0,0,0,69.28,87.9Z"/><path class="cls-23" d="M65.69,4.26a2.22,2.22,0,1,0-2.9,1.2A2.22,2.22,0,0,0,65.69,4.26Z"/><path class="cls-24" d="M101.88,13.08c9.41,4.57,9.73,12.54-2.76,7.77S92.17,8.36,101.88,13.08Z"/><path class="cls-25" d="M115,50.77c3.65,5.83,2.14,15.31-5.71,3.9S111.35,44.9,115,50.77Z"/><path class="cls-26" d="M44.5,51.93c4.65-4.48,11.92-2.88,5.39,2.88S39.42,56.82,44.5,51.93Z"/><path class="cls-27" d="M81.35,65.21C85,67.5,84.84,73,78.84,68.52S75.3,61.39,81.35,65.21Z"/><path class="cls-28" d="M67.79,88.41s-4.74-27.41-6-36.58c-.31-2.29-.81-7.54,5.88-7.45s7.43,5,7.29,7.48C74.45,61.14,67.79,88.41,67.79,88.41Z"/><path class="cls-29" d="M67.16,45.35c4.8-.55,10.89,4.08,2.35,4S60.85,46.07,67.16,45.35Z"/></g></g></svg>