<svg xmlns="http://www.w3.org/2000/svg" viewBox="0 0 1186.96 636.49"><defs><style>.cls-1{isolation:isolate;}.cls-2{fill:#f7eae4;}.cls-3,.cls-5{mix-blend-mode:multiply;}.cls-4,.cls-5{fill:#d8c3ba;}.cls-5{opacity:0.2;}.cls-6{fill:#fff;opacity:0.05;}</style></defs><g class="cls-1"><g id="Layer_2" data-name="Layer 2"><g id="Layer_4" data-name="Layer 4"><path class="cls-2" d="M386.46,143.73A113.14,113.14,0,1,1,242.73,0,113.21,113.21,0,0,0,386.46,143.73Z"/><g class="cls-3"><path class="cls-4" d="M351.92,193.43A113.13,113.13,0,1,1,222.79,8.64,113.14,113.14,0,0,0,351.92,193.43Z"/></g><g class="cls-3"><ellipse class="cls-5" cx="214.16" cy="52.09" rx="14.73" ry="13.19" transform="translate(-1.88 95.73) rotate(-25.09)"/><path class="cls-5" d="M227.51,45.85c3.08,6.59-.38,14.74-7.75,18.19a15.56,15.56,0,0,1-11.31.84,16.08,16.08,0,0,0,6.27-1.53c7.37-3.45,10.83-11.59,7.74-18.19a12.43,12.43,0,0,0-7.62-6.54C220.24,38.43,225.28,41.08,227.51,45.85Z"/></g><g class="cls-3"><ellipse class="cls-5" cx="218.54" cy="165.92" rx="14.44" ry="12.93" transform="translate(-49.74 108.32) rotate(-25.09)"/><path class="cls-5" d="M231.62,159.8c3,6.47-.37,14.45-7.6,17.84a15.2,15.2,0,0,1-11.08.82,15.76,15.76,0,0,0,6.14-1.49c7.23-3.39,10.63-11.37,7.6-17.84a12.2,12.2,0,0,0-7.48-6.41C224.5,152.53,229.43,155.13,231.62,159.8Z"/></g><g class="cls-3"><ellipse class="cls-5" cx="267.68" cy="158.27" rx="13.66" ry="16.76" transform="translate(-41.85 128.43) rotate(-25.09)"/><path class="cls-5" d="M280.05,152.48c3.92,8.38,1.56,17.77-5.27,21a12.56,12.56,0,0,1-11.07-.48,11.53,11.53,0,0,0,6-1c6.83-3.2,9.19-12.59,5.26-21a18.85,18.85,0,0,0-8.4-8.92C271.88,142.56,277.21,146.43,280.05,152.48Z"/></g><g class="cls-3"><ellipse class="cls-5" cx="322.81" cy="179.14" rx="16.46" ry="12.19" transform="translate(-45.5 153.78) rotate(-25.09)"/><path class="cls-5" d="M337.72,172.16c2.85,6.1-1.51,14.17-9.74,18a19.59,19.59,0,0,1-12.31,1.65,21.25,21.25,0,0,0,6.9-1.93c8.24-3.85,12.6-11.92,9.74-18a10.77,10.77,0,0,0-7.77-5.71C330.4,165.59,335.66,167.76,337.72,172.16Z"/></g><g class="cls-3"><ellipse class="cls-5" cx="203.96" cy="107.04" rx="10.39" ry="9.31" transform="translate(-26.14 96.58) rotate(-25.09)"/><path class="cls-5" d="M213.37,102.63c2.18,4.65-.27,10.4-5.47,12.83a10.94,10.94,0,0,1-8,.6,11.35,11.35,0,0,0,4.43-1.08c5.19-2.43,7.64-8.18,5.46-12.83a8.75,8.75,0,0,0-5.38-4.62A9.3,9.3,0,0,1,213.37,102.63Z"/></g><rect class="cls-6" y="623.23" width="1186.96" height="13.26"/></g></g></g></svg>