<svg xmlns="http://www.w3.org/2000/svg" xmlns:xlink="http://www.w3.org/1999/xlink" viewBox="0 0 89.57 545.85"><defs><style>.cls-1{fill:none;}.cls-2{fill:#633f0a;}.cls-3{fill:#3c2606;}.cls-4{clip-path:url(#clip-path);}.cls-5{fill:#a56911;}.cls-6{fill:#4d3108;}</style><clipPath id="clip-path" transform="translate(-16.29)"><rect id="SVGID" class="cls-1" y="201.22" width="127.1" height="91.74"/></clipPath></defs><g id="Layer_2" data-name="Layer 2"><g id="Layer_1-2" data-name="Layer 1"><path class="cls-2" d="M23.13,545.85q1.7-63,3.86-125.91l1.13-31.52q.55-16.29,2.47-32.39c1.25-10.72,2.93-21.34,4.91-31.86s4.27-20.92,6.71-31.22,5-20.5,7.54-30.62c1.24-5.06,2.46-10.1,3.58-15.11s2.16-10,3-15a141.39,141.39,0,0,0,1.85-14.78c.09-1.21.14-2.44.18-3.62s.07-2.35.06-3.53c0-2.37-.17-4.76-.43-7.17a105.2,105.2,0,0,0-2.69-14.53c-1.23-4.86-2.76-9.7-4.46-14.52-3.41-9.66-7.52-19.21-11.72-28.8s-8.52-19.2-12.35-29.08c-1.91-5-3.69-10-5.2-15.06A106.11,106.11,0,0,1,18.1,85.54a61.73,61.73,0,0,1-.29-16,46.58,46.58,0,0,1,1.64-7.78,42.62,42.62,0,0,1,3-7.28A43,43,0,0,0,20.13,62a45.59,45.59,0,0,0-.92,7.71A60,60,0,0,0,20.86,85a103.26,103.26,0,0,0,4.7,14.72c1.9,4.81,4.07,9.51,6.36,14.17,9.22,18.62,20.39,36.38,29.35,55.92,2.23,4.88,4.31,9.88,6.13,15.06a118.16,118.16,0,0,1,4.48,16c.55,2.77,1,5.59,1.27,8.45.15,1.43.26,2.87.32,4.32s.07,2.83.07,4.24a159.35,159.35,0,0,1-1,16.5c-.58,5.41-1.35,10.74-2.2,16S68.53,261,67.59,266.14C65.69,276.52,63.74,286.78,62,297s-3.37,20.42-4.65,30.61-2.24,20.35-2.8,30.51-.73,20.3-.45,30.4c0,1.24.08,2.57.13,3.87l.15,3.93.3,7.85.63,15.69q2.53,62.79,5.58,125.56Z" transform="translate(-16.29)"/><path class="cls-3" d="M51.51,464.68c1,11.41,1.94,22.84,2.69,34.27q.55,8.55,1,17.1c.14,2.72.25,5.44.37,8.15s.57,5.58,0,8.26c-.48,2.31,3.07,3.3,3.55,1a32.28,32.28,0,0,0,.15-8.1c-.13-2.68-.23-5.38-.36-8.07q-.42-8.85-1-17.71-1.14-17.46-2.73-34.88c-.21-2.34-3.89-2.36-3.68,0Z" transform="translate(-16.29)"/><path class="cls-3" d="M50.7,455.94c.08.79.15,1.57.22,2.35a1.87,1.87,0,0,0,1.84,1.84,1.85,1.85,0,0,0,1.84-1.84c-.07-.78-.14-1.56-.22-2.35a1.89,1.89,0,0,0-1.84-1.84,1.86,1.86,0,0,0-1.84,1.84Z" transform="translate(-16.29)"/><path class="cls-3" d="M49.74,447.46c.1.75.2,1.49.29,2.24a1.88,1.88,0,0,0,1.84,1.84c.89,0,2-.82,1.84-1.84-.09-.75-.19-1.49-.29-2.24a2,2,0,0,0-.53-1.3,1.89,1.89,0,0,0-1.31-.54c-.88,0-2,.82-1.84,1.84Z" transform="translate(-16.29)"/><path class="cls-3" d="M46.77,477.88a360.74,360.74,0,0,1,4.16,52.72c0,2.37,3.69,2.37,3.68,0a367,367,0,0,0-4.29-53.69c-.36-2.34-3.91-1.35-3.55,1Z" transform="translate(-16.29)"/><path class="cls-3" d="M44.36,464.12q.57,2.91,1.09,5.83c.41,2.32,4,1.34,3.54-1-.34-2-.71-3.89-1.08-5.83-.45-2.32-4-1.34-3.55,1Z" transform="translate(-16.29)"/><path class="cls-3" d="M42.92,457.13c.18.82.35,1.64.52,2.46a1.84,1.84,0,1,0,3.55-1c-.17-.83-.34-1.65-.52-2.47a1.85,1.85,0,0,0-2.26-1.28,1.87,1.87,0,0,0-1.29,2.26Z" transform="translate(-16.29)"/><path class="cls-3" d="M41.43,490.2q2.05,13,3.87,26.09c1.21,8.6,2.57,17.23.41,25.8-.58,2.3,3,3.28,3.55,1,2.23-8.85,1-17.67-.24-26.56q-1.92-13.67-4-27.29c-.37-2.33-3.92-1.34-3.55,1Z" transform="translate(-16.29)"/><path class="cls-3" d="M40.06,479.15l.33,2.92a1.9,1.9,0,0,0,1.84,1.84c.9,0,2-.82,1.84-1.84l-.33-2.92a1.88,1.88,0,0,0-1.84-1.84,1.86,1.86,0,0,0-1.84,1.84Z" transform="translate(-16.29)"/><path class="cls-3" d="M33.19,476.3c1.91,21.83,5.27,44,1.61,65.79-.38,2.32,3.16,3.31,3.55,1,3.72-22.22.46-44.56-1.48-66.77-.21-2.34-3.89-2.36-3.68,0Z" transform="translate(-16.29)"/><path class="cls-3" d="M31.8,461.53c.09,1.16.19,2.32.29,3.49a1.9,1.9,0,0,0,1.84,1.84A1.87,1.87,0,0,0,35.78,465c-.11-1.17-.21-2.33-.3-3.49a1.89,1.89,0,0,0-1.84-1.84,1.85,1.85,0,0,0-1.84,1.84Z" transform="translate(-16.29)"/><path class="cls-3" d="M27.63,509.08c-.18,5.86-.3,11.73-.23,17.6,0,2.84.12,5.67.27,8.5s.64,5.71.82,8.58c.15,2.35,3.83,2.37,3.68,0-.18-2.87-.67-5.71-.82-8.58s-.23-5.66-.26-8.5c-.08-5.87,0-11.74.22-17.6.07-2.37-3.61-2.37-3.68,0Z" transform="translate(-16.29)"/><path class="cls-3" d="M28.09,497.41c-.09,1.84-.17,3.69-.25,5.53-.09,2.37,3.59,2.37,3.68,0,.08-1.84.16-3.69.25-5.53.11-2.37-3.57-2.37-3.68,0Z" transform="translate(-16.29)"/><path class="cls-3" d="M28.49,489.25l-.18,3.56a1.84,1.84,0,0,0,3.68,0l.18-3.56a1.84,1.84,0,0,0-3.68,0Z" transform="translate(-16.29)"/><path class="cls-2" d="M39.23,545.66c-2.38,0,14.08-62.19,18.92-73.78,3.92-23.23,7.62-46.49,10.84-69.72,1.61-11.62,3.09-23.22,4.32-34.77q.91-8.65,1.59-17.22c.43-5.7.75-11.36.84-16.8v-2c0-.68,0-1.32,0-2s0-1.28,0-1.92l-.06-2c0-1.38,0-2.76-.12-4.12s-.12-2.75-.22-4.11Q74.76,309,73.45,301a147.63,147.63,0,0,0-3.58-15.88,138.63,138.63,0,0,0-5.44-15.39c-1.06-2.52-2.2-5-3.42-7.51s-2.49-5-3.85-7.41c-2.69-4.91-5.67-9.77-8.79-14.66s-6.42-9.8-9.7-14.87S32.12,215,29.12,209.43A116.4,116.4,0,0,1,21.34,192a90.32,90.32,0,0,1-2.69-9.28,91.38,91.38,0,0,1-2.33-19c0-.79,0-1.59,0-2.38l0-2.36c0-.79.07-1.58.1-2.36l.06-1.18.08-1.19a98.78,98.78,0,0,1,3.05-18.56,147.33,147.33,0,0,1,5.81-17.44c2.23-5.63,4.68-11.1,7.14-16.51s5-10.77,7.3-16.15,4.55-10.81,6.48-16.32a128,128,0,0,0,7.3-34.15,115,115,0,0,0-.22-17.6A128.52,128.52,0,0,0,50.63,0a130.77,130.77,0,0,1,4.12,17.33A118.15,118.15,0,0,1,56.3,35.18a132,132,0,0,1-4.89,35.63C49.85,76.62,48,82.34,46,88S42,99.2,39.92,104.74c-4.08,11.07-8,22.1-10,33.23a87.56,87.56,0,0,0-1.48,16.62v1l.05,1c0,.69.06,1.39.11,2.08l.16,2.07c.05.7.15,1.38.22,2.07a77.74,77.74,0,0,0,1.35,8.1,76,76,0,0,0,5.17,15.4,99.16,99.16,0,0,0,8.12,14.29c6.23,9.26,13.82,18.11,21.29,27.65,3.74,4.77,7.45,9.7,11,14.87,1.77,2.57,3.47,5.22,5.13,7.92s3.24,5.45,4.75,8.26a163.49,163.49,0,0,1,8.12,17.43,173.57,173.57,0,0,1,6,18.32,190.45,190.45,0,0,1,4,18.77c.27,1.58.49,3.15.71,4.73s.41,3.15.6,4.73l.14,1.18c.05.4.07.84.1,1.26.06.84.12,1.7.16,2.51s.08,1.66.1,2.47l.08,2.42c.12,6.41,0,12.6-.26,18.72s-.6,12.18-1,18.21c-.85,12.05-1.94,24-3.15,35.91-2.43,23.81-5.34,47.47-8.46,71.08-1.56,11.81-7.18,68.73-7.18,68.73Z" transform="translate(-16.29)"/><path class="cls-3" d="M55.22,221.42c10.3,12.16,17.6,26.41,25.83,40,1,1.68,3.68.14,2.65-1.55-8.37-13.79-15.83-28.22-26.32-40.58-1.27-1.51-3.44.67-2.16,2.16Z" transform="translate(-16.29)"/><path class="cls-3" d="M50.91,216.89c.55.53,1.08,1.07,1.61,1.61a1.53,1.53,0,1,0,2.17-2.17c-.53-.54-1.06-1.08-1.61-1.61a1.53,1.53,0,0,0-2.17,2.17Z" transform="translate(-16.29)"/><path class="cls-3" d="M80.53,274c.11.44.22.88.32,1.32a1.54,1.54,0,0,0,1.88,1.07,1.56,1.56,0,0,0,1.07-1.89c-.1-.44-.2-.88-.31-1.32a1.55,1.55,0,0,0-1.89-1.07A1.57,1.57,0,0,0,80.53,274Z" transform="translate(-16.29)"/><path class="cls-3" d="M78.18,267c.48,1.16.91,2.32,1.31,3.5a1.53,1.53,0,0,0,3-.81c-.4-1.18-.84-2.35-1.31-3.5a1.58,1.58,0,0,0-1.89-1.07A1.55,1.55,0,0,0,78.18,267Z" transform="translate(-16.29)"/><path class="cls-3" d="M54.72,228.94c8,11.25,16.2,22.76,22.18,35.23.85,1.78,3.5.23,2.65-1.54-6-12.47-14.2-24-22.18-35.24-1.13-1.59-3.8-.06-2.65,1.55Z" transform="translate(-16.29)"/><path class="cls-3" d="M50.91,224.39c.27.29.54.59.8.89a1.53,1.53,0,0,0,1.08.45,1.58,1.58,0,0,0,1.09-.45,1.51,1.51,0,0,0,.45-1.08,1.72,1.72,0,0,0-.45-1.09l-.8-.89a1.54,1.54,0,0,0-2.17,0,1.57,1.57,0,0,0,0,2.17Z" transform="translate(-16.29)"/><path class="cls-3" d="M71.74,268.48c.11.31.22.62.32.93a1.61,1.61,0,0,0,.7.92,1.59,1.59,0,0,0,1.19.15,1.54,1.54,0,0,0,.91-.71,1.52,1.52,0,0,0,.16-1.18l-.32-.93a1.65,1.65,0,0,0-.7-.92,1.57,1.57,0,0,0-1.18-.15,1.54,1.54,0,0,0-1.08,1.89Z" transform="translate(-16.29)"/><path class="cls-3" d="M47.59,228a20.24,20.24,0,0,1,1.25,2.09c.52.84,1.17,1.59,1.76,2.38,1.12,1.5,2.2,3,3.27,4.57,2.15,3.12,4.21,6.28,6.39,9.38s4.42,5.74,6.18,8.92a57.55,57.55,0,0,1,4.09,9.76c.63,1.87,3.59,1.07,3-.81a66.37,66.37,0,0,0-3.91-9.58c-1.75-3.37-4.15-6.26-6.34-9.36S59,239.11,56.85,236c-1.12-1.63-2.25-3.24-3.42-4.81-.57-.77-1.2-1.52-1.73-2.31s-.88-1.65-1.46-2.41c-1.18-1.54-3.85,0-2.65,1.55Z" transform="translate(-16.29)"/><path class="cls-3" d="M44.57,223.7l.85,1.2a1.6,1.6,0,0,0,.92.71,1.58,1.58,0,0,0,1.18-.16,1.54,1.54,0,0,0,.55-2.09l-.85-1.21a1.65,1.65,0,0,0-.92-.7,1.52,1.52,0,0,0-1.18.15,1.55,1.55,0,0,0-.55,2.1Z" transform="translate(-16.29)"/><path class="cls-3" d="M41.76,219.65l.61.88a1.65,1.65,0,0,0,.92.7A1.53,1.53,0,0,0,45,219l-.61-.88a1.68,1.68,0,0,0-.92-.71,1.58,1.58,0,0,0-1.18.16,1.55,1.55,0,0,0-.55,2.1Z" transform="translate(-16.29)"/><path class="cls-3" d="M70.52,281.94l.27,1.45a1.54,1.54,0,0,0,1.89,1.07,1.59,1.59,0,0,0,1.07-1.89c-.09-.48-.18-1-.28-1.45a1.54,1.54,0,0,0-1.88-1.07,1.57,1.57,0,0,0-1.07,1.89Z" transform="translate(-16.29)"/><path class="cls-3" d="M51.83,242.15c8.86,10.48,14.62,23.12,17.94,36.38.48,1.91,3.44,1.1,3-.82C69.28,263.93,63.21,250.88,54,240c-1.28-1.51-3.44.67-2.17,2.17Z" transform="translate(-16.29)"/><path class="cls-3" d="M46.4,235.35c1,1.24,2.07,2.49,3.07,3.76a1.54,1.54,0,0,0,2.17,0,1.57,1.57,0,0,0,0-2.17c-1-1.27-2-2.52-3.07-3.76a1.53,1.53,0,1,0-2.17,2.17Z" transform="translate(-16.29)"/><path class="cls-3" d="M38.62,131l.66,1a.62.62,0,0,0,.37.28.64.64,0,0,0,.47-.06.62.62,0,0,0,.28-.37.6.6,0,0,0-.06-.47l-.66-1a.62.62,0,0,0-.37-.28.64.64,0,0,0-.47.06.61.61,0,0,0-.28.37.59.59,0,0,0,.06.47Z" transform="translate(-16.29)"/><path class="cls-3" d="M36.63,127.72l.72,1.22a.63.63,0,0,0,.36.28.66.66,0,0,0,.48-.06.65.65,0,0,0,.28-.37.64.64,0,0,0-.06-.47l-.72-1.22a.59.59,0,0,0-.36-.28.58.58,0,0,0-.48.06.63.63,0,0,0-.28.36.66.66,0,0,0,.06.48Z" transform="translate(-16.29)"/><path class="cls-3" d="M27.23,107.91c1.89,4.71,3.92,9.37,6.21,13.9.65,1.27,1.32,2.54,2,3.8.38.69,1.44.07,1.06-.62-2.39-4.36-4.51-8.87-6.46-13.45-.55-1.31-1.09-2.63-1.63-4a.61.61,0,1,0-1.18.33Z" transform="translate(-16.29)"/><path class="cls-3" d="M25.23,102.72c.37,1,.75,2,1.13,3a.61.61,0,1,0,1.18-.33c-.38-1-.76-2-1.13-3a.61.61,0,1,0-1.18.33Z" transform="translate(-16.29)"/><path class="cls-3" d="M37.88,133.49c.47.89.94,1.78,1.4,2.67a.62.62,0,0,0,.84.22.63.63,0,0,0,.22-.84c-.46-.89-.93-1.78-1.4-2.67a.61.61,0,0,0-1.06.62Z" transform="translate(-16.29)"/><path class="cls-3" d="M24.6,105.91a196.9,196.9,0,0,0,9.47,20.56c1,1.8,1.93,3.58,2.92,5.36.38.69,1.44.07,1.06-.62a216,216,0,0,1-9.69-19.37q-1.35-3.11-2.58-6.26a.64.64,0,0,0-.76-.43.61.61,0,0,0-.42.76Z" transform="translate(-16.29)"/><path class="cls-3" d="M23.39,102.32c.18.57.36,1.14.55,1.71a.61.61,0,0,0,.29.36.59.59,0,0,0,.47.06.61.61,0,0,0,.43-.75c-.19-.57-.38-1.14-.56-1.71a.63.63,0,0,0-.28-.36.65.65,0,0,0-.47-.07.62.62,0,0,0-.43.76Z" transform="translate(-16.29)"/><path class="cls-3" d="M22.51,99.64c.1.32.2.64.31,1a.62.62,0,0,0,.28.37.59.59,0,0,0,.47.06.61.61,0,0,0,.37-.28.64.64,0,0,0,.06-.47c-.1-.32-.21-.64-.31-1a.61.61,0,0,0-.28-.37.64.64,0,0,0-.47-.06.65.65,0,0,0-.37.28.67.67,0,0,0-.06.48Z" transform="translate(-16.29)"/><path class="cls-3" d="M33.69,130.43c.45.84.9,1.67,1.36,2.5a.61.61,0,0,0,.83.22.62.62,0,0,0,.22-.84c-.45-.83-.91-1.66-1.35-2.49a.61.61,0,0,0-1.06.61Z" transform="translate(-16.29)"/><path class="cls-3" d="M26.42,114.44c1.93,4.88,4,9.69,6.43,14.38.36.7,1.42.08,1.06-.62-2.33-4.59-4.41-9.3-6.31-14.09a.64.64,0,0,0-.76-.43.61.61,0,0,0-.42.76Z" transform="translate(-16.29)"/><path class="cls-3" d="M25.1,111c.19.51.38,1,.58,1.52a.74.74,0,0,0,.28.37.66.66,0,0,0,.48.06.63.63,0,0,0,.36-.28.62.62,0,0,0,.06-.48c-.19-.5-.39-1-.58-1.52a.63.63,0,0,0-.28-.36.65.65,0,0,0-.47-.07.63.63,0,0,0-.37.29.59.59,0,0,0-.06.47Z" transform="translate(-16.29)"/><g class="cls-4"><path class="cls-2" d="M23.13,545.85q1.7-63,3.86-125.91l1.13-31.52q.55-16.29,2.47-32.39c1.25-10.72,2.93-21.34,4.91-31.86s4.27-20.92,6.71-31.22,5-20.5,7.54-30.62c1.24-5.06,2.46-10.1,3.58-15.11s2.16-10,3-15a141.39,141.39,0,0,0,1.85-14.78c.09-1.21.14-2.44.18-3.62s.07-2.35.06-3.53c0-2.37-.17-4.76-.43-7.17a105.2,105.2,0,0,0-2.69-14.53c-1.23-4.86-2.76-9.7-4.46-14.52-3.41-9.66-7.52-19.21-11.72-28.8s-8.52-19.2-12.35-29.08c-1.91-5-3.69-10-5.2-15.06A106.11,106.11,0,0,1,18.1,85.54a61.73,61.73,0,0,1-.29-16,46.58,46.58,0,0,1,1.64-7.78,42.62,42.62,0,0,1,3-7.28A43,43,0,0,0,20.13,62a45.59,45.59,0,0,0-.92,7.71A60,60,0,0,0,20.86,85a103.26,103.26,0,0,0,4.7,14.72c1.9,4.81,4.07,9.51,6.36,14.17,9.22,18.62,20.39,36.38,29.35,55.92,2.23,4.88,4.31,9.88,6.13,15.06a118.16,118.16,0,0,1,4.48,16c.55,2.77,1,5.59,1.27,8.45.15,1.43.26,2.87.32,4.32s.07,2.83.07,4.24a159.35,159.35,0,0,1-1,16.5c-.58,5.41-1.35,10.74-2.2,16S68.53,261,67.59,266.14C65.69,276.52,63.74,286.78,62,297s-3.37,20.42-4.65,30.61-2.24,20.35-2.8,30.51-.73,20.3-.45,30.4c0,1.24.08,2.57.13,3.87l.15,3.93.3,7.85.63,15.69q2.53,62.79,5.58,125.56Z" transform="translate(-16.29)"/></g><path class="cls-5" d="M22.71,129l-.45,1.38a.77.77,0,0,0,.08.59.75.75,0,0,0,.45.35.8.8,0,0,0,.59-.08.83.83,0,0,0,.36-.46l.45-1.37a.79.79,0,0,0-.08-.6.78.78,0,0,0-.46-.35.82.82,0,0,0-.59.08.86.86,0,0,0-.35.46Z" transform="translate(-16.29)"/><path class="cls-5" d="M33.09,104.05q-4.16,8.24-7.49,16.85c-.63,1.64-1.23,3.28-1.82,4.93a.77.77,0,1,0,1.48.41,180.84,180.84,0,0,1,6.88-16.76c.74-1.56,1.49-3.11,2.27-4.65.45-.88-.88-1.66-1.32-.78Z" transform="translate(-16.29)"/><path class="cls-5" d="M35.7,99.09l-1.14,2.11a.79.79,0,0,0,.28,1,.78.78,0,0,0,1-.27c.37-.71.75-1.42,1.13-2.12a.76.76,0,1,0-1.32-.77Z" transform="translate(-16.29)"/><path class="cls-5" d="M22.46,144.49,22.31,146a.76.76,0,0,0,.23.54.77.77,0,0,0,1.08,0l.12-.16a.75.75,0,0,0,.1-.38c.05-.49.1-1,.16-1.46a.79.79,0,0,0-.77-.77.78.78,0,0,0-.54.23l-.12.15a.77.77,0,0,0-.11.39Z" transform="translate(-16.29)"/><path class="cls-5" d="M23.11,139.72c-.08.49-.15,1-.22,1.46a.51.51,0,0,0,0,.3.52.52,0,0,0,.09.29.75.75,0,0,0,.45.35A.84.84,0,0,0,24,142a.74.74,0,0,0,.35-.46c.07-.48.14-1,.22-1.45a.61.61,0,0,0,0-.3.5.5,0,0,0-.09-.29.74.74,0,0,0-.46-.35.73.73,0,0,0-.59.08.72.72,0,0,0-.35.45Z" transform="translate(-16.29)"/><path class="cls-5" d="M24,134.67c-.13.65-.27,1.3-.39,2a.82.82,0,0,0,.08.59.74.74,0,0,0,.46.35.82.82,0,0,0,.59-.08.74.74,0,0,0,.35-.46c.12-.65.26-1.3.39-2a.76.76,0,0,0-1.12-.86.72.72,0,0,0-.36.46Z" transform="translate(-16.29)"/><path class="cls-5" d="M31.36,112.71a103.53,103.53,0,0,0-5.47,14.58q-.62,2.11-1.14,4.26c-.23.95,1.25,1.36,1.48.4A103,103,0,0,1,31,117.4c.54-1.32,1.11-2.63,1.71-3.92a.76.76,0,1,0-1.32-.77Z" transform="translate(-16.29)"/><path class="cls-5" d="M33.52,108.32l-.72,1.39a.81.81,0,0,0-.07.59.77.77,0,0,0,1.4.19c.23-.47.47-.93.71-1.39a.76.76,0,0,0,.08-.59.78.78,0,0,0-.35-.46A.76.76,0,0,0,34,108a.74.74,0,0,0-.46.35Z" transform="translate(-16.29)"/><path class="cls-5" d="M26.58,137.82c-.2,1-.38,2-.56,3a.87.87,0,0,0,.08.59.77.77,0,0,0,1.4-.19c.18-1,.36-2,.56-3a.79.79,0,0,0-.54-.94.77.77,0,0,0-.94.53Z" transform="translate(-16.29)"/><path class="cls-5" d="M27.42,133.8c-.07.34-.15.67-.22,1a.81.81,0,0,0,.08.59.93.93,0,0,0,.46.35.73.73,0,0,0,.59-.08.75.75,0,0,0,.35-.45c.07-.34.15-.68.22-1a.76.76,0,0,0-.08-.59.57.57,0,0,0-.19-.22.66.66,0,0,0-.26-.14.8.8,0,0,0-.59.08.79.79,0,0,0-.36.46Z" transform="translate(-16.29)"/><path class="cls-5" d="M33.23,114a168.46,168.46,0,0,0-5,16.58.77.77,0,0,0,1.48.41,171.15,171.15,0,0,1,5-16.58.76.76,0,1,0-1.47-.41Z" transform="translate(-16.29)"/><path class="cls-5" d="M36.17,106.86c-.57,1.26-1.12,2.53-1.64,3.81a.77.77,0,0,0,.53,1,.8.8,0,0,0,.95-.54c.12-.3.25-.61.38-.91-.06.14,0,0,0-.08s.07-.17.11-.26l.18-.42c.26-.59.52-1.18.79-1.77a.79.79,0,0,0-.28-1,.77.77,0,0,0-1,.27Z" transform="translate(-16.29)"/><path class="cls-5" d="M38.12,102.48l-.66,1.46a.47.47,0,0,0-.09.28.55.55,0,0,0,0,.31.79.79,0,0,0,.35.45.72.72,0,0,0,.59.08.74.74,0,0,0,.46-.35c.22-.49.44-1,.67-1.45a.75.75,0,0,0,.09-.29.61.61,0,0,0,0-.3.77.77,0,0,0-.94-.54.74.74,0,0,0-.46.35Z" transform="translate(-16.29)"/><path class="cls-5" d="M59.57,222.33C58.1,236.6,56,250.87,51.23,264.46c-.65,1.87,2.31,2.67,3,.82,4.82-13.85,7-28.41,8.46-42.95.2-2-2.87-2-3.07,0Z" transform="translate(-16.29)"/><path class="cls-5" d="M60.35,206q0,4.45-.26,8.92c-.1,2,3,2,3.07,0,.15-3,.23-5.95.26-8.92a1.54,1.54,0,0,0-3.07,0Z" transform="translate(-16.29)"/><path class="cls-5" d="M60.1,194.16c.09,1.77.15,3.54.2,5.31.05,2,3.12,2,3.06,0,0-1.77-.11-3.54-.2-5.31-.1-2-3.16-2-3.06,0Z" transform="translate(-16.29)"/><path class="cls-5" d="M52.53,278.91l-.77,2.45a1.55,1.55,0,0,0,1.07,1.89,1.57,1.57,0,0,0,1.89-1.08c.25-.81.51-1.63.77-2.44a1.54,1.54,0,1,0-3-.82Z" transform="translate(-16.29)"/><path class="cls-5" d="M64.82,229.25C63,243.73,59,257.85,54.76,271.77c-.59,1.89,2.37,2.7,3,.82C62.08,258.38,66,244,67.89,229.25c.24-2-2.83-1.94-3.07,0Z" transform="translate(-16.29)"/><path class="cls-5" d="M65.85,214.08q0,3.82-.29,7.65c-.14,2,2.93,2,3.06,0q.25-3.82.3-7.65a1.54,1.54,0,0,0-3.07,0Z" transform="translate(-16.29)"/><path class="cls-5" d="M65.58,205.58c0,.57.08,1.13.11,1.7a1.57,1.57,0,0,0,1.54,1.53,1.54,1.54,0,0,0,1.53-1.53c0-.57-.07-1.13-.11-1.7a1.54,1.54,0,0,0-3.07,0Z" transform="translate(-16.29)"/><path class="cls-5" d="M68.26,240.71c-1.29,11.56-4.59,22.75-7.2,34-.44,1.92,2.52,2.74,3,.82,2.67-11.58,6-23,7.31-34.87.21-2-2.86-1.94-3.07,0Z" transform="translate(-16.29)"/><path class="cls-5" d="M70.11,224.19q-.35,4.56-.87,9.11c-.23,2,2.84,1.94,3.07,0,.34-3,.64-6.07.87-9.11.15-2-2.92-2-3.07,0Z" transform="translate(-16.29)"/><path class="cls-5" d="M70.73,215.5l-.09,1.66a1.54,1.54,0,0,0,1.53,1.53,1.56,1.56,0,0,0,1.53-1.53c0-.56.07-1.11.1-1.66A1.54,1.54,0,0,0,72.27,214a1.57,1.57,0,0,0-1.54,1.53Z" transform="translate(-16.29)"/><path class="cls-5" d="M59.56,280.62,58,293.47c-.24,1.95,2.83,1.93,3.07,0l1.56-12.85c.24-1.95-2.83-1.94-3.07,0Z" transform="translate(-16.29)"/><path class="cls-5" d="M49.86,268.59l-2.47,7.53c-.62,1.88,2.34,2.69,3,.82l2.47-7.53c.62-1.88-2.34-2.69-3-.82Z" transform="translate(-16.29)"/><path class="cls-6" d="M47.3,522.42q-.59,2.55-1,5.14a1.89,1.89,0,0,0,1.29,2.26,1.85,1.85,0,0,0,2.26-1.28q.44-2.6,1-5.14c.53-2.31-3-3.29-3.55-1Z" transform="translate(-16.29)"/><path class="cls-6" d="M53.54,503c-1.24,3.07-2.36,6.19-3.43,9.33-.77,2.25,2.79,3.21,3.55,1,1.07-3.14,2.19-6.26,3.43-9.34.88-2.19-2.68-3.15-3.55-1Z" transform="translate(-16.29)"/><path class="cls-6" d="M67.14,466c-2.07,9.9-6.27,19.14-10.08,28.45-.9,2.19,2.66,3.15,3.55,1,3.81-9.31,8-18.55,10.08-28.45.49-2.31-3.06-3.3-3.55-1Z" transform="translate(-16.29)"/><path class="cls-6" d="M68.72,457.68q-.27,1.8-.6,3.6a1.89,1.89,0,0,0,1.28,2.26,1.86,1.86,0,0,0,2.27-1.28q.33-1.8.6-3.6A1.9,1.9,0,0,0,71,456.4a1.86,1.86,0,0,0-2.27,1.28Z" transform="translate(-16.29)"/><path class="cls-6" d="M69.52,451.13c-.07.8-.16,1.61-.25,2.42a1.85,1.85,0,0,0,1.84,1.84A1.89,1.89,0,0,0,73,453.55c.09-.81.18-1.62.25-2.42a1.84,1.84,0,0,0-1.84-1.84,1.89,1.89,0,0,0-1.84,1.84Z" transform="translate(-16.29)"/><path class="cls-6" d="M70,444.61c0,.54,0,1.08-.07,1.63a1.85,1.85,0,0,0,1.84,1.84,1.88,1.88,0,0,0,1.84-1.84c0-.55,0-1.09.08-1.63a1.85,1.85,0,0,0-3.69,0Z" transform="translate(-16.29)"/><path class="cls-6" d="M76.14,529.63c-.13,1.83-.26,3.65-.38,5.48-.16,2.37,3.52,2.36,3.68,0,.12-1.83.25-3.65.38-5.48.17-2.37-3.51-2.36-3.68,0Z" transform="translate(-16.29)"/><path class="cls-6" d="M80,486.82c-1.29,12.64-2.5,25.28-3.45,37.95-.18,2.36,3.5,2.35,3.68,0,1-12.67,2.16-25.31,3.45-37.95.24-2.35-3.44-2.33-3.68,0Z" transform="translate(-16.29)"/><path class="cls-6" d="M81.89,473.76a50.4,50.4,0,0,0-1.44,8.18c-.25,2.35,3.43,2.33,3.68,0a44.91,44.91,0,0,1,1.3-7.2,1.84,1.84,0,0,0-3.54-1Z" transform="translate(-16.29)"/><path class="cls-6" d="M84.46,465.54c-.35.84-.68,1.7-1,2.56a1.87,1.87,0,0,0,1.29,2.27A1.89,1.89,0,0,0,87,469.08c.31-.86.64-1.72,1-2.57a1.83,1.83,0,0,0-1.28-2.26,1.91,1.91,0,0,0-2.27,1.29Z" transform="translate(-16.29)"/><path class="cls-6" d="M67.42,496.55c-.32,1-.65,1.95-1,2.93a1.85,1.85,0,0,0,1.29,2.26A1.88,1.88,0,0,0,70,500.46q.51-1.47,1-2.94a1.85,1.85,0,0,0-1.29-2.26,1.88,1.88,0,0,0-2.26,1.29Z" transform="translate(-16.29)"/><path class="cls-6" d="M70.63,486c-.54,1.95-1.12,3.89-1.71,5.82-.7,2.27,2.85,3.24,3.55,1,.59-1.93,1.17-3.87,1.71-5.82.64-2.28-2.91-3.26-3.55-1Z" transform="translate(-16.29)"/><path class="cls-6" d="M77.17,453.12A182.54,182.54,0,0,1,72,480.76c-.6,2.3,3,3.28,3.55,1a189.16,189.16,0,0,0,5.27-28.62c.24-2.35-3.45-2.33-3.68,0Z" transform="translate(-16.29)"/><path class="cls-6" d="M78.37,439.62c-.16,2.68-.36,5.36-.62,8-.22,2.36,3.47,2.34,3.69,0,.25-2.67.45-5.35.62-8,.14-2.36-3.54-2.35-3.69,0Z" transform="translate(-16.29)"/><path class="cls-6" d="M78.76,427.14c0,1.56,0,3.11-.06,4.66,0,2.37,3.63,2.37,3.68,0,0-1.55.06-3.1.07-4.66,0-2.37-3.68-2.37-3.69,0Z" transform="translate(-16.29)"/><path class="cls-6" d="M78.65,419.24l.06,2.23a1.84,1.84,0,0,0,3.68,0l-.06-2.23a1.84,1.84,0,0,0-3.68,0Z" transform="translate(-16.29)"/><path class="cls-6" d="M46.21,415.08c.13,1.7.27,3.39.43,5.08A1.89,1.89,0,0,0,48.48,422a1.85,1.85,0,0,0,1.84-1.84c-.16-1.69-.3-3.38-.43-5.08a1.89,1.89,0,0,0-1.84-1.84,1.85,1.85,0,0,0-1.84,1.84Z" transform="translate(-16.29)"/><path class="cls-6" d="M45.66,406.85l.18,2.94a1.88,1.88,0,0,0,1.84,1.84,1.85,1.85,0,0,0,1.84-1.84l-.18-2.94a1.84,1.84,0,0,0-3.68,0Z" transform="translate(-16.29)"/><path class="cls-6" d="M46.58,361.62c-.74,13.31-1.93,26.64-1.16,40,.14,2.35,3.82,2.37,3.68,0-.77-13.34.42-26.67,1.16-40,.13-2.36-3.55-2.36-3.68,0Z" transform="translate(-16.29)"/><path class="cls-6" d="M47.19,354.24c-.07.77-.13,1.54-.2,2.32a1.85,1.85,0,0,0,1.84,1.84,1.88,1.88,0,0,0,1.84-1.84c.07-.78.13-1.55.2-2.32A1.85,1.85,0,0,0,49,352.4a1.89,1.89,0,0,0-1.84,1.84Z" transform="translate(-16.29)"/><path class="cls-6" d="M31.8,385l-.31,3.84a1.85,1.85,0,0,0,1.84,1.84,1.87,1.87,0,0,0,1.84-1.84l.31-3.84a1.84,1.84,0,1,0-3.68,0Z" transform="translate(-16.29)"/><path class="cls-6" d="M32.63,374.53l-.44,5.54c-.19,2.37,3.49,2.35,3.68,0l.45-5.54c.18-2.37-3.5-2.35-3.69,0Z" transform="translate(-16.29)"/><path class="cls-6" d="M35.36,342.21c-1,8.4-1.49,16.85-2.16,25.27-.19,2.37,3.49,2.35,3.68,0,.67-8.42,1.14-16.87,2.17-25.27.28-2.34-3.4-2.32-3.69,0Z" transform="translate(-16.29)"/><path class="cls-6" d="M39.88,322.18a72.76,72.76,0,0,0-2.56,8.57c-.54,2.3,3,3.28,3.55,1a73.13,73.13,0,0,1,2.55-8.56c.83-2.23-2.73-3.19-3.54-1Z" transform="translate(-16.29)"/><path class="cls-6" d="M82.77,329.39c-.07,1.4-.17,2.8-.31,4.19a1.84,1.84,0,0,0,3.68,0c.14-1.39.24-2.79.31-4.19a1.84,1.84,0,0,0-3.68,0Z" transform="translate(-16.29)"/><path class="cls-6" d="M80.05,300.33a123,123,0,0,1,2.74,20.31c.11,2.36,3.79,2.37,3.68,0a130.37,130.37,0,0,0-2.87-21.28c-.5-2.32-4-1.34-3.55,1Z" transform="translate(-16.29)"/><path class="cls-6" d="M77.62,291.57c.37,1.16.72,2.32,1.06,3.48.65,2.27,4.2,1.31,3.55-1-.34-1.16-.69-2.32-1.06-3.48a1.89,1.89,0,0,0-2.27-1.28,1.85,1.85,0,0,0-1.28,2.26Z" transform="translate(-16.29)"/><path class="cls-6" d="M88.8,343.62c-.2,1.1-.41,2.2-.62,3.3a1.9,1.9,0,0,0,1.29,2.26,1.85,1.85,0,0,0,2.26-1.28c.21-1.1.42-2.2.62-3.31a1.89,1.89,0,0,0-1.28-2.26,1.86,1.86,0,0,0-2.27,1.29Z" transform="translate(-16.29)"/><path class="cls-6" d="M90.5,333.47c0-.38,0,.2,0,.22,0,.17,0,.35-.07.53-.05.35-.1.7-.16,1a1.9,1.9,0,0,0,1.29,2.27,1.86,1.86,0,0,0,2.26-1.29c.14-.92.27-1.85.39-2.78a1.84,1.84,0,0,0-1.84-1.84,1.9,1.9,0,0,0-1.84,1.84Z" transform="translate(-16.29)"/><path class="cls-6" d="M89.09,307.71a56.3,56.3,0,0,1,2.08,18.35c-.09,2.37,3.59,2.36,3.68,0a59.42,59.42,0,0,0-2.21-19.32c-.67-2.27-4.23-1.3-3.55,1Z" transform="translate(-16.29)"/><path class="cls-6" d="M97.55,318.41l.54,15.77c.08,2.37,3.76,2.38,3.68,0l-.54-15.77c-.08-2.36-3.76-2.37-3.68,0Z" transform="translate(-16.29)"/><path class="cls-6" d="M97.3,311.17l.08,2.34a1.84,1.84,0,0,0,3.68,0l-.08-2.34a1.84,1.84,0,1,0-3.68,0Z" transform="translate(-16.29)"/><path class="cls-6" d="M93.75,386.84l-1.91,13.55a1.91,1.91,0,0,0,1.28,2.27,1.86,1.86,0,0,0,2.27-1.29l1.91-13.56A1.9,1.9,0,0,0,96,385.55a1.85,1.85,0,0,0-2.27,1.29Z" transform="translate(-16.29)"/><path class="cls-6" d="M95,378.15l-.39,2.75a1.91,1.91,0,0,0,1.29,2.27,1.86,1.86,0,0,0,2.26-1.29l.39-2.75a1.84,1.84,0,1,0-3.55-1Z" transform="translate(-16.29)"/><path class="cls-6" d="M96.24,369.25,96,371a2,2,0,0,0,.19,1.41,1.84,1.84,0,0,0,1.1.85,1.86,1.86,0,0,0,1.42-.19,1.75,1.75,0,0,0,.84-1.1l.24-1.69a2.06,2.06,0,0,0-.18-1.42,1.92,1.92,0,0,0-1.1-.84,1.85,1.85,0,0,0-1.42.18,1.77,1.77,0,0,0-.85,1.1Z" transform="translate(-16.29)"/><path class="cls-6" d="M78.51,395.55c0-.6,0-1.21,0-1.81a1.84,1.84,0,0,0-3.68,0c0,.6,0,1.21,0,1.81a1.85,1.85,0,0,0,1.84,1.84,1.88,1.88,0,0,0,1.85-1.84Z" transform="translate(-16.29)"/><path class="cls-6" d="M77.64,403.24q.14-.69.24-1.38a2,2,0,0,0-.18-1.42,1.91,1.91,0,0,0-1.1-.85,1.86,1.86,0,0,0-1.42.19,1.77,1.77,0,0,0-.85,1.1c-.07.46-.15.92-.24,1.39a1.92,1.92,0,0,0,.18,1.41,1.9,1.9,0,0,0,1.1.85,1.86,1.86,0,0,0,2.27-1.29Z" transform="translate(-16.29)"/><path class="cls-6" d="M75.52,410.8c.28-.75.54-1.51.79-2.28a1.84,1.84,0,1,0-3.55-1c-.25.77-.51,1.53-.79,2.28a1.85,1.85,0,0,0,1.28,2.27,1.89,1.89,0,0,0,2.27-1.29Z" transform="translate(-16.29)"/><path class="cls-6" d="M50.88,323.34c-.12,1.05-.22,2.11-.31,3.16a1.84,1.84,0,0,0,3.68,0c.09-1.05.19-2.11.31-3.16a1.84,1.84,0,0,0-3.68,0Z" transform="translate(-16.29)"/><path class="cls-6" d="M52.29,313.65q-.34,1.88-.63,3.75a1.89,1.89,0,0,0,1.28,2.27,1.87,1.87,0,0,0,2.27-1.29q.28-1.87.63-3.75a1.89,1.89,0,0,0-1.29-2.26,1.85,1.85,0,0,0-2.26,1.28Z" transform="translate(-16.29)"/><path class="cls-6" d="M53.85,306.33q-.3,1.21-.57,2.43A1.88,1.88,0,0,0,54.57,311a1.86,1.86,0,0,0,2.26-1.29q.27-1.22.57-2.43a1.84,1.84,0,0,0-3.55-1Z" transform="translate(-16.29)"/><path class="cls-6" d="M29.64,446c-.17,1.37-.37,2.73-.59,4.08a1.9,1.9,0,0,0,1.28,2.27,1.85,1.85,0,0,0,2.26-1.29c.28-1.68.52-3.37.73-5.06a1.86,1.86,0,0,0-1.84-1.84A1.88,1.88,0,0,0,29.64,446Z" transform="translate(-16.29)"/><path class="cls-6" d="M30.57,433.39q-.11,4-.44,8c-.2,2.36,3.48,2.35,3.68,0q.33-4,.44-8c.06-2.37-3.63-2.37-3.68,0Z" transform="translate(-16.29)"/><path class="cls-6" d="M30,418.8c.18,2,.33,3.94.42,5.91.12,2.36,3.8,2.37,3.69,0-.1-2-.25-3.94-.43-5.91A1.9,1.9,0,0,0,31.87,417,1.85,1.85,0,0,0,30,418.8Z" transform="translate(-16.29)"/><path class="cls-6" d="M39.78,201.13c.4.58.81,1.15,1.23,1.72a1,1,0,0,0,1.26.33.92.92,0,0,0,.33-1.26q-.63-.85-1.23-1.71a.94.94,0,0,0-1.26-.33.92.92,0,0,0-.33,1.25Z" transform="translate(-16.29)"/><path class="cls-6" d="M31.65,186.51a84.77,84.77,0,0,0,5.79,11.1c.63,1,2.22.08,1.59-.93a86.07,86.07,0,0,1-5.8-11.1c-.46-1.08-2-.15-1.58.93Z" transform="translate(-16.29)"/><path class="cls-6" d="M29.94,182.22l.42,1.12a.94.94,0,0,0,1.13.64.92.92,0,0,0,.64-1.13c-.14-.37-.28-.75-.41-1.12a1,1,0,0,0-1.14-.64.93.93,0,0,0-.64,1.13Z" transform="translate(-16.29)"/><path class="cls-6" d="M26,182.85a51.6,51.6,0,0,0,5.36,10.52c.66,1,2.25.06,1.59-.92a49.3,49.3,0,0,1-5.17-10.09c-.41-1.1-2.19-.63-1.78.49Z" transform="translate(-16.29)"/><path class="cls-6" d="M23.43,172.26c.19,1.44.43,2.88.73,4.3.25,1.16,2,.67,1.78-.49s-.5-2.53-.67-3.81-2-1.17-1.84,0Z" transform="translate(-16.29)"/><path class="cls-6" d="M30.38,199.53c.38.51.77,1,1.17,1.51a.92.92,0,0,0,1.3,0,1,1,0,0,0,0-1.3c-.35-.44-.57-.72-.88-1.14a1,1,0,0,0-1.26-.33.93.93,0,0,0-.33,1.26Z" transform="translate(-16.29)"/><path class="cls-6" d="M19.38,176.71a66.62,66.62,0,0,0,9.05,20.1c.66,1,2.26.06,1.59-.93a65,65,0,0,1-8.86-19.66.92.92,0,0,0-1.78.49Z" transform="translate(-16.29)"/><path class="cls-6" d="M18.73,169.51a30.32,30.32,0,0,0,1,3.75c.36,1.12,2.14.64,1.78-.49a32.25,32.25,0,0,1-1-3.75c-.22-1.16-2-.67-1.77.49Z" transform="translate(-16.29)"/><path class="cls-6" d="M18.19,163.79c0,.47,0,1,0,1.43a.92.92,0,0,0,1.84,0c0-.48,0-1,0-1.43a.92.92,0,1,0-1.84,0Z" transform="translate(-16.29)"/><path class="cls-6" d="M50.45,165.42l.36,1.28a.92.92,0,0,0,1.13.64.94.94,0,0,0,.64-1.13l-.36-1.28a.92.92,0,0,0-1.77.49Z" transform="translate(-16.29)"/><path class="cls-6" d="M45.75,153.83a64.24,64.24,0,0,1,3.71,8.51c.39,1.11,2.17.63,1.78-.49a69.62,69.62,0,0,0-3.9-8.95c-.55-1.05-2.14-.12-1.59.93Z" transform="translate(-16.29)"/><path class="cls-6" d="M41.81,147.35c.81,1.18,1.58,2.38,2.32,3.6a.92.92,0,0,0,1.59-.93c-.74-1.22-1.51-2.42-2.32-3.6-.67-1-2.27,0-1.59.93Z" transform="translate(-16.29)"/><path class="cls-6" d="M59.29,174.71c.15.45.29.9.43,1.34a.92.92,0,1,0,1.78-.49c-.14-.44-.29-.89-.43-1.34a.92.92,0,0,0-1.78.49Z" transform="translate(-16.29)"/><path class="cls-6" d="M57.68,170.15c.21.57.43,1.14.63,1.71a1,1,0,0,0,1.14.65.94.94,0,0,0,.64-1.14c-.21-.57-.42-1.14-.64-1.71a.92.92,0,1,0-1.77.49Z" transform="translate(-16.29)"/><path class="cls-6" d="M51.94,157.6c1.69,3.16,3.24,6.4,4.61,9.71.45,1.08,2.23.6,1.78-.49-1.44-3.46-3-6.84-4.8-10.15-.56-1-2.15-.11-1.59.93Z" transform="translate(-16.29)"/><path class="cls-6" d="M49.2,152.82c.37.62.74,1.24,1.1,1.86a.92.92,0,0,0,1.59-.93q-.54-.93-1.11-1.86a.92.92,0,0,0-1.58.93Z" transform="translate(-16.29)"/><path class="cls-6" d="M46.31,79.45a38.12,38.12,0,0,0,2.88-8.74c.2-1.16-1.57-1.66-1.77-.49a36.46,36.46,0,0,1-2.7,8.3c-.47,1.07,1.12,2,1.59.93Z" transform="translate(-16.29)"/><path class="cls-6" d="M44.23,84.07,45,82.3a.92.92,0,1,0-1.59-.93l-.79,1.77A1,1,0,0,0,43,84.4a.92.92,0,0,0,1.26-.33Z" transform="translate(-16.29)"/><path class="cls-6" d="M42.35,88.38,43,87a1,1,0,0,0-.33-1.26.93.93,0,0,0-1.26.33l-.6,1.37a1,1,0,0,0,.33,1.26.93.93,0,0,0,1.26-.33Z" transform="translate(-16.29)"/><path class="cls-6" d="M51.42,55.51c-.1.33-.2.65-.31,1a.5.5,0,0,0,0,.36.54.54,0,0,0,.28.21.49.49,0,0,0,.57-.32c.1-.33.21-.65.31-1a.5.5,0,0,0-.05-.36.54.54,0,0,0-.28-.21.47.47,0,0,0-.56.32Z" transform="translate(-16.29)"/><path class="cls-6" d="M53,48.58a45.34,45.34,0,0,1-1.21,5.76.46.46,0,0,0,.89.25,47.27,47.27,0,0,0,1.2-5.77.47.47,0,0,0-.32-.56.45.45,0,0,0-.56.32Z" transform="translate(-16.29)"/><path class="cls-6" d="M53.21,46.48c0,.34-.07.67-.11,1a.52.52,0,0,0,.14.33.44.44,0,0,0,.32.13.44.44,0,0,0,.33-.13l.07-.1a.62.62,0,0,0,.07-.23c0-.34.07-.67.1-1a.47.47,0,0,0-.14-.33.44.44,0,0,0-.32-.13.46.46,0,0,0-.33.13.57.57,0,0,0-.13.33Z" transform="translate(-16.29)"/><path class="cls-6" d="M53.37,44.05c0,.4,0,.81-.07,1.21a.5.5,0,0,0,.14.33.44.44,0,0,0,.32.13.46.46,0,0,0,.46-.46c0-.4.05-.81.07-1.21a.46.46,0,0,0-.92,0Z" transform="translate(-16.29)"/><path class="cls-6" d="M54.92,43.94a36.12,36.12,0,0,1-.5,4,.46.46,0,0,0,.32.56.45.45,0,0,0,.56-.32,37.8,37.8,0,0,0,.54-4.24.46.46,0,0,0-.46-.46.47.47,0,0,0-.46.46Z" transform="translate(-16.29)"/><path class="cls-6" d="M55,40.2q.06,1.35,0,2.7a.47.47,0,0,0,.46.46.47.47,0,0,0,.46-.46q.06-1.35,0-2.7a.46.46,0,1,0-.92,0Z" transform="translate(-16.29)"/><path class="cls-6" d="M54.79,37.71c0,.42.08.83.11,1.24a.5.5,0,0,0,.14.33.44.44,0,0,0,.32.13.46.46,0,0,0,.33-.13.44.44,0,0,0,.13-.33c0-.41-.07-.82-.11-1.24a.55.55,0,0,0-.14-.32.45.45,0,0,0-.65,0,.39.39,0,0,0-.13.32Z" transform="translate(-16.29)"/><path class="cls-6" d="M20.37,91.66l.24.64a.27.27,0,0,0,.14.19.31.31,0,0,0,.23,0,.34.34,0,0,0,.19-.14.33.33,0,0,0,0-.24L21,91.5a.28.28,0,0,0-.14-.18.27.27,0,0,0-.23,0,.3.3,0,0,0-.19.14.36.36,0,0,0,0,.23Z" transform="translate(-16.29)"/><path class="cls-6" d="M19.57,89.19l.36,1.18a.31.31,0,0,0,.6-.17c-.13-.39-.25-.78-.37-1.17a.32.32,0,0,0-.38-.22.32.32,0,0,0-.21.38Z" transform="translate(-16.29)"/><path class="cls-6" d="M18.75,86c.15.66.31,1.33.49,2a.31.31,0,0,0,.38.21.31.31,0,0,0,.21-.38c-.18-.66-.34-1.32-.49-2a.3.3,0,0,0-.37-.21.31.31,0,0,0-.22.38Z" transform="translate(-16.29)"/><path class="cls-6" d="M18.34,83.91c.05.32.11.63.17.94a.31.31,0,0,0,.38.21.29.29,0,0,0,.21-.37c-.06-.31-.12-.63-.17-.94a.28.28,0,0,0-.14-.18.29.29,0,0,0-.24,0,.31.31,0,0,0-.18.14.31.31,0,0,0,0,.23Z" transform="translate(-16.29)"/><path class="cls-6" d="M20.29,86.44c.13.33.28.65.43,1a.32.32,0,0,0,.18.14.34.34,0,0,0,.24,0,.38.38,0,0,0,.14-.19.36.36,0,0,0,0-.23c-.14-.29-.27-.57-.39-.86l0,.07v0a.45.45,0,0,0-.14-.19.34.34,0,0,0-.24,0,.32.32,0,0,0-.18.14.26.26,0,0,0,0,.24Z" transform="translate(-16.29)"/><path class="cls-6" d="M19,82.13a22.2,22.2,0,0,0,.93,3.4.31.31,0,0,0,.38.21.3.3,0,0,0,.21-.37A21.37,21.37,0,0,1,19.6,82a.32.32,0,0,0-.38-.22.32.32,0,0,0-.22.38Z" transform="translate(-16.29)"/><path class="cls-6" d="M18.67,79.13c0,.39,0,.78.08,1.17a.31.31,0,0,0,.31.31.3.3,0,0,0,.3-.31c0-.39-.06-.78-.08-1.17a.29.29,0,0,0-.3-.3.3.3,0,0,0-.31.3Z" transform="translate(-16.29)"/></g></g></svg>