<svg xmlns="http://www.w3.org/2000/svg" viewBox="0 0 311.25 551.71"><defs><style>.cls-1{fill:#5e0e25;}.cls-2{fill:#a0183f;}.cls-3{fill:#370815;}.cls-4{fill:#480a1c;}</style></defs><g id="Layer_2" data-name="Layer 2"><g id="Layer_1-2" data-name="Layer 1"><path class="cls-1" d="M309.71,214.6l-4.6-4.6h0c-1.79,1.8-2.8,2.81-4.6,4.6v16.89l-63.39,63.4V276.75l24.17-24.17V230.24h0V189.82l.34-.34-.34-.33V159.22l29.5-29.5v-6.51h-6.51L252.08,155.4v24.54l-27.6-27.6H218v6.51L252.08,193v37.28H239L214.69,254.5v-62l-22-22h-6.51V177l19.28,19.27v67.33h.09l-.05.05v45.15l-20.34,20.34V295.29a2.4,2.4,0,0,0-.29-1.16l.24-.24-34.91-34.58L161.56,248V210.36l-4.6-4.6h0l-4.6,4.6v33.81l-8.67,8.67-19.19-19V188.48l38.77-38.77v-17.8L205.7,89.48V83h-6.51l-35.92,35.91V75.73l24.24-24.24V7.19l-4.6-4.6h0c-1.79,1.8-2.8,2.81-4.6,4.6V47.68L157.07,68.92l-20-20H130.6v6.51l23.47,23.46v67L124.5,175.47V157.81l-10-10,22.92-22.92v-6.51h-6.5L108,141.28,92.91,126.15v0L73.35,106.63V71.19L95,49.57V43.06H88.46L64.52,67l.13.13h-.5V97.75L43.92,77.52H37.41V84l31.51,31.5.16-.16L92.91,139.2v74.73l-58-58V131.8l-4.6-4.6-4.6,4.6v15.33l-17.8-17.8H1.23c0,2.62,0,4.09,0,6.71l36.62,36.23.19-.19,54.85,54.85V247l58.57,58V519.27l-31.22,31.22H219L185.19,516V373.83l51.93-51.93v-14l72.59-72.59Z"/><polygon class="cls-2" points="108.29 230.83 36.01 158.56 36.01 164.19 27.99 156.17 29.51 154.65 33.87 159 33.87 153.37 106.14 225.65 106.14 202.45 98.65 194.96 98.65 163.47 100.8 163.47 100.8 194.07 108.29 201.56 108.29 230.83"/><rect class="cls-2" x="97.31" y="173.91" width="17.49" height="2.15" transform="translate(-92.67 126.26) rotate(-45.01)"/><rect class="cls-2" x="99.89" y="135.86" width="2.15" height="22.8" transform="translate(-74.56 114.53) rotate(-45)"/><polygon class="cls-2" points="114.4 214.85 112.26 214.85 112.26 199.2 123.74 187.72 125.26 189.24 114.4 200.09 114.4 214.85"/><polygon class="cls-2" points="134.25 263.8 134.25 252.84 136.4 252.84 136.4 258.61 142.93 252.08 144.45 253.6 134.25 263.8"/><path class="cls-2" d="M183.46,294.06l-33.23-33.23-14.55,14.56,13.7,13.7V274.4l1.07-1.08h0l1.08,1.08v19.87l-18.89-18.88,17.59-17.59L185,292.54v1.52h-1.51Z"/><polygon class="cls-2" points="176.87 338.99 176.87 316.78 170.44 310.36 170.44 292.13 159.67 281.35 161.19 279.83 172.59 291.24 172.59 309.47 179.02 315.89 179.02 333.81 206.6 306.22 206.6 316.97 204.45 316.97 204.45 311.41 176.87 338.99"/><rect class="cls-2" x="169.35" y="313.85" width="2.15" height="21.28" transform="translate(-179.54 215.55) rotate(-45)"/><rect class="cls-2" x="169.7" y="302.69" width="14.05" height="2.15" transform="translate(-163.04 213.97) rotate(-45.01)"/><rect class="cls-2" x="79.57" y="201.66" width="2.15" height="6.29"/><polygon class="cls-2" points="63.66 193.1 50.72 180.16 50.72 183.69 48.58 183.69 48.58 174.98 65.18 191.58 63.66 193.1"/><polygon class="cls-2" points="53.22 95.53 42.79 85.1 37.41 85.1 37.41 82.95 43.68 82.95 54.74 94.02 53.22 95.53"/><polygon class="cls-2" points="74.43 71.19 72.28 71.19 72.28 64.36 76.49 60.15 78 61.67 74.43 65.25 74.43 71.19"/><polygon class="cls-2" points="88.44 128.08 86.3 128.08 86.3 125.42 73.11 112.23 73.11 107.46 75.26 107.46 75.26 111.34 88.44 124.53 88.44 128.08"/><polygon class="cls-2" points="65.28 67.76 63.76 66.24 89.53 40.47 89.53 48.83 87.39 48.83 87.39 45.65 65.28 67.76"/><rect class="cls-2" x="116.75" y="141.66" width="2.15" height="18.91" transform="translate(-72.35 127.58) rotate(-45)"/><polygon class="cls-2" points="143.47 63.87 136.14 56.54 130.6 56.54 130.6 54.39 137.03 54.39 144.99 62.35 143.47 63.87"/><polygon class="cls-2" points="157.83 69.68 156.31 68.16 179.38 45.09 179.38 49.05 182.87 45.56 182.87 28.15 185.02 28.15 185.02 46.45 177.24 54.24 177.24 50.27 157.83 69.68"/><polygon class="cls-2" points="183.99 19.47 179.85 15.33 181.37 13.81 181.84 14.28 181.84 5.18 179.07 7.95 177.55 6.43 183.99 0 183.99 19.47"/><polygon class="cls-2" points="157.07 120.87 154.92 120.87 154.92 96.23 162.51 88.64 164.03 90.16 157.07 97.12 157.07 120.87"/><rect class="cls-2" x="177.24" y="103.85" width="2.15" height="13.01"/><polygon class="cls-2" points="164.34 131.91 162.19 131.91 162.19 126.07 169.33 118.94 170.84 120.45 164.34 126.96 164.34 131.91"/><polygon class="cls-2" points="115.37 186.12 113.85 184.6 155.14 143.31 155.14 152.33 147.47 160 145.96 158.48 152.99 151.44 152.99 148.49 115.37 186.12"/><polygon class="cls-2" points="138.59 175.47 136.44 175.47 136.44 168.35 139.16 165.63 140.68 167.15 138.59 169.24 138.59 175.47"/><polygon class="cls-2" points="9.01 137.47 6.86 137.47 6.86 130.41 1.23 130.41 1.23 128.27 9.01 128.26 9.01 137.47"/><polygon class="cls-2" points="32.41 135.85 30.89 134.33 33.42 131.8 30.34 128.72 26.5 132.56 24.98 131.04 30.34 125.69 36.46 131.8 32.41 135.85"/><rect class="cls-2" x="15.76" y="125.64" width="2.15" height="25.18" transform="translate(-92.81 52.39) rotate(-45)"/><polygon class="cls-2" points="65.22 107.18 59.84 101.79 61.36 100.27 63.08 101.99 63.08 98.2 43.47 78.59 37.41 78.59 37.41 76.45 44.36 76.45 65.22 97.31 65.22 107.18"/><polygon class="cls-2" points="96.04 49.57 93.89 49.57 93.89 44.14 88.46 44.14 88.46 41.99 96.04 41.99 96.04 49.57"/><polygon class="cls-2" points="108 142.8 73.43 108.22 74.94 106.7 108 139.76 131.99 115.78 131.99 123.82 117.91 137.91 117.91 140.92 115.76 140.92 115.76 137.02 129.84 122.93 129.84 120.96 108 142.8"/><rect class="cls-2" x="130.92" y="117.3" width="6.51" height="2.15"/><polygon class="cls-2" points="160.12 73.48 136.67 50.03 130.6 50.03 130.6 47.89 137.56 47.89 160.12 70.45 170.19 60.37 170.19 54.73 172.34 54.73 172.34 61.26 160.12 73.48"/><rect class="cls-2" x="184.14" y="1.64" width="2.15" height="6.51" transform="translate(50.79 132.4) rotate(-45)"/><polygon class="cls-2" points="164.03 119.65 162.51 118.14 200.26 80.38 200.26 89.85 191.57 98.54 191.57 105.14 189.42 105.14 189.42 97.65 198.12 88.96 198.12 85.57 164.03 119.65"/><rect class="cls-2" x="199.19" y="81.9" width="6.51" height="2.15"/><polygon class="cls-2" points="143.11 254.94 118.91 230.74 118.91 217.49 121.06 217.49 121.06 229.85 143.11 251.91 151.6 243.41 153.12 244.93 143.11 254.94"/><polygon class="cls-2" points="161.82 229.98 155.83 223.99 155.83 215.35 150.84 210.36 156.96 204.24 162.32 209.6 160.8 211.12 156.96 207.28 153.88 210.36 157.98 214.46 157.98 223.09 163.34 228.46 161.82 229.98"/><polygon class="cls-2" points="213.62 272.57 213.62 254.06 238.51 229.17 252.08 229.17 252.08 231.31 239.4 231.31 215.76 254.94 215.76 267.39 231.89 251.26 231.89 246.35 237.58 240.67 239.1 242.18 234.04 247.24 234.04 252.15 213.62 272.57"/><polygon class="cls-2" points="213.93 193.23 192.28 171.57 186.21 171.57 186.21 169.43 193.16 169.43 215.45 191.71 213.93 193.23"/><polygon class="cls-2" points="251.32 180.7 224.03 153.41 217.97 153.41 217.97 151.27 224.92 151.27 252.84 179.19 251.32 180.7"/><polygon class="cls-2" points="255.38 160.22 250.56 155.41 283.82 122.14 290.78 122.14 290.78 124.29 284.71 124.29 253.6 155.41 255.38 157.18 264.8 147.76 266.32 149.28 255.38 160.22"/><polygon class="cls-2" points="308.67 236.35 304.26 231.94 304.26 218.54 308.2 214.6 305.11 211.52 301.27 215.36 299.75 213.84 305.11 208.48 311.23 214.6 306.41 219.43 306.41 231.05 310.19 234.83 308.67 236.35"/><polygon class="cls-2" points="237.12 296.41 230.65 289.94 232.17 288.42 237.12 293.37 301.59 228.9 301.59 237.24 299.44 237.24 299.44 234.09 237.12 296.41"/><polygon class="cls-2" points="160.8 248.74 155.63 243.58 155.63 234.82 157.78 234.82 157.78 242.69 162.32 247.22 160.8 248.74"/><polygon class="cls-2" points="196.09 182.75 191.43 178.08 186.21 178.08 186.21 175.93 192.31 175.93 197.61 181.23 196.09 182.75"/><polygon class="cls-2" points="206.56 196.28 204.42 196.28 204.42 187.51 211.46 194.55 209.94 196.07 206.56 192.69 206.56 196.28"/><polygon class="cls-2" points="206.22 236.68 204.7 235.17 208.08 231.79 208.08 212.89 213.93 207.04 215.45 208.56 210.23 213.78 210.23 232.68 206.22 236.68"/><polygon class="cls-2" points="258.73 287.37 256.58 287.37 256.58 281.91 276.71 261.78 278.23 263.3 258.73 282.8 258.73 287.37"/><polygon class="cls-2" points="285.81 254.93 284.29 253.42 295.22 242.48 295.22 250.87 293.07 250.87 293.07 247.67 285.81 254.93"/><polygon class="cls-2" points="238.19 276.75 236.05 276.75 236.05 264.68 244.2 256.53 244.2 244.14 246.34 244.14 246.34 257.42 238.19 265.57 238.19 276.75"/><polygon class="cls-2" points="277.2 144.37 275.06 144.37 275.06 137.81 283.2 129.67 283.2 123.22 285.34 123.22 285.34 130.56 277.2 138.7 277.2 144.37"/><polygon class="cls-2" points="257.56 175 254.3 171.75 254.3 158.7 256.45 158.7 256.45 170.86 259.07 173.49 257.56 175"/><polygon class="cls-2" points="242.27 181.49 240.12 181.49 240.12 177.45 230.09 167.41 231.6 165.9 242.27 176.56 242.27 181.49"/><polygon class="cls-2" points="225.52 159.92 217.97 159.92 217.97 157.78 223.37 157.78 223.37 152.34 225.52 152.34 225.52 159.92"/><polygon class="cls-2" points="259.92 202.31 251.01 193.4 251.01 186.47 248.23 183.7 249.75 182.18 253.15 185.58 253.15 192.51 257.77 197.13 257.77 177.73 259.92 177.73 259.92 202.31"/><polygon class="cls-2" points="258.11 242.19 251.97 236.04 253.49 234.52 255.97 237 255.97 210.21 262.04 216.28 260.52 217.8 258.11 215.39 258.11 242.19"/><polygon class="cls-2" points="246.03 257.73 244.51 256.21 255.25 245.48 261.57 251.8 260.06 253.32 255.25 248.51 246.03 257.73"/><path class="cls-2" d="M223.06,296.79l-1.84-1.86c-6.2-6.28-15.67-15.83-16.38-16.41a1.05,1.05,0,0,0,.88.17l-.26-1-1-.41.79-.64c.62-.12.62-.12,3.62,2.86,1.38,1.37,3.29,3.28,5.67,5.68l6.36,6.42V281l7.75-7.75,1.52,1.51-7.12,7.13Z"/><polygon class="cls-2" points="238.19 307.9 236.05 307.9 236.05 302.11 243.26 294.9 244.77 296.42 238.19 303 238.19 307.9"/><polygon class="cls-2" points="236.36 322.66 227.69 313.99 227.69 301.78 229.84 301.78 229.84 313.1 237.88 321.14 236.36 322.66"/><polygon class="cls-2" points="226.03 329.34 223.88 329.34 223.88 319.28 220.19 322.98 212.9 315.69 212.9 286.09 215.05 286.09 215.05 314.8 220.19 319.94 226.03 314.1 226.03 329.34"/><polygon class="cls-2" points="199.8 345.28 184.43 329.91 185.95 328.39 197.66 340.09 197.66 332.34 203.08 326.92 204.59 328.44 199.8 333.23 199.8 345.28"/><polygon class="cls-2" points="219.43 339.59 211.41 331.57 211.41 322.92 213.56 322.92 213.56 330.68 220.95 338.07 219.43 339.59"/><polygon class="cls-2" points="157.44 378.45 157.44 332.28 150.72 325.56 152.24 324.04 159.59 331.39 159.59 373.26 174.75 358.11 176.27 359.62 157.44 378.45"/><polygon class="cls-2" points="196.7 362.31 188.37 353.98 188.37 342.1 202.65 356.37 201.13 357.89 190.52 347.28 190.52 353.09 198.22 360.8 196.7 362.31"/><polygon class="cls-2" points="186.27 373.83 184.12 373.83 184.12 365.86 192.94 357.04 194.46 358.55 186.27 366.75 186.27 373.83"/><polygon class="cls-2" points="165.78 420.65 163.64 420.65 163.64 387.27 172.35 395.98 172.35 371.83 185.95 385.44 184.43 386.95 174.49 377.01 174.49 401.16 165.78 392.45 165.78 420.65"/><polygon class="cls-2" points="152.24 416.08 150.72 414.57 154.12 411.16 154.12 388.1 157.5 384.72 159.02 386.24 156.27 388.99 156.27 412.05 152.24 416.08"/><polygon class="cls-2" points="152.24 451.17 150.72 449.65 156.5 443.86 156.5 424.79 178.62 446.91 177.1 448.42 158.65 429.98 158.65 444.75 152.24 451.17"/><polygon class="cls-2" points="177.15 441.49 176.02 440.36 176.02 412.8 184.43 404.39 185.95 405.9 178.17 413.68 178.17 437.43 184.43 431.17 185.95 432.69 177.15 441.49"/><polygon class="cls-2" points="166 471.12 166 453.38 168.15 453.38 168.15 465.94 184.43 449.65 185.95 451.17 166 471.12"/><rect class="cls-2" x="173.18" y="412.21" width="2.15" height="8.05" transform="translate(-243.29 245.13) rotate(-45)"/><polygon class="cls-2" points="159.28 356.72 157.76 355.21 162.66 350.31 162.66 345.03 171.04 336.64 171.04 353.77 168.9 353.77 168.9 341.82 164.8 345.92 164.8 351.2 159.28 356.72"/><polygon class="cls-2" points="167.65 503.98 155.56 491.89 155.56 467.42 152.24 470.75 150.72 469.23 157.71 462.24 157.71 491 167.65 500.94 173.66 494.93 173.66 483.64 175.81 483.64 175.81 495.82 167.65 503.98"/><path class="cls-2" d="M167,493.25l-6.87-6.88,15.26-15.25.76.82c4,4.36,8.59,9.13,9.41,9.58a.83.83,0,0,0-.36-.08v2.15c-.51,0-1.27,0-9.88-9.37l-12.15,12.15,5.35,5.36Z"/><polygon class="cls-2" points="190.11 537.53 175.32 522.74 175.32 504.81 184.43 495.7 185.95 497.22 177.47 505.7 177.47 521.86 191.63 536.01 190.11 537.53"/><polygon class="cls-2" points="143.53 542.88 142.01 541.36 156.97 526.4 156.97 504.73 150.72 498.47 152.24 496.95 159.12 503.83 159.12 527.29 143.53 542.88"/><polygon class="cls-2" points="158.41 545.06 156.89 543.55 165.74 534.7 165.74 512.9 167.88 512.9 167.88 535.59 158.41 545.06"/><rect class="cls-2" x="202.62" y="541.23" width="2.15" height="10.85" transform="translate(-326.88 304.15) rotate(-45)"/><rect class="cls-2" x="178.24" y="538.31" width="2.15" height="14.26" transform="translate(-333.17 286.55) rotate(-45)"/><polygon class="cls-2" points="97.03 247.41 97.03 232.58 92.15 227.7 93.67 226.18 99.17 231.69 99.17 242.22 104.05 237.34 105.57 238.86 97.03 247.41"/><polygon class="cls-2" points="109.21 262.09 107.06 262.09 107.06 248.34 116.53 238.87 116.53 251.78 124.89 260.15 123.38 261.67 114.38 252.67 114.38 244.06 109.21 249.23 109.21 262.09"/><polygon class="cls-2" points="125.94 278.66 123.8 278.66 123.8 271.94 128.5 267.23 130.02 268.75 125.94 272.82 125.94 278.66"/><polygon class="cls-2" points="158.23 313.29 150.72 305.78 152.24 304.26 156.08 308.11 156.08 298.35 162.38 292.05 163.9 293.57 158.23 299.24 158.23 313.29"/><path class="cls-3" d="M185.19,516h0L184,514.82v-141l.36-.87h0l51.2-51.21.36-.87v-13l.36-.87h0l71.45-71.44h1.73v1.74l-70.72,70.72-.36.87v13l-.36.87L186.78,374l-.36.87v140Z"/><path class="cls-3" d="M217.32,551.71H121.49l-1.23-1.22h0l1.23-1.23h95.83l1.23,1.23h0Z"/><path class="cls-3" d="M252.08,230.24h0L250.85,229V194l-.36-.86L218,160.58v-1.73h1.74L253,192.09l.36.87v36Z"/><path class="cls-3" d="M205.49,307.71h0l-1.23-1.22V197.3l-.36-.87-17.69-17.69V177H188l18.41,18.4.36.87V306.49Z"/><path class="cls-3" d="M237.12,276.75h0V275l22.58-22.58.36-.87V159.22l.36-.87L289,129.72h1.74v1.74l-27.91,27.9-.36.87v92.35l-.36.87-23.31,23.3Z"/><path class="cls-3" d="M252.08,179.94h0l-1.23-1.22V156.63l1.23-1.23h0l1.23,1.23v22.09Z"/><path class="cls-3" d="M185,327.68h0l-1.22-1.23V295.29l1.22-1.23h0l1.23,1.23v31.16Z"/><path class="cls-3" d="M150.23,259.32h0v-1.73l9.74-9.75.36-.86V211.58l1.23-1.22h0l1.23,1.22V248l-.36.87L152,259.32Z"/><path class="cls-3" d="M152.36,244.81h0l-1.23-1.22v-32l1.23-1.22h0l1.23,1.22v32Z"/><path class="cls-3" d="M124.5,234.82h0l-1.23-1.23V188.48l.36-.87,38.05-38.05.36-.87V131.91l.36-.87,40.79-40.79.36-.87V84.2L204.78,83h0L206,84.2v6.2l-.36.86-40.8,40.8-.35.86v16.79l-.36.87-38,38-.36.86v44.1Z"/><path class="cls-3" d="M154.72,144.43h0l-1.23-1.22V80.6l-.36-.87-23.39-23.4-.36-.86V50.19L130.6,49h0l1.23,1.23v4.26l.36.87,23.39,23.39.36.87v63.63Z"/><path class="cls-3" d="M178.31,46.16h0l-1.23-1.22V8.42l1.23-1.23h0l1.23,1.23V44.94Z"/><path class="cls-3" d="M163.27,118.89h0L162,117.67V75.73l.36-.86,23.53-23.53.36-.87v-42l1.22-1.23h0l1.23,1.23V51.49l-.36.87L164.85,75.88l-.35.87v40.92Z"/><path class="cls-3" d="M114.5,147.8h0v-1.74l21.34-21.33.36-.87V119.6l1.22-1.23h0l1.23,1.23v5.28l-.36.86-22,22.06Z"/><path class="cls-3" d="M73.35,107.46h0l-1.22-1.22V71.18l.35-.86L93.23,49.57H95V51.3l-20,20-.36.87v34Z"/><path class="cls-3" d="M64.52,96.7h0L63.3,95.47V68.23L64.52,67h0l1.23,1.23V95.47Z"/><path class="cls-3" d="M92.75,212.5h0l-1.23-1.23V140.38l-.36-.87L36.54,84.89,36.19,84V78.75l1.22-1.23h0l1.23,1.23V83l.36.87,54.61,54.61.36.87v71.91Z"/><path class="cls-3" d="M34.94,156h0l-1.23-1.22V133l1.23-1.23h0L36.17,133v21.71Z"/><path class="cls-3" d="M25.74,147.14h0l-1.23-1.23V133l1.23-1.23h0L27,133v12.88Z"/><path class="cls-3" d="M151,519.27h0l-1.23-1.22V306.51l-.36-.87L91.65,247.88l-.36-.87V228.35l-.36-.87L.36,136.91,0,136.05v-5.48l1.23-1.23h0l1.22,1.23V135l.36.87,90.57,90.57.36.87V246l.36.87,57.77,57.77.36.86V518.05Z"/><path class="cls-4" d="M24.05,148,9,132.89V131.8h1.09l15.06,15.07V148H24.05Z"/><path class="cls-4" d="M26.37,133.4h0v-1.08l4-4,2.41,2.41v1.08H31.72l-1.33-1.32-2.94,2.93Z"/><path class="cls-4" d="M32.84,136.41h0v-1.08l1-1h1.08v1.08l-1,1Z"/><path class="cls-4" d="M78.26,203.06,35.53,160.33v-1.08h1.08L79.34,202v1.08H78.26Z"/><path class="cls-4" d="M34.44,163.36l-5.69-5.69v-1.09h1.09l5.69,5.69v1.09H34.44Z"/><path class="cls-4" d="M62.25,193.39,51.11,182.25v-1.08H52.2L63.34,192.3v1.09H62.25Z"/><path class="cls-4" d="M107.28,231.22,82.91,206.84v-1.08H84l24.38,24.37v1.09h-1.09Z"/><path class="cls-4" d="M105.05,202.86l-6.19-6.19v-1.09h1.08l6.2,6.2v1.08h-1.09Z"/><path class="cls-4" d="M101,181.49h0V180.4l10.33-10.34h1.09v1.09l-10.34,10.34Z"/><path class="cls-4" d="M62.36,98.83,42.81,79.28H38.18l-.77-.76h0l.77-.77h5.26l20,20v1.08H62.36Z"/><path class="cls-4" d="M51,95.23l-8.65-8.66H40l-.77-.76h0L40,85h3l9.1,9.1v1.09H51Z"/><path class="cls-4" d="M63.81,107.09l-3.61-3.61v-1.09h1.08L64.9,106v1.08H63.81Z"/><path class="cls-4" d="M85,125.26l-11.61-11.6v-1.09h1.09L86,124.18v1.08H85Z"/><path class="cls-4" d="M107.32,143.14,76.11,111.93v-1.08H77.2L107.32,141h1.08l19.86-19.86h1.09v1.08L108.4,143.14Z"/><path class="cls-4" d="M118.17,138.29h0v-1.08L131,124.37h1.08v1.09l-12.83,12.83Z"/><path class="cls-4" d="M122.49,159.31,110.16,147V145.9h1.09l12.32,12.32v1.09h-1.08Z"/><path class="cls-4" d="M107.77,157.23,92.91,142.37v-1.09H94l14.86,14.86v1.09h-1.08Z"/><path class="cls-4" d="M74.07,65h0V63.92l2.09-2.09h1.08v1.08L75.15,65Z"/><path class="cls-4" d="M141.78,63.81l-6.09-6.09h-2.83l-.77-.77h0l.77-.77h3.46l6.55,6.55v1.08h-1.09Z"/><path class="cls-4" d="M160.07,74.53l-3-3V70.44h1.08l1.92,1.92L170.39,62h1.09v1.08Z"/><path class="cls-4" d="M177.67,54.15h0V53.07l5.88-5.89h1.09v1.09l-5.89,5.88Z"/><path class="cls-4" d="M182.92,18.86l-2.31-2.31V15.46h1.09l2.3,2.31v1.09h-1.08Z"/><path class="cls-4" d="M192,98.71h0V97.63l7.29-7.3h1.09v1.09l-7.3,7.29Z"/><path class="cls-4" d="M157,97.65h0V96.57l4.36-4.36h1.08v1.08l-4.35,4.36Z"/><path class="cls-4" d="M164.78,126.87h0v-1.09l4.91-4.91h1.09V122l-4.91,4.91Z"/><path class="cls-4" d="M147.31,159.75h0v-1.09l6.32-6.32h1.09v1.09l-6.32,6.32Z"/><path class="cls-4" d="M139.08,169.17h0v-1.09l.54-.53h1.08v1.08l-.53.54Z"/><path class="cls-4" d="M114.83,200.19h0V199.1l8.22-8.22h1.09V192l-8.23,8.22Z"/><path class="cls-4" d="M98.05,247.17h0v-1.09l6.33-6.33h1.08v1.08l-6.33,6.34Z"/><path class="cls-4" d="M95.63,232.37l-2.07-2.07v-1.08h1.08l2.07,2.07v1.08H95.63Z"/><path class="cls-4" d="M109.54,249.46h0v-1.08l3.74-3.75h1.08v1.09l-3.74,3.74Z"/><path class="cls-4" d="M122.17,262.31l-7.81-7.8v-1.09h1.09l7.8,7.81v1.08h-1.08Z"/><path class="cls-4" d="M135.33,263.56h0v-1.09l6.85-6.85h1.08v1.09l-6.85,6.85Z"/><path class="cls-4" d="M125.82,273.32h0v-1.08l2.71-2.7h1.08v1.08l-2.7,2.7Z"/><path class="cls-4" d="M136.9,275.42h0v-1.09l12.24-12.24h1.09v1.08L138,275.42Z"/><path class="cls-4" d="M150.47,294.1l-17.6-17.6v-1.08H134L151.55,293v1.09h-1.08Z"/><path class="cls-4" d="M169.07,292.63l-9.5-9.51V282h1.08l9.5,9.5v1.09h-1.08Z"/><path class="cls-4" d="M158.25,299.47h0v-1.09l4.91-4.91h1.08v1.09l-4.91,4.91Z"/><path class="cls-4" d="M156.85,314.1l-5.3-5.3v-1.09h1.09l5.3,5.3v1.09h-1.09Z"/><path class="cls-4" d="M172.32,309.73h0v-1.08l8.29-8.29h1.08v1.09l-8.29,8.28Z"/><path class="cls-4" d="M175.38,317.22,170.15,312v-1.08h1.09l5.23,5.23v1.08h-1.09Z"/><path class="cls-4" d="M175.61,332.33l-12.72-12.71v-1.09H164l12.71,12.71v1.09h-1.08Z"/><path class="cls-4" d="M198.34,345.33l-12.7-12.71L179,339.23h-1.09v-1.09l7.7-7.69,13.79,13.79v1.09h-1.09Z"/><path class="cls-4" d="M199.43,333.41h0v-1.08l3.46-3.47H204V330l-3.46,3.46Z"/><path class="cls-4" d="M217.47,339.07l-6-6V332h1.08l6,6v1.09h-1.08Z"/><path class="cls-4" d="M219.58,324.52l-7.09-7.1v-1.08h1.08l6,6,3.59-3.59h1.08v1.08Z"/><path class="cls-4" d="M211,286.5l-4.82-4.82v-1.09h1.09l4.82,4.82v1.09H211Z"/><path class="cls-4" d="M221.19,296.5,215,290.33v-1.09h1.09l6.17,6.17v1.09h-1.09Z"/><path class="cls-4" d="M222.28,282h0V281l5.8-5.79h1.08v1.08l-5.8,5.8Z"/><path class="cls-4" d="M235.94,296.6l-5.18-5.18v-1.08h1.09l5.17,5.17v1.09h-1.08Z"/><path class="cls-4" d="M234.26,322.33l-6.47-6.47v-1.09h1.08l6.47,6.48v1.08h-1.08Z"/><path class="cls-4" d="M258.73,282.6h0v-1.08l17.65-17.65h1.09V265L259.82,282.6Z"/><path class="cls-4" d="M286.68,254.17h0v-1.08l5.63-5.64h1.09v1.09l-5.64,5.63Z"/><path class="cls-4" d="M234.5,246.93h0v-1.09l3.48-3.48h1.08v1.08l-3.48,3.49Z"/><path class="cls-4" d="M213.61,272.27h0v-1.09l19.2-19.2h1.08v1.09l-19.2,19.2Z"/><path class="cls-4" d="M239.06,265.59h0v-1.08l16.45-16.45,4.6,4.61v1.08H259l-3.52-3.52-15.36,15.36Z"/><path class="cls-4" d="M256.65,242.28l-4.57-4.58v-1.08h1.08l4.58,4.57v1.09h-1.09Z"/><path class="cls-4" d="M259.94,218.08l-1.21-1.21v-1.08h1.09L261,217v1.08h-1.09Z"/><path class="cls-4" d="M210,214.1h0V213l3.65-3.65h1.08v1.08L211,214.1Z"/><path class="cls-4" d="M206.48,236.92h0v-1.08l3.13-3.14h1.09v1.09l-3.14,3.13Z"/><path class="cls-4" d="M208.68,196.48l-2.2-2.2v-1.09h1.08l2.2,2.2v1.09h-1.08Z"/><path class="cls-4" d="M194.8,182.71l-3.27-3.27v-1.09h1.09l3.26,3.27v1.09H194.8Z"/><path class="cls-4" d="M224.67,161.28H220.4l-.77-.77h0l.77-.77h4.27l.77.77h0Z"/><path class="cls-4" d="M239.25,177.71l-9-9v-1.09h1.09l9,9v1.08h-1.08Z"/><path class="cls-4" d="M257,158.85h0v-1.08l7.92-7.92H266v1.08L258,158.85Z"/><path class="cls-4" d="M256.41,175.78l-2-2v-1.09h1.09l2,2v1.09h-1.09Z"/><path class="cls-4" d="M249.84,185.92l-.85-.84V184h1.09l.84.84v1.09h-1.08Z"/><path class="cls-4" d="M259.42,202.61l-6.69-6.69v-1.09h1.08l6.69,6.7v1.08h-1.08Z"/><path class="cls-4" d="M278,138.34h0v-1.09l6.2-6.2h1.09v1.09l-6.2,6.2Z"/><path class="cls-4" d="M253.65,159.24l-1.57-1.57v-1.09h1.08l1.57,1.57v1.09h-1.08Z"/><path class="cls-4" d="M306.65,214.35l-1.54-1.53v-1.09h1.09l1.53,1.53v1.09h-1.08Z"/><path class="cls-4" d="M310.48,235.31h0l-.76-.77V218.71l-1.31-.55-1.14,1.15h-1.09v-1.09l3.76-3.76,1.31.54v19.54Z"/><path class="cls-4" d="M300.51,229.1h0l-.76-.77v-13l.76-.77h0l.77.77v13Z"/><path class="cls-4" d="M306.94,235.3l-1.83-1.83v-1.08h1.09l1.82,1.82v1.09h-1.08Z"/><path class="cls-4" d="M154.71,214.52l-2.35-2.35v-1.08h1.08l2.35,2.35v1.08h-1.08Z"/><path class="cls-4" d="M159.64,228.92l-3.75-3.75v-1.08H157l3.74,3.74v1.09h-1.08Z"/><path class="cls-4" d="M159,248.33l-3.11-3.11v-1.08H157l3.1,3.1v1.09H159Z"/><path class="cls-4" d="M238.87,303h0v-1.08l5.32-5.31h1.08v1.08L240,303Z"/><path class="cls-4" d="M199.45,357.79l-8.71-8.71V348h1.08l8.71,8.71v1.08h-1.08Z"/><path class="cls-4" d="M187,366.55h0v-1.08l6.81-6.82,1.82,1.82v1.09h-1.08l-.74-.74-5.73,5.73Z"/><path class="cls-4" d="M190.4,357l-1.72-1.71v-1.09h1.09l1.72,1.72V357H190.4Z"/><path class="cls-4" d="M155.36,332.57l-3.81-3.81v-1.08h1.09l3.8,3.8v1.09h-1.08Z"/><path class="cls-4" d="M159.81,356h0v-1.09l3.4-3.4h1.09v1.08L160.9,356Z"/><path class="cls-4" d="M164.71,345.33h0v-1.09L167,342h1.09v1.09l-2.25,2.25Z"/><path class="cls-4" d="M157.31,377.94h0v-1.09l17.12-17.11h1.08v1.08l-17.12,17.12Z"/><path class="cls-4" d="M183.58,387.65,175,379v-1.08H176l8.63,8.63v1.08h-1.09Z"/><path class="cls-4" d="M173.4,401l-7-7v-1.08h1.08l7,7V401H173.4Z"/><path class="cls-4" d="M156.35,389.15h0v-1.09l1.09-1.08h1.09v1.08l-1.09,1.09Z"/><path class="cls-4" d="M152,416.81h0v-1.09l3.22-3.21h1.09v1.08l-3.22,3.22Z"/><path class="cls-4" d="M178.47,414h0v-1.09l5.11-5.11h1.09v1.08L179.55,414Z"/><path class="cls-4" d="M174.42,419.71l-4-4v-1.08h1.08l4,4v1.08h-1.08Z"/><path class="cls-4" d="M177.66,441.28h0V440.2l5.92-5.92h1.09v1.08l-5.93,5.92Z"/><path class="cls-4" d="M152,452.6h0v-1.08l5.47-5.47h1.09v1.08l-5.47,5.47Z"/><path class="cls-4" d="M175.61,448.77l-17-17v-1.09h1.08l17,17v1.08h-1.09Z"/><path class="cls-4" d="M166.55,470.72h0v-1.09l17-17h1.09v1.09l-17,17Z"/><path class="cls-4" d="M151,472.67h0v-1.09l3.15-3.14h1.08v1.08l-3.15,3.15Z"/><path class="cls-4" d="M167.09,505.2l-11.62-11.63v-1.08h1.09L167.09,503l7.27-7.27h1.08v1.09Z"/><path class="cls-4" d="M164.34,485.8h0v-1.09l11.08-11.08,8.93,8.93v1.08h-1.08l-7.85-7.84-10,10Z"/><path class="cls-4" d="M165.7,493.09l-5.11-5.1V486.9h1.09l5.1,5.11v1.08H165.7Z"/><path class="cls-4" d="M178,506.14h0v-1.08l5.31-5.31h1.08v1.08L179,506.14Z"/><path class="cls-4" d="M155.54,504.23l-3.4-3.4v-1.08h1.08l3.4,3.4v1.08h-1.08Z"/><path class="cls-4" d="M143.52,542.82h0v-1.09l14.09-14.09h1.08v1.09l-14.08,14.09Z"/><path class="cls-4" d="M158.69,544.31h0v-1.09l7.82-7.81h1.08v1.08l-7.81,7.82Z"/><path class="cls-4" d="M188.7,537.74l-13.26-13.26V523.4h1.09l13.26,13.26v1.08H188.7Z"/><path class="cls-4" d="M180.86,549.9l-7.44-7.45v-1.08h1.08l7.44,7.44v1.09h-1.08Z"/><path class="cls-4" d="M203.35,548.88l-3.49-3.49v-1.08h1.08l3.49,3.48v1.09h-1.08Z"/></g></g></svg>