<svg xmlns="http://www.w3.org/2000/svg" xmlns:xlink="http://www.w3.org/1999/xlink" viewBox="0 0 406.75 419.3"><defs><style>.cls-1{fill:none;}.cls-2{fill:#4c4812;}.cls-3{clip-path:url(#clip-path);}.cls-4{fill:#252209;}.cls-5{fill:#8e8722;}</style><clipPath id="clip-path"><path id="SVGID" class="cls-1" d="M403.76,158.25c.05-.73.08-1.47.08-2.21a4.61,4.61,0,1,0-9.21,0,23.41,23.41,0,0,1-23.38,23.38h-5.39V122.81a4.6,4.6,0,1,0-9.2,0v12H342.57a23.41,23.41,0,0,1-23.39-23.39V106.2a4.6,4.6,0,0,0-9.2,0v5.22a32.63,32.63,0,0,0,20,30.06,5.36,5.36,0,0,0-.05.7,5.64,5.64,0,0,0,11,1.79c.54,0,1.09,0,1.65,0h14.09v69.9a23.41,23.41,0,0,1-23.39,23.38h-2.84V204a5.64,5.64,0,0,0,0-11.23v0a6.14,6.14,0,0,0-12.27,0v21.09H304.79a35.93,35.93,0,0,1-35.87-34.91,8.12,8.12,0,0,0,2.93-15.46,5.63,5.63,0,0,0-2.94-10.17v-3.78a4.61,4.61,0,0,0-9.21,0V178A45.14,45.14,0,0,0,304.79,223h13.37v19.09a34.39,34.39,0,0,1-34.35,34.35H246.53a16,16,0,0,0-14.67-9.57V256.36a10.14,10.14,0,0,0-.72-19.23,32.07,32.07,0,0,0-14.58-20.58,10.25,10.25,0,0,0,.42-2.89,10.14,10.14,0,0,0-20.13-1.73,32.12,32.12,0,0,0-29,28.77h-.16a11.08,11.08,0,0,0-8.78,4.3l-42,.1h-.08a34.36,34.36,0,0,1-34.35-34.36V165.05H138A45.14,45.14,0,0,0,183.05,120V118.4a5.63,5.63,0,0,0,0-11V98.07a4.6,4.6,0,0,0-9.2,0V120a35.94,35.94,0,0,1-24.2,33.93,5.64,5.64,0,0,0-11,1.79c0,.06,0,.11,0,.16H82.47V76.15h3.47a32.35,32.35,0,0,0,15.51-3.93,5.63,5.63,0,0,0,8.78-7,32.44,32.44,0,0,0,8.3-21.69,4.61,4.61,0,0,0-9.21,0A23.41,23.41,0,0,1,85.94,67H82.47v-60a6.14,6.14,0,1,0-12.27,0V23.39a10.14,10.14,0,0,0,0,20.07v81.2H32.59A23.44,23.44,0,0,1,9.93,107.09h.31a5.64,5.64,0,1,0,0-11.27,5.1,5.1,0,0,0-1,.1V90.5a4.6,4.6,0,0,0-9.2,0v10.78a32.63,32.63,0,0,0,32.59,32.58h8.26a5.63,5.63,0,0,0,10.52,0H70.2V208.4a10.14,10.14,0,0,0,1.47,20.18,9.75,9.75,0,0,0,2-.2,46.71,46.71,0,0,0,43.18,29h.11l41-.1a11.11,11.11,0,0,0,9.69,5.67v2.43a6.57,6.57,0,0,0,0,12.6v71.36a10.8,10.8,0,0,0-9.78,6.21h-3.46a35.92,35.92,0,0,1-35.88-35.89,4.61,4.61,0,0,0-9.21,0,45.14,45.14,0,0,0,45.09,45.09h3.46a10.81,10.81,0,0,0,9.78,6.2v16.9a23.05,23.05,0,0,0-9.21,4.34c-3.89,3.09-6.3,7.35-6.3,12h2.42A15.77,15.77,0,0,0,139,420.08H260.52a16,16,0,0,0-4.57-11.2,15.37,15.37,0,0,0-11-4.66h2.42c0-7.74-6.58-14.32-15.51-16.38V362.56a5.63,5.63,0,0,0,0-10.62V348.4a12,12,0,0,0,11-7.22h15.56A32.63,32.63,0,0,0,291,308.59v-1.7a4.6,4.6,0,0,0-9.2,0v1.7A23.41,23.41,0,0,1,258.45,332h-15.4a12,12,0,0,0-11.19-7.61V299a16,16,0,0,0,14.95-10.23h37a46.43,46.43,0,0,0,30-10.95,5.54,5.54,0,0,0,2,.39,5.64,5.64,0,0,0,5.63-5.64,5.29,5.29,0,0,0-.06-.8,5.63,5.63,0,1,0,4.75-10.15,46.18,46.18,0,0,0,4.06-15.11h3a32.65,32.65,0,0,0,30.52-21.15l.6,0a7.21,7.21,0,0,0,1.47-14.26V188.62h5.39a32.64,32.64,0,0,0,30.5-21.12h.19a4.81,4.81,0,0,0,1.82-9.26Z"/></clipPath></defs><g id="Layer_2" data-name="Layer 2"><g id="Layer_1-2" data-name="Layer 1"><path class="cls-2" d="M403.76,157.46c.05-.73.08-1.46.08-2.21a4.61,4.61,0,0,0-9.21,0,23.41,23.41,0,0,1-23.38,23.39h-5.39V122a4.6,4.6,0,0,0-9.2,0v12H342.57a23.41,23.41,0,0,1-23.39-23.38v-5.22a4.6,4.6,0,0,0-9.2,0v5.22a32.64,32.64,0,0,0,20,30.06,5.36,5.36,0,0,0-.05.7,5.64,5.64,0,0,0,11,1.78c.54,0,1.09,0,1.65,0h14.09v69.89a23.41,23.41,0,0,1-23.39,23.39h-2.84V203.22a5.64,5.64,0,0,0,0-11.23v0a6.14,6.14,0,1,0-12.27,0v21.08H304.79a35.92,35.92,0,0,1-35.87-34.9,8.12,8.12,0,0,0,2.93-15.46,5.63,5.63,0,0,0-2.94-10.17v-3.78a4.61,4.61,0,0,0-9.21,0v28.43a45.14,45.14,0,0,0,45.09,45.08h13.37v19.09a34.39,34.39,0,0,1-34.35,34.36H246.53a16,16,0,0,0-14.67-9.57V255.58a10.14,10.14,0,0,0-.72-19.23,32.07,32.07,0,0,0-14.58-20.58,10.25,10.25,0,0,0,.42-2.89,10.14,10.14,0,0,0-20.13-1.73,32.11,32.11,0,0,0-29,28.77h-.16a11.11,11.11,0,0,0-8.78,4.3l-42,.1h-.08A34.35,34.35,0,0,1,82.47,210v-45.7H138a45.13,45.13,0,0,0,45.08-45.08v-1.56a5.63,5.63,0,0,0,0-11V97.29a4.6,4.6,0,0,0-9.2,0v21.89a36,36,0,0,1-24.2,33.93,5.64,5.64,0,0,0-11,1.79s0,.1,0,.15H82.47V75.37h3.47a32.36,32.36,0,0,0,15.51-3.94,5.63,5.63,0,0,0,8.78-7,32.44,32.44,0,0,0,8.3-21.7,4.61,4.61,0,0,0-9.21,0A23.41,23.41,0,0,1,85.94,66.17H82.47v-60a6.14,6.14,0,0,0-12.27,0V22.61a10.14,10.14,0,0,0,0,20.07v81.2H32.59A23.44,23.44,0,0,1,9.93,106.31h.31a5.64,5.64,0,1,0,0-11.28,5.91,5.91,0,0,0-1,.1V89.72a4.6,4.6,0,0,0-9.2,0v10.77a32.63,32.63,0,0,0,32.59,32.59h8.26a5.63,5.63,0,0,0,10.52,0H70.2v74.54a10.14,10.14,0,0,0,1.47,20.17,9.75,9.75,0,0,0,2-.19,46.68,46.68,0,0,0,43.18,29h.11l41-.09a11.1,11.1,0,0,0,9.69,5.66v2.43a6.58,6.58,0,0,0,0,12.61v71.36a10.81,10.81,0,0,0-9.78,6.2h-3.46a35.92,35.92,0,0,1-35.88-35.88,4.61,4.61,0,0,0-9.21,0A45.14,45.14,0,0,0,154.41,364h3.46a10.8,10.8,0,0,0,9.78,6.21v16.9a23.17,23.17,0,0,0-9.21,4.33c-3.89,3.09-6.3,7.35-6.3,12h2.42A15.77,15.77,0,0,0,139,419.3H260.52A16,16,0,0,0,256,408.09a15.41,15.41,0,0,0-11-4.66h2.42c0-7.74-6.58-14.31-15.51-16.37V361.78a5.63,5.63,0,0,0,0-10.62v-3.54a12,12,0,0,0,11-7.23h15.56A32.62,32.62,0,0,0,291,307.81v-1.7a4.6,4.6,0,1,0-9.2,0v1.7a23.41,23.41,0,0,1-23.38,23.38h-15.4a12,12,0,0,0-11.19-7.61V298.2A16.05,16.05,0,0,0,246.81,288h37a46.44,46.44,0,0,0,30-11,5.55,5.55,0,0,0,2,.4,5.64,5.64,0,0,0,5.63-5.64,5.42,5.42,0,0,0-.06-.81,5.55,5.55,0,0,0,2.88.81,5.64,5.64,0,0,0,1.87-11,46.12,46.12,0,0,0,4.06-15.1h3a32.64,32.64,0,0,0,30.52-21.16l.6,0a7.21,7.21,0,0,0,1.47-14.26V187.84h5.39a32.64,32.64,0,0,0,30.5-21.12h.19a4.81,4.81,0,0,0,1.82-9.27Z"/><g class="cls-3"><path class="cls-4" d="M308.2,275.1a12.1,12.1,0,0,0,9.81,7c1.95.23,1.94-2.84,0-3.07a9.05,9.05,0,0,1-7.16-5.49c-.8-1.8-3.44-.24-2.65,1.55Z"/><path class="cls-4" d="M316.55,268.92A10.41,10.41,0,0,0,328,276.85c1.93-.25,2-3.32,0-3.06a7.43,7.43,0,0,1-8.5-5.68c-.47-1.92-3.43-1.11-3,.81Z"/><path class="cls-4" d="M358.19,226.59a17.78,17.78,0,0,0,13,1.53,1.53,1.53,0,0,0-.81-3,14.6,14.6,0,0,1-10.63-1.23c-1.74-.93-3.29,1.72-1.55,2.65Z"/><path class="cls-4" d="M324.85,207.06a13,13,0,0,0,11.45-1.88c1.58-1.16.05-3.82-1.55-2.65a10.13,10.13,0,0,1-9.09,1.57c-1.89-.57-2.7,2.38-.81,3Z"/><path class="cls-4" d="M317.69,226.3a14.09,14.09,0,0,0,10.06-4.11,1.54,1.54,0,0,0-2.17-2.17,11,11,0,0,1-7.89,3.22,1.53,1.53,0,0,0,0,3.06Z"/><path class="cls-4" d="M264.26,180.63a16.58,16.58,0,0,0,12.49.55c1.84-.67,1-3.63-.82-3a13.48,13.48,0,0,1-10.12-.23c-1.79-.79-3.35,1.85-1.55,2.64Z"/><path class="cls-4" d="M266.42,166.5a12.83,12.83,0,0,0,10.92-2.14c1.56-1.17,0-3.83-1.54-2.64a10,10,0,0,1-8.57,1.82c-1.91-.48-2.73,2.48-.81,3Z"/><path class="cls-4" d="M343.38,146.46l1.27-5.79c.42-1.92-2.54-2.74-3-.81l-1.27,5.79c-.42,1.92,2.53,2.74,3,.81Z"/><path class="cls-4" d="M355.19,147.06a9.51,9.51,0,0,0,8.07-2.13c1.51-1.27-.67-3.43-2.17-2.17A6.14,6.14,0,0,1,356,144.1c-1.93-.36-2.76,2.59-.81,3Z"/><path class="cls-4" d="M367.65,188.84l-5.48-.35c-2-.13-2,2.94,0,3.06l5.48.35c2,.13,2-2.94,0-3.06Z"/><path class="cls-4" d="M402.47,167.52a8.75,8.75,0,0,1-5.8-.27c-1.84-.72-2.64,2.25-.82,2.95a11.47,11.47,0,0,0,7.43.28c1.89-.56,1.09-3.52-.81-3Z"/><path class="cls-4" d="M183.56,118.28l-5.8,1c-1.94.34-1.12,3.3.81,3l5.81-1c1.94-.34,1.12-3.3-.82-3Z"/><path class="cls-4" d="M135.65,155.27a8.48,8.48,0,0,0,4.73,8.27c1.78.85,3.33-1.8,1.55-2.65a5.53,5.53,0,0,1-3.21-5.62c.17-2-2.9-2-3.07,0Z"/><path class="cls-4" d="M54,135.56a12.71,12.71,0,0,0,2.75-7.07c.14-2-2.93-2-3.07,0a9.1,9.1,0,0,1-1.84,4.9c-1.2,1.54,1,3.72,2.16,2.17Z"/><path class="cls-4" d="M10.4,107.37A8.29,8.29,0,0,1,6.16,106c-1.68-1-3.22,1.6-1.55,2.65a11.52,11.52,0,0,0,5.79,1.76c2,.07,2-3,0-3.07Z"/><path class="cls-4" d="M69.76,137.08a14.33,14.33,0,0,0,7.69-2.21c1.66-1.05.12-3.71-1.55-2.65A11.25,11.25,0,0,1,69.76,134a1.54,1.54,0,0,0,0,3.07Z"/><path class="cls-4" d="M84.4,165.8a10.88,10.88,0,0,1-6.21-3.45c-1.33-1.46-3.5.71-2.17,2.17a13.6,13.6,0,0,0,7.57,4.24c1.93.36,2.75-2.6.81-3Z"/><path class="cls-4" d="M74.69,231.56a11.14,11.14,0,0,0,7.62-7.4c.6-1.88-2.36-2.69-3-.81a8,8,0,0,1-5.48,5.25,1.54,1.54,0,0,0,.82,3Z"/><path class="cls-4" d="M97.4,69.81a9.86,9.86,0,0,0,5.53,6.82c1.79.8,3.35-1.84,1.55-2.65a7,7,0,0,1-4.13-5c-.43-1.92-3.39-1.11-2.95.82Z"/><path class="cls-4" d="M76.55,77.56a32.14,32.14,0,0,0,8.76,1.85c2,.14,2-2.93,0-3.07a29.23,29.23,0,0,1-7.94-1.74c-1.86-.68-2.66,2.28-.82,3Z"/><path class="cls-4" d="M68.4,46.57a21,21,0,0,0,9-2.87,1.54,1.54,0,0,0-1.55-2.65A17.36,17.36,0,0,1,68.4,43.5c-2,.17-2,3.23,0,3.07Z"/><path class="cls-4" d="M168.28,377.86A18.83,18.83,0,0,0,182,372.63c3.3-3.14-1.7-8.12-5-5a11.68,11.68,0,0,1-8.74,3.16,3.53,3.53,0,1,0,0,7.06Z"/><path class="cls-4" d="M232.2,256a11.5,11.5,0,0,1-9.88-.66c-2.76-1.55-5.24,2.69-2.48,4.24a16.32,16.32,0,0,0,13.66,1.16c2.94-1.1,1.67-5.84-1.3-4.74Z"/><path class="cls-4" d="M167.28,266.15a29.48,29.48,0,0,0,14.26-6.92c1.49-1.3-.69-3.47-2.17-2.17a26.48,26.48,0,0,1-12.9,6.13c-1.94.35-1.12,3.3.81,3Z"/><path class="cls-4" d="M166.08,280.64a21.34,21.34,0,0,0,16.29-.59c1.8-.8.24-3.45-1.55-2.65a18.29,18.29,0,0,1-13.92.28c-1.85-.7-2.65,2.27-.82,3Z"/><path class="cls-4" d="M233,299.12a14.32,14.32,0,0,1-11.42-7.3c-1-1.72-3.62-.18-2.65,1.54A17.48,17.48,0,0,0,233,302.19c2,.14,2-2.93,0-3.07Z"/><path class="cls-4" d="M232,348.28a11.64,11.64,0,0,1-10-4.9c-1.12-1.6-3.78-.07-2.64,1.55A14.78,14.78,0,0,0,232,351.35c2-.07,2-3.14,0-3.07Z"/><path class="cls-4" d="M232.18,362.56a14.76,14.76,0,0,1-9.87-3.36c-1.5-1.26-3.68.9-2.16,2.16a17.93,17.93,0,0,0,12,4.27c2-.05,2-3.11,0-3.07Z"/><path class="cls-4" d="M247.86,404a37.56,37.56,0,0,1-18.19,5.11c-2,0-2,3.11,0,3.07a40.71,40.71,0,0,0,19.74-5.54,1.53,1.53,0,0,0-1.55-2.64Z"/><path class="cls-4" d="M149.89,406.35a39.3,39.3,0,0,0,23.55,6.74c2-.08,2-3.14,0-3.07a36.49,36.49,0,0,1-22-6.31c-1.63-1.12-3.17,1.54-1.55,2.64Z"/><path class="cls-4" d="M166.56,389.5a29.07,29.07,0,0,0,15.34,4.93c2,.06,2-3,0-3.07a26,26,0,0,1-13.79-4.51c-1.64-1.1-3.18,1.55-1.55,2.65Z"/><path class="cls-4" d="M231.32,385.11a18.25,18.25,0,0,1-9.89,10.17c-1.81.78-.25,3.42,1.55,2.64a21.19,21.19,0,0,0,11.3-12c.7-1.84-2.26-2.64-3-.81Z"/><path class="cls-4" d="M172.84,313.18a12.89,12.89,0,0,0,25.62,1c.28-1.93-2.67-2.77-3-.82a9.84,9.84,0,0,1-19.59-.14c-.19-1.95-3.26-2-3.07,0Z"/><path class="cls-4" d="M216.62,216.62A20.21,20.21,0,0,1,202,226.41a2.53,2.53,0,0,0-2.45,2.45,2.48,2.48,0,0,0,2.45,2.46,25.42,25.42,0,0,0,18.9-12.23c1.6-2.72-2.64-5.19-4.24-2.47Z"/></g><path class="cls-5" d="M9.2,93.71a4.6,4.6,0,0,0-9.2,0v-4a4.6,4.6,0,0,1,9.2,0Z"/><path class="cls-5" d="M10.24,99a6,6,0,0,0-1,.1v-4a5.17,5.17,0,0,1,1-.11,5.65,5.65,0,0,1,5.64,5.65,5.5,5.5,0,0,1-.37,2A5.63,5.63,0,0,0,10.24,99Z"/><path class="cls-5" d="M70.2,22.61v4a10.13,10.13,0,0,0-8.47,8,10,10,0,0,1-.2-2A10.15,10.15,0,0,1,70.2,22.61Z"/><path class="cls-5" d="M32.59,123.88H70.2v4H32.59A23.42,23.42,0,0,1,9.93,110.3h.31a6.38,6.38,0,0,0,1.08-.1A23.4,23.4,0,0,0,32.59,123.88Z"/><path class="cls-5" d="M70.2,207.62v4a10.15,10.15,0,0,0-8.47,8,10.13,10.13,0,0,1,8.47-12Z"/><path class="cls-5" d="M82.47,10.12a6.14,6.14,0,0,0-12.27,0v-4a6.14,6.14,0,1,1,12.27,0Z"/><path class="cls-5" d="M111.1,67.48a5.77,5.77,0,0,1-.36,2,6.07,6.07,0,0,0-.51-1c.3-.33.59-.67.87-1Z"/><path class="cls-5" d="M82.47,66.17h3.47a23.41,23.41,0,0,0,23.38-23.38,4.61,4.61,0,1,1,9.21,0c0,1,0,1.94-.13,2.9a4.6,4.6,0,0,0-9.08,1.08A23.41,23.41,0,0,1,85.94,70.16H82.47Z"/><path class="cls-5" d="M152.14,407.42h2.42a15.7,15.7,0,0,0-15.07,11.88H139a15.82,15.82,0,0,1,13.72-15.75A13.52,13.52,0,0,0,152.14,407.42Z"/><path class="cls-5" d="M165.26,265.89a11.72,11.72,0,0,0,2.38.25v2.43a6.56,6.56,0,0,0-4.38,4.31,6.56,6.56,0,0,1,2-7Z"/><path class="cls-5" d="M167.64,348.55v4a10.8,10.8,0,0,0-9.77,6.21h-3.46a35.92,35.92,0,0,1-35.88-35.88,4.6,4.6,0,0,0-9.1-1c-.07-1-.11-2-.11-3a4.61,4.61,0,0,1,9.21,0,35.92,35.92,0,0,0,35.88,35.89h3.46A10.8,10.8,0,0,1,167.64,348.55Z"/><path class="cls-5" d="M158.44,391.4a23.07,23.07,0,0,1,9.2-4.34v4a23.19,23.19,0,0,0-9.2,4.33,16.58,16.58,0,0,0-5.7,8.06h-.6C152.14,398.75,154.55,394.48,158.44,391.4Z"/><path class="cls-5" d="M138,155.06h.71c0-.05,0-.1,0-.15a5.64,5.64,0,0,1,11-1.79,35.94,35.94,0,0,0,24.2-33.93v4a36,36,0,0,1-24.2,33.93,5.64,5.64,0,0,0-11,1.79c0,.05,0,.1,0,.15H82.47v-4Z"/><path class="cls-5" d="M173.85,101.28v-4a4.6,4.6,0,0,1,9.2,0v4a4.6,4.6,0,0,0-9.2,0Z"/><path class="cls-5" d="M183.05,106.66a5.64,5.64,0,0,1,4.33,5.48,5.77,5.77,0,0,1-.36,2,5.67,5.67,0,0,0-4-3.49Z"/><path class="cls-5" d="M216.78,214.86a10.14,10.14,0,0,0-19.93.28,32.12,32.12,0,0,0-29,28.77h-.16a11.12,11.12,0,0,0-8.78,4.3l-42,.1h-.08A34.35,34.35,0,0,1,82.47,214v-4a34.35,34.35,0,0,0,34.35,34.35h.08l42-.09a11.09,11.09,0,0,1,8.78-4.3h.16a32.14,32.14,0,0,1,29-28.77A10.14,10.14,0,0,1,217,212.88,9.92,9.92,0,0,1,216.78,214.86Z"/><path class="cls-5" d="M231.86,355.14v-3.53a9.1,9.1,0,0,0,.91,0,5.64,5.64,0,0,1,2.85,4.9,5.71,5.71,0,0,1-.36,2A5.72,5.72,0,0,0,231.86,355.14Z"/><path class="cls-5" d="M231.14,240.34a32.19,32.19,0,0,0-14.58-20.59,10.13,10.13,0,0,0,.42-2.88,8.12,8.12,0,0,0,0-.86,32.12,32.12,0,0,1,14.2,20.34,10.13,10.13,0,0,1,7.1,11.73A10.15,10.15,0,0,0,231.14,240.34Z"/><path class="cls-5" d="M246.77,403.44c-1.81-5.95-7.56-10.7-14.91-12.39v-4c8.93,2.06,15.5,8.63,15.5,16.38Z"/><path class="cls-5" d="M256,408.09a16,16,0,0,1,4.57,11.21H260a16,16,0,0,0-4.07-7.22,15.41,15.41,0,0,0-11-4.66h2.41a13.52,13.52,0,0,0-.56-3.87A15.45,15.45,0,0,1,256,408.09Z"/><path class="cls-5" d="M259.7,152.73v-4a4.61,4.61,0,0,1,9.21,0v3.78a5.63,5.63,0,0,1,5.26,5.62,5.71,5.71,0,0,1-.36,2,5.63,5.63,0,0,0-4.9-3.62v-3.78a4.61,4.61,0,0,0-9.21,0Z"/><path class="cls-5" d="M276.52,170a7.77,7.77,0,0,1-.25,2,8.08,8.08,0,0,0-4.42-5.36,5.66,5.66,0,0,0,2-2.66A8.06,8.06,0,0,1,276.52,170Z"/><path class="cls-5" d="M291,306.11v1.7c0,.56,0,1.11,0,1.67a4.6,4.6,0,0,0-9.16.62v1.7a23.41,23.41,0,0,1-23.38,23.38h-15.4a12,12,0,0,0-11.19-7.62v-4a12,12,0,0,1,11.19,7.61h15.4a23.41,23.41,0,0,0,23.38-23.38v-1.7a4.6,4.6,0,1,1,9.2,0Z"/><path class="cls-5" d="M304.79,213.05h13.37v4H304.79a35.92,35.92,0,0,1-35.87-34.9l.33,0A35.93,35.93,0,0,0,304.79,213.05Z"/><path class="cls-5" d="M318.16,241.34v4a34.39,34.39,0,0,1-34.35,34.36H246.53a16,16,0,0,0-14.67-9.57v-4a16,16,0,0,1,14.67,9.57h37.28A34.39,34.39,0,0,0,318.16,241.34Z"/><path class="cls-5" d="M310,109.41v-4a4.6,4.6,0,0,1,9.2,0v4a4.6,4.6,0,0,0-9.2,0Z"/><path class="cls-5" d="M329.93,266.13a5.71,5.71,0,0,1-.36,2,5.65,5.65,0,0,0-3.41-3.32c.5-1.07.95-2.17,1.37-3.28A5.62,5.62,0,0,1,329.93,266.13Z"/><path class="cls-5" d="M324.29,189.82a6.13,6.13,0,0,0-6.13,6.14v-4a6.14,6.14,0,1,1,12.27,0v0a5.64,5.64,0,0,1,5.14,5.62,5.5,5.5,0,0,1-.37,2,5.62,5.62,0,0,0-4.77-3.62v0A6.14,6.14,0,0,0,324.29,189.82Z"/><path class="cls-5" d="M342.57,134h14.09v4H342.57a23.41,23.41,0,0,1-23.39-23.38v-4A23.41,23.41,0,0,0,342.57,134Z"/><path class="cls-5" d="M356.66,213.13v4a23.41,23.41,0,0,1-23.39,23.39h-2.84v-4h2.84A23.41,23.41,0,0,0,356.66,213.13Z"/><path class="cls-5" d="M365.86,126a4.6,4.6,0,0,0-9.2,0v-4a4.6,4.6,0,0,1,9.2,0Z"/><path class="cls-5" d="M371.59,217.38a6.89,6.89,0,0,1-.28,2,7.2,7.2,0,0,0-5.45-5.06v-4A7.21,7.21,0,0,1,371.59,217.38Z"/><path class="cls-5" d="M406.75,161.92a4.77,4.77,0,0,1-.43,2,4.88,4.88,0,0,0-2.56-2.46c.05-.73.08-1.47.08-2.21a4.61,4.61,0,0,0-9.21,0,23.41,23.41,0,0,1-23.38,23.39h-5.39v-4h5.39a23.41,23.41,0,0,0,23.38-23.39,4.61,4.61,0,0,1,9.21,0c0,.75,0,1.48-.08,2.21A4.82,4.82,0,0,1,406.75,161.92Z"/><path class="cls-5" d="M216.94,216l-.38-.24a9.28,9.28,0,0,0,.22-.91A8.84,8.84,0,0,1,216.94,216Z"/></g></g></svg>